<svg width="252" height="293" viewBox="0 0 252 293" fill="none" xmlns="http://www.w3.org/2000/svg">
<g clip-path="url(#clip0_1_391)">
<path d="M238.7 143.23H13.2002V289.56H238.7V143.23Z" fill="#993833"/>
<path d="M227.11 13.3199H24.7798V148.19H227.11V13.3199Z" fill="#993833"/>
<path d="M70.1099 208.91H28.6899V289.56H70.1099V208.91Z" fill="#A03933"/>
<path d="M238.7 273.82H13.2002V274.78H238.7V273.82Z" fill="#7F2220"/>
<path d="M68.75 210.48H30.04V289.53H68.75V210.48Z" fill="white"/>
<path d="M66.6 220.06H31.79V289.55H66.6V220.06Z" fill="#3C2D2A"/>
<path d="M65.05 238.19H33.46V274.97H65.05V238.19Z" fill="#B2CEBD"/>
<path d="M65.05 223.63H33.46V236.64H65.05V223.63Z" fill="#B2CEBD"/>
<path d="M65.3098 225.59H33.3398V226.51H65.3098V225.59Z" fill="#3C2D2A"/>
<path d="M65.3098 229.47H33.3398V230.39H65.3098V229.47Z" fill="#3C2D2A"/>
<path d="M65.3098 233.36H33.3398V234.28H65.3098V233.36Z" fill="#3C2D2A"/>
<path d="M220.39 183.57H92.4302V268.7H220.39V183.57Z" fill="#7F2220"/>
<path d="M27.5 292.86H71.17L68.76 289.52H30.04L27.5 292.86Z" fill="white"/>
<path d="M218.14 185.06H94.6802V267.2H218.14V185.06Z" fill="white"/>
<path d="M215.27 188.46H97.5498V263.81H215.27V188.46Z" fill="#B2CEBD"/>
<path d="M60.6002 24.23C73.9402 24.23 84.7802 35.06 84.7802 48.41V109.36H36.4302V48.41C36.4302 35.07 47.2602 24.23 60.6102 24.23H60.6002Z" fill="#7F2220"/>
<path d="M215.27 248.32H97.5498V263.81H215.27V248.32Z" fill="#A6BCAE"/>
<path d="M238.7 164.09H13.2002V166.01H238.7V164.09Z" fill="#D69096"/>
<path d="M17.39 274.78H16.52V289.52H17.39V274.78Z" fill="#7F2220"/>
<path d="M24.9901 274.78H24.1201V289.52H24.9901V274.78Z" fill="#7F2220"/>
<path d="M78.2299 274.78H77.3599V289.52H78.2299V274.78Z" fill="#7F2220"/>
<path d="M85.83 274.78H84.96V289.52H85.83V274.78Z" fill="#7F2220"/>
<path d="M93.4398 274.78H92.5698V289.52H93.4398V274.78Z" fill="#7F2220"/>
<path d="M70.5399 153.78H69.6699V164.08H70.5399V153.78Z" fill="#A33A38"/>
<path d="M105.92 153.78H105.05V164.08H105.92V153.78Z" fill="#A33A38"/>
<path d="M137.64 153.78H136.77V164.08H137.64V153.78Z" fill="#A33A38"/>
<path d="M166.3 153.78H165.43V164.08H166.3V153.78Z" fill="#A33A38"/>
<path d="M204.1 153.78H203.23V164.08H204.1V153.78Z" fill="#A33A38"/>
<path d="M36.5902 153.78H35.7202V164.08H36.5902V153.78Z" fill="#A33A38"/>
<path d="M101.03 274.78H100.16V289.52H101.03V274.78Z" fill="#7F2220"/>
<path d="M108.65 274.78H107.78V289.52H108.65V274.78Z" fill="#7F2220"/>
<path d="M116.24 274.78H115.37V289.52H116.24V274.78Z" fill="#7F2220"/>
<path d="M123.85 274.78H122.98V289.52H123.85V274.78Z" fill="#7F2220"/>
<path d="M131.45 274.78H130.58V289.52H131.45V274.78Z" fill="#7F2220"/>
<path d="M139.06 274.78H138.19V289.52H139.06V274.78Z" fill="#7F2220"/>
<path d="M146.66 274.78H145.79V289.52H146.66V274.78Z" fill="#7F2220"/>
<path d="M154.27 274.78H153.4V289.52H154.27V274.78Z" fill="#7F2220"/>
<path d="M161.87 274.78H161V289.52H161.87V274.78Z" fill="#7F2220"/>
<path d="M169.48 274.78H168.61V289.52H169.48V274.78Z" fill="#7F2220"/>
<path d="M177.08 274.78H176.21V289.52H177.08V274.78Z" fill="#7F2220"/>
<path d="M184.69 274.78H183.82V289.52H184.69V274.78Z" fill="#7F2220"/>
<path d="M192.28 274.78H191.41V289.52H192.28V274.78Z" fill="#7F2220"/>
<path d="M199.9 274.78H199.03V289.52H199.9V274.78Z" fill="#7F2220"/>
<path d="M207.49 274.78H206.62V289.52H207.49V274.78Z" fill="#7F2220"/>
<path d="M215.1 274.78H214.23V289.52H215.1V274.78Z" fill="#7F2220"/>
<path d="M222.7 274.78H221.83V289.52H222.7V274.78Z" fill="#7F2220"/>
<path d="M230.31 274.78H229.44V289.52H230.31V274.78Z" fill="#7F2220"/>
<path d="M237.91 274.78H237.04V289.52H237.91V274.78Z" fill="#7F2220"/>
<path opacity="0.79" d="M238.7 153.78H13.2002V157.94H238.7V153.78Z" fill="#9B342F"/>
<path d="M68.75 193.28H30.04V204.89H68.75V193.28Z" fill="#7F2220"/>
<path d="M163.16 76.49H89.6699V100.83H163.16V76.49Z" fill="#7F2220"/>
<path d="M27.5698 210.48H71.2298L68.8198 207.14H30.1098L27.5698 210.48Z" fill="#EBDDC1"/>
<path d="M91.21 185.24H220.83L218.42 181.9H93.75L91.21 185.24Z" fill="#EBDDC1"/>
<path d="M44.0698 247.91C44.0698 247.91 48.1198 240.41 49.1998 240.41C50.2798 240.41 54.2898 247.91 54.2898 247.91" stroke="#575756" stroke-width="0.4" stroke-miterlimit="10"/>
<path d="M58.6301 247.91H39.8701V255.5H58.6301V247.91Z" fill="white"/>
<path d="M77.3599 225.38C80.2263 225.38 82.5499 223.056 82.5499 220.19C82.5499 217.324 80.2263 215 77.3599 215C74.4936 215 72.1699 217.324 72.1699 220.19C72.1699 223.056 74.4936 225.38 77.3599 225.38Z" fill="white"/>
<path d="M77.3601 224.47C79.7239 224.47 81.6401 222.554 81.6401 220.19C81.6401 217.826 79.7239 215.91 77.3601 215.91C74.9963 215.91 73.0801 217.826 73.0801 220.19C73.0801 222.554 74.9963 224.47 77.3601 224.47Z" fill="#EED679"/>
<path d="M77.36 222.57C78.6744 222.57 79.74 221.505 79.74 220.19C79.74 218.876 78.6744 217.81 77.36 217.81C76.0455 217.81 74.98 218.876 74.98 220.19C74.98 221.505 76.0455 222.57 77.36 222.57Z" fill="white"/>
<path d="M20.9698 225.38C23.8361 225.38 26.1598 223.056 26.1598 220.19C26.1598 217.324 23.8361 215 20.9698 215C18.1034 215 15.7798 217.324 15.7798 220.19C15.7798 223.056 18.1034 225.38 20.9698 225.38Z" fill="white"/>
<path d="M20.9699 224.47C23.3337 224.47 25.2499 222.554 25.2499 220.19C25.2499 217.826 23.3337 215.91 20.9699 215.91C18.6062 215.91 16.6899 217.826 16.6899 220.19C16.6899 222.554 18.6062 224.47 20.9699 224.47Z" fill="#EED679"/>
<path d="M20.9698 222.57C22.2843 222.57 23.3498 221.505 23.3498 220.19C23.3498 218.876 22.2843 217.81 20.9698 217.81C19.6554 217.81 18.5898 218.876 18.5898 220.19C18.5898 221.505 19.6554 222.57 20.9698 222.57Z" fill="white"/>
<path d="M104.74 110.09C105.955 110.09 106.94 109.105 106.94 107.89C106.94 106.675 105.955 105.69 104.74 105.69C103.525 105.69 102.54 106.675 102.54 107.89C102.54 109.105 103.525 110.09 104.74 110.09Z" fill="white"/>
<path d="M104.74 109.7C105.74 109.7 106.55 108.89 106.55 107.89C106.55 106.89 105.74 106.08 104.74 106.08C103.741 106.08 102.93 106.89 102.93 107.89C102.93 108.89 103.741 109.7 104.74 109.7Z" fill="#EED679"/>
<path d="M116.1 110.09C117.315 110.09 118.3 109.105 118.3 107.89C118.3 106.675 117.315 105.69 116.1 105.69C114.885 105.69 113.9 106.675 113.9 107.89C113.9 109.105 114.885 110.09 116.1 110.09Z" fill="white"/>
<path d="M116.1 109.7C117.1 109.7 117.91 108.89 117.91 107.89C117.91 106.89 117.1 106.08 116.1 106.08C115.1 106.08 114.29 106.89 114.29 107.89C114.29 108.89 115.1 109.7 116.1 109.7Z" fill="#EED679"/>
<path d="M127.45 110.09C128.665 110.09 129.65 109.105 129.65 107.89C129.65 106.675 128.665 105.69 127.45 105.69C126.235 105.69 125.25 106.675 125.25 107.89C125.25 109.105 126.235 110.09 127.45 110.09Z" fill="white"/>
<path d="M127.45 109.7C128.45 109.7 129.26 108.89 129.26 107.89C129.26 106.89 128.45 106.08 127.45 106.08C126.45 106.08 125.64 106.89 125.64 107.89C125.64 108.89 126.45 109.7 127.45 109.7Z" fill="#EED679"/>
<path d="M137.81 110.09C139.025 110.09 140.01 109.105 140.01 107.89C140.01 106.675 139.025 105.69 137.81 105.69C136.595 105.69 135.61 106.675 135.61 107.89C135.61 109.105 136.595 110.09 137.81 110.09Z" fill="white"/>
<path d="M137.81 109.7C138.81 109.7 139.62 108.89 139.62 107.89C139.62 106.89 138.81 106.08 137.81 106.08C136.81 106.08 136 106.89 136 107.89C136 108.89 136.81 109.7 137.81 109.7Z" fill="#EED679"/>
<path d="M149.16 110.09C150.375 110.09 151.36 109.105 151.36 107.89C151.36 106.675 150.375 105.69 149.16 105.69C147.945 105.69 146.96 106.675 146.96 107.89C146.96 109.105 147.945 110.09 149.16 110.09Z" fill="white"/>
<path d="M149.16 109.7C150.16 109.7 150.97 108.89 150.97 107.89C150.97 106.89 150.16 106.08 149.16 106.08C148.16 106.08 147.35 106.89 147.35 107.89C147.35 108.89 148.16 109.7 149.16 109.7Z" fill="#EED679"/>
<path d="M49.2299 250.745C49.2299 252.155 48.9149 253.38 48.2849 254.42C47.5449 255.64 46.5199 256.25 45.2099 256.25C44.8799 256.25 44.4949 256.175 44.0549 256.025C42.3849 255.495 41.5499 253.995 41.5499 251.525C41.5499 250.085 41.8699 248.79 42.5099 247.64C43.2699 246.26 44.3149 245.57 45.6449 245.57C46.8049 245.57 47.7199 246.165 48.3899 247.355C48.9499 248.345 49.2299 249.475 49.2299 250.745ZM48.3899 250.61C48.3899 248.39 47.6499 247.03 46.1699 246.53C46.0099 246.47 45.8699 246.44 45.7499 246.44C45.1099 246.44 44.4799 246.735 43.8599 247.325C42.8099 248.325 42.2849 249.87 42.2849 251.96C42.2849 252.15 42.3249 252.45 42.4049 252.86C42.5749 253.72 42.8549 254.36 43.2449 254.78C43.7049 255.26 44.3499 255.5 45.1799 255.5C46.3199 255.5 47.1699 254.935 47.7299 253.805C48.1699 252.935 48.3899 251.87 48.3899 250.61ZM54.6881 250.07C54.6181 250.12 54.4281 250.17 54.1181 250.22C54.0381 250.23 53.9231 250.24 53.7731 250.25C53.6331 250.26 53.4881 250.27 53.3381 250.28C53.1981 250.29 53.0731 250.3 52.9631 250.31C52.8531 250.31 52.7931 250.315 52.7831 250.325C52.7731 250.375 52.7581 250.58 52.7381 250.94C52.7181 251.29 52.7081 251.895 52.7081 252.755C52.7081 253.185 52.7181 253.545 52.7381 253.835C52.7581 254.115 52.7781 254.37 52.7981 254.6C52.7981 254.65 52.8031 254.72 52.8131 254.81C52.8331 254.9 52.8531 255.005 52.8731 255.125C52.8931 255.245 52.9081 255.35 52.9181 255.44C52.9381 255.53 52.9481 255.61 52.9481 255.68C52.9481 255.76 52.8981 255.84 52.7981 255.92C52.6981 256 52.6081 256.04 52.5281 256.04C52.3281 256.04 52.1681 255.835 52.0481 255.425C52.0081 255.275 51.9681 254.985 51.9281 254.555C51.8981 254.125 51.8831 253.545 51.8831 252.815C51.8831 252.105 51.8931 251.565 51.9131 251.195C51.9331 250.815 51.9481 250.555 51.9581 250.415C51.9381 250.405 51.8531 250.405 51.7031 250.415C51.5631 250.425 51.3981 250.44 51.2081 250.46C51.0181 250.47 50.8281 250.485 50.6381 250.505C50.4481 250.525 50.3031 250.54 50.2031 250.55C49.8831 250.6 49.7231 250.485 49.7231 250.205C49.7231 250.145 49.8181 250.08 50.0081 250.01C50.1981 249.94 50.4281 249.875 50.6981 249.815C50.9781 249.745 51.2781 249.685 51.5981 249.635C51.9181 249.575 52.2081 249.53 52.4681 249.5C52.5881 249.49 52.7281 249.48 52.8881 249.47C53.0581 249.45 53.2331 249.435 53.4131 249.425C53.5931 249.415 53.7731 249.405 53.9531 249.395C54.1431 249.385 54.3131 249.375 54.4631 249.365C54.7431 249.365 54.8831 249.475 54.8831 249.695C54.8831 249.855 54.8181 249.98 54.6881 250.07ZM60.3974 256.19C60.1374 256.39 59.9374 256.49 59.7974 256.49C59.6874 256.49 59.5474 256.425 59.3774 256.295C59.2074 256.175 59.0274 256.02 58.8374 255.83C58.6474 255.63 58.4524 255.42 58.2524 255.2C58.0524 254.97 57.8674 254.755 57.6974 254.555C57.5374 254.345 57.3974 254.165 57.2774 254.015C57.1674 253.865 57.0974 253.775 57.0674 253.745C56.7974 253.465 56.5674 253.265 56.3774 253.145C56.2374 253.145 56.1524 253.23 56.1224 253.4C56.1024 253.57 56.0924 253.745 56.0924 253.925C56.0924 254.135 56.0924 254.34 56.0924 254.54C56.0924 254.73 56.0974 254.88 56.1074 254.99C56.1174 255.08 56.1524 255.21 56.2124 255.38C56.2724 255.54 56.3024 255.665 56.3024 255.755C56.3024 255.815 56.2674 255.87 56.1974 255.92C56.1274 255.98 56.0424 256.01 55.9424 256.01C55.7424 256.01 55.5924 255.945 55.4924 255.815C55.3924 255.685 55.3424 255.445 55.3424 255.095C55.3424 254.485 55.3424 253.96 55.3424 253.52C55.3524 253.07 55.3574 252.68 55.3574 252.35C55.3674 252.02 55.3724 251.74 55.3724 251.51C55.3824 251.27 55.3874 251.065 55.3874 250.895C55.3874 250.785 55.3874 250.695 55.3874 250.625C55.3874 250.555 55.3824 250.49 55.3724 250.43C55.3624 250.37 55.3524 250.31 55.3424 250.25C55.3324 250.19 55.3174 250.115 55.2974 250.025C55.2674 249.895 55.2524 249.78 55.2524 249.68C55.2524 249.58 55.3274 249.48 55.4774 249.38C55.6374 249.28 55.7774 249.23 55.8974 249.23C55.9874 249.23 56.0824 249.26 56.1824 249.32C56.2924 249.37 56.3474 249.435 56.3474 249.515C56.3474 249.545 56.3174 249.67 56.2574 249.89C56.1974 250.1 56.1674 250.43 56.1674 250.88C56.1674 251.19 56.1574 251.445 56.1374 251.645C56.1174 251.845 56.1074 251.97 56.1074 252.02C56.1074 252.07 56.1324 252.095 56.1824 252.095C56.2924 252.015 56.4374 251.905 56.6174 251.765C56.7974 251.615 56.9924 251.445 57.2024 251.255C57.4224 251.055 57.6474 250.84 57.8774 250.61C58.1174 250.38 58.3424 250.145 58.5524 249.905C58.8224 249.595 59.0424 249.375 59.2124 249.245C59.3924 249.105 59.5074 249.035 59.5574 249.035C59.6974 249.035 59.8124 249.085 59.9024 249.185C59.9924 249.285 60.0374 249.415 60.0374 249.575C60.0374 249.655 60.0324 249.71 60.0224 249.74C59.8324 249.87 59.5974 250.05 59.3174 250.28C59.0374 250.5 58.7124 250.77 58.3424 251.09C57.4924 251.84 57.0674 252.335 57.0674 252.575C57.0674 252.625 57.1224 252.73 57.2324 252.89C57.3524 253.04 57.4974 253.22 57.6674 253.43C57.8474 253.63 58.0374 253.84 58.2374 254.06C58.4374 254.28 58.6224 254.485 58.7924 254.675C59.1024 255.025 59.3924 255.31 59.6624 255.53C59.9324 255.75 60.1774 255.915 60.3974 256.025C60.4274 256.045 60.4424 256.075 60.4424 256.115C60.4424 256.135 60.4274 256.16 60.3974 256.19ZM65.4712 252.155C65.4712 253.145 65.3262 253.975 65.0362 254.645C64.6462 255.575 64.0312 256.04 63.1912 256.04C62.6412 256.04 62.1612 255.785 61.7512 255.275C61.6812 255.305 61.6462 255.615 61.6462 256.205C61.6462 257.505 61.7112 258.425 61.8412 258.965C61.8512 259.015 61.8962 259.135 61.9762 259.325C62.0662 259.515 62.1112 259.63 62.1112 259.67C62.1112 259.83 62.0112 259.91 61.8112 259.91C61.5712 259.91 61.4012 259.875 61.3012 259.805C61.2112 259.735 61.1312 259.505 61.0612 259.115C61.0012 258.785 60.9712 258.525 60.9712 258.335V254.525C60.9712 254.175 60.9912 253.705 61.0312 253.115C61.0712 252.425 61.0962 251.955 61.1062 251.705C61.1162 251.435 61.1162 251.085 61.1062 250.655C61.0962 250.105 61.0912 249.75 61.0912 249.59C61.0912 248.9 61.2712 248.555 61.6312 248.555C61.8112 248.555 61.9012 248.62 61.9012 248.75C61.9012 249 61.8812 249.365 61.8412 249.845C61.8012 250.325 61.7812 250.685 61.7812 250.925H61.8412C62.0712 250.615 62.3012 250.3 62.5312 249.98C62.8012 249.63 63.1362 249.455 63.5362 249.455C64.2062 249.455 64.7112 249.755 65.0512 250.355C65.3312 250.835 65.4712 251.435 65.4712 252.155ZM64.7362 252.215C64.7362 251.685 64.6812 251.23 64.5712 250.85C64.4012 250.29 64.1262 250.01 63.7462 250.01C63.4662 250.01 63.1262 250.255 62.7262 250.745C62.3762 251.175 62.1312 251.615 61.9912 252.065C61.8812 252.405 61.7912 252.905 61.7212 253.565C61.6712 254.045 61.6462 254.275 61.6462 254.255C61.6462 254.285 61.6912 254.335 61.7812 254.405C61.8412 254.445 61.9012 254.49 61.9612 254.54C62.1212 254.77 62.2812 255.005 62.4412 255.245C62.6112 255.475 62.8612 255.59 63.1912 255.59C63.7412 255.59 64.1562 255.14 64.4362 254.24C64.6362 253.6 64.7362 252.925 64.7362 252.215ZM67.4512 250.07C67.3812 250.44 67.3062 250.815 67.2262 251.195C67.1462 251.565 67.1062 251.96 67.1062 252.38C67.1062 252.45 67.1462 252.485 67.2262 252.485C67.2962 252.485 67.3862 252.485 67.4962 252.485C67.6162 252.475 67.7812 252.47 67.9912 252.47C68.4312 252.47 68.8162 252.505 69.1462 252.575C69.4862 252.645 69.8312 252.78 70.1812 252.98C70.5012 253.16 70.7162 253.325 70.8262 253.475C70.9462 253.615 71.0062 253.825 71.0062 254.105C71.0062 254.395 70.9262 254.65 70.7662 254.87C70.6062 255.09 70.4012 255.275 70.1512 255.425C69.9012 255.575 69.6312 255.69 69.3412 255.77C69.0512 255.84 68.7712 255.875 68.5012 255.875C68.3512 255.875 68.1462 255.86 67.8862 255.83C67.6362 255.81 67.3962 255.775 67.1662 255.725C67.1462 255.725 67.1312 255.745 67.1212 255.785C67.1212 255.815 67.1062 255.85 67.0762 255.89C67.0562 255.93 67.0212 255.965 66.9712 255.995C66.9312 256.035 66.8612 256.055 66.7612 256.055C66.6712 256.055 66.6012 256.02 66.5512 255.95C66.5112 255.89 66.4762 255.82 66.4462 255.74C66.4262 255.66 66.4112 255.59 66.4012 255.53C66.3912 255.46 66.3712 255.42 66.3412 255.41C66.1612 255.34 66.0712 255.245 66.0712 255.125C66.0712 255.025 66.0962 254.96 66.1462 254.93C66.2062 254.9 66.2762 254.88 66.3562 254.87V254.195C66.3562 254.035 66.3562 253.875 66.3562 253.715C66.3562 253.545 66.3662 253.37 66.3862 253.19C66.3862 253.1 66.3512 253.035 66.2812 252.995C66.2112 252.955 66.1762 252.895 66.1762 252.815C66.1762 252.725 66.2062 252.655 66.2662 252.605C66.3262 252.555 66.3562 252.495 66.3562 252.425C66.4062 251.815 66.4512 251.26 66.4912 250.76C66.5412 250.26 66.5962 249.845 66.6562 249.515C66.6862 249.295 66.8462 249.185 67.1362 249.185C67.2762 249.185 67.3862 249.225 67.4662 249.305C67.5462 249.375 67.5862 249.47 67.5862 249.59C67.5862 249.73 67.5412 249.89 67.4512 250.07ZM70.2862 254.03C70.2862 253.91 70.2462 253.79 70.1662 253.67C70.0862 253.54 69.9512 253.43 69.7612 253.34C69.5812 253.24 69.3362 253.16 69.0262 253.1C68.7262 253.04 68.3512 253.01 67.9012 253.01C67.7412 253.01 67.5962 253.015 67.4662 253.025C67.3462 253.025 67.2462 253.03 67.1662 253.04C67.1362 253.04 67.1112 253.08 67.0912 253.16C67.0712 253.23 67.0562 253.315 67.0462 253.415C67.0462 253.515 67.0412 253.62 67.0312 253.73C67.0312 253.83 67.0312 253.915 67.0312 253.985C67.0312 254.345 67.0462 254.71 67.0762 255.08C67.2262 255.16 67.4362 255.225 67.7062 255.275C67.9862 255.315 68.2462 255.335 68.4862 255.335C68.6962 255.335 68.9062 255.3 69.1162 255.23C69.3362 255.16 69.5312 255.065 69.7012 254.945C69.8812 254.825 70.0212 254.685 70.1212 254.525C70.2312 254.365 70.2862 254.2 70.2862 254.03ZM72.8512 249.965C72.8512 250.145 72.8112 250.415 72.7312 250.775C72.6512 251.135 72.6112 251.405 72.6112 251.585V254.9C72.6112 255.12 72.6562 255.42 72.7462 255.8C72.7062 255.88 72.6512 255.92 72.5812 255.92C72.0912 255.92 71.8462 255.685 71.8462 255.215V249.71C71.9762 249.64 72.1012 249.605 72.2212 249.605C72.3412 249.605 72.4662 249.64 72.5962 249.71C72.7662 249.78 72.8512 249.865 72.8512 249.965ZM78.4303 250.07C78.3603 250.12 78.1703 250.17 77.8603 250.22C77.7803 250.23 77.6653 250.24 77.5153 250.25C77.3753 250.26 77.2303 250.27 77.0803 250.28C76.9403 250.29 76.8153 250.3 76.7053 250.31C76.5953 250.31 76.5353 250.315 76.5253 250.325C76.5153 250.375 76.5003 250.58 76.4803 250.94C76.4603 251.29 76.4503 251.895 76.4503 252.755C76.4503 253.185 76.4603 253.545 76.4803 253.835C76.5003 254.115 76.5203 254.37 76.5403 254.6C76.5403 254.65 76.5453 254.72 76.5553 254.81C76.5753 254.9 76.5953 255.005 76.6153 255.125C76.6353 255.245 76.6503 255.35 76.6603 255.44C76.6803 255.53 76.6903 255.61 76.6903 255.68C76.6903 255.76 76.6403 255.84 76.5403 255.92C76.4403 256 76.3503 256.04 76.2703 256.04C76.0703 256.04 75.9103 255.835 75.7903 255.425C75.7503 255.275 75.7103 254.985 75.6703 254.555C75.6403 254.125 75.6253 253.545 75.6253 252.815C75.6253 252.105 75.6353 251.565 75.6553 251.195C75.6753 250.815 75.6903 250.555 75.7003 250.415C75.6803 250.405 75.5953 250.405 75.4453 250.415C75.3053 250.425 75.1403 250.44 74.9503 250.46C74.7603 250.47 74.5703 250.485 74.3803 250.505C74.1903 250.525 74.0453 250.54 73.9453 250.55C73.6253 250.6 73.4653 250.485 73.4653 250.205C73.4653 250.145 73.5603 250.08 73.7503 250.01C73.9403 249.94 74.1703 249.875 74.4403 249.815C74.7203 249.745 75.0203 249.685 75.3403 249.635C75.6603 249.575 75.9503 249.53 76.2103 249.5C76.3303 249.49 76.4703 249.48 76.6303 249.47C76.8003 249.45 76.9753 249.435 77.1553 249.425C77.3353 249.415 77.5153 249.405 77.6953 249.395C77.8853 249.385 78.0553 249.375 78.2053 249.365C78.4853 249.365 78.6253 249.475 78.6253 249.695C78.6253 249.855 78.5603 249.98 78.4303 250.07ZM83.7496 252.875C83.7496 253.735 83.5596 254.485 83.1796 255.125C82.7296 255.895 82.1046 256.28 81.3046 256.28C80.4946 256.28 79.8896 255.965 79.4896 255.335C79.1596 254.815 78.9946 254.125 78.9946 253.265C78.9946 252.415 79.1846 251.58 79.5646 250.76C80.0446 249.75 80.6546 249.245 81.3946 249.245C81.5846 249.245 81.8546 249.355 82.2046 249.575C83.2346 250.215 83.7496 251.315 83.7496 252.875ZM83.0296 252.86C83.0296 252.22 82.9446 251.645 82.7746 251.135C82.5246 250.425 82.1396 250.07 81.6196 250.07C81.0196 250.07 80.5496 250.465 80.2096 251.255C79.9496 251.865 79.8196 252.52 79.8196 253.22C79.8196 253.85 79.9096 254.38 80.0896 254.81C80.3496 255.4 80.7546 255.695 81.3046 255.695C81.9046 255.695 82.3596 255.355 82.6696 254.675C82.9096 254.145 83.0296 253.54 83.0296 252.86Z" fill="black"/>
<path d="M238.7 154.12H13.2002V161.6H238.7V154.12Z" fill="#EBDDC1"/>
<path d="M248 142.16H3.89014V154.64H248V142.16Z" fill="#9E9078"/>
<path d="M227.12 126.6H24.4399V128.93H227.12V126.6Z" fill="#9E9078"/>
<path d="M227.29 128.93H24.6099V139.08H227.29V128.93Z" fill="#8E806B"/>
<path d="M42.12 154.12H11.5V158.77H42.12V154.12Z" fill="#9E9078"/>
<path d="M45.8402 120.37H15.2202V125.02H45.8402V120.37Z" fill="#9E9078"/>
<path d="M240.05 153.98H209.43V158.63H240.05V153.98Z" fill="#9E9078"/>
<path d="M236.33 120.37H205.71V125.02H236.33V120.37Z" fill="#9E9078"/>
<path d="M42.1202 161.43H18.9502V168.75H42.1202V161.43Z" fill="#EBDDC1"/>
<path d="M42.1202 125.02H18.9502V142.16H42.1202V125.02Z" fill="#EBDDC1"/>
<path d="M232.6 125.02H209.43V142.16H232.6V125.02Z" fill="#EBDDC1"/>
<path d="M232.6 161.43H209.43V168.75H232.6V161.43Z" fill="#EBDDC1"/>
<path d="M209.44 139.08H42.1201V142.16H209.44V139.08Z" fill="#EBDDC1"/>
<path d="M49.9801 128.93H46.6401V139.08H49.9801V128.93Z" fill="#EBDDC1"/>
<path d="M58.13 128.93H54.79V139.08H58.13V128.93Z" fill="#EBDDC1"/>
<path d="M66.2902 128.93H62.9502V139.08H66.2902V128.93Z" fill="#EBDDC1"/>
<path d="M74.4499 128.93H71.1099V139.08H74.4499V128.93Z" fill="#EBDDC1"/>
<path d="M82.61 128.93H79.27V139.08H82.61V128.93Z" fill="#EBDDC1"/>
<path d="M90.7702 128.93H87.4302V139.08H90.7702V128.93Z" fill="#EBDDC1"/>
<path d="M98.9201 128.93H95.5801V139.08H98.9201V128.93Z" fill="#EBDDC1"/>
<path d="M107.08 128.93H103.74V139.08H107.08V128.93Z" fill="#EBDDC1"/>
<path d="M115.24 128.93H111.9V139.08H115.24V128.93Z" fill="#EBDDC1"/>
<path d="M123.4 128.93H120.06V139.08H123.4V128.93Z" fill="#EBDDC1"/>
<path d="M131.55 128.93H128.21V139.08H131.55V128.93Z" fill="#EBDDC1"/>
<path d="M139.71 128.93H136.37V139.08H139.71V128.93Z" fill="#EBDDC1"/>
<path d="M147.87 128.93H144.53V139.08H147.87V128.93Z" fill="#EBDDC1"/>
<path d="M156.03 128.93H152.69V139.08H156.03V128.93Z" fill="#EBDDC1"/>
<path d="M164.18 128.93H160.84V139.08H164.18V128.93Z" fill="#EBDDC1"/>
<path d="M172.34 128.93H169V139.08H172.34V128.93Z" fill="#EBDDC1"/>
<path d="M180.5 128.93H177.16V139.08H180.5V128.93Z" fill="#EBDDC1"/>
<path d="M188.66 128.93H185.32V139.08H188.66V128.93Z" fill="#EBDDC1"/>
<path d="M196.82 128.93H193.48V139.08H196.82V128.93Z" fill="#EBDDC1"/>
<path d="M204.97 128.93H201.63V139.08H204.97V128.93Z" fill="#EBDDC1"/>
<path d="M42.1202 130.44H18.9502V132.12H42.1202V130.44Z" fill="#8E806B"/>
<path d="M232.6 129.6H209.43V131.28H232.6V129.6Z" fill="#8E806B"/>
<path d="M221.83 3.78003H29.7402V5.19003H221.83V3.78003Z" fill="#9E9078"/>
<path d="M222 5.19995H29.9102V11.36H222V5.19995Z" fill="#8E806B"/>
<path d="M50.0298 0H21.0098V2.82H50.0298V0Z" fill="#9E9078"/>
<path d="M230.57 0H201.55V2.82H230.57V0Z" fill="#9E9078"/>
<path d="M46.5 2.81995H24.54V13.2199H46.5V2.81995Z" fill="#EBDDC1"/>
<path d="M227.04 2.81995H205.08V13.2199H227.04V2.81995Z" fill="#EBDDC1"/>
<path d="M205.07 11.36H46.5V13.23H205.07V11.36Z" fill="#EBDDC1"/>
<path d="M53.95 5.19995H50.79V11.36H53.95V5.19995Z" fill="#EBDDC1"/>
<path d="M61.68 5.19995H58.52V11.36H61.68V5.19995Z" fill="#EBDDC1"/>
<path d="M69.41 5.19995H66.25V11.36H69.41V5.19995Z" fill="#EBDDC1"/>
<path d="M77.14 5.19995H73.98V11.36H77.14V5.19995Z" fill="#EBDDC1"/>
<path d="M84.87 5.19995H81.71V11.36H84.87V5.19995Z" fill="#EBDDC1"/>
<path d="M92.5999 5.19995H89.4399V11.36H92.5999V5.19995Z" fill="#EBDDC1"/>
<path d="M100.33 5.19995H97.1699V11.36H100.33V5.19995Z" fill="#EBDDC1"/>
<path d="M108.07 5.19995H104.91V11.36H108.07V5.19995Z" fill="#EBDDC1"/>
<path d="M115.8 5.19995H112.64V11.36H115.8V5.19995Z" fill="#EBDDC1"/>
<path d="M123.53 5.19995H120.37V11.36H123.53V5.19995Z" fill="#EBDDC1"/>
<path d="M131.26 5.19995H128.1V11.36H131.26V5.19995Z" fill="#EBDDC1"/>
<path d="M138.99 5.19995H135.83V11.36H138.99V5.19995Z" fill="#EBDDC1"/>
<path d="M146.72 5.19995H143.56V11.36H146.72V5.19995Z" fill="#EBDDC1"/>
<path d="M154.45 5.19995H151.29V11.36H154.45V5.19995Z" fill="#EBDDC1"/>
<path d="M162.19 5.19995H159.03V11.36H162.19V5.19995Z" fill="#EBDDC1"/>
<path d="M169.92 5.19995H166.76V11.36H169.92V5.19995Z" fill="#EBDDC1"/>
<path d="M177.65 5.19995H174.49V11.36H177.65V5.19995Z" fill="#EBDDC1"/>
<path d="M185.38 5.19995H182.22V11.36H185.38V5.19995Z" fill="#EBDDC1"/>
<path d="M193.11 5.19995H189.95V11.36H193.11V5.19995Z" fill="#EBDDC1"/>
<path d="M200.84 5.19995H197.68V11.36H200.84V5.19995Z" fill="#EBDDC1"/>
<path d="M46.5 6.10999H24.54V7.12999H46.5V6.10999Z" fill="#8E806B"/>
<path d="M227.04 5.59998H205.08V6.61998H227.04V5.59998Z" fill="#8E806B"/>
<path d="M248 145.97H3.89014V148.21H248V145.97Z" fill="#8E806B"/>
<path d="M0 148.19L3.89 145.97V148.22L0 148.19Z" fill="#8E806B"/>
<path d="M251.85 148.19L247.95 145.97V148.22L251.85 148.19Z" fill="#8E806B"/>
<path d="M60.5998 27.5699C72.8998 27.5699 82.8798 37.5499 82.8798 49.8499V106.02H38.3198V49.8499C38.3198 37.5499 48.2998 27.5699 60.5998 27.5699Z" fill="white"/>
<path d="M60.6 30.1899C71.42 30.1899 80.2 38.9699 80.2 49.7899V103.3H41V49.7899C41 38.9699 49.78 30.1899 60.6 30.1899Z" fill="#B2CEBD"/>
<path d="M65.0099 64.7499C65.0099 64.7499 65.6699 56.3699 66.3299 55.7099C66.9899 55.0499 70.5199 54.6099 70.5199 54.6099V49.7599C68.0899 48.2199 62.7999 46.0099 62.7999 46.0099V41.8199H58.3899V46.0099C58.3899 46.0099 53.0999 48.2199 50.6699 49.7599V54.6099C50.6699 54.6099 54.1999 55.0499 54.8599 55.7099C55.5199 56.3699 56.1799 64.7499 56.1799 64.7499C56.1799 64.7499 46.4699 70.3899 55.3399 94.3999H66.8399C74.6299 69.3199 64.9999 64.7499 64.9999 64.7499H65.0099Z" fill="white"/>
<path d="M60.6001 82.39V103.57" stroke="#3C2D2B" stroke-width="0.86" stroke-miterlimit="10"/>
<path d="M56.1899 64.75C56.1899 64.75 46.4799 70.39 55.3499 94.4H66.8499C74.6399 69.32 65.0099 64.75 65.0099 64.75C65.0099 64.75 65.0799 63.86 65.1999 62.63H55.9999C56.1199 63.85 56.1899 64.75 56.1899 64.75Z" fill="#1D1D1B"/>
<path d="M58.3998 46C58.3998 46 60.6798 47.29 62.8098 46C62.8098 46 67.9498 48.26 69.2398 49L69.4698 54.76C69.4698 54.76 67.0698 55.09 66.3398 55.7L65.0198 64.74C65.0198 64.74 61.8498 66.08 56.1998 64.74C56.1998 64.74 55.5198 57.26 54.8798 55.7C54.8798 55.7 53.5198 55 51.7798 54.76V49.1C51.7798 49.1 56.9398 46.44 58.3998 45.99V46Z" fill="#E0869B"/>
<path d="M58.3998 46C58.3998 46 58.0798 49.35 60.4398 46.75C60.4398 46.75 63.4598 49.35 62.8098 46C62.8098 46 60.0198 46.63 58.3998 46Z" fill="#1D1D1B"/>
<path d="M47.6299 33.64C47.6299 33.64 60.2899 36.08 60.2899 48.98V103.29" stroke="white" stroke-miterlimit="10"/>
<path d="M73.2601 33.64C73.2601 33.64 60.6001 36.08 60.6001 48.98C60.6001 60.4 60.6001 104.12 60.6001 104.12" stroke="white" stroke-miterlimit="10"/>
<path d="M40.5 57.0699H80.2" stroke="white" stroke-miterlimit="10"/>
<path d="M40.3999 72.6899H80.0999" stroke="white" stroke-miterlimit="10"/>
<path d="M40.75 87.15H80.45" stroke="white" stroke-miterlimit="10"/>
<path d="M33.77 111.7H87.43L85.02 109.36H36.31L33.77 111.7Z" fill="#EBDDC1"/>
<path d="M192.22 23.01C205.56 23.01 216.4 33.84 216.4 47.19V108.14H168.05V47.19C168.05 33.85 178.88 23.01 192.23 23.01H192.22Z" fill="#7F2220"/>
<path d="M192.22 26.34C204.52 26.34 214.5 36.32 214.5 48.62V104.79H169.94V48.62C169.94 36.32 179.92 26.34 192.22 26.34Z" fill="white"/>
<path d="M192.22 28.96C203.04 28.96 211.82 37.74 211.82 48.56V102.07H172.62V48.56C172.62 37.74 181.4 28.96 192.22 28.96Z" fill="#B2CEBD"/>
<path d="M179.25 32.41C179.25 32.41 191.91 34.85 191.91 47.75V102.06" stroke="white" stroke-miterlimit="10"/>
<path d="M196.63 63.52C196.63 63.52 197.29 55.14 197.95 54.48C198.61 53.82 202.14 53.38 202.14 53.38V48.53C199.71 46.99 194.42 44.78 194.42 44.78V40.59H190.01V44.78C190.01 44.78 184.72 46.99 182.29 48.53V53.38C182.29 53.38 185.82 53.82 186.48 54.48C187.14 55.14 187.8 63.52 187.8 63.52C187.8 63.52 186.64 67.87 187.96 73.17H196.46C198.28 67.75 196.62 63.52 196.62 63.52H196.63Z" fill="white"/>
<path d="M192.22 69.09V102.34" stroke="#3C2D2B" stroke-width="0.86" stroke-miterlimit="10"/>
<path d="M190.01 44.77C190.01 44.77 192.29 46.06 194.42 44.77C194.42 44.77 199.56 47.03 200.85 47.77L201.08 53.53C201.08 53.53 198.68 53.86 197.95 54.47L196.63 63.51C196.63 63.51 193.46 64.85 187.81 63.51C187.81 63.51 187.13 56.03 186.49 54.47C186.49 54.47 185.13 53.77 183.39 53.53V47.87C183.39 47.87 188.55 45.21 190.01 44.76V44.77Z" fill="#D6CED0"/>
<path d="M187.81 63.52C187.81 63.52 192.8 64.88 196.63 63.52C196.63 63.52 202.85 70.16 196.63 95.91H193.6C193.6 95.91 192.89 73.24 192.22 73.13C191.55 73.02 191 95.91 191 95.91H187.81C187.81 95.91 181.65 76.15 187.81 63.52Z" fill="#4A5B84"/>
<path d="M204.88 32.41C204.88 32.41 192.22 34.85 192.22 47.75C192.22 59.17 192.22 102.89 192.22 102.89" stroke="white" stroke-miterlimit="10"/>
<path d="M172.12 55.85H211.82" stroke="white" stroke-miterlimit="10"/>
<path d="M172.02 71.46H211.72" stroke="white" stroke-miterlimit="10"/>
<path d="M172.37 85.92H212.07" stroke="white" stroke-miterlimit="10"/>
<path d="M165.39 110.47H219.05L216.64 108.13H167.93L165.39 110.47Z" fill="#EBDDC1"/>
<path d="M126.41 23.01C146.48 23.01 162.78 39.31 162.78 59.38V72.55H90.04V59.38C90.04 39.31 106.34 23.01 126.41 23.01Z" fill="#7F2220"/>
<path d="M126.41 25.5601C144.41 25.5601 159.03 40.1701 159.03 58.1801V69.9901H93.7998V58.1801C93.7998 40.1801 108.41 25.5601 126.42 25.5601H126.41Z" fill="white"/>
<path d="M126.41 27.5699C142.78 27.5699 156.08 40.8599 156.08 57.2399V67.9899H96.75V57.2399C96.75 40.8699 110.04 27.5699 126.42 27.5699H126.41Z" fill="#B2CEBD"/>
<path d="M140.99 216.04C140.99 216.04 141.48 206.92 142.09 206.3C142.71 205.68 145.07 202.88 145.07 202.88L145.37 200.98C143.11 199.54 138.8 197.27 138.8 197.27V193.37H134.7V197.27C134.7 197.27 130.68 199.54 128.42 200.98L127.52 205.28C127.52 205.28 130.8 205.69 131.42 206.31C132.04 206.93 132.56 216.05 132.56 216.05H140.99V216.04Z" fill="white"/>
<path d="M137.14 257.38C141.326 257.38 144.72 257.013 144.72 256.56C144.72 256.107 141.326 255.74 137.14 255.74C132.954 255.74 129.56 256.107 129.56 256.56C129.56 257.013 132.954 257.38 137.14 257.38Z" fill="#3C2D2B"/>
<path d="M137.2 224.19V255.85" stroke="#3C2D2B" stroke-width="0.8" stroke-miterlimit="10"/>
<path d="M131.06 220.71C131.06 220.71 137.9 222.07 142.45 220.71C142.45 220.71 143.46 226.15 143.64 253.1H138.85C138.85 253.1 138.02 226.26 137.22 226.15C136.42 226.04 135.75 253.1 135.75 253.1H131.96C131.96 253.1 129.79 236.9 131.06 220.71Z" fill="#6A7CA0"/>
<path d="M133.71 197.74C133.71 197.74 136.4 200.03 139.91 197.81C139.91 197.81 144.79 199.64 146.72 200.92C148.65 202.2 149 224.19 149 224.19H145.38C145.38 224.19 143.29 205.58 143.14 206.59C142.87 208.45 143.14 215.14 142.69 222.17L130.96 221.98C130.96 221.98 131.42 207.75 131.03 206.91C130.64 206.07 129.29 221.67 128.85 224.2H125.62C125.62 224.2 124.74 210.64 126.46 202.18C126.62 201.37 127.17 200.68 127.94 200.27C129.54 199.42 132.32 198.01 133.71 197.75V197.74Z" fill="#67677A"/>
<path d="M136.83 201.83V220.71" stroke="#4D4D60" stroke-width="0.25" stroke-linecap="round" stroke-linejoin="round"/>
<path d="M134.7 195.91C134.7 195.91 137.72 196.17 138.8 195.82V197.26L139.91 197.8L140.53 198.58L136.99 199.57L133.42 197.79L134.7 197.26V195.9V195.91Z" fill="#67677A"/>
<path d="M134.81 197.76L134.03 199.21L136.78 197.76V196.2" stroke="#4D4D60" stroke-width="0.25" stroke-linecap="round" stroke-linejoin="round"/>
<path d="M136.78 197.76L139.13 199.21L138.68 197.74" stroke="#4D4D60" stroke-width="0.25" stroke-linecap="round" stroke-linejoin="round"/>
<path d="M137.43 202.82C137.551 202.82 137.65 202.722 137.65 202.6C137.65 202.479 137.551 202.38 137.43 202.38C137.308 202.38 137.21 202.479 137.21 202.6C137.21 202.722 137.308 202.82 137.43 202.82Z" fill="#4D4D60"/>
<path d="M136.98 198.7C137.101 198.7 137.2 198.602 137.2 198.48C137.2 198.359 137.101 198.26 136.98 198.26C136.858 198.26 136.76 198.359 136.76 198.48C136.76 198.602 136.858 198.7 136.98 198.7Z" fill="#4D4D60"/>
<path d="M137.43 205.57C137.551 205.57 137.65 205.472 137.65 205.35C137.65 205.229 137.551 205.13 137.43 205.13C137.308 205.13 137.21 205.229 137.21 205.35C137.21 205.472 137.308 205.57 137.43 205.57Z" fill="#4D4D60"/>
<path d="M137.43 209.24C137.551 209.24 137.65 209.142 137.65 209.02C137.65 208.899 137.551 208.8 137.43 208.8C137.308 208.8 137.21 208.899 137.21 209.02C137.21 209.142 137.308 209.24 137.43 209.24Z" fill="#4D4D60"/>
<path d="M137.43 212.92C137.551 212.92 137.65 212.821 137.65 212.7C137.65 212.578 137.551 212.48 137.43 212.48C137.308 212.48 137.21 212.578 137.21 212.7C137.21 212.821 137.308 212.92 137.43 212.92Z" fill="#4D4D60"/>
<path d="M137.43 216.6C137.551 216.6 137.65 216.502 137.65 216.38C137.65 216.259 137.551 216.16 137.43 216.16C137.308 216.16 137.21 216.259 137.21 216.38C137.21 216.502 137.308 216.6 137.43 216.6Z" fill="#4D4D60"/>
<path d="M137.43 220.27C137.551 220.27 137.65 220.171 137.65 220.05C137.65 219.928 137.551 219.83 137.43 219.83C137.308 219.83 137.21 219.928 137.21 220.05C137.21 220.171 137.308 220.27 137.43 220.27Z" fill="#4D4D60"/>
<path d="M181.35 218.72C181.35 218.72 181.97 210.92 182.58 210.31C183.2 209.69 186.48 209.28 186.48 209.28V204.76C184.22 203.32 179.3 201.27 179.3 201.27V197.37H175.2V201.27C175.2 201.27 170.27 203.32 168.02 204.76V209.28C168.02 209.28 171.3 209.69 171.92 210.31C172.54 210.93 173.15 218.72 173.15 218.72C173.15 218.72 167.2 225.08 166.79 235.14H187.72C187.31 225.08 181.36 218.72 181.36 218.72H181.35Z" fill="white"/>
<path d="M177.24 255.65C181.426 255.65 184.82 255.283 184.82 254.83C184.82 254.377 181.426 254.01 177.24 254.01C173.054 254.01 169.66 254.377 169.66 254.83C169.66 255.283 173.054 255.65 177.24 255.65Z" fill="#3C2D2B"/>
<path d="M177.24 235.13V254.83" stroke="#3C2D2B" stroke-width="0.8" stroke-miterlimit="10"/>
<path d="M175.19 201.27C175.19 201.27 177.31 202.47 179.29 201.27C179.29 201.27 184.07 203.37 185.27 204.06L185.48 209.42C185.48 209.42 183.25 209.73 182.57 210.3L181.34 218.71C181.34 218.71 178.39 219.96 173.13 218.71C173.13 218.71 172.5 211.75 171.9 210.3C171.9 210.3 170.64 209.65 169.02 209.43V204.16C169.02 204.16 173.82 201.69 175.18 201.27H175.19Z" fill="#87D3E8"/>
<path d="M166.79 252.23H187.72C187.72 252.23 191.47 229.38 181.34 218.72C181.34 218.72 178.14 219.94 173.13 218.72C173.13 218.72 162.91 228.13 166.78 252.23H166.79Z" fill="#87D3E8"/>
<path d="M175.17 201.27C175.17 201.27 174.85 204.62 177.21 202.02C177.21 202.02 179.95 204.62 179.29 201.27C179.29 201.27 177.34 202.38 175.16 201.27H175.17Z" fill="#1D1D1B"/>
<path d="M173.07 217.96C173.07 217.96 177.3 219.34 181.46 217.96L181.35 218.71C181.35 218.71 178.51 220.14 173.14 218.71L173.07 217.96Z" fill="#1D1D1B"/>
<path d="M178.03 218.36H176.5V219.53H178.03V218.36Z" fill="white"/>
<path d="M177.86 218.56H176.63V219.35H177.86V218.56Z" fill="#1D1D1B"/>
<path d="M126.05 50.84H127.16C133.17 50.84 138.04 55.72 138.04 61.72V67.98H115.17V61.72C115.17 55.71 120.05 50.84 126.05 50.84Z" fill="#E0869B"/>
<path d="M126.33 46.28H126.88C129.88 46.28 132.31 48.71 132.31 51.71V54.83H120.9V51.71C120.9 48.71 123.33 46.28 126.33 46.28Z" stroke="#E0869B" stroke-width="0.72" stroke-miterlimit="10"/>
<path d="M118.77 54.35L126.61 57.7L133.46 54.35" stroke="#C16C82" stroke-width="0.72" stroke-linecap="round" stroke-linejoin="round"/>
<path d="M126.61 59.41C127.554 59.41 128.32 58.6444 128.32 57.7C128.32 56.7556 127.554 55.99 126.61 55.99C125.665 55.99 124.9 56.7556 124.9 57.7C124.9 58.6444 125.665 59.41 126.61 59.41Z" fill="#F2E48F"/>
<path d="M109.37 32.13C109.37 32.13 126.41 33.49 126.41 47.78V68.47" stroke="white" stroke-miterlimit="10"/>
<path d="M143.45 32.13C143.45 32.13 126.41 33.49 126.41 47.78V68.47" stroke="white" stroke-miterlimit="10"/>
<path d="M98.75 44.77H154.46" stroke="white" stroke-miterlimit="10"/>
<g style="mix-blend-mode:soft-light" opacity="0.35">
<path d="M110.83 264.19L133.12 188.84H177.2L201.21 264.19H110.83Z" fill="#F9F4D2"/>
</g>
<path d="M159.03 79.72H93.7998V97.68H159.03V79.72Z" stroke="#EBDDC1" stroke-miterlimit="10"/>
</g>
<defs>
<clipPath id="clip0_1_391">
<rect width="251.85" height="292.86" fill="white"/>
</clipPath>
</defs>
</svg>
