<svg width="246" height="150" viewBox="0 0 246 150" fill="none" xmlns="http://www.w3.org/2000/svg">
<g clip-path="url(#clip0_1_315)">
<path d="M237.55 12.7302H12.0498V146.55H237.55V12.7302Z" fill="#993833"/>
<path d="M68.96 65.9003H27.54V146.55H68.96V65.9003Z" fill="#7F2220"/>
<path d="M237.55 130.82H12.0498V131.78H237.55V130.82Z" fill="#7F2220"/>
<path d="M67.6099 67.4702H28.8999V146.52H67.6099V67.4702Z" fill="white"/>
<path d="M0 20.7803H245.59L237.55 0.530273H12.05L0 20.7803Z" fill="#EBDDC1"/>
<path d="M65.4501 77.0603H30.6401V146.55H65.4501V77.0603Z" fill="#3C2D2A"/>
<path d="M63.9098 95.1903H32.3198V131.97H63.9098V95.1903Z" fill="#B2CEBD"/>
<path d="M63.9098 80.6202H32.3198V93.6302H63.9098V80.6202Z" fill="#B2CEBD"/>
<path d="M64.1599 82.5803H32.1899V83.5003H64.1599V82.5803Z" fill="#3C2D2A"/>
<path d="M64.1599 86.4702H32.1899V87.3902H64.1599V86.4702Z" fill="#3C2D2A"/>
<path d="M64.1599 90.3602H32.1899V91.2802H64.1599V90.3602Z" fill="#3C2D2A"/>
<path d="M219.38 42.2502H91.4199V127.38H219.38V42.2502Z" fill="#7F2220"/>
<path d="M26.3501 149.86H70.0201L67.6101 146.52H28.9001L26.3501 149.86Z" fill="white"/>
<path d="M217.13 43.7402H93.6699V125.88H217.13V43.7402Z" fill="white"/>
<path d="M214.26 47.1403H96.54V122.49H214.26V47.1403Z" fill="#B2CEBD"/>
<path d="M214.26 106.99H96.54V122.48H214.26V106.99Z" fill="#A6BCAE"/>
<path d="M179.29 79.6503C179.29 79.6503 179.91 71.8503 180.52 71.2403C181.14 70.6203 184.42 70.2103 184.42 70.2103V65.6903C182.16 64.2503 177.24 62.2003 177.24 62.2003V58.3003H173.14V62.2003C173.14 62.2003 168.21 64.2503 165.96 65.6903V70.2103C165.96 70.2103 169.24 70.6203 169.86 71.2403C170.48 71.8603 171.09 79.6503 171.09 79.6503C171.09 79.6503 165.14 86.0103 164.73 96.0703H185.66C185.25 86.0103 179.3 79.6503 179.3 79.6503H179.29Z" fill="white"/>
<path d="M175.19 116.59C179.376 116.59 182.77 116.223 182.77 115.77C182.77 115.317 179.376 114.95 175.19 114.95C171.004 114.95 167.61 115.317 167.61 115.77C167.61 116.223 171.004 116.59 175.19 116.59Z" fill="#3C2D2B"/>
<path d="M175.19 96.0703V115.77" stroke="#3C2D2B" stroke-width="0.8" stroke-miterlimit="10"/>
<path d="M173.14 62.2003C173.14 62.2003 175.26 63.4003 177.24 62.2003C177.24 62.2003 182.02 64.3003 183.22 64.9903L183.43 70.3503C183.43 70.3503 181.2 70.6603 180.52 71.2303L179.29 79.6403C179.29 79.6403 176.34 80.8903 171.08 79.6403C171.08 79.6403 170.45 72.6803 169.85 71.2303C169.85 71.2303 168.59 70.5803 166.97 70.3603V65.0903C166.97 65.0903 171.77 62.6203 173.13 62.2003H173.14Z" fill="#EAD786"/>
<path d="M164.72 96.0703H185.65C185.65 96.0703 185.65 85.3703 179.29 79.6503C179.29 79.6503 176.09 80.8703 171.08 79.6503C171.08 79.6503 165.39 83.4403 164.72 96.0703Z" fill="#EAD786"/>
<path d="M136.59 79.3302C136.59 79.3302 137.21 71.5302 137.82 70.9202C138.44 70.3002 141.72 69.8902 141.72 69.8902V65.3702C139.46 63.9302 134.54 61.8802 134.54 61.8802V57.9802H130.44V61.8802C130.44 61.8802 125.51 63.9302 123.26 65.3702V69.8902C123.26 69.8902 126.54 70.3002 127.16 70.9202C127.78 71.5402 128.39 79.3302 128.39 79.3302C128.39 79.3302 122.44 85.6902 122.03 95.7502H142.96C142.55 85.6902 136.6 79.3302 136.6 79.3302H136.59Z" fill="white"/>
<path d="M132.48 116.27C136.666 116.27 140.06 115.903 140.06 115.45C140.06 114.997 136.666 114.63 132.48 114.63C128.294 114.63 124.9 114.997 124.9 115.45C124.9 115.903 128.294 116.27 132.48 116.27Z" fill="#3C2D2B"/>
<path d="M132.48 95.7502V115.45" stroke="#3C2D2B" stroke-width="0.8" stroke-miterlimit="10"/>
<path d="M130.43 61.8903C130.43 61.8903 132.55 63.0903 134.53 61.8903C134.53 61.8903 139.31 63.9903 140.51 64.6803L140.72 70.0403C140.72 70.0403 138.49 70.3503 137.81 70.9203L136.58 79.3303C136.58 79.3303 133.63 80.5803 128.37 79.3303C128.37 79.3303 127.74 72.3703 127.14 70.9203C127.14 70.9203 125.88 70.2703 124.26 70.0503V64.7803C124.26 64.7803 129.06 62.3103 130.42 61.8903H130.43Z" fill="#E0869B"/>
<path d="M122.02 95.7503H142.95C142.95 95.7503 142.95 85.0503 136.59 79.3303C136.59 79.3303 133.39 80.5503 128.38 79.3303C128.38 79.3303 122.69 83.1203 122.02 95.7503Z" fill="#E0869B"/>
<g style="mix-blend-mode:soft-light" opacity="0.35">
<path d="M109.27 122.48L131.56 47.1403H175.64L199.66 122.48H109.27Z" fill="#F9F4D2"/>
</g>
<path d="M237.55 31.0803H12.0498V33.0003H237.55V31.0803Z" fill="#D69096"/>
<path d="M16.2401 131.77H15.3701V146.51H16.2401V131.77Z" fill="#7F2220"/>
<path d="M23.8402 131.77H22.9702V146.51H23.8402V131.77Z" fill="#7F2220"/>
<path d="M77.08 131.77H76.21V146.51H77.08V131.77Z" fill="#7F2220"/>
<path d="M84.6801 131.77H83.8101V146.51H84.6801V131.77Z" fill="#7F2220"/>
<path d="M92.2899 131.77H91.4199V146.51H92.2899V131.77Z" fill="#7F2220"/>
<path d="M69.3998 20.7803H68.5298V31.0803H69.3998V20.7803Z" fill="#7F2220"/>
<path d="M104.77 20.7803H103.9V31.0803H104.77V20.7803Z" fill="#7F2220"/>
<path d="M136.49 20.7803H135.62V31.0803H136.49V20.7803Z" fill="#7F2220"/>
<path d="M165.16 20.7803H164.29V31.0803H165.16V20.7803Z" fill="#7F2220"/>
<path d="M202.95 20.7803H202.08V31.0803H202.95V20.7803Z" fill="#7F2220"/>
<path d="M35.4398 20.7803H34.5698V31.0803H35.4398V20.7803Z" fill="#7F2220"/>
<path d="M99.89 131.77H99.02V146.51H99.89V131.77Z" fill="#7F2220"/>
<path d="M107.5 131.77H106.63V146.51H107.5V131.77Z" fill="#7F2220"/>
<path d="M115.1 131.77H114.23V146.51H115.1V131.77Z" fill="#7F2220"/>
<path d="M122.71 131.77H121.84V146.51H122.71V131.77Z" fill="#7F2220"/>
<path d="M130.3 131.77H129.43V146.51H130.3V131.77Z" fill="#7F2220"/>
<path d="M137.92 131.77H137.05V146.51H137.92V131.77Z" fill="#7F2220"/>
<path d="M145.51 131.77H144.64V146.51H145.51V131.77Z" fill="#7F2220"/>
<path d="M153.12 131.77H152.25V146.51H153.12V131.77Z" fill="#7F2220"/>
<path d="M160.72 131.77H159.85V146.51H160.72V131.77Z" fill="#7F2220"/>
<path d="M168.33 131.77H167.46V146.51H168.33V131.77Z" fill="#7F2220"/>
<path d="M175.93 131.77H175.06V146.51H175.93V131.77Z" fill="#7F2220"/>
<path d="M183.54 131.77H182.67V146.51H183.54V131.77Z" fill="#7F2220"/>
<path d="M191.14 131.77H190.27V146.51H191.14V131.77Z" fill="#7F2220"/>
<path d="M198.75 131.77H197.88V146.51H198.75V131.77Z" fill="#7F2220"/>
<path d="M206.35 131.77H205.48V146.51H206.35V131.77Z" fill="#7F2220"/>
<path d="M213.96 131.77H213.09V146.51H213.96V131.77Z" fill="#7F2220"/>
<path d="M221.55 131.77H220.68V146.51H221.55V131.77Z" fill="#7F2220"/>
<path d="M229.17 131.77H228.3V146.51H229.17V131.77Z" fill="#7F2220"/>
<path d="M236.76 131.77H235.89V146.51H236.76V131.77Z" fill="#7F2220"/>
<path d="M237.55 20.7803H12.0498V24.9403H237.55V20.7803Z" fill="#7F2220"/>
<path d="M67.6099 50.2803H28.8999V61.8903H67.6099V50.2803Z" fill="#7F2220"/>
<path d="M26.4199 67.4703H70.0899L67.6799 64.1302H28.9599L26.4199 67.4703Z" fill="#D69096"/>
<path d="M90.2002 43.9203H219.82L217.41 40.5803H92.7402L90.2002 43.9203Z" fill="#EFD9D8"/>
<path d="M42.9199 104.91C42.9199 104.91 46.9699 97.4103 48.0499 97.4103C49.1299 97.4103 53.1399 104.91 53.1399 104.91" stroke="#575756" stroke-width="0.4" stroke-miterlimit="10"/>
<path d="M57.4802 104.91H38.7202V112.5H57.4802V104.91Z" fill="white"/>
<path d="M76.21 82.3702C79.0764 82.3702 81.4 80.0466 81.4 77.1802C81.4 74.3139 79.0764 71.9902 76.21 71.9902C73.3437 71.9902 71.02 74.3139 71.02 77.1802C71.02 80.0466 73.3437 82.3702 76.21 82.3702Z" fill="white"/>
<path d="M76.2102 81.4603C78.574 81.4603 80.4902 79.544 80.4902 77.1803C80.4902 74.8165 78.574 72.9003 76.2102 72.9003C73.8464 72.9003 71.9302 74.8165 71.9302 77.1803C71.9302 79.544 73.8464 81.4603 76.2102 81.4603Z" fill="#EED679"/>
<path d="M76.2101 79.5603C77.5245 79.5603 78.5901 78.4947 78.5901 77.1803C78.5901 75.8659 77.5245 74.8003 76.2101 74.8003C74.8956 74.8003 73.8301 75.8659 73.8301 77.1803C73.8301 78.4947 74.8956 79.5603 76.2101 79.5603Z" fill="white"/>
<path d="M19.8301 82.3702C22.6965 82.3702 25.0201 80.0466 25.0201 77.1802C25.0201 74.3139 22.6965 71.9902 19.8301 71.9902C16.9638 71.9902 14.6401 74.3139 14.6401 77.1802C14.6401 80.0466 16.9638 82.3702 19.8301 82.3702Z" fill="white"/>
<path d="M19.8298 81.4603C22.1936 81.4603 24.1098 79.544 24.1098 77.1803C24.1098 74.8165 22.1936 72.9003 19.8298 72.9003C17.466 72.9003 15.5498 74.8165 15.5498 77.1803C15.5498 79.544 17.466 81.4603 19.8298 81.4603Z" fill="#EED679"/>
<path d="M19.8302 79.5603C21.1446 79.5603 22.2102 78.4947 22.2102 77.1803C22.2102 75.8659 21.1446 74.8003 19.8302 74.8003C18.5158 74.8003 17.4502 75.8659 17.4502 77.1803C17.4502 78.4947 18.5158 79.5603 19.8302 79.5603Z" fill="white"/>
<path d="M237.57 0.530273H12.0701L9.31006 5.17027H239.41L237.57 0.530273Z" fill="#D6C6AA"/>
<path d="M2.66002 16.3403L0.0200195 20.7803H245.61L243.84 16.3403H2.66002Z" fill="#D6C6AA"/>
<path d="M42.275 109.548C42.067 109.548 41.878 109.502 41.708 109.41C41.54 109.316 41.408 109.188 41.312 109.026C41.218 108.864 41.171 108.682 41.171 108.48C41.171 108.278 41.218 108.096 41.312 107.934C41.408 107.772 41.54 107.645 41.708 107.553C41.878 107.459 42.067 107.412 42.275 107.412C42.483 107.412 42.67 107.458 42.836 107.55C43.004 107.642 43.136 107.77 43.232 107.934C43.328 108.096 43.376 108.278 43.376 108.48C43.376 108.682 43.328 108.865 43.232 109.029C43.136 109.191 43.004 109.318 42.836 109.41C42.67 109.502 42.483 109.548 42.275 109.548ZM42.275 109.35C42.441 109.35 42.591 109.313 42.725 109.239C42.859 109.163 42.964 109.059 43.04 108.927C43.116 108.793 43.154 108.644 43.154 108.48C43.154 108.316 43.116 108.168 43.04 108.036C42.964 107.902 42.859 107.798 42.725 107.724C42.591 107.648 42.441 107.61 42.275 107.61C42.109 107.61 41.958 107.648 41.822 107.724C41.688 107.798 41.582 107.902 41.504 108.036C41.428 108.168 41.39 108.316 41.39 108.48C41.39 108.644 41.428 108.793 41.504 108.927C41.582 109.059 41.688 109.163 41.822 109.239C41.958 109.313 42.109 109.35 42.275 109.35ZM44.9208 108.141H44.3238V109.53H44.1108V108.141H43.5138V107.952H44.9208V108.141ZM45.8018 108.828H45.4418V109.53H45.2288V107.952H45.4418V108.645H45.8048L46.3598 107.952H46.5908L45.9698 108.717L46.6358 109.53H46.3838L45.8018 108.828ZM47.7849 107.94C47.9329 107.94 48.0669 107.974 48.1869 108.042C48.3069 108.108 48.4009 108.202 48.4689 108.324C48.5369 108.446 48.5709 108.585 48.5709 108.741C48.5709 108.899 48.5369 109.039 48.4689 109.161C48.4009 109.283 48.3069 109.378 48.1869 109.446C48.0689 109.512 47.9349 109.545 47.7849 109.545C47.6569 109.545 47.5409 109.519 47.4369 109.467C47.3349 109.413 47.2509 109.335 47.1849 109.233V110.112H46.9719V107.952H47.1759V108.264C47.2399 108.16 47.3239 108.08 47.4279 108.024C47.5339 107.968 47.6529 107.94 47.7849 107.94ZM47.7699 109.356C47.8799 109.356 47.9799 109.331 48.0699 109.281C48.1599 109.229 48.2299 109.156 48.2799 109.062C48.3319 108.968 48.3579 108.861 48.3579 108.741C48.3579 108.621 48.3319 108.515 48.2799 108.423C48.2299 108.329 48.1599 108.256 48.0699 108.204C47.9799 108.152 47.8799 108.126 47.7699 108.126C47.6579 108.126 47.5569 108.152 47.4669 108.204C47.3789 108.256 47.3089 108.329 47.2569 108.423C47.2069 108.515 47.1819 108.621 47.1819 108.741C47.1819 108.861 47.2069 108.968 47.2569 109.062C47.3089 109.156 47.3789 109.229 47.4669 109.281C47.5569 109.331 47.6579 109.356 47.7699 109.356ZM49.6916 108.51C49.8896 108.512 50.0406 108.556 50.1446 108.642C50.2486 108.728 50.3006 108.852 50.3006 109.014C50.3006 109.182 50.2446 109.311 50.1326 109.401C50.0206 109.491 49.8606 109.535 49.6526 109.533L49.0286 109.53V107.952H49.2416V108.504L49.6916 108.51ZM50.5646 107.952H50.7776V109.53H50.5646V107.952ZM49.6406 109.371C49.7866 109.373 49.8966 109.344 49.9706 109.284C50.0466 109.222 50.0846 109.132 50.0846 109.014C50.0846 108.898 50.0476 108.812 49.9736 108.756C49.8996 108.7 49.7886 108.671 49.6406 108.669L49.2416 108.663V109.365L49.6406 109.371ZM52.4941 108.141H51.8971V109.53H51.6841V108.141H51.0871V107.952H52.4941V108.141ZM53.3798 109.545C53.2278 109.545 53.0908 109.511 52.9688 109.443C52.8468 109.373 52.7508 109.277 52.6808 109.155C52.6108 109.033 52.5758 108.895 52.5758 108.741C52.5758 108.587 52.6108 108.449 52.6808 108.327C52.7508 108.205 52.8468 108.11 52.9688 108.042C53.0908 107.974 53.2278 107.94 53.3798 107.94C53.5318 107.94 53.6688 107.974 53.7908 108.042C53.9128 108.11 54.0078 108.205 54.0758 108.327C54.1458 108.449 54.1808 108.587 54.1808 108.741C54.1808 108.895 54.1458 109.033 54.0758 109.155C54.0078 109.277 53.9128 109.373 53.7908 109.443C53.6688 109.511 53.5318 109.545 53.3798 109.545ZM53.3798 109.356C53.4918 109.356 53.5918 109.331 53.6798 109.281C53.7698 109.229 53.8398 109.156 53.8898 109.062C53.9398 108.968 53.9648 108.861 53.9648 108.741C53.9648 108.621 53.9398 108.514 53.8898 108.42C53.8398 108.326 53.7698 108.254 53.6798 108.204C53.5918 108.152 53.4918 108.126 53.3798 108.126C53.2678 108.126 53.1668 108.152 53.0768 108.204C52.9888 108.254 52.9188 108.326 52.8668 108.42C52.8168 108.514 52.7918 108.621 52.7918 108.741C52.7918 108.861 52.8168 108.968 52.8668 109.062C52.9188 109.156 52.9888 109.229 53.0768 109.281C53.1668 109.331 53.2678 109.356 53.3798 109.356Z" fill="black"/>
</g>
<defs>
<clipPath id="clip0_1_315">
<rect width="245.61" height="149.33" fill="white" transform="translate(0 0.530273)"/>
</clipPath>
</defs>
</svg>
