<svg width="289" height="374" viewBox="0 0 289 374" fill="none" xmlns="http://www.w3.org/2000/svg">
<g clip-path="url(#clip0_1_829)">
<path d="M283.63 110.94H7.54004V281.19H283.63V110.94Z" fill="#F2F2F2"/>
<path d="M269.28 218.63H23.1201V370H269.28V218.63Z" fill="#993833"/>
<path d="M256.64 110.94H35.77V223.77H256.64V110.94Z" fill="#993833"/>
<path d="M256.64 0H35.77V112.83H256.64V0Z" fill="#B64A41"/>
<path d="M258.95 354.26H33.4502V355.22H258.95V354.26Z" fill="#7F2220"/>
<path d="M269.28 240.2H23.1201V242.18H269.28V240.2Z" fill="#D69096"/>
<path d="M37.64 355.22H36.77V369.96H37.64V355.22Z" fill="#A33A38"/>
<path d="M45.2401 355.22H44.3701V369.96H45.2401V355.22Z" fill="#A33A38"/>
<path d="M98.4799 355.22H97.6099V369.96H98.4799V355.22Z" fill="#7F2220"/>
<path d="M90.87 355.22H90V369.96H90.87V355.22Z" fill="#7F2220"/>
<path d="M83.2499 355.22H82.3799V369.96H83.2499V355.22Z" fill="#A33A38"/>
<path d="M75.64 355.22H74.77V369.96H75.64V355.22Z" fill="#A33A38"/>
<path d="M68.0199 355.22H67.1499V369.96H68.0199V355.22Z" fill="#A33A38"/>
<path d="M60.41 355.22H59.54V369.96H60.41V355.22Z" fill="#A33A38"/>
<path d="M52.7899 355.22H51.9199V369.96H52.7899V355.22Z" fill="#A33A38"/>
<path d="M106.08 355.22H105.21V369.96H106.08V355.22Z" fill="#A33A38"/>
<path d="M113.69 355.22H112.82V369.96H113.69V355.22Z" fill="#A33A38"/>
<path d="M85.72 229.54H84.77V240.2H85.72V229.54Z" fill="#7F2220"/>
<path d="M124.33 229.54H123.38V240.2H124.33V229.54Z" fill="#7F2220"/>
<path d="M158.96 229.54H158.01V240.2H158.96V229.54Z" fill="#7F2220"/>
<path d="M190.25 229.54H189.3V240.2H190.25V229.54Z" fill="#7F2220"/>
<path d="M231.51 229.54H230.56V240.2H231.51V229.54Z" fill="#7F2220"/>
<path d="M48.66 229.54H47.71V240.2H48.66V229.54Z" fill="#7F2220"/>
<path d="M121.29 355.22H120.42V369.96H121.29V355.22Z" fill="#A33A38"/>
<path d="M128.9 355.22H128.03V369.96H128.9V355.22Z" fill="#A33A38"/>
<path d="M136.49 355.22H135.62V369.96H136.49V355.22Z" fill="#A33A38"/>
<path d="M144.11 355.22H143.24V369.96H144.11V355.22Z" fill="#A33A38"/>
<path d="M151.7 355.22H150.83V369.96H151.7V355.22Z" fill="#A33A38"/>
<path d="M159.31 355.22H158.44V369.96H159.31V355.22Z" fill="#A33A38"/>
<path d="M166.91 355.22H166.04V369.96H166.91V355.22Z" fill="#A33A38"/>
<path d="M174.52 355.22H173.65V369.96H174.52V355.22Z" fill="#A33A38"/>
<path d="M182.12 355.22H181.25V369.96H182.12V355.22Z" fill="#A33A38"/>
<path d="M189.73 355.22H188.86V369.96H189.73V355.22Z" fill="#7F2220"/>
<path d="M197.33 355.22H196.46V369.96H197.33V355.22Z" fill="#A33A38"/>
<path d="M204.94 355.22H204.07V369.96H204.94V355.22Z" fill="#A33A38"/>
<path d="M212.54 355.22H211.67V369.96H212.54V355.22Z" fill="#A33A38"/>
<path d="M220.15 355.22H219.28V369.96H220.15V355.22Z" fill="#A33A38"/>
<path d="M227.74 355.22H226.87V369.96H227.74V355.22Z" fill="#A33A38"/>
<path d="M235.36 355.22H234.49V369.96H235.36V355.22Z" fill="#A33A38"/>
<path d="M242.95 355.22H242.08V369.96H242.95V355.22Z" fill="#A33A38"/>
<path d="M250.56 355.22H249.69V369.96H250.56V355.22Z" fill="#A33A38"/>
<path d="M258.16 355.22H257.29V369.96H258.16V355.22Z" fill="#A33A38"/>
<path d="M269.28 229.54H23.1201V233.84H269.28V229.54Z" fill="#7F2220"/>
<path d="M112.82 286.38C115.686 286.38 118.01 284.056 118.01 281.19C118.01 278.324 115.686 276 112.82 276C109.954 276 107.63 278.324 107.63 281.19C107.63 284.056 109.954 286.38 112.82 286.38Z" fill="white"/>
<path d="M112.82 285.47C115.184 285.47 117.1 283.554 117.1 281.19C117.1 278.826 115.184 276.91 112.82 276.91C110.456 276.91 108.54 278.826 108.54 281.19C108.54 283.554 110.456 285.47 112.82 285.47Z" fill="#EED679"/>
<path d="M112.82 283.57C114.134 283.57 115.2 282.504 115.2 281.19C115.2 279.876 114.134 278.81 112.82 278.81C111.506 278.81 110.44 279.876 110.44 281.19C110.44 282.504 111.506 283.57 112.82 283.57Z" fill="white"/>
<path d="M174.91 286.38C177.777 286.38 180.1 284.056 180.1 281.19C180.1 278.324 177.777 276 174.91 276C172.044 276 169.72 278.324 169.72 281.19C169.72 284.056 172.044 286.38 174.91 286.38Z" fill="white"/>
<path d="M174.91 285.47C177.274 285.47 179.19 283.554 179.19 281.19C179.19 278.826 177.274 276.91 174.91 276.91C172.546 276.91 170.63 278.826 170.63 281.19C170.63 283.554 172.546 285.47 174.91 285.47Z" fill="#EED679"/>
<path d="M174.91 283.57C176.224 283.57 177.29 282.504 177.29 281.19C177.29 279.876 176.224 278.81 174.91 278.81C173.595 278.81 172.53 279.876 172.53 281.19C172.53 282.504 173.595 283.57 174.91 283.57Z" fill="white"/>
<path d="M29.3998 129.34H15.5898V274.44H29.3998V129.34Z" fill="#B2CEBD"/>
<path d="M276.19 129.34H262.38V274.44H276.19V129.34Z" fill="#B2CEBD"/>
<path d="M143.24 286.38C146.106 286.38 148.43 284.056 148.43 281.19C148.43 278.324 146.106 276 143.24 276C140.373 276 138.05 278.324 138.05 281.19C138.05 284.056 140.373 286.38 143.24 286.38Z" fill="white"/>
<path d="M143.24 285.47C145.604 285.47 147.52 283.554 147.52 281.19C147.52 278.826 145.604 276.91 143.24 276.91C140.876 276.91 138.96 278.826 138.96 281.19C138.96 283.554 140.876 285.47 143.24 285.47Z" fill="#EED679"/>
<path d="M143.24 283.57C144.554 283.57 145.62 282.504 145.62 281.19C145.62 279.876 144.554 278.81 143.24 278.81C141.925 278.81 140.86 279.876 140.86 281.19C140.86 282.504 141.925 283.57 143.24 283.57Z" fill="white"/>
<path d="M269.28 226.57H23.1201V232.23H269.28V226.57Z" fill="#EBDDC1"/>
<path d="M279.45 217.52H12.9702V226.96H279.45V217.52Z" fill="#9E9078"/>
<path d="M54.7 226.57H21.27V230.09H54.7V226.57Z" fill="#9E9078"/>
<path d="M270.77 226.46H237.34V229.98H270.77V226.46Z" fill="#9E9078"/>
<path d="M54.6999 232.09H29.3999V237.63H54.6999V232.09Z" fill="#EBDDC1"/>
<path d="M262.64 232.09H237.34V237.63H262.64V232.09Z" fill="#EBDDC1"/>
<path d="M279.45 217.33H12.9702V219.65H279.45V217.33Z" fill="#8E806B"/>
<path d="M8.70996 219.62L12.97 217.33V219.65L8.70996 219.62Z" fill="#8E806B"/>
<path d="M283.63 219.62L279.38 217.33V219.65L283.63 219.62Z" fill="#8E806B"/>
<path d="M181.66 289.35H105.63V370H181.66V289.35Z" fill="#7F2220"/>
<path d="M179.28 292.44H108.01V369.99H179.28V292.44Z" fill="white"/>
<path d="M177.71 294.47H109.58V370H177.71V294.47Z" fill="#B2CEBD"/>
<path d="M144.11 294.47H143.18V369.97H144.11V294.47Z" fill="white"/>
<path d="M283.64 274.44H231.82V369.97H283.64V274.44Z" fill="#993833"/>
<path d="M59.36 274.44H7.54004V369.97H59.36V274.44Z" fill="#993833"/>
<path d="M100.24 289.35H12.9702V347.36H100.24V289.35Z" fill="#7F2220"/>
<path d="M249.99 180.13H45.0498V217.06H249.99V180.13Z" fill="#7F2220"/>
<path d="M97.6098 292.07H15.5898V344.64H97.6098V292.07Z" fill="white"/>
<path d="M95.8998 293.38H17.2998V343.33H95.8998V293.38Z" fill="#B2CEBD"/>
<path d="M95.8998 305.36H17.2998V306.58H95.8998V305.36Z" fill="white"/>
<path d="M95.8998 318.35H17.2998V319.57H95.8998V318.35Z" fill="white"/>
<path d="M95.8998 330.61H17.2998V331.83H95.8998V330.61Z" fill="white"/>
<path d="M36.1202 293.38H34.9302V343.33H36.1202V293.38Z" fill="white"/>
<path d="M58.6099 293.38H57.4199V343.33H58.6099V293.38Z" fill="white"/>
<path d="M78.3702 293.38H77.1802V343.33H78.3702V293.38Z" fill="white"/>
<path d="M275.45 289.35H188.18V347.36H275.45V289.35Z" fill="#7F2220"/>
<path d="M272.83 292.07H190.81V344.64H272.83V292.07Z" fill="white"/>
<path d="M271.12 293.38H192.52V343.33H271.12V293.38Z" fill="#B2CEBD"/>
<path d="M271.12 305.36H192.52V306.58H271.12V305.36Z" fill="white"/>
<path d="M271.12 318.35H192.52V319.57H271.12V318.35Z" fill="white"/>
<path d="M271.12 330.61H192.52V331.83H271.12V330.61Z" fill="white"/>
<path d="M211.34 293.38H210.15V343.33H211.34V293.38Z" fill="white"/>
<path d="M233.83 293.38H232.64V343.33H233.83V293.38Z" fill="white"/>
<path d="M253.59 293.38H252.4V343.33H253.59V293.38Z" fill="white"/>
<path d="M269.28 247.73H23.1201V273.41H269.28V247.73Z" fill="#7F2220"/>
<path d="M1.93018 368.08H102.39C102.39 368.08 102.86 352.92 88.1702 359.55C88.1702 359.55 81.3602 345.71 67.1502 349.5C52.9302 353.29 52.1602 361.45 52.1602 361.45C52.1602 361.45 43.1202 347.01 27.0102 348.44C10.9002 349.86 1.93018 368.09 1.93018 368.09V368.08Z" fill="#809A56"/>
<path d="M0 366.16L1.93 373.99H102.39L105.59 366.16H0Z" fill="#575953"/>
<path d="M20.0201 360.08C21.0584 360.08 21.9001 359.238 21.9001 358.2C21.9001 357.162 21.0584 356.32 20.0201 356.32C18.9818 356.32 18.1401 357.162 18.1401 358.2C18.1401 359.238 18.9818 360.08 20.0201 360.08Z" fill="#EFB4D3"/>
<path d="M71.5602 360.9C72.5985 360.9 73.4402 360.058 73.4402 359.02C73.4402 357.982 72.5985 357.14 71.5602 357.14C70.5219 357.14 69.6802 357.982 69.6802 359.02C69.6802 360.058 70.5219 360.9 71.5602 360.9Z" fill="#EFB4D3"/>
<path d="M32.0302 354.5C32.7647 354.5 33.3602 353.905 33.3602 353.17C33.3602 352.435 32.7647 351.84 32.0302 351.84C31.2957 351.84 30.7002 352.435 30.7002 353.17C30.7002 353.905 31.2957 354.5 32.0302 354.5Z" fill="#EFB4D3"/>
<path d="M10.35 365.14C11.0846 365.14 11.68 364.545 11.68 363.81C11.68 363.075 11.0846 362.48 10.35 362.48C9.61548 362.48 9.02002 363.075 9.02002 363.81C9.02002 364.545 9.61548 365.14 10.35 365.14Z" fill="#EFB4D3"/>
<path d="M61.9701 362.23C62.7047 362.23 63.3001 361.635 63.3001 360.9C63.3001 360.165 62.7047 359.57 61.9701 359.57C61.2356 359.57 60.6401 360.165 60.6401 360.9C60.6401 361.635 61.2356 362.23 61.9701 362.23Z" fill="#EFB4D3"/>
<path d="M84.3798 365.14C85.1143 365.14 85.7098 364.545 85.7098 363.81C85.7098 363.075 85.1143 362.48 84.3798 362.48C83.6453 362.48 83.0498 363.075 83.0498 363.81C83.0498 364.545 83.6453 365.14 84.3798 365.14Z" fill="#EFB4D3"/>
<path d="M37.2199 360.85C37.6507 360.85 37.9999 360.501 37.9999 360.07C37.9999 359.639 37.6507 359.29 37.2199 359.29C36.7892 359.29 36.4399 359.639 36.4399 360.07C36.4399 360.501 36.7892 360.85 37.2199 360.85Z" fill="#EFB4D3"/>
<path d="M95.4001 363.26C95.8309 363.26 96.1801 362.911 96.1801 362.48C96.1801 362.049 95.8309 361.7 95.4001 361.7C94.9693 361.7 94.6201 362.049 94.6201 362.48C94.6201 362.911 94.9693 363.26 95.4001 363.26Z" fill="#EFB4D3"/>
<path d="M77.1999 353.95C77.6307 353.95 77.9799 353.601 77.9799 353.17C77.9799 352.739 77.6307 352.39 77.1999 352.39C76.7691 352.39 76.4199 352.739 76.4199 353.17C76.4199 353.601 76.7691 353.95 77.1999 353.95Z" fill="#EFB4D3"/>
<path d="M184.49 365.08H284.95C284.95 365.08 285.42 349.92 270.73 356.55C270.73 356.55 263.92 342.71 249.71 346.5C235.49 350.29 234.72 358.45 234.72 358.45C234.72 358.45 225.68 344.01 209.57 345.44C193.46 346.86 184.49 365.09 184.49 365.09V365.08Z" fill="#809A56"/>
<path d="M182.56 363.16L184.49 370.99H284.95L288.15 363.16H182.56Z" fill="#575953"/>
<path d="M202.58 357.09C203.618 357.09 204.46 356.248 204.46 355.21C204.46 354.172 203.618 353.33 202.58 353.33C201.542 353.33 200.7 354.172 200.7 355.21C200.7 356.248 201.542 357.09 202.58 357.09Z" fill="#EFB4D3"/>
<path d="M254.12 357.91C255.159 357.91 256 357.068 256 356.03C256 354.992 255.159 354.15 254.12 354.15C253.082 354.15 252.24 354.992 252.24 356.03C252.24 357.068 253.082 357.91 254.12 357.91Z" fill="#EFB4D3"/>
<path d="M214.59 351.51C215.324 351.51 215.92 350.915 215.92 350.18C215.92 349.445 215.324 348.85 214.59 348.85C213.855 348.85 213.26 349.445 213.26 350.18C213.26 350.915 213.855 351.51 214.59 351.51Z" fill="#EFB4D3"/>
<path d="M192.91 362.15C193.645 362.15 194.24 361.555 194.24 360.82C194.24 360.085 193.645 359.49 192.91 359.49C192.176 359.49 191.58 360.085 191.58 360.82C191.58 361.555 192.176 362.15 192.91 362.15Z" fill="#EFB4D3"/>
<path d="M244.53 359.24C245.265 359.24 245.86 358.645 245.86 357.91C245.86 357.175 245.265 356.58 244.53 356.58C243.796 356.58 243.2 357.175 243.2 357.91C243.2 358.645 243.796 359.24 244.53 359.24Z" fill="#EFB4D3"/>
<path d="M266.94 362.15C267.674 362.15 268.27 361.555 268.27 360.82C268.27 360.085 267.674 359.49 266.94 359.49C266.205 359.49 265.61 360.085 265.61 360.82C265.61 361.555 266.205 362.15 266.94 362.15Z" fill="#EFB4D3"/>
<path d="M219.79 357.86C220.221 357.86 220.57 357.511 220.57 357.08C220.57 356.649 220.221 356.3 219.79 356.3C219.359 356.3 219.01 356.649 219.01 357.08C219.01 357.511 219.359 357.86 219.79 357.86Z" fill="#EFB4D3"/>
<path d="M277.96 360.27C278.391 360.27 278.74 359.921 278.74 359.49C278.74 359.059 278.391 358.71 277.96 358.71C277.529 358.71 277.18 359.059 277.18 359.49C277.18 359.921 277.529 360.27 277.96 360.27Z" fill="#EFB4D3"/>
<path d="M259.76 350.96C260.191 350.96 260.54 350.611 260.54 350.18C260.54 349.749 260.191 349.4 259.76 349.4C259.329 349.4 258.98 349.749 258.98 350.18C258.98 350.611 259.329 350.96 259.76 350.96Z" fill="#EFB4D3"/>
<path d="M269.28 253H23.1201V268.87H269.28V253Z" fill="white"/>
<path d="M269.28 254.74H23.1201V267.14H269.28V254.74Z" fill="#B2CEBD"/>
<path d="M38.94 254.37H37.02V266.77H38.94V254.37Z" fill="white"/>
<path d="M76.7701 254.74H74.8501V267.14H76.7701V254.74Z" fill="white"/>
<path d="M110.95 254.74H109.03V267.14H110.95V254.74Z" fill="white"/>
<path d="M145.14 254.74H143.22V267.14H145.14V254.74Z" fill="white"/>
<path d="M179.33 254.74H177.41V267.14H179.33V254.74Z" fill="white"/>
<path d="M213.51 254.74H211.59V267.14H213.51V254.74Z" fill="white"/>
<path d="M255.7 254.74H253.78V267.14H255.7V254.74Z" fill="white"/>
<path d="M246.27 183.16H48.7598V217.07H246.27V183.16Z" fill="white"/>
<path d="M242.96 186.44H52.0801V217.33H242.96V186.44Z" fill="#B2CEBD"/>
<path d="M147.52 186.04H145.39V217.33H147.52V186.04Z" fill="white"/>
<path d="M59.36 42.59C66.6005 42.59 72.47 36.7204 72.47 29.48C72.47 22.2395 66.6005 16.37 59.36 16.37C52.1195 16.37 46.25 22.2395 46.25 29.48C46.25 36.7204 52.1195 42.59 59.36 42.59Z" fill="#7F2220"/>
<path d="M59.3599 41.17C65.8161 41.17 71.0499 35.9362 71.0499 29.48C71.0499 23.0238 65.8161 17.79 59.3599 17.79C52.9037 17.79 47.6699 23.0238 47.6699 29.48C47.6699 35.9362 52.9037 41.17 59.3599 41.17Z" fill="white"/>
<path d="M59.3599 39.65C64.9767 39.65 69.5299 35.0967 69.5299 29.48C69.5299 23.8633 64.9767 19.31 59.3599 19.31C53.7432 19.31 49.1899 23.8633 49.1899 29.48C49.1899 35.0967 53.7432 39.65 59.3599 39.65Z" fill="#B2CEBD"/>
<path d="M101.73 42.59C108.971 42.59 114.84 36.7204 114.84 29.48C114.84 22.2395 108.971 16.37 101.73 16.37C94.4897 16.37 88.6201 22.2395 88.6201 29.48C88.6201 36.7204 94.4897 42.59 101.73 42.59Z" fill="#7F2220"/>
<path d="M101.73 41.17C108.186 41.17 113.42 35.9362 113.42 29.48C113.42 23.0238 108.186 17.79 101.73 17.79C95.2738 17.79 90.04 23.0238 90.04 29.48C90.04 35.9362 95.2738 41.17 101.73 41.17Z" fill="white"/>
<path d="M101.73 39.65C107.347 39.65 111.9 35.0967 111.9 29.48C111.9 23.8633 107.347 19.31 101.73 19.31C96.1133 19.31 91.5601 23.8633 91.5601 29.48C91.5601 35.0967 96.1133 39.65 101.73 39.65Z" fill="#B2CEBD"/>
<path d="M144.1 42.59C151.341 42.59 157.21 36.7204 157.21 29.48C157.21 22.2395 151.341 16.37 144.1 16.37C136.86 16.37 130.99 22.2395 130.99 29.48C130.99 36.7204 136.86 42.59 144.1 42.59Z" fill="#7F2220"/>
<path d="M144.1 41.17C150.556 41.17 155.79 35.9362 155.79 29.48C155.79 23.0238 150.556 17.79 144.1 17.79C137.644 17.79 132.41 23.0238 132.41 29.48C132.41 35.9362 137.644 41.17 144.1 41.17Z" fill="white"/>
<path d="M144.1 39.65C149.717 39.65 154.27 35.0967 154.27 29.48C154.27 23.8633 149.717 19.31 144.1 19.31C138.483 19.31 133.93 23.8633 133.93 29.48C133.93 35.0967 138.483 39.65 144.1 39.65Z" fill="#B2CEBD"/>
<path d="M186.47 42.59C193.71 42.59 199.58 36.7204 199.58 29.48C199.58 22.2395 193.71 16.37 186.47 16.37C179.229 16.37 173.36 22.2395 173.36 29.48C173.36 36.7204 179.229 42.59 186.47 42.59Z" fill="#7F2220"/>
<path d="M186.47 41.17C192.926 41.17 198.16 35.9362 198.16 29.48C198.16 23.0238 192.926 17.79 186.47 17.79C180.014 17.79 174.78 23.0238 174.78 29.48C174.78 35.9362 180.014 41.17 186.47 41.17Z" fill="white"/>
<path d="M186.47 39.65C192.087 39.65 196.64 35.0967 196.64 29.48C196.64 23.8633 192.087 19.31 186.47 19.31C180.853 19.31 176.3 23.8633 176.3 29.48C176.3 35.0967 180.853 39.65 186.47 39.65Z" fill="#B2CEBD"/>
<path d="M228.84 42.59C236.08 42.59 241.95 36.7204 241.95 29.48C241.95 22.2395 236.08 16.37 228.84 16.37C221.6 16.37 215.73 22.2395 215.73 29.48C215.73 36.7204 221.6 42.59 228.84 42.59Z" fill="#7F2220"/>
<path d="M228.84 41.17C235.296 41.17 240.53 35.9362 240.53 29.48C240.53 23.0238 235.296 17.79 228.84 17.79C222.384 17.79 217.15 23.0238 217.15 29.48C217.15 35.9362 222.384 41.17 228.84 41.17Z" fill="white"/>
<path d="M228.84 39.65C234.457 39.65 239.01 35.0967 239.01 29.48C239.01 23.8633 234.457 19.31 228.84 19.31C223.223 19.31 218.67 23.8633 218.67 29.48C218.67 35.0967 223.223 39.65 228.84 39.65Z" fill="#B2CEBD"/>
<path d="M256.64 48.65H35.5298V52.53H256.64V48.65Z" fill="#7F2220"/>
<path d="M50.2998 112.83V52.53" stroke="#7F2220" stroke-width="0.5" stroke-miterlimit="10"/>
<path d="M74.29 112.83V52.53" stroke="#7F2220" stroke-width="0.5" stroke-miterlimit="10"/>
<path d="M98.29 112.83V52.53" stroke="#7F2220" stroke-width="0.5" stroke-miterlimit="10"/>
<path d="M122.28 112.83V52.53" stroke="#7F2220" stroke-width="0.5" stroke-miterlimit="10"/>
<path d="M146.28 112.83V52.53" stroke="#7F2220" stroke-width="0.5" stroke-miterlimit="10"/>
<path d="M170.27 112.83V52.53" stroke="#7F2220" stroke-width="0.5" stroke-miterlimit="10"/>
<path d="M194.27 112.83V52.53" stroke="#7F2220" stroke-width="0.5" stroke-miterlimit="10"/>
<path d="M218.27 112.83V52.53" stroke="#7F2220" stroke-width="0.5" stroke-miterlimit="10"/>
<path d="M242.26 112.83V52.53" stroke="#7F2220" stroke-width="0.5" stroke-miterlimit="10"/>
<path d="M35.77 68.69H256.64" stroke="#7F2220" stroke-width="0.5" stroke-miterlimit="10"/>
<path d="M36.0098 92.58H256.89" stroke="#7F2220" stroke-width="0.5" stroke-miterlimit="10"/>
<path d="M256.89 96.96H35.77V112.83H256.89V96.96Z" fill="white"/>
<path d="M256.89 98.69H35.77V111.09H256.89V98.69Z" fill="#B2CEBD"/>
<path d="M61.6499 98.69V111.09" stroke="white" stroke-miterlimit="10"/>
<path d="M86.29 98.69V111.09" stroke="white" stroke-miterlimit="10"/>
<path d="M110.92 98.69V111.09" stroke="white" stroke-miterlimit="10"/>
<path d="M135.56 98.69V111.09" stroke="white" stroke-miterlimit="10"/>
<path d="M160.19 98.69V111.09" stroke="white" stroke-miterlimit="10"/>
<path d="M184.83 98.69V111.09" stroke="white" stroke-miterlimit="10"/>
<path d="M209.46 98.69V111.09" stroke="white" stroke-miterlimit="10"/>
<path d="M234.1 98.69V111.09" stroke="white" stroke-miterlimit="10"/>
<path d="M59.02 129.34H49.79V138.57H59.02V129.34Z" fill="#B2CEBD"/>
<path d="M77.4199 129.34H68.1899V138.57H77.4199V129.34Z" fill="#B2CEBD"/>
<path d="M95.8198 129.34H86.5898V138.57H95.8198V129.34Z" fill="#B2CEBD"/>
<path d="M114.21 129.34H104.98V138.57H114.21V129.34Z" fill="#B2CEBD"/>
<path d="M132.61 129.34H123.38V138.57H132.61V129.34Z" fill="#B2CEBD"/>
<path d="M151 129.34H141.77V138.57H151V129.34Z" fill="#B2CEBD"/>
<path d="M169.4 129.34H160.17V138.57H169.4V129.34Z" fill="#B2CEBD"/>
<path d="M187.8 129.34H178.57V138.57H187.8V129.34Z" fill="#B2CEBD"/>
<path d="M206.19 129.34H196.96V138.57H206.19V129.34Z" fill="#B2CEBD"/>
<path d="M224.59 129.34H215.36V138.57H224.59V129.34Z" fill="#B2CEBD"/>
<path d="M242.98 129.34H233.75V138.57H242.98V129.34Z" fill="#B2CEBD"/>
<path d="M59.0801 147.76H49.8501V156.99H59.0801V147.76Z" fill="#B2CEBD"/>
<path d="M77.48 147.76H68.25V156.99H77.48V147.76Z" fill="#B2CEBD"/>
<path d="M95.8799 147.76H86.6499V156.99H95.8799V147.76Z" fill="#B2CEBD"/>
<path d="M114.27 147.76H105.04V156.99H114.27V147.76Z" fill="#B2CEBD"/>
<path d="M132.67 147.76H123.44V156.99H132.67V147.76Z" fill="#B2CEBD"/>
<path d="M151.06 147.76H141.83V156.99H151.06V147.76Z" fill="#B2CEBD"/>
<path d="M169.46 147.76H160.23V156.99H169.46V147.76Z" fill="#B2CEBD"/>
<path d="M187.85 147.76H178.62V156.99H187.85V147.76Z" fill="#B2CEBD"/>
<path d="M206.25 147.76H197.02V156.99H206.25V147.76Z" fill="#B2CEBD"/>
<path d="M224.65 147.76H215.42V156.99H224.65V147.76Z" fill="#B2CEBD"/>
<path d="M243.04 147.76H233.81V156.99H243.04V147.76Z" fill="#B2CEBD"/>
<path d="M59.1402 166.18H49.9102V175.41H59.1402V166.18Z" fill="#B2CEBD"/>
<path d="M77.5401 166.18H68.3101V175.41H77.5401V166.18Z" fill="#B2CEBD"/>
<path d="M95.9302 166.18H86.7002V175.41H95.9302V166.18Z" fill="#B2CEBD"/>
<path d="M114.33 166.18H105.1V175.41H114.33V166.18Z" fill="#B2CEBD"/>
<path d="M132.73 166.18H123.5V175.41H132.73V166.18Z" fill="#B2CEBD"/>
<path d="M151.12 166.18H141.89V175.41H151.12V166.18Z" fill="#B2CEBD"/>
<path d="M169.52 166.18H160.29V175.41H169.52V166.18Z" fill="#B2CEBD"/>
<path d="M187.91 166.18H178.68V175.41H187.91V166.18Z" fill="#B2CEBD"/>
<path d="M206.31 166.18H197.08V175.41H206.31V166.18Z" fill="#B2CEBD"/>
<path d="M224.71 166.18H215.48V175.41H224.71V166.18Z" fill="#B2CEBD"/>
<path d="M243.1 166.18H233.87V175.41H243.1V166.18Z" fill="#B2CEBD"/>
</g>
<defs>
<clipPath id="clip0_1_829">
<rect width="288.15" height="373.99" fill="white"/>
</clipPath>
</defs>
</svg>
