<svg width="289" height="304" viewBox="0 0 289 304" fill="none" xmlns="http://www.w3.org/2000/svg">
<g clip-path="url(#clip0_1_596)">
<path d="M41.1801 49.36H23.1201V147.05H41.1801V49.36Z" fill="#A09D9D"/>
<path d="M271.66 52.1H253.6V149.79H271.66V52.1Z" fill="#A09D9D"/>
<path d="M269.28 148.16H23.1201V299.53H269.28V148.16Z" fill="#993833"/>
<path d="M256.64 13.78H35.77V153.3H256.64V13.78Z" fill="#993833"/>
<path d="M258.95 283.8H33.4502V284.76H258.95V283.8Z" fill="#7F2220"/>
<path d="M83.2498 32.67C92.7298 32.67 100.42 40.37 100.42 49.84V93.14H66.0698V49.84C66.0698 40.36 73.7698 32.67 83.2398 32.67H83.2498Z" fill="#7F2220"/>
<path d="M269.28 169.74H23.1201V171.72H269.28V169.74Z" fill="#D69096"/>
<path d="M37.64 284.76H36.77V299.5H37.64V284.76Z" fill="#A33A38"/>
<path d="M45.2401 284.76H44.3701V299.5H45.2401V284.76Z" fill="#A33A38"/>
<path d="M98.4799 284.76H97.6099V299.5H98.4799V284.76Z" fill="#7F2220"/>
<path d="M90.87 284.76H90V299.5H90.87V284.76Z" fill="#7F2220"/>
<path d="M83.2499 284.76H82.3799V299.5H83.2499V284.76Z" fill="#A33A38"/>
<path d="M75.64 284.76H74.77V299.5H75.64V284.76Z" fill="#A33A38"/>
<path d="M68.0199 284.76H67.1499V299.5H68.0199V284.76Z" fill="#A33A38"/>
<path d="M60.41 284.76H59.54V299.5H60.41V284.76Z" fill="#A33A38"/>
<path d="M52.7899 284.76H51.9199V299.5H52.7899V284.76Z" fill="#A33A38"/>
<path d="M106.08 284.76H105.21V299.5H106.08V284.76Z" fill="#A33A38"/>
<path d="M113.69 284.76H112.82V299.5H113.69V284.76Z" fill="#A33A38"/>
<path d="M85.72 159.08H84.77V169.74H85.72V159.08Z" fill="#7F2220"/>
<path d="M124.33 159.08H123.38V169.74H124.33V159.08Z" fill="#7F2220"/>
<path d="M158.96 159.08H158.01V169.74H158.96V159.08Z" fill="#7F2220"/>
<path d="M190.25 159.08H189.3V169.74H190.25V159.08Z" fill="#7F2220"/>
<path d="M231.51 159.08H230.56V169.74H231.51V159.08Z" fill="#7F2220"/>
<path d="M48.66 159.08H47.71V169.74H48.66V159.08Z" fill="#7F2220"/>
<path d="M121.29 284.76H120.42V299.5H121.29V284.76Z" fill="#A33A38"/>
<path d="M128.9 284.76H128.03V299.5H128.9V284.76Z" fill="#A33A38"/>
<path d="M136.49 284.76H135.62V299.5H136.49V284.76Z" fill="#A33A38"/>
<path d="M144.11 284.76H143.24V299.5H144.11V284.76Z" fill="#A33A38"/>
<path d="M151.7 284.76H150.83V299.5H151.7V284.76Z" fill="#A33A38"/>
<path d="M159.31 284.76H158.44V299.5H159.31V284.76Z" fill="#A33A38"/>
<path d="M166.91 284.76H166.04V299.5H166.91V284.76Z" fill="#A33A38"/>
<path d="M174.52 284.76H173.65V299.5H174.52V284.76Z" fill="#A33A38"/>
<path d="M182.12 284.76H181.25V299.5H182.12V284.76Z" fill="#A33A38"/>
<path d="M189.73 284.76H188.86V299.5H189.73V284.76Z" fill="#7F2220"/>
<path d="M197.33 284.76H196.46V299.5H197.33V284.76Z" fill="#A33A38"/>
<path d="M204.94 284.76H204.07V299.5H204.94V284.76Z" fill="#A33A38"/>
<path d="M212.54 284.76H211.67V299.5H212.54V284.76Z" fill="#A33A38"/>
<path d="M220.15 284.76H219.28V299.5H220.15V284.76Z" fill="#A33A38"/>
<path d="M227.74 284.76H226.87V299.5H227.74V284.76Z" fill="#A33A38"/>
<path d="M235.36 284.76H234.49V299.5H235.36V284.76Z" fill="#A33A38"/>
<path d="M242.95 284.76H242.08V299.5H242.95V284.76Z" fill="#A33A38"/>
<path d="M250.56 284.76H249.69V299.5H250.56V284.76Z" fill="#A33A38"/>
<path d="M258.16 284.76H257.29V299.5H258.16V284.76Z" fill="#A33A38"/>
<path d="M269.28 159.08H23.1201V163.38H269.28V159.08Z" fill="#7F2220"/>
<path d="M170.14 80.14H124.63V95.21H170.14V80.14Z" fill="#7F2220"/>
<path d="M112.82 215.92C115.686 215.92 118.01 213.596 118.01 210.73C118.01 207.864 115.686 205.54 112.82 205.54C109.954 205.54 107.63 207.864 107.63 210.73C107.63 213.596 109.954 215.92 112.82 215.92Z" fill="white"/>
<path d="M112.82 215.01C115.184 215.01 117.1 213.094 117.1 210.73C117.1 208.366 115.184 206.45 112.82 206.45C110.456 206.45 108.54 208.366 108.54 210.73C108.54 213.094 110.456 215.01 112.82 215.01Z" fill="#EED679"/>
<path d="M112.82 213.11C114.134 213.11 115.2 212.044 115.2 210.73C115.2 209.416 114.134 208.35 112.82 208.35C111.506 208.35 110.44 209.416 110.44 210.73C110.44 212.044 111.506 213.11 112.82 213.11Z" fill="white"/>
<path d="M174.91 215.92C177.777 215.92 180.1 213.596 180.1 210.73C180.1 207.864 177.777 205.54 174.91 205.54C172.044 205.54 169.72 207.864 169.72 210.73C169.72 213.596 172.044 215.92 174.91 215.92Z" fill="white"/>
<path d="M174.91 215.01C177.274 215.01 179.19 213.094 179.19 210.73C179.19 208.366 177.274 206.45 174.91 206.45C172.546 206.45 170.63 208.366 170.63 210.73C170.63 213.094 172.546 215.01 174.91 215.01Z" fill="#EED679"/>
<path d="M174.91 213.11C176.224 213.11 177.29 212.044 177.29 210.73C177.29 209.416 176.224 208.35 174.91 208.35C173.595 208.35 172.53 209.416 172.53 210.73C172.53 212.044 173.595 213.11 174.91 213.11Z" fill="white"/>
<path d="M143.24 215.92C146.106 215.92 148.43 213.596 148.43 210.73C148.43 207.864 146.106 205.54 143.24 205.54C140.373 205.54 138.05 207.864 138.05 210.73C138.05 213.596 140.373 215.92 143.24 215.92Z" fill="white"/>
<path d="M143.24 215.01C145.604 215.01 147.52 213.094 147.52 210.73C147.52 208.366 145.604 206.45 143.24 206.45C140.876 206.45 138.96 208.366 138.96 210.73C138.96 213.094 140.876 215.01 143.24 215.01Z" fill="#EED679"/>
<path d="M143.24 213.11C144.554 213.11 145.62 212.044 145.62 210.73C145.62 209.416 144.554 208.35 143.24 208.35C141.925 208.35 140.86 209.416 140.86 210.73C140.86 212.044 141.925 213.11 143.24 213.11Z" fill="white"/>
<path d="M133.97 100.95C134.721 100.95 135.33 100.341 135.33 99.59C135.33 98.8389 134.721 98.23 133.97 98.23C133.219 98.23 132.61 98.8389 132.61 99.59C132.61 100.341 133.219 100.95 133.97 100.95Z" fill="white"/>
<path d="M133.97 100.71C134.589 100.71 135.09 100.209 135.09 99.59C135.09 98.9714 134.589 98.47 133.97 98.47C133.352 98.47 132.85 98.9714 132.85 99.59C132.85 100.209 133.352 100.71 133.97 100.71Z" fill="#EED679"/>
<path d="M125.26 100.95C126.011 100.95 126.62 100.341 126.62 99.59C126.62 98.8389 126.011 98.23 125.26 98.23C124.509 98.23 123.9 98.8389 123.9 99.59C123.9 100.341 124.509 100.95 125.26 100.95Z" fill="white"/>
<path d="M125.26 100.71C125.879 100.71 126.38 100.209 126.38 99.59C126.38 98.9714 125.879 98.47 125.26 98.47C124.642 98.47 124.14 98.9714 124.14 99.59C124.14 100.209 124.642 100.71 125.26 100.71Z" fill="#EED679"/>
<path d="M116.55 100.95C117.301 100.95 117.91 100.341 117.91 99.59C117.91 98.8389 117.301 98.23 116.55 98.23C115.799 98.23 115.19 98.8389 115.19 99.59C115.19 100.341 115.799 100.95 116.55 100.95Z" fill="white"/>
<path d="M116.55 100.71C117.169 100.71 117.67 100.209 117.67 99.59C117.67 98.9714 117.169 98.47 116.55 98.47C115.932 98.47 115.43 98.9714 115.43 99.59C115.43 100.209 115.932 100.71 116.55 100.71Z" fill="#EED679"/>
<path d="M107.84 100.95C108.591 100.95 109.2 100.341 109.2 99.59C109.2 98.8389 108.591 98.23 107.84 98.23C107.089 98.23 106.48 98.8389 106.48 99.59C106.48 100.341 107.089 100.95 107.84 100.95Z" fill="white"/>
<path d="M107.84 100.71C108.459 100.71 108.96 100.209 108.96 99.59C108.96 98.9714 108.459 98.47 107.84 98.47C107.222 98.47 106.72 98.9714 106.72 99.59C106.72 100.209 107.222 100.71 107.84 100.71Z" fill="#EED679"/>
<path d="M99.1198 100.95C99.8709 100.95 100.48 100.341 100.48 99.59C100.48 98.8389 99.8709 98.23 99.1198 98.23C98.3687 98.23 97.7598 98.8389 97.7598 99.59C97.7598 100.341 98.3687 100.95 99.1198 100.95Z" fill="white"/>
<path d="M99.12 100.71C99.7386 100.71 100.24 100.209 100.24 99.59C100.24 98.9714 99.7386 98.47 99.12 98.47C98.5014 98.47 98 98.9714 98 99.59C98 100.209 98.5014 100.71 99.12 100.71Z" fill="#EED679"/>
<path d="M90.4098 100.95C91.1609 100.95 91.7698 100.341 91.7698 99.59C91.7698 98.8389 91.1609 98.23 90.4098 98.23C89.6587 98.23 89.0498 98.8389 89.0498 99.59C89.0498 100.341 89.6587 100.95 90.4098 100.95Z" fill="white"/>
<path d="M90.41 100.71C91.0286 100.71 91.53 100.209 91.53 99.59C91.53 98.9714 91.0286 98.47 90.41 98.47C89.7915 98.47 89.29 98.9714 89.29 99.59C89.29 100.209 89.7915 100.71 90.41 100.71Z" fill="#EED679"/>
<path d="M81.6998 100.95C82.451 100.95 83.0598 100.341 83.0598 99.59C83.0598 98.8389 82.451 98.23 81.6998 98.23C80.9487 98.23 80.3398 98.8389 80.3398 99.59C80.3398 100.341 80.9487 100.95 81.6998 100.95Z" fill="white"/>
<path d="M81.7001 100.71C82.3186 100.71 82.8201 100.209 82.8201 99.59C82.8201 98.9714 82.3186 98.47 81.7001 98.47C81.0815 98.47 80.5801 98.9714 80.5801 99.59C80.5801 100.209 81.0815 100.71 81.7001 100.71Z" fill="#EED679"/>
<path d="M72.9899 100.95C73.741 100.95 74.3499 100.341 74.3499 99.59C74.3499 98.8389 73.741 98.23 72.9899 98.23C72.2388 98.23 71.6299 98.8389 71.6299 99.59C71.6299 100.341 72.2388 100.95 72.9899 100.95Z" fill="white"/>
<path d="M72.9901 100.71C73.6087 100.71 74.1101 100.209 74.1101 99.59C74.1101 98.9714 73.6087 98.47 72.9901 98.47C72.3716 98.47 71.8701 98.9714 71.8701 99.59C71.8701 100.209 72.3716 100.71 72.9901 100.71Z" fill="#EED679"/>
<path d="M64.2799 100.95C65.031 100.95 65.6399 100.341 65.6399 99.59C65.6399 98.8389 65.031 98.23 64.2799 98.23C63.5288 98.23 62.9199 98.8389 62.9199 99.59C62.9199 100.341 63.5288 100.95 64.2799 100.95Z" fill="white"/>
<path d="M64.2802 100.71C64.8987 100.71 65.4002 100.209 65.4002 99.59C65.4002 98.9714 64.8987 98.47 64.2802 98.47C63.6616 98.47 63.1602 98.9714 63.1602 99.59C63.1602 100.209 63.6616 100.71 64.2802 100.71Z" fill="#EED679"/>
<path d="M141 100.95C141.751 100.95 142.36 100.341 142.36 99.59C142.36 98.8389 141.751 98.23 141 98.23C140.249 98.23 139.64 98.8389 139.64 99.59C139.64 100.341 140.249 100.95 141 100.95Z" fill="white"/>
<path d="M141 100.71C141.618 100.71 142.12 100.209 142.12 99.59C142.12 98.9714 141.618 98.47 141 98.47C140.381 98.47 139.88 98.9714 139.88 99.59C139.88 100.209 140.381 100.71 141 100.71Z" fill="#EED679"/>
<path d="M148.03 100.95C148.781 100.95 149.39 100.341 149.39 99.59C149.39 98.8389 148.781 98.23 148.03 98.23C147.279 98.23 146.67 98.8389 146.67 99.59C146.67 100.341 147.279 100.95 148.03 100.95Z" fill="white"/>
<path d="M148.03 100.71C148.649 100.71 149.15 100.209 149.15 99.59C149.15 98.9714 148.649 98.47 148.03 98.47C147.412 98.47 146.91 98.9714 146.91 99.59C146.91 100.209 147.412 100.71 148.03 100.71Z" fill="#EED679"/>
<path d="M154.45 100.95C155.201 100.95 155.81 100.341 155.81 99.59C155.81 98.8389 155.201 98.23 154.45 98.23C153.699 98.23 153.09 98.8389 153.09 99.59C153.09 100.341 153.699 100.95 154.45 100.95Z" fill="white"/>
<path d="M154.45 100.71C155.069 100.71 155.57 100.209 155.57 99.59C155.57 98.9714 155.069 98.47 154.45 98.47C153.832 98.47 153.33 98.9714 153.33 99.59C153.33 100.209 153.832 100.71 154.45 100.71Z" fill="#EED679"/>
<path d="M161.48 100.95C162.231 100.95 162.84 100.341 162.84 99.59C162.84 98.8389 162.231 98.23 161.48 98.23C160.729 98.23 160.12 98.8389 160.12 99.59C160.12 100.341 160.729 100.95 161.48 100.95Z" fill="white"/>
<path d="M161.48 100.71C162.098 100.71 162.6 100.209 162.6 99.59C162.6 98.9714 162.098 98.47 161.48 98.47C160.861 98.47 160.36 98.9714 160.36 99.59C160.36 100.209 160.861 100.71 161.48 100.71Z" fill="#EED679"/>
<path d="M169.91 100.95C170.661 100.95 171.27 100.341 171.27 99.59C171.27 98.8389 170.661 98.23 169.91 98.23C169.159 98.23 168.55 98.8389 168.55 99.59C168.55 100.341 169.159 100.95 169.91 100.95Z" fill="white"/>
<path d="M169.91 100.71C170.529 100.71 171.03 100.209 171.03 99.59C171.03 98.9714 170.529 98.47 169.91 98.47C169.291 98.47 168.79 98.9714 168.79 99.59C168.79 100.209 169.291 100.71 169.91 100.71Z" fill="#EED679"/>
<path d="M178.34 100.95C179.091 100.95 179.7 100.341 179.7 99.59C179.7 98.8389 179.091 98.23 178.34 98.23C177.589 98.23 176.98 98.8389 176.98 99.59C176.98 100.341 177.589 100.95 178.34 100.95Z" fill="white"/>
<path d="M178.34 100.71C178.959 100.71 179.46 100.209 179.46 99.59C179.46 98.9714 178.959 98.47 178.34 98.47C177.722 98.47 177.22 98.9714 177.22 99.59C177.22 100.209 177.722 100.71 178.34 100.71Z" fill="#EED679"/>
<path d="M186.77 100.95C187.521 100.95 188.13 100.341 188.13 99.59C188.13 98.8389 187.521 98.23 186.77 98.23C186.019 98.23 185.41 98.8389 185.41 99.59C185.41 100.341 186.019 100.95 186.77 100.95Z" fill="white"/>
<path d="M186.77 100.71C187.388 100.71 187.89 100.209 187.89 99.59C187.89 98.9714 187.388 98.47 186.77 98.47C186.151 98.47 185.65 98.9714 185.65 99.59C185.65 100.209 186.151 100.71 186.77 100.71Z" fill="#EED679"/>
<path d="M195.2 100.95C195.951 100.95 196.56 100.341 196.56 99.59C196.56 98.8389 195.951 98.23 195.2 98.23C194.449 98.23 193.84 98.8389 193.84 99.59C193.84 100.341 194.449 100.95 195.2 100.95Z" fill="white"/>
<path d="M195.2 100.71C195.819 100.71 196.32 100.209 196.32 99.59C196.32 98.9714 195.819 98.47 195.2 98.47C194.582 98.47 194.08 98.9714 194.08 99.59C194.08 100.209 194.582 100.71 195.2 100.71Z" fill="#EED679"/>
<path d="M203.63 100.95C204.381 100.95 204.99 100.341 204.99 99.59C204.99 98.8389 204.381 98.23 203.63 98.23C202.879 98.23 202.27 98.8389 202.27 99.59C202.27 100.341 202.879 100.95 203.63 100.95Z" fill="white"/>
<path d="M203.63 100.71C204.248 100.71 204.75 100.209 204.75 99.59C204.75 98.9714 204.248 98.47 203.63 98.47C203.011 98.47 202.51 98.9714 202.51 99.59C202.51 100.209 203.011 100.71 203.63 100.71Z" fill="#EED679"/>
<path d="M212.06 100.95C212.811 100.95 213.42 100.341 213.42 99.59C213.42 98.8389 212.811 98.23 212.06 98.23C211.309 98.23 210.7 98.8389 210.7 99.59C210.7 100.341 211.309 100.95 212.06 100.95Z" fill="white"/>
<path d="M212.06 100.71C212.678 100.71 213.18 100.209 213.18 99.59C213.18 98.9714 212.678 98.47 212.06 98.47C211.441 98.47 210.94 98.9714 210.94 99.59C210.94 100.209 211.441 100.71 212.06 100.71Z" fill="#EED679"/>
<path d="M220.49 100.95C221.241 100.95 221.85 100.341 221.85 99.59C221.85 98.8389 221.241 98.23 220.49 98.23C219.739 98.23 219.13 98.8389 219.13 99.59C219.13 100.341 219.739 100.95 220.49 100.95Z" fill="white"/>
<path d="M220.49 100.71C221.109 100.71 221.61 100.209 221.61 99.59C221.61 98.9714 221.109 98.47 220.49 98.47C219.872 98.47 219.37 98.9714 219.37 99.59C219.37 100.209 219.872 100.71 220.49 100.71Z" fill="#EED679"/>
<path d="M228.92 100.95C229.671 100.95 230.28 100.341 230.28 99.59C230.28 98.8389 229.671 98.23 228.92 98.23C228.169 98.23 227.56 98.8389 227.56 99.59C227.56 100.341 228.169 100.95 228.92 100.95Z" fill="white"/>
<path d="M228.92 100.71C229.538 100.71 230.04 100.209 230.04 99.59C230.04 98.9714 229.538 98.47 228.92 98.47C228.301 98.47 227.8 98.9714 227.8 99.59C227.8 100.209 228.301 100.71 228.92 100.71Z" fill="#EED679"/>
<path d="M269.28 156.11H23.1201V161.77H269.28V156.11Z" fill="#EBDDC1"/>
<path d="M279.45 147.06H12.9702V156.5H279.45V147.06Z" fill="#9E9078"/>
<path d="M54.7 156.11H21.27V159.63H54.7V156.11Z" fill="#9E9078"/>
<path d="M270.77 156H237.34V159.52H270.77V156Z" fill="#9E9078"/>
<path d="M54.6999 161.63H29.3999V167.17H54.6999V161.63Z" fill="#EBDDC1"/>
<path d="M262.64 161.63H237.34V167.17H262.64V161.63Z" fill="#EBDDC1"/>
<path d="M250.87 3.91003H41.1802V5.37003H250.87V3.91003Z" fill="#9E9078"/>
<path d="M251.05 5.38H41.3599V11.75H251.05V5.38Z" fill="#8E806B"/>
<path d="M63.3299 0H31.6499V2.92H63.3299V0Z" fill="#9E9078"/>
<path d="M260.41 0H228.73V2.92H260.41V0Z" fill="#9E9078"/>
<path d="M59.47 2.92004H35.5V13.68H59.47V2.92004Z" fill="#EBDDC1"/>
<path d="M256.55 2.92004H232.58V13.68H256.55V2.92004Z" fill="#EBDDC1"/>
<path d="M232.58 11.75H59.48V13.68H232.58V11.75Z" fill="#EBDDC1"/>
<path d="M67.5999 5.38H64.1499V11.75H67.5999V5.38Z" fill="#EBDDC1"/>
<path d="M76.0398 5.38H72.5898V11.75H76.0398V5.38Z" fill="#EBDDC1"/>
<path d="M84.4798 5.38H81.0298V11.75H84.4798V5.38Z" fill="#EBDDC1"/>
<path d="M92.9202 5.38H89.4702V11.75H92.9202V5.38Z" fill="#EBDDC1"/>
<path d="M101.36 5.38H97.9102V11.75H101.36V5.38Z" fill="#EBDDC1"/>
<path d="M109.8 5.38H106.35V11.75H109.8V5.38Z" fill="#EBDDC1"/>
<path d="M118.24 5.38H114.79V11.75H118.24V5.38Z" fill="#EBDDC1"/>
<path d="M126.68 5.38H123.23V11.75H126.68V5.38Z" fill="#EBDDC1"/>
<path d="M135.12 5.38H131.67V11.75H135.12V5.38Z" fill="#EBDDC1"/>
<path d="M143.56 5.38H140.11V11.75H143.56V5.38Z" fill="#EBDDC1"/>
<path d="M152 5.38H148.55V11.75H152V5.38Z" fill="#EBDDC1"/>
<path d="M160.44 5.38H156.99V11.75H160.44V5.38Z" fill="#EBDDC1"/>
<path d="M168.88 5.38H165.43V11.75H168.88V5.38Z" fill="#EBDDC1"/>
<path d="M177.32 5.38H173.87V11.75H177.32V5.38Z" fill="#EBDDC1"/>
<path d="M185.76 5.38H182.31V11.75H185.76V5.38Z" fill="#EBDDC1"/>
<path d="M194.2 5.38H190.75V11.75H194.2V5.38Z" fill="#EBDDC1"/>
<path d="M202.64 5.38H199.19V11.75H202.64V5.38Z" fill="#EBDDC1"/>
<path d="M211.08 5.38H207.63V11.75H211.08V5.38Z" fill="#EBDDC1"/>
<path d="M219.52 5.38H216.07V11.75H219.52V5.38Z" fill="#EBDDC1"/>
<path d="M227.96 5.38H224.51V11.75H227.96V5.38Z" fill="#EBDDC1"/>
<path d="M59.47 6.32996H35.5V7.38996H59.47V6.32996Z" fill="#8E806B"/>
<path d="M256.55 5.80005H232.58V6.86005H256.55V5.80005Z" fill="#8E806B"/>
<path d="M279.45 146.87H12.9702V149.19H279.45V146.87Z" fill="#8E806B"/>
<path d="M8.70996 149.16L12.97 146.87V149.19L8.70996 149.16Z" fill="#8E806B"/>
<path d="M283.63 149.16L279.38 146.87V149.19L283.63 149.16Z" fill="#8E806B"/>
<path d="M83.2502 35.04C91.9902 35.04 99.0802 42.13 99.0802 50.87V90.77H67.4302V50.87C67.4302 42.13 74.5202 35.04 83.2602 35.04H83.2502Z" fill="white"/>
<path d="M83.2498 36.9C90.9298 36.9 97.1698 43.14 97.1698 50.82V88.83H69.3198V50.82C69.3198 43.14 75.5598 36.9 83.2398 36.9H83.2498Z" fill="#B2CEBD"/>
<path d="M86.3902 61.45C86.3902 61.45 86.8602 55.5 87.3302 55.03C87.8002 54.56 90.3102 54.25 90.3102 54.25V50.8C88.5902 49.7 84.8302 48.14 84.8302 48.14V45.16H81.7002V48.14C81.7002 48.14 77.9402 49.71 76.2202 50.8V54.25C76.2202 54.25 78.7302 54.56 79.2002 55.03C79.6702 55.5 80.1402 61.45 80.1402 61.45C80.1402 61.45 73.2402 65.46 79.5402 82.51H87.7102C93.2402 64.7 86.4002 61.45 86.4002 61.45H86.3902Z" fill="white"/>
<path d="M83.25 73.99V89.03" stroke="#3C2D2B" stroke-width="0.61" stroke-miterlimit="10"/>
<path d="M80.1202 61.45C80.1202 61.45 73.2202 65.46 79.5202 82.51H87.6902C93.2302 64.7 86.3802 61.45 86.3802 61.45C86.3802 61.45 86.4302 60.81 86.5102 59.95H79.9702C80.0502 60.82 80.1002 61.45 80.1002 61.45H80.1202Z" fill="#1D1D1B"/>
<path d="M81.69 48.13C81.69 48.13 83.31 49.05 84.82 48.13C84.82 48.13 88.47 49.73 89.39 50.26L89.55 54.35C89.55 54.35 87.85 54.59 87.33 55.02L86.39 61.44C86.39 61.44 84.14 62.39 80.12 61.44C80.12 61.44 79.64 56.13 79.18 55.02C79.18 55.02 78.22 54.52 76.98 54.35V50.33C76.98 50.33 80.65 48.44 81.69 48.12V48.13Z" fill="#E0869B"/>
<path d="M81.6898 48.13C81.6898 48.13 81.4598 50.51 83.1398 48.66C83.1398 48.66 85.2898 50.5 84.8198 48.13C84.8198 48.13 82.8398 48.57 81.6898 48.13Z" fill="#1D1D1B"/>
<path d="M74.04 39.35C74.04 39.35 83.03 41.08 83.03 50.25V88.83" stroke="white" stroke-width="0.71" stroke-miterlimit="10"/>
<path d="M92.2498 39.35C92.2498 39.35 83.2598 41.08 83.2598 50.25C83.2598 58.36 83.2598 89.42 83.2598 89.42" stroke="white" stroke-width="0.71" stroke-miterlimit="10"/>
<path d="M68.98 56H97.18" stroke="white" stroke-width="0.71" stroke-miterlimit="10"/>
<path d="M68.8999 67.09H97.0999" stroke="white" stroke-width="0.71" stroke-miterlimit="10"/>
<path d="M69.1499 77.36H97.3499" stroke="white" stroke-width="0.71" stroke-miterlimit="10"/>
<path d="M64.1899 94.8H102.31L100.6 93.14H65.9999L64.1899 94.8Z" fill="#EBDDC1"/>
<path d="M211.59 31.84C221.07 31.84 228.76 39.54 228.76 49.01V92.31H194.41V49.01C194.41 39.53 202.11 31.84 211.58 31.84H211.59Z" fill="#7F2220"/>
<path d="M211.59 34.21C220.33 34.21 227.42 41.3 227.42 50.04V89.94H195.77V50.04C195.77 41.3 202.86 34.21 211.6 34.21H211.59Z" fill="white"/>
<path d="M211.59 36.0699C219.27 36.0699 225.51 42.3099 225.51 49.9899V87.9999H197.66V49.9899C197.66 42.3099 203.9 36.0699 211.58 36.0699H211.59Z" fill="#B2CEBD"/>
<path d="M202.38 38.52C202.38 38.52 211.37 40.25 211.37 49.42V88" stroke="white" stroke-width="0.71" stroke-miterlimit="10"/>
<path d="M214.73 60.62C214.73 60.62 215.2 54.67 215.67 54.2C216.14 53.73 218.65 53.42 218.65 53.42V49.97C216.93 48.87 213.17 47.31 213.17 47.31V44.33H210.04V47.31C210.04 47.31 206.28 48.88 204.56 49.97V53.42C204.56 53.42 207.07 53.73 207.54 54.2C208.01 54.67 208.48 60.62 208.48 60.62C208.48 60.62 207.65 63.71 208.59 67.47H214.63C215.92 63.62 214.74 60.62 214.74 60.62H214.73Z" fill="white"/>
<path d="M211.59 64.58V88.2" stroke="#3C2D2B" stroke-width="0.61" stroke-miterlimit="10"/>
<path d="M210.03 47.3C210.03 47.3 211.65 48.22 213.16 47.3C213.16 47.3 216.81 48.9 217.73 49.43L217.89 53.52C217.89 53.52 216.19 53.76 215.67 54.19L214.73 60.61C214.73 60.61 212.48 61.56 208.46 60.61C208.46 60.61 207.98 55.3 207.52 54.19C207.52 54.19 206.56 53.69 205.32 53.52V49.5C205.32 49.5 208.99 47.61 210.03 47.29V47.3Z" fill="#D6CED0"/>
<path d="M208.46 60.62C208.46 60.62 212.01 61.59 214.73 60.62C214.73 60.62 219.15 65.34 214.73 83.63H212.58C212.58 83.63 212.07 67.53 211.6 67.45C211.13 67.37 210.73 83.63 210.73 83.63H208.46C208.46 83.63 204.08 69.6 208.46 60.62Z" fill="#4A5B84"/>
<path d="M220.59 38.52C220.59 38.52 211.6 40.25 211.6 49.42C211.6 57.53 211.6 88.59 211.6 88.59" stroke="white" stroke-width="0.71" stroke-miterlimit="10"/>
<path d="M197.32 55.17H225.52" stroke="white" stroke-width="0.71" stroke-miterlimit="10"/>
<path d="M197.24 66.26H225.44" stroke="white" stroke-width="0.71" stroke-miterlimit="10"/>
<path d="M197.49 76.53H225.69" stroke="white" stroke-width="0.71" stroke-miterlimit="10"/>
<path d="M192.53 93.97H230.66L228.94 92.31H194.34L192.53 93.97Z" fill="#EBDDC1"/>
<path d="M147.39 47.03C159.82 47.03 169.91 57.12 169.91 69.55V77.71H124.87V69.55C124.87 57.12 134.96 47.03 147.39 47.03Z" fill="#7F2220"/>
<path d="M147.39 48.61C158.54 48.61 167.59 57.66 167.59 68.81V76.13H127.2V68.81C127.2 57.66 136.25 48.61 147.4 48.61H147.39Z" fill="white"/>
<path d="M147.39 49.85C157.53 49.85 165.76 58.08 165.76 68.22V74.87H129.02V68.22C129.02 58.08 137.25 49.85 147.39 49.85Z" fill="#B2CEBD"/>
<path d="M147.17 64.26H147.86C151.58 64.26 154.6 67.28 154.6 71V74.88H140.44V71C140.44 67.28 143.46 64.26 147.18 64.26H147.17Z" fill="#E0869B"/>
<path d="M147.34 61.44H147.68C149.54 61.44 151.04 62.95 151.04 64.8V66.73H143.97V64.8C143.97 62.94 145.48 61.44 147.33 61.44H147.34Z" stroke="#E0869B" stroke-width="0.44" stroke-miterlimit="10"/>
<path d="M142.66 66.44L147.51 68.51L151.76 66.44" stroke="#C16C82" stroke-width="0.44" stroke-linecap="round" stroke-linejoin="round"/>
<path d="M147.51 69.57C148.096 69.57 148.57 69.0954 148.57 68.51C148.57 67.9246 148.096 67.45 147.51 67.45C146.925 67.45 146.45 67.9246 146.45 68.51C146.45 69.0954 146.925 69.57 147.51 69.57Z" fill="#F2E48F"/>
<path d="M136.83 52.68C136.83 52.68 147.38 53.52 147.38 62.37V75.18" stroke="white" stroke-width="0.62" stroke-miterlimit="10"/>
<path d="M157.94 52.68C157.94 52.68 147.39 53.52 147.39 62.37V75.18" stroke="white" stroke-width="0.62" stroke-miterlimit="10"/>
<path d="M130.26 60.5H164.75" stroke="white" stroke-width="0.62" stroke-miterlimit="10"/>
<path d="M167.58 82.14H127.19V93.26H167.58V82.14Z" stroke="#EBDDC1" stroke-width="0.62" stroke-miterlimit="10"/>
<path d="M181.66 218.89H105.63V299.54H181.66V218.89Z" fill="#7F2220"/>
<path d="M179.28 221.98H108.01V299.53H179.28V221.98Z" fill="white"/>
<path d="M177.71 224.01H109.58V299.54H177.71V224.01Z" fill="#B2CEBD"/>
<path d="M144.11 224.01H143.18V299.51H144.11V224.01Z" fill="white"/>
<path d="M283.64 203.98H231.82V299.51H283.64V203.98Z" fill="#993833"/>
<path d="M59.36 203.98H7.54004V299.51H59.36V203.98Z" fill="#993833"/>
<path d="M100.24 218.89H12.9702V276.9H100.24V218.89Z" fill="#7F2220"/>
<path d="M249.99 109.67H45.0498V146.6H249.99V109.67Z" fill="#7F2220"/>
<path d="M97.6098 221.61H15.5898V274.18H97.6098V221.61Z" fill="white"/>
<path d="M95.8998 222.91H17.2998V272.86H95.8998V222.91Z" fill="#B2CEBD"/>
<path d="M95.8998 234.9H17.2998V236.12H95.8998V234.9Z" fill="white"/>
<path d="M95.8998 247.89H17.2998V249.11H95.8998V247.89Z" fill="white"/>
<path d="M95.8998 260.15H17.2998V261.37H95.8998V260.15Z" fill="white"/>
<path d="M36.1202 222.91H34.9302V272.86H36.1202V222.91Z" fill="white"/>
<path d="M58.6099 222.91H57.4199V272.86H58.6099V222.91Z" fill="white"/>
<path d="M78.3702 222.91H77.1802V272.86H78.3702V222.91Z" fill="white"/>
<path d="M275.45 218.89H188.18V276.9H275.45V218.89Z" fill="#7F2220"/>
<path d="M272.83 221.61H190.81V274.18H272.83V221.61Z" fill="white"/>
<path d="M271.12 222.91H192.52V272.86H271.12V222.91Z" fill="#B2CEBD"/>
<path d="M271.12 234.9H192.52V236.12H271.12V234.9Z" fill="white"/>
<path d="M271.12 247.89H192.52V249.11H271.12V247.89Z" fill="white"/>
<path d="M271.12 260.15H192.52V261.37H271.12V260.15Z" fill="white"/>
<path d="M211.34 222.91H210.15V272.86H211.34V222.91Z" fill="white"/>
<path d="M233.83 222.91H232.64V272.86H233.83V222.91Z" fill="white"/>
<path d="M253.59 222.91H252.4V272.86H253.59V222.91Z" fill="white"/>
<path d="M269.28 177.27H23.1201V202.95H269.28V177.27Z" fill="#7F2220"/>
<path d="M1.93018 297.62H102.39C102.39 297.62 102.86 282.46 88.1702 289.09C88.1702 289.09 81.3602 275.25 67.1502 279.04C52.9302 282.83 52.1602 290.99 52.1602 290.99C52.1602 290.99 43.1202 276.55 27.0102 277.98C10.9002 279.4 1.93018 297.63 1.93018 297.63V297.62Z" fill="#809A56"/>
<path d="M0 295.69L1.93 303.52H102.39L105.59 295.69H0Z" fill="#575953"/>
<path d="M20.0201 289.62C21.0584 289.62 21.9001 288.778 21.9001 287.74C21.9001 286.702 21.0584 285.86 20.0201 285.86C18.9818 285.86 18.1401 286.702 18.1401 287.74C18.1401 288.778 18.9818 289.62 20.0201 289.62Z" fill="#EFB4D3"/>
<path d="M71.5602 290.44C72.5985 290.44 73.4402 289.598 73.4402 288.56C73.4402 287.522 72.5985 286.68 71.5602 286.68C70.5219 286.68 69.6802 287.522 69.6802 288.56C69.6802 289.598 70.5219 290.44 71.5602 290.44Z" fill="#EFB4D3"/>
<path d="M32.0302 284.04C32.7647 284.04 33.3602 283.445 33.3602 282.71C33.3602 281.975 32.7647 281.38 32.0302 281.38C31.2957 281.38 30.7002 281.975 30.7002 282.71C30.7002 283.445 31.2957 284.04 32.0302 284.04Z" fill="#EFB4D3"/>
<path d="M10.35 294.68C11.0846 294.68 11.68 294.085 11.68 293.35C11.68 292.615 11.0846 292.02 10.35 292.02C9.61548 292.02 9.02002 292.615 9.02002 293.35C9.02002 294.085 9.61548 294.68 10.35 294.68Z" fill="#EFB4D3"/>
<path d="M61.9701 291.77C62.7047 291.77 63.3001 291.175 63.3001 290.44C63.3001 289.705 62.7047 289.11 61.9701 289.11C61.2356 289.11 60.6401 289.705 60.6401 290.44C60.6401 291.175 61.2356 291.77 61.9701 291.77Z" fill="#EFB4D3"/>
<path d="M84.3798 294.68C85.1143 294.68 85.7098 294.085 85.7098 293.35C85.7098 292.615 85.1143 292.02 84.3798 292.02C83.6453 292.02 83.0498 292.615 83.0498 293.35C83.0498 294.085 83.6453 294.68 84.3798 294.68Z" fill="#EFB4D3"/>
<path d="M37.2199 290.39C37.6507 290.39 37.9999 290.041 37.9999 289.61C37.9999 289.179 37.6507 288.83 37.2199 288.83C36.7892 288.83 36.4399 289.179 36.4399 289.61C36.4399 290.041 36.7892 290.39 37.2199 290.39Z" fill="#EFB4D3"/>
<path d="M95.4001 292.8C95.8309 292.8 96.1801 292.451 96.1801 292.02C96.1801 291.589 95.8309 291.24 95.4001 291.24C94.9693 291.24 94.6201 291.589 94.6201 292.02C94.6201 292.451 94.9693 292.8 95.4001 292.8Z" fill="#EFB4D3"/>
<path d="M77.1999 283.49C77.6307 283.49 77.9799 283.141 77.9799 282.71C77.9799 282.279 77.6307 281.93 77.1999 281.93C76.7691 281.93 76.4199 282.279 76.4199 282.71C76.4199 283.141 76.7691 283.49 77.1999 283.49Z" fill="#EFB4D3"/>
<path d="M184.49 294.62H284.95C284.95 294.62 285.42 279.46 270.73 286.09C270.73 286.09 263.92 272.25 249.71 276.04C235.49 279.83 234.72 287.99 234.72 287.99C234.72 287.99 225.68 273.55 209.57 274.98C193.46 276.4 184.49 294.63 184.49 294.63V294.62Z" fill="#809A56"/>
<path d="M182.56 292.7L184.49 300.53H284.95L288.15 292.7H182.56Z" fill="#575953"/>
<path d="M202.58 286.63C203.618 286.63 204.46 285.788 204.46 284.75C204.46 283.712 203.618 282.87 202.58 282.87C201.542 282.87 200.7 283.712 200.7 284.75C200.7 285.788 201.542 286.63 202.58 286.63Z" fill="#EFB4D3"/>
<path d="M254.12 287.45C255.159 287.45 256 286.608 256 285.57C256 284.532 255.159 283.69 254.12 283.69C253.082 283.69 252.24 284.532 252.24 285.57C252.24 286.608 253.082 287.45 254.12 287.45Z" fill="#EFB4D3"/>
<path d="M214.59 281.05C215.324 281.05 215.92 280.455 215.92 279.72C215.92 278.985 215.324 278.39 214.59 278.39C213.855 278.39 213.26 278.985 213.26 279.72C213.26 280.455 213.855 281.05 214.59 281.05Z" fill="#EFB4D3"/>
<path d="M192.91 291.69C193.645 291.69 194.24 291.095 194.24 290.36C194.24 289.625 193.645 289.03 192.91 289.03C192.176 289.03 191.58 289.625 191.58 290.36C191.58 291.095 192.176 291.69 192.91 291.69Z" fill="#EFB4D3"/>
<path d="M244.53 288.78C245.265 288.78 245.86 288.185 245.86 287.45C245.86 286.715 245.265 286.12 244.53 286.12C243.796 286.12 243.2 286.715 243.2 287.45C243.2 288.185 243.796 288.78 244.53 288.78Z" fill="#EFB4D3"/>
<path d="M266.94 291.69C267.674 291.69 268.27 291.095 268.27 290.36C268.27 289.625 267.674 289.03 266.94 289.03C266.205 289.03 265.61 289.625 265.61 290.36C265.61 291.095 266.205 291.69 266.94 291.69Z" fill="#EFB4D3"/>
<path d="M219.79 287.4C220.221 287.4 220.57 287.051 220.57 286.62C220.57 286.189 220.221 285.84 219.79 285.84C219.359 285.84 219.01 286.189 219.01 286.62C219.01 287.051 219.359 287.4 219.79 287.4Z" fill="#EFB4D3"/>
<path d="M277.96 289.81C278.391 289.81 278.74 289.461 278.74 289.03C278.74 288.599 278.391 288.25 277.96 288.25C277.529 288.25 277.18 288.599 277.18 289.03C277.18 289.461 277.529 289.81 277.96 289.81Z" fill="#EFB4D3"/>
<path d="M259.76 280.5C260.191 280.5 260.54 280.151 260.54 279.72C260.54 279.289 260.191 278.94 259.76 278.94C259.329 278.94 258.98 279.289 258.98 279.72C258.98 280.151 259.329 280.5 259.76 280.5Z" fill="#EFB4D3"/>
<path d="M269.28 182.54H23.1201V198.41H269.28V182.54Z" fill="white"/>
<path d="M269.28 184.28H23.1201V196.68H269.28V184.28Z" fill="#B2CEBD"/>
<path d="M38.94 183.91H37.02V196.31H38.94V183.91Z" fill="white"/>
<path d="M76.7701 184.28H74.8501V196.68H76.7701V184.28Z" fill="white"/>
<path d="M110.95 184.28H109.03V196.68H110.95V184.28Z" fill="white"/>
<path d="M145.14 184.28H143.22V196.68H145.14V184.28Z" fill="white"/>
<path d="M179.33 184.28H177.41V196.68H179.33V184.28Z" fill="white"/>
<path d="M213.51 184.28H211.59V196.68H213.51V184.28Z" fill="white"/>
<path d="M255.7 184.28H253.78V196.68H255.7V184.28Z" fill="white"/>
<path d="M246.27 112.7H48.7598V146.61H246.27V112.7Z" fill="white"/>
<path d="M242.96 115.98H52.0801V146.87H242.96V115.98Z" fill="#B2CEBD"/>
<path d="M147.52 115.58H145.39V146.87H147.52V115.58Z" fill="white"/>
<path d="M51.9199 132.4H244.53" stroke="white" stroke-width="0.71" stroke-miterlimit="10"/>
</g>
<defs>
<clipPath id="clip0_1_596">
<rect width="288.15" height="303.52" fill="white"/>
</clipPath>
</defs>
</svg>
