<svg width="152" height="165" viewBox="0 0 152 165" fill="none" xmlns="http://www.w3.org/2000/svg">
<path d="M140.383 83.5977L140.393 83.5545L131.832 77.0282L134.742 39.0095L130.245 39.5763L132.717 18.5129L102.483 28.0297L101.829 10.0271L49.6785 30.7504C33.2035 30.9501 19.9511 31.301 18.8229 31.9056C7.6273 37.7463 10.2724 45.2389 10.2724 45.2389V135.921C10.2724 135.921 84.8686 160.785 113.63 152.985C113.63 152.985 116.604 143.025 119.972 128.839C126.45 128.326 132.372 126.124 135.524 120.737C143.659 106.826 140.55 84.7421 140.383 83.5977Z" fill="white" stroke="white" stroke-width="20" stroke-linecap="round" stroke-linejoin="round"/>
<path d="M127.989 74.0754L121.187 114.048C121.187 114.048 137.937 103.101 138.272 97.4654C138.607 91.8298 140.393 83.5329 140.393 83.5329L127.989 74.0808V74.0754Z" fill="#664B37"/>
<path d="M18.823 31.8839C21.9539 30.2105 118.099 30.4804 118.099 30.4804L115.773 66.5073L10.2724 45.2172C10.2724 45.2172 8.64762 37.3306 18.823 31.8839Z" fill="#664B37"/>
<path d="M18.7204 36.2185L18.7474 46.0862L10.2724 45.2171C10.2724 45.2171 7.6273 37.7245 18.8229 31.8838L18.7204 36.2185Z" fill="#4F392A"/>
<path d="M12.6909 45.4277L101.835 10L104.556 85.0929L12.6909 94.0591V45.4277Z" fill="#8EA579"/>
<path d="M26.1753 52.0296L132.723 18.4858L123.913 93.5787L32.0484 102.545L26.1753 52.0296Z" fill="#7B8E66"/>
<path d="M31.708 52.0296L134.747 38.9824L129.462 107.986L31.708 106.232V52.0296Z" fill="#697756"/>
<path d="M10.2725 45.217V135.9C10.2725 135.9 84.8687 160.763 113.63 152.963C113.63 152.963 131.67 92.5097 129.23 57.4059L10.2725 45.217Z" fill="#917057"/>
<path d="M10.2725 50.3723L121.187 65.0713C121.187 65.0713 112.291 139.457 110.143 146.744L10.2725 128.942" stroke="#EAD765" stroke-width="0.99" stroke-linecap="round" stroke-linejoin="round"/>
<path d="M99.9564 91.8782C99.9564 91.8782 130.947 107.776 140.383 83.522C140.383 83.522 143.886 106.431 135.53 120.709C127.174 134.993 99.4166 126.906 93.2196 124.213C87.0226 121.519 82.1697 95.1063 99.9564 91.8728V91.8782Z" fill="#B5937C"/>
<path d="M100.043 114.944C102.651 114.944 104.766 112.83 104.766 110.221C104.766 107.612 102.651 105.498 100.043 105.498C97.434 105.498 95.3193 107.612 95.3193 110.221C95.3193 112.83 97.434 114.944 100.043 114.944Z" fill="#6B4E38"/>
<path d="M100.043 114.21C102.246 114.21 104.032 112.424 104.032 110.221C104.032 108.018 102.246 106.232 100.043 106.232C97.8397 106.232 96.0537 108.018 96.0537 110.221C96.0537 112.424 97.8397 114.21 100.043 114.21Z" fill="#EAD765"/>
<path d="M19.7783 80.2291C19.7783 80.2291 30.0077 71.4032 37.0252 68.3965" stroke="#EAD765" stroke-width="0.99" stroke-linecap="round" stroke-linejoin="round"/>
<path d="M28.4048 80.2291C28.4048 80.2291 38.6342 71.4032 45.6517 68.3965" stroke="#EAD765" stroke-width="0.99" stroke-linecap="round" stroke-linejoin="round"/>
<path d="M57.1709 114.707C57.1709 114.707 64.928 108.019 70.2505 105.735" stroke="#EAD765" stroke-width="0.75" stroke-linecap="round" stroke-linejoin="round"/>
<path d="M63.708 114.707C63.708 114.707 71.4651 108.019 76.7876 105.735" stroke="#EAD765" stroke-width="0.75" stroke-linecap="round" stroke-linejoin="round"/>
</svg>
