<svg width="146" height="186" viewBox="0 0 146 186" fill="none" xmlns="http://www.w3.org/2000/svg">
<path d="M53.8767 51.9173C53.8767 51.9173 -4.00163 105.391 13.1913 145.234C30.3842 185.078 91.6202 177.947 106.929 169.142C122.238 160.333 141.742 135.172 133.142 110.843C124.543 86.5191 97.0723 53.1751 94.3462 50.2385C91.6202 47.302 92.878 40.5921 92.878 40.5921C92.878 40.5921 113.639 22.5571 115.107 19.8311C116.576 17.105 102.524 15.2157 94.7673 17.7366C87.0102 20.2521 80.8888 7.66916 72.6243 11.8635C64.3598 16.0578 65.6176 22.1414 56.6028 20.0416C47.588 17.9417 37.0995 11.4424 35.6312 15.2211C34.1629 18.9944 55.3288 41.6987 55.3288 45.2669C55.3288 48.835 53.8767 51.9227 53.8767 51.9227V51.9173Z" fill="white" stroke="white" stroke-width="20" stroke-miterlimit="10"/>
<path d="M55.0372 53.1966C55.0372 53.1966 -2.84113 106.67 14.3572 146.513C31.5501 186.357 92.7861 179.226 108.095 170.422C123.404 161.612 142.907 136.451 134.308 112.122C125.709 87.7984 98.2382 54.4544 95.5121 51.5178C92.7861 48.5813 94.0439 41.8714 94.0439 41.8714C94.0439 41.8714 114.805 23.8364 116.273 21.1104C117.741 18.3843 103.69 16.495 95.9332 19.0159C88.1761 21.5314 82.0547 8.94846 73.7902 13.1428C65.5257 17.3371 66.7835 23.4207 57.7687 21.3209C48.7538 19.2264 38.2654 12.7217 36.7971 16.5004C35.3288 20.2737 56.4947 42.978 56.4947 46.5462C56.4947 50.1143 55.0426 53.202 55.0426 53.202L55.0372 53.1966Z" fill="#F4EACE"/>
<path d="M134.352 112.354C125.753 88.0305 98.2817 54.6865 95.5557 51.7499C92.8297 48.8133 94.0874 42.1035 94.0874 42.1035C94.0874 42.1035 114.848 24.0685 116.317 21.3424C116.641 20.7432 116.209 20.1818 115.253 19.7014C100.786 24.1386 77.4667 32.5975 76.0524 41.4395C73.9903 54.314 90.1792 65.5744 95.939 99.3665C100.036 123.426 79.1941 158.907 66.8486 177.342C84.4842 178.362 101.127 174.686 108.139 170.654C123.448 161.844 142.951 136.684 134.352 112.354Z" fill="#D1C19F"/>
<path d="M54.9835 43.4262C54.9835 43.4262 81.0617 48.997 94.0441 41.877C94.0441 41.877 95.588 42.2602 95.3991 43.6907C95.2047 45.1158 88.8026 47.3128 75.1994 47.3776C61.5962 47.4424 55.5341 45.9579 54.9835 45.6988C54.4329 45.4397 54.1792 44.9269 54.1792 44.3439C54.1792 43.7609 54.9835 43.4316 54.9835 43.4316V43.4262Z" fill="#3C3C3B"/>
<path d="M54.9835 46.1738C54.9835 46.1738 81.0617 51.7446 94.0441 44.6245C94.0441 44.6245 95.588 45.0078 95.3991 46.4383C95.2047 47.8634 88.8026 50.0604 75.1994 50.1252C61.5962 50.1899 55.5341 48.7055 54.9835 48.4464C54.4329 48.1873 54.1792 47.6744 54.1792 47.0914C54.1792 46.5084 54.9835 46.1792 54.9835 46.1792V46.1738Z" fill="#3C3C3B"/>
<path d="M54.9835 48.9267C54.9835 48.9267 81.0617 54.4975 94.0441 47.3774C94.0441 47.3774 95.588 47.7607 95.3991 49.1912C95.2047 50.6163 88.8026 52.8133 75.1994 52.8781C61.5962 52.9429 55.5341 51.4584 54.9835 51.1993C54.4329 50.9402 54.1792 50.4274 54.1792 49.8444C54.1792 49.2614 54.9835 48.9321 54.9835 48.9321V48.9267Z" fill="#3C3C3B"/>
<path d="M64.8472 99.5609C74.5441 91.6014 80.3671 82.6663 77.8533 79.6038C75.3395 76.5412 65.4408 80.511 55.7438 88.4704C46.0469 96.4299 40.2239 105.365 42.7377 108.428C45.2515 111.49 55.1503 107.52 64.8472 99.5609Z" fill="#F4C74E"/>
<path d="M75.884 77.1936L40.7642 106.021L42.7369 108.424L77.8567 79.5969L75.884 77.1936Z" fill="#F4C74E"/>
<path d="M50.8483 108.036L49.1587 105.521" stroke="#E2B249" stroke-width="0.69" stroke-linecap="round" stroke-linejoin="round"/>
<path d="M47.9225 108.997L46.2329 106.481" stroke="#E2B249" stroke-width="0.69" stroke-linecap="round" stroke-linejoin="round"/>
<path d="M44.5811 109.11L43.21 106.406" stroke="#E2B249" stroke-width="0.69" stroke-linecap="round" stroke-linejoin="round"/>
<path d="M53.2399 106.978L51.5503 104.462" stroke="#E2B249" stroke-width="0.69" stroke-linecap="round" stroke-linejoin="round"/>
<path d="M55.9713 105.499L54.2817 102.983" stroke="#E2B249" stroke-width="0.69" stroke-linecap="round" stroke-linejoin="round"/>
<path d="M58.5675 103.928L56.8779 101.412" stroke="#E2B249" stroke-width="0.69" stroke-linecap="round" stroke-linejoin="round"/>
<path d="M61.1911 102.125L59.5015 99.6094" stroke="#E2B249" stroke-width="0.69" stroke-linecap="round" stroke-linejoin="round"/>
<path d="M63.5827 100.328L61.8931 97.812" stroke="#E2B249" stroke-width="0.69" stroke-linecap="round" stroke-linejoin="round"/>
<path d="M66.0227 98.3302L64.1226 95.9658" stroke="#E2B249" stroke-width="0.69" stroke-linecap="round" stroke-linejoin="round"/>
<path d="M67.9441 96.6136L66.0439 94.2546" stroke="#E2B249" stroke-width="0.69" stroke-linecap="round" stroke-linejoin="round"/>
<path d="M70.5894 94.0279L68.4302 91.9065" stroke="#E2B249" stroke-width="0.69" stroke-linecap="round" stroke-linejoin="round"/>
<path d="M72.565 91.8685L70.4058 89.7471" stroke="#E2B249" stroke-width="0.69" stroke-linecap="round" stroke-linejoin="round"/>
<path d="M74.8643 88.932L72.6997 86.8105" stroke="#E2B249" stroke-width="0.69" stroke-linecap="round" stroke-linejoin="round"/>
<path d="M76.7105 86.1088L74.5459 83.9873" stroke="#E2B249" stroke-width="0.69" stroke-linecap="round" stroke-linejoin="round"/>
<path d="M78.0709 82.9347L75.9116 80.8132" stroke="#E2B249" stroke-width="0.69" stroke-linecap="round" stroke-linejoin="round"/>
<path d="M78.0767 80.4193L75.9175 78.2979" stroke="#E2B249" stroke-width="0.69" stroke-linecap="round" stroke-linejoin="round"/>
<path d="M62.8765 97.1525C72.5734 89.193 78.3964 80.2579 75.8826 77.1953C73.3688 74.1328 63.4701 78.1025 53.7731 86.062C44.0762 94.0215 38.2532 102.957 40.767 106.019C43.2808 109.082 53.1796 105.112 62.8765 97.1525Z" fill="#F7D64D"/>
<path d="M61.715 95.3835C69.8795 88.6819 75.0046 81.4297 73.1623 79.1852C71.32 76.9407 63.2079 80.5539 55.0434 87.2555C46.8789 93.9572 41.7538 101.209 43.5961 103.454C45.4384 105.698 53.5505 102.085 61.715 95.3835Z" fill="#E2B249"/>
<path d="M62.0143 95.7405C70.1788 89.0389 75.304 81.7866 73.4616 79.5421C71.6193 77.2976 63.5072 80.9109 55.3427 87.6125C47.1782 94.3141 42.0531 101.566 43.8954 103.811C45.7377 106.055 53.8499 102.442 62.0143 95.7405Z" fill="#F6CB4E"/>
<path d="M103.908 140.072C106.2 136.839 99.7617 128.337 89.5281 121.08C79.2945 113.824 69.1407 110.561 66.8489 113.793C64.5571 117.025 70.9952 125.528 81.2288 132.785C91.4623 140.041 101.616 143.304 103.908 140.072Z" fill="#F4C74E"/>
<path d="M68.6462 111.26L66.8477 113.797L103.911 140.078L105.71 137.542L68.6462 111.26Z" fill="#F4C74E"/>
<path d="M69.3638 121.52L71.3449 119.232" stroke="#E2B249" stroke-width="0.69" stroke-linecap="round" stroke-linejoin="round"/>
<path d="M67.6636 118.951L69.6447 116.657" stroke="#E2B249" stroke-width="0.69" stroke-linecap="round" stroke-linejoin="round"/>
<path d="M66.6758 115.755L68.9214 113.72" stroke="#E2B249" stroke-width="0.69" stroke-linecap="round" stroke-linejoin="round"/>
<path d="M71.0156 123.55L72.9967 121.256" stroke="#E2B249" stroke-width="0.69" stroke-linecap="round" stroke-linejoin="round"/>
<path d="M73.1641 125.79L75.1452 123.501" stroke="#E2B249" stroke-width="0.69" stroke-linecap="round" stroke-linejoin="round"/>
<path d="M75.3613 127.885L77.3424 125.591" stroke="#E2B249" stroke-width="0.69" stroke-linecap="round" stroke-linejoin="round"/>
<path d="M77.7905 129.936L79.777 127.642" stroke="#E2B249" stroke-width="0.69" stroke-linecap="round" stroke-linejoin="round"/>
<path d="M80.1548 131.771L82.1413 129.482" stroke="#E2B249" stroke-width="0.69" stroke-linecap="round" stroke-linejoin="round"/>
<path d="M82.7241 133.601L84.5055 131.145" stroke="#E2B249" stroke-width="0.69" stroke-linecap="round" stroke-linejoin="round"/>
<path d="M84.8887 134.999L86.6646 132.549" stroke="#E2B249" stroke-width="0.69" stroke-linecap="round" stroke-linejoin="round"/>
<path d="M88.0791 136.873L89.5582 134.228" stroke="#E2B249" stroke-width="0.69" stroke-linecap="round" stroke-linejoin="round"/>
<path d="M90.6812 138.211L92.1602 135.566" stroke="#E2B249" stroke-width="0.69" stroke-linecap="round" stroke-linejoin="round"/>
<path d="M94.1196 139.653L95.5987 137.008" stroke="#E2B249" stroke-width="0.69" stroke-linecap="round" stroke-linejoin="round"/>
<path d="M97.3315 140.689L98.8106 138.044" stroke="#E2B249" stroke-width="0.69" stroke-linecap="round" stroke-linejoin="round"/>
<path d="M100.754 141.164L102.233 138.519" stroke="#E2B249" stroke-width="0.69" stroke-linecap="round" stroke-linejoin="round"/>
<path d="M103.183 140.511L104.657 137.86" stroke="#E2B249" stroke-width="0.69" stroke-linecap="round" stroke-linejoin="round"/>
<path d="M105.707 137.537C107.999 134.305 101.561 125.802 91.3269 118.546C81.0934 111.289 70.9395 108.027 68.6477 111.259C66.3559 114.491 72.794 122.994 83.0276 130.25C93.2612 137.507 103.415 140.769 105.707 137.537Z" fill="#F7D64D"/>
<path d="M103.073 135.438C104.753 133.07 99.1292 126.196 90.5128 120.087C81.8965 113.977 73.5499 110.944 71.8703 113.313C70.1907 115.682 75.814 122.555 84.4304 128.664C93.0467 134.774 101.393 137.807 103.073 135.438Z" fill="#E2B249"/>
<path d="M102.804 135.818C104.484 133.449 98.8606 126.576 90.2443 120.466C81.6279 114.356 73.2814 111.324 71.6018 113.692C69.9222 116.061 75.5455 122.934 84.1618 129.044C92.7782 135.154 101.125 138.186 102.804 135.818Z" fill="#F6CB4E"/>
<path d="M28.333 145.725C28.333 145.725 34.0388 150.346 42.1899 147.491C42.1899 147.491 33.2237 153.742 28.333 145.725Z" fill="#D1C19F"/>
<path d="M36.6514 153.828C36.6514 153.828 42.6648 158.038 50.6 154.621C50.6 154.621 42.0926 161.482 36.6514 153.828Z" fill="#D1C19F"/>
<path d="M29.8013 158.729C29.8013 158.729 35.5071 163.35 43.6582 160.495C43.6582 160.495 34.6919 166.746 29.8013 158.729Z" fill="#D1C19F"/>
<path d="M99.183 84.0521C99.183 84.0521 99.1398 84.0521 99.1236 84.0521C98.5083 84.0197 98.0332 83.4907 98.0656 82.8753C98.3409 77.7417 94.8807 74.9077 91.2208 71.9064C88.0306 69.2937 84.7269 66.5947 83.9064 62.26C82.9725 57.3585 84.2627 54.3626 85.5042 52.7108C86.8754 50.8916 88.4678 50.2654 88.6459 50.2007C89.148 50.0171 89.7094 50.2115 89.9901 50.6703C90.1358 50.9078 93.4988 56.5272 93.6122 61.2883C93.6284 61.9037 93.1371 62.4165 92.5218 62.4327C92.511 62.4327 92.5056 62.4327 92.4948 62.4327C91.8902 62.4327 91.3936 61.9469 91.3774 61.3423C91.3072 58.233 89.515 54.4813 88.6028 52.7701C87.3018 53.6932 85.0346 56.171 86.1088 61.8443C86.7782 65.3801 89.6284 67.7121 92.6459 70.179C96.3976 73.2505 100.646 76.7269 100.311 82.9941C100.279 83.5879 99.7876 84.0521 99.1938 84.0521H99.183Z" fill="#3C3C3B"/>
</svg>
