<svg width="219" height="234" viewBox="0 0 219 234" fill="none" xmlns="http://www.w3.org/2000/svg">
<path d="M179.906 39.2617C179.906 29.896 171.031 22.2577 171.031 22.2577C164.132 12.6437 155.506 14.1228 155.506 14.1228C142.94 11.6559 133.574 16.3414 133.574 16.3414C94.6374 11.1647 70.238 28.1687 70.238 28.1687C70.238 28.1687 53.8278 16.363 52.2462 15.3536C46.6483 11.7692 27.6039 4.75712 17.002 16.5843C6.40556 28.4116 9.60663 44.1848 15.0317 54.5383C20.4514 64.8865 21.1909 71.7907 21.1909 71.7907C10.8428 93.2319 13.056 128.228 13.056 128.228C9.60663 154.106 31.0479 163.963 31.0479 163.963C32.3164 165.685 33.9844 167.434 35.9547 169.178C35.8414 177.566 37.6659 189.847 48.5269 194.263C48.5269 194.263 62.0815 197.939 70.9938 190.09C80.5808 194.581 87.9816 197.48 87.9816 197.48C93.1583 214.975 108.435 225.329 122.2 223.85C135.965 222.37 140.23 196.492 141.212 195.261C141.541 194.851 146.875 191.175 153.822 186.468C156.71 191.623 161.768 195.591 170.643 193.842C186.972 190.624 188.235 176.282 188.284 162.991C206.049 137.183 207.506 115.407 207.506 115.407C213.665 68.3359 179.906 39.2563 179.906 39.2563V39.2617Z" fill="white" stroke="white" stroke-width="20" stroke-miterlimit="10"/>
<path d="M149.995 170.247C149.995 170.247 149.698 197.971 170.643 193.842C191.587 189.712 187.749 167.294 188.343 152.249L149.995 170.241V170.247Z" fill="#E49BA8"/>
<path d="M48.5268 194.263C48.5268 194.263 69.7629 200.039 76.5483 181.75L36.7266 160.805C36.7266 160.805 31.4148 187.304 48.5268 194.263Z" fill="#E49BA8"/>
<path d="M87.9762 197.48C87.9762 197.48 42.6322 179.736 31.0479 163.963C31.0479 163.963 9.60663 154.106 13.056 128.228C13.056 128.228 10.8374 93.2318 21.1909 71.7906C21.1909 71.7906 20.4514 64.8918 15.0317 54.5383C9.61203 44.1901 6.40556 28.4169 17.002 16.5843C27.5985 4.75705 46.643 11.7638 52.2462 15.3535C53.8278 16.3683 70.238 28.1686 70.238 28.1686C70.238 28.1686 94.6374 11.1646 133.574 16.3414C133.574 16.3414 142.94 11.6612 155.506 14.1227C155.506 14.1227 164.132 12.6437 171.031 22.2577C171.031 22.2577 179.906 29.896 179.906 39.2617C179.906 39.2617 213.671 68.3412 207.506 115.413C207.506 115.413 206.027 137.593 187.792 163.715C187.792 163.715 142.2 194.025 141.212 195.261C140.224 196.492 135.96 222.37 122.2 223.849C108.435 225.329 93.1583 214.975 87.9816 197.48H87.9762Z" fill="#FFC4CE"/>
<path d="M87.2798 40.282L95.0908 43.1754C95.0908 43.1754 115.004 21.5344 131.496 19.5101L130.087 17.9771C130.087 17.9771 101.196 21.1619 87.2798 40.282Z" fill="#E49BA8"/>
<path d="M36.9752 81.3507C38.281 81.3507 39.3396 79.8716 39.3396 78.047C39.3396 76.2225 38.281 74.7434 36.9752 74.7434C35.6694 74.7434 34.6108 76.2225 34.6108 78.047C34.6108 79.8716 35.6694 81.3507 36.9752 81.3507Z" fill="#3C3C3B"/>
<path d="M77.6117 103.645C79.2156 103.645 80.5159 102.345 80.5159 100.741C80.5159 99.1367 79.2156 97.8364 77.6117 97.8364C76.0078 97.8364 74.7075 99.1367 74.7075 100.741C74.7075 102.345 76.0078 103.645 77.6117 103.645Z" fill="#3C3C3B"/>
<path d="M39.5176 146.516C39.5176 146.516 39.6147 148.341 38.94 151.601C38.2706 154.862 41.3367 156.395 42.2004 151.024C43.0641 145.653 43.0641 140.665 41.0506 140.859C39.0371 141.054 39.6525 144.114 39.5176 146.516Z" fill="#3C3C3B"/>
<path d="M21.8818 138.22C21.8818 138.22 21.979 140.044 21.3042 143.305C20.6349 146.565 23.701 148.098 24.5647 142.727C25.4284 137.356 25.4284 132.368 23.4149 132.562C21.4014 132.757 22.0168 135.817 21.8818 138.22Z" fill="#3C3C3B"/>
<path d="M23.1666 65.6421C23.1666 65.6421 30.5565 44.4276 40.0086 43.1752C49.4607 41.9228 53.7576 45.7069 53.7576 45.7069C53.7576 45.7069 42.9344 20.6166 23.1666 21.3021C3.39874 21.9877 23.1666 65.6421 23.1666 65.6421Z" fill="#E49BA8"/>
<path d="M83.6577 64.6111C83.6577 64.6111 100.845 44.6759 126.108 47.2508C151.371 49.8311 154.119 76.9835 154.119 83.6879C154.119 90.3924 148.106 110.5 128.856 120.125C128.856 120.125 111.668 64.4437 83.6577 64.6165V64.6111Z" fill="#F2B6C3"/>
<path d="M36.9749 113.221C36.9749 113.221 51.9492 116.406 58.74 127.699C65.5254 138.991 60.6725 118.246 49.072 113.221C37.4715 108.19 24.8831 113.221 36.9749 113.221Z" fill="white"/>
<path d="M83.6577 64.6111C83.6577 64.6111 124.548 89.6205 128.856 120.12C128.856 120.12 141.903 71.4505 114.394 61.2967C91.0855 52.6975 83.6577 64.6057 83.6577 64.6057V64.6111Z" fill="#E49BA8"/>
<path d="M13.0615 128.228C13.0615 128.228 17.3746 113.831 34.6161 118.781C51.8522 123.731 57.9899 152.433 52.2517 159.358C46.5135 166.284 31.0588 163.963 31.0588 163.963C31.0588 163.963 51.6579 171.634 60.3704 157.977C69.0775 144.319 61.3151 127.315 53.0452 120.125C40.8023 109.48 23.1722 107.898 13.0669 128.228H13.0615Z" fill="#E49BA8"/>
<path d="M109.385 59.6934C109.385 59.6934 117.941 62.0308 123.183 67.024C126.924 70.5867 120.522 56.8108 109.385 59.6934Z" fill="white"/>
<path d="M20.5757 21.6963C20.5757 21.6963 31.3989 19.1052 41.5689 28.7624C41.5689 28.7624 35.3179 16.6707 20.5757 21.6963Z" fill="white"/>
<path d="M77.6117 102.695C78.1364 102.695 78.5617 102.269 78.5617 101.744C78.5617 101.22 78.1364 100.794 77.6117 100.794C77.087 100.794 76.6616 101.22 76.6616 101.744C76.6616 102.269 77.087 102.695 77.6117 102.695Z" fill="white"/>
<path d="M36.975 80.7243C37.4997 80.7243 37.925 80.299 37.925 79.7743C37.925 79.2496 37.4997 78.8242 36.975 78.8242C36.4503 78.8242 36.0249 79.2496 36.0249 79.7743C36.0249 80.299 36.4503 80.7243 36.975 80.7243Z" fill="white"/>
<path d="M90.7939 41.5882L95.0908 43.1806C95.0908 43.1806 116.743 21.016 131.496 19.5154L130.691 18.6409C130.691 18.6409 99.5982 28.2117 90.7939 41.5882Z" fill="#D38C9C"/>
<path d="M179.906 39.2616C179.906 39.2616 160.689 21.5774 144.068 18.6409C144.068 18.6409 161.801 18.2576 179.906 39.2616Z" fill="#E49BA8"/>
</svg>
