<svg width="162" height="172" viewBox="0 0 162 172" fill="none" xmlns="http://www.w3.org/2000/svg">
<path d="M151.911 90.6259C151.911 83.5274 146.453 77.7083 139.5 77.1199C141.692 75.9377 143.187 73.6219 143.187 70.9553V62.2751C143.187 58.7448 140.569 55.8352 137.174 55.3548C131.382 29.4007 108.213 10 80.5153 10C52.8177 10 29.6814 29.3738 23.8677 55.3008C20.251 55.5707 17.3954 58.5882 17.3954 62.2751V70.9553C17.3954 73.7353 19.0202 76.1266 21.363 77.2549C14.9231 78.3075 10 83.8837 10 90.6205C10 98.1131 16.0729 104.181 23.56 104.181V104.429C23.56 136.359 45.9837 156.466 70.626 160.893C70.8257 160.931 71.0309 160.963 71.236 160.995C71.4465 161.033 71.657 161.066 71.8676 161.098C72.1752 161.147 72.4775 161.19 72.7852 161.233C72.904 161.249 73.0227 161.265 73.1415 161.282C73.487 161.33 73.8325 161.373 74.1779 161.411C74.2751 161.422 74.3723 161.433 74.4694 161.444C74.8203 161.481 75.1712 161.519 75.5221 161.551C75.63 161.562 75.738 161.573 75.8459 161.578C76.1806 161.605 76.5153 161.638 76.85 161.659C76.9957 161.67 77.1469 161.676 77.298 161.686C77.5949 161.703 77.8918 161.724 78.1941 161.74C78.4208 161.751 78.6422 161.757 78.8689 161.767C79.0956 161.778 79.3277 161.784 79.5544 161.789C80.0187 161.8 80.4829 161.805 80.9471 161.805C81.5193 161.805 82.0915 161.794 82.6637 161.778C82.7015 161.778 82.7339 161.778 82.7717 161.778C87.6408 161.627 92.3533 160.871 96.8391 159.581C118.707 153.417 138.367 134.464 138.566 104.418H138.34V104.17C145.832 104.17 151.9 98.0969 151.9 90.6097L151.911 90.6259Z" fill="#F0EEEE" stroke="white" stroke-width="20" stroke-linecap="round" stroke-linejoin="round"/>
<path d="M139.576 76.8122C139.576 45.1152 113.88 19.4197 82.1831 19.4197C50.486 19.4197 24.7905 45.1152 24.7905 76.8122V104.434C24.7905 136.131 50.486 161.827 82.1831 161.827C113.88 161.827 139.576 136.131 139.576 104.434V76.8122Z" fill="#F4B7B5"/>
<path d="M24.791 104.186C32.28 104.186 38.351 98.1149 38.351 90.6259C38.351 83.1369 32.28 77.0659 24.791 77.0659C17.302 77.0659 11.231 83.1369 11.231 90.6259C11.231 98.1149 17.302 104.186 24.791 104.186Z" fill="#F4B7B5"/>
<path d="M139.576 104.186C147.065 104.186 153.136 98.1149 153.136 90.6259C153.136 83.1369 147.065 77.0659 139.576 77.0659C132.087 77.0659 126.016 83.1369 126.016 90.6259C126.016 98.1149 132.087 104.186 139.576 104.186Z" fill="#F4B7B5"/>
<path d="M139.802 68.0565C139.802 35.9918 113.811 10 81.746 10C49.6813 10 23.6895 35.9918 23.6895 68.0565C23.6895 70.124 23.7974 72.1645 24.0079 74.1779H139.479C139.689 72.1645 139.797 70.124 139.797 68.0565H139.802Z" fill="#283850"/>
<path d="M64.2561 74.1779C64.2561 74.1779 62.8148 36.0404 81.746 10C81.746 10 102.593 36.5964 101.314 74.1779H64.2561Z" fill="#415066"/>
<path d="M137.416 55.2739H25.6273C21.7606 55.2739 18.626 58.4085 18.626 62.2753V70.95C18.626 74.8167 21.7606 77.9513 25.6273 77.9513H137.416C141.283 77.9513 144.418 74.8167 144.418 70.95V62.2753C144.418 58.4085 141.283 55.2739 137.416 55.2739Z" fill="#283850"/>
<path d="M139.802 104.434H118.723C110.529 126.874 98.0914 151.992 89.0981 161.4C114.259 158.377 139.581 138.55 139.802 104.434Z" fill="#283850"/>
<path d="M24.7905 104.434C24.7905 140.79 53.8701 161.827 82.1831 161.827C84.5258 161.827 86.8254 161.676 89.0926 161.4C113.012 142.135 118.717 114.842 118.717 104.434H24.7905Z" fill="#415066"/>
<path d="M28.5209 63.3548C28.5209 63.3548 17.0824 102.232 53.8974 102.928C53.8974 102.928 66.1241 104.693 76.3373 97.3251C76.3373 97.3251 78.3723 96.2131 81.5194 96.2131V61.2334L28.5155 63.3548H28.5209Z" fill="#283850"/>
<path d="M54.178 91.7919C61.1602 91.7919 66.8203 89.5249 66.8203 86.7285C66.8203 83.932 61.1602 81.665 54.178 81.665C47.1958 81.665 41.5356 83.932 41.5356 86.7285C41.5356 89.5249 47.1958 91.7919 54.178 91.7919Z" fill="#F0EEEE"/>
<path d="M134.523 63.3548C134.523 63.3548 145.962 102.232 109.147 102.928C109.147 102.928 96.9203 104.693 86.7071 97.3251C86.7071 97.3251 84.672 96.2131 81.5249 96.2131V61.2334L134.529 63.3548H134.523Z" fill="#283850"/>
<path d="M108.861 91.7919C115.843 91.7919 121.503 89.5249 121.503 86.7285C121.503 83.932 115.843 81.665 108.861 81.665C101.878 81.665 96.2183 83.932 96.2183 86.7285C96.2183 89.5249 101.878 91.7919 108.861 91.7919Z" fill="#F0EEEE"/>
<path d="M28.915 77.0605H128.996" stroke="#18273A" stroke-width="3.63" stroke-linecap="round" stroke-linejoin="round"/>
<path d="M61.6274 55.2739H135.398" stroke="#18273A" stroke-width="3.63" stroke-linecap="round" stroke-linejoin="round"/>
</svg>
