<svg width="147" height="159" viewBox="0 0 147 159" fill="none" xmlns="http://www.w3.org/2000/svg">
<path d="M136.909 58.2447C136.909 50.5308 126.55 43.7022 110.637 39.4971C110.442 38.4823 110.237 37.4512 110.021 36.4148C109.374 33.2785 108.639 30.072 107.835 27.0329C107.328 25.1328 106.793 23.292 106.232 21.5754C105.892 20.5444 105.546 19.5565 105.19 18.6227C104.952 18.0019 104.71 17.4027 104.461 16.8359C104.337 16.5498 104.213 16.2745 104.089 16.0046C102.459 12.5012 100.65 10.2772 98.6961 10.3258C97.9457 10.3474 97.1738 10.7037 96.3803 11.4486C86.2481 21.0464 73.4546 21.5808 73.4546 21.5808C73.4546 21.5808 60.6611 21.0464 50.5289 11.4486C49.7354 10.6983 48.9634 10.342 48.2131 10.3258C43.0093 10.1908 38.8366 26.234 36.2725 39.4971C20.3589 43.7022 10 50.5308 10 58.2447C10 64.2312 16.2348 69.6886 26.4642 73.7966C24.4561 74.7574 21.9298 77.2892 21.6761 83.9126C21.2496 95.0381 34.5127 102.315 34.5127 102.315C34.5127 102.315 34.0863 108.879 34.5127 114.871C34.9392 120.863 47.3494 125.996 49.4925 129.85C51.6301 133.699 58.4803 148.253 73.4546 148.253C88.4289 148.253 95.2791 133.705 97.4167 129.85C99.5544 126.002 111.965 120.863 112.396 114.871C112.828 108.879 112.396 102.315 112.396 102.315C112.396 102.315 125.66 95.0381 125.233 83.9126C124.979 77.2892 122.448 74.7628 120.445 73.7966C130.674 69.6886 136.909 64.2312 136.909 58.2447Z" fill="white" stroke="white" stroke-width="20" stroke-linecap="round" stroke-linejoin="round"/>
<path d="M125.233 82.5846C124.807 71.4591 117.956 71.8855 117.956 71.8855V53.9153H28.9527V71.8855C28.9527 71.8855 22.1079 71.4591 21.6761 82.5846C21.2496 93.71 34.5127 100.987 34.5127 100.987C34.5127 100.987 34.0863 107.551 34.5127 113.543C34.9392 119.535 47.3494 124.668 49.4925 128.522C51.6301 132.371 58.4803 146.924 73.4546 146.924C88.4289 146.924 95.2791 132.377 97.4167 128.522C99.5544 124.674 111.965 119.535 112.396 113.543C112.823 107.551 112.396 100.987 112.396 100.987C112.396 100.987 125.66 93.71 125.233 82.5846Z" fill="#EFC8A0"/>
<path d="M28.6235 63.6536V81.5266C28.6235 81.5266 46.4966 105.154 73.4547 92.1285V66.0773L28.6235 63.6536Z" fill="black"/>
<path d="M118.286 63.6536V81.5266C118.286 81.5266 100.413 105.154 73.4546 92.1285V66.0773L118.286 63.6536Z" fill="black"/>
<path d="M73.4546 80.0584C108.5 80.0584 136.909 69.6975 136.909 56.9168C136.909 44.136 108.5 33.7751 73.4546 33.7751C38.4096 33.7751 10 44.136 10 56.9168C10 69.6975 38.4096 80.0584 73.4546 80.0584Z" fill="#382819"/>
<path d="M96.3801 10.126C86.2479 19.7238 73.4544 20.2582 73.4544 20.2582C73.4544 20.2582 60.6609 19.7238 50.5287 10.126C40.3965 0.52819 33.4707 55.443 33.4707 55.443C33.4707 55.443 44.6664 64.3013 73.4544 64.3013C102.242 64.3013 113.438 55.443 113.438 55.443C113.438 55.443 106.507 0.52819 96.3801 10.126Z" fill="#44301F"/>
<path d="M73.4544 62.8924C48.5908 62.8924 36.8553 56.2851 34.1185 54.4875C33.692 57.3323 33.4707 59.1029 33.4707 59.1029C33.4707 59.1029 44.6664 67.9612 73.4544 67.9612C102.242 67.9612 113.438 59.1029 113.438 59.1029C113.438 59.1029 113.217 57.3323 112.79 54.4875C110.053 56.2905 98.318 62.8924 73.4544 62.8924Z" fill="#A59858"/>
<path d="M50.5287 15.1948C60.6609 24.7926 73.4544 25.327 73.4544 25.327C73.4544 25.327 86.2479 24.7926 96.3801 15.1948C104.693 7.31899 110.852 42.887 112.79 55.8964C113.222 55.6103 113.438 55.443 113.438 55.443C113.438 55.443 106.507 0.52819 96.3801 10.126C86.2479 19.7238 73.4544 20.2582 73.4544 20.2582C73.4544 20.2582 60.6609 19.7238 50.5287 10.126C40.3965 0.52819 33.4707 55.443 33.4707 55.443C33.4707 55.443 33.6866 55.6103 34.1185 55.8964C36.0618 42.887 42.2156 7.31899 50.5287 15.1948Z" fill="#382819"/>
<path d="M79.5166 125.213C79.5166 125.213 84.2939 127.108 90.1562 119.707" stroke="black" stroke-width="6.19" stroke-linecap="round" stroke-linejoin="round"/>
</svg>
