<svg width="98" height="121" viewBox="0 0 98 121" fill="none" xmlns="http://www.w3.org/2000/svg">
<path d="M97.3 64.8999H92.7V69.4999H97.3V64.8999Z" fill="#70655E"/>
<path d="M97.3 37.1001H92.7V41.7001H97.3V37.1001Z" fill="#70655E"/>
<path d="M92.6 69.5H88V74.1H92.6V69.5Z" fill="#28221E"/>
<path d="M92.6 64.8999H88V69.4999H92.6V64.8999Z" fill="#514943"/>
<path d="M92.6 60.3H88V64.9H92.6V60.3Z" fill="#514943"/>
<path d="M92.6 55.6001H88V60.2001H92.6V55.6001Z" fill="#514943"/>
<path d="M92.6 51H88V55.6H92.6V51Z" fill="#514943"/>
<path d="M92.6 46.3999H88V50.9999H92.6V46.3999Z" fill="#514943"/>
<path d="M92.6 41.7H88V46.2999H92.6V41.7Z" fill="#514943"/>
<path d="M92.6 37.1001H88V41.7001H92.6V37.1001Z" fill="#70655E"/>
<path d="M92.6 32.5H88V37.1H92.6V32.5Z" fill="#70655E"/>
<path d="M92.6 27.8H88V32.4H92.6V27.8Z" fill="#70655E"/>
<path d="M92.6 23.2H88V27.7999H92.6V23.2Z" fill="#70655E"/>
<path d="M92.6 18.5H88V23.1H92.6V18.5Z" fill="#70655E"/>
<path d="M87.9999 69.5H83.3999V74.1H87.9999V69.5Z" fill="#28221E"/>
<path d="M87.9999 64.8999H83.3999V69.4999H87.9999V64.8999Z" fill="#28221E"/>
<path d="M87.9999 60.3H83.3999V64.9H87.9999V60.3Z" fill="#28221E"/>
<path d="M87.9999 55.6001H83.3999V60.2001H87.9999V55.6001Z" fill="#28221E"/>
<path d="M87.9999 51H83.3999V55.6H87.9999V51Z" fill="#28221E"/>
<path d="M87.9999 46.3999H83.3999V50.9999H87.9999V46.3999Z" fill="#28221E"/>
<path d="M87.9999 41.7H83.3999V46.2999H87.9999V41.7Z" fill="#514943"/>
<path d="M87.9999 37.1001H83.3999V41.7001H87.9999V37.1001Z" fill="#514943"/>
<path d="M87.9999 32.5H83.3999V37.1H87.9999V32.5Z" fill="#514943"/>
<path d="M87.9999 27.8H83.3999V32.4H87.9999V27.8Z" fill="#514943"/>
<path d="M87.9999 23.2H83.3999V27.7999H87.9999V23.2Z" fill="#514943"/>
<path d="M87.9999 18.5H83.3999V23.1H87.9999V18.5Z" fill="#514943"/>
<path d="M87.9999 13.8999H83.3999V18.4999H87.9999V13.8999Z" fill="#70655E"/>
<path d="M83.4 69.5H78.8V74.1H83.4V69.5Z" fill="#28221E"/>
<path d="M83.4 64.8999H78.8V69.4999H83.4V64.8999Z" fill="#28221E"/>
<path d="M83.4 60.3H78.8V64.9H83.4V60.3Z" fill="#D17E46"/>
<path d="M83.4 55.6001H78.8V60.2001H83.4V55.6001Z" fill="#D17E46"/>
<path d="M83.4 51H78.8V55.6H83.4V51Z" fill="#D17E46"/>
<path d="M83.4 46.3999H78.8V50.9999H83.4V46.3999Z" fill="#D17E46"/>
<path d="M83.4 41.7H78.8V46.2999H83.4V41.7Z" fill="#28221E"/>
<path d="M83.4 37.1001H78.8V41.7001H83.4V37.1001Z" fill="#28221E"/>
<path d="M83.4 32.5H78.8V37.1H83.4V32.5Z" fill="#514943"/>
<path d="M83.4 27.8H78.8V32.4H83.4V27.8Z" fill="#514943"/>
<path d="M83.4 23.2H78.8V27.7999H83.4V23.2Z" fill="#514943"/>
<path d="M83.4 18.5H78.8V23.1H83.4V18.5Z" fill="#514943"/>
<path d="M83.4 13.8999H78.8V18.4999H83.4V13.8999Z" fill="#514943"/>
<path d="M83.4 9.30005H78.8V13.9H83.4V9.30005Z" fill="#70655E"/>
<path d="M78.7001 69.5H74.1001V74.1H78.7001V69.5Z" fill="#D17E46"/>
<path d="M78.7001 64.8999H74.1001V69.4999H78.7001V64.8999Z" fill="#D17E46"/>
<path d="M78.7001 60.3H74.1001V64.9H78.7001V60.3Z" fill="#D17E46"/>
<path d="M78.7001 55.6001H74.1001V60.2001H78.7001V55.6001Z" fill="#EAA36E"/>
<path d="M78.7001 51H74.1001V55.6H78.7001V51Z" fill="#EAA36E"/>
<path d="M78.7001 46.3999H74.1001V50.9999H78.7001V46.3999Z" fill="#D17E46"/>
<path d="M78.7001 41.7H74.1001V46.2999H78.7001V41.7Z" fill="#D17E46"/>
<path d="M78.7001 37.1001H74.1001V41.7001H78.7001V37.1001Z" fill="#D17E46"/>
<path d="M78.7001 32.5H74.1001V37.1H78.7001V32.5Z" fill="#D17E46"/>
<path d="M78.7001 27.8H74.1001V32.4H78.7001V27.8Z" fill="#28221E"/>
<path d="M78.7001 23.2H74.1001V27.7999H78.7001V23.2Z" fill="#514943"/>
<path d="M78.7001 18.5H74.1001V23.1H78.7001V18.5Z" fill="#514943"/>
<path d="M78.7001 13.8999H74.1001V18.4999H78.7001V13.8999Z" fill="#514943"/>
<path d="M78.7001 9.30005H74.1001V13.9H78.7001V9.30005Z" fill="#514943"/>
<path d="M78.7001 4.6001H74.1001V9.2001H78.7001V4.6001Z" fill="#70655E"/>
<path d="M74.1 97.3999H69.5V102H74.1V97.3999Z" fill="#EAA36E"/>
<path d="M74.1 92.7H69.5V97.3H74.1V92.7Z" fill="#D17E46"/>
<path d="M74.1 88.1001H69.5V92.7001H74.1V88.1001Z" fill="#F2EBEB"/>
<path d="M74.1 83.5H69.5V88.1H74.1V83.5Z" fill="#F2EBEB"/>
<path d="M74.1 78.8H69.5V83.4H74.1V78.8Z" fill="#F2EBEB"/>
<path d="M74.1 74.2H69.5V78.8H74.1V74.2Z" fill="#DDD7D7"/>
<path d="M74.1 69.5H69.5V74.1H74.1V69.5Z" fill="#D17E46"/>
<path d="M74.1 64.8999H69.5V69.4999H74.1V64.8999Z" fill="#EAA36E"/>
<path d="M74.1 60.3H69.5V64.9H74.1V60.3Z" fill="#EAA36E"/>
<path d="M74.1 55.6001H69.5V60.2001H74.1V55.6001Z" fill="#EAA36E"/>
<path d="M74.1 51H69.5V55.6H74.1V51Z" fill="#EAA36E"/>
<path d="M74.1 46.3999H69.5V50.9999H74.1V46.3999Z" fill="#21140C"/>
<path d="M74.1 41.7H69.5V46.2999H74.1V41.7Z" fill="#21140C"/>
<path d="M74.1 37.1001H69.5V41.7001H74.1V37.1001Z" fill="#EAA36E"/>
<path d="M74.1 32.5H69.5V37.1H74.1V32.5Z" fill="#D17E46"/>
<path d="M74.1 27.8H69.5V32.4H74.1V27.8Z" fill="#28221E"/>
<path d="M74.1 23.2H69.5V27.7999H74.1V23.2Z" fill="#514943"/>
<path d="M74.1 18.5H69.5V23.1H74.1V18.5Z" fill="#514943"/>
<path d="M74.1 13.8999H69.5V18.4999H74.1V13.8999Z" fill="#514943"/>
<path d="M74.1 9.30005H69.5V13.9H74.1V9.30005Z" fill="#514943"/>
<path d="M74.1 4.6001H69.5V9.2001H74.1V4.6001Z" fill="#514943"/>
<path d="M74.1 0H69.5V4.6H74.1V0Z" fill="#70655E"/>
<path d="M69.4999 115.9H64.8999V120.5H69.4999V115.9Z" fill="#8C2A25"/>
<path d="M69.4999 111.3H64.8999V115.9H69.4999V111.3Z" fill="#EAA36E"/>
<path d="M69.4999 106.6H64.8999V111.2H69.4999V106.6Z" fill="#D17E46"/>
<path d="M69.4999 102H64.8999V106.6H69.4999V102Z" fill="#8C2A25"/>
<path d="M69.4999 97.3999H64.8999V102H69.4999V97.3999Z" fill="#EAA36E"/>
<path d="M69.4999 92.7H64.8999V97.3H69.4999V92.7Z" fill="#D17E46"/>
<path d="M69.4999 88.1001H64.8999V92.7001H69.4999V88.1001Z" fill="#F2EBEB"/>
<path d="M69.4999 83.5H64.8999V88.1H69.4999V83.5Z" fill="#F2EBEB"/>
<path d="M69.4999 78.8H64.8999V83.4H69.4999V78.8Z" fill="#F2EBEB"/>
<path d="M69.4999 74.2H64.8999V78.8H69.4999V74.2Z" fill="#DDD7D7"/>
<path d="M69.4999 69.5H64.8999V74.1H69.4999V69.5Z" fill="#D17E46"/>
<path d="M69.4999 64.8999H64.8999V69.4999H69.4999V64.8999Z" fill="#EAA36E"/>
<path d="M69.4999 60.3H64.8999V64.9H69.4999V60.3Z" fill="#EAA36E"/>
<path d="M69.4999 55.6001H64.8999V60.2001H69.4999V55.6001Z" fill="#EAA36E"/>
<path d="M69.4999 51H64.8999V55.6H69.4999V51Z" fill="#EAA36E"/>
<path d="M69.4999 46.3999H64.8999V50.9999H69.4999V46.3999Z" fill="#21140C"/>
<path d="M69.4999 41.7H64.8999V46.2999H69.4999V41.7Z" fill="#422C1C"/>
<path d="M69.4999 37.1001H64.8999V41.7001H69.4999V37.1001Z" fill="#EAA36E"/>
<path d="M69.4999 32.5H64.8999V37.1H69.4999V32.5Z" fill="#D17E46"/>
<path d="M69.4999 27.8H64.8999V32.4H69.4999V27.8Z" fill="#28221E"/>
<path d="M69.4999 23.2H64.8999V27.7999H69.4999V23.2Z" fill="#514943"/>
<path d="M69.4999 18.5H64.8999V23.1H69.4999V18.5Z" fill="#514943"/>
<path d="M69.4999 13.8999H64.8999V18.4999H69.4999V13.8999Z" fill="#514943"/>
<path d="M69.4999 9.30005H64.8999V13.9H69.4999V9.30005Z" fill="#514943"/>
<path d="M69.4999 4.6001H64.8999V9.2001H69.4999V4.6001Z" fill="#514943"/>
<path d="M69.4999 0H64.8999V4.6H69.4999V0Z" fill="#70655E"/>
<path d="M64.8 115.9H60.2V120.5H64.8V115.9Z" fill="#8C2A25"/>
<path d="M64.8 111.3H60.2V115.9H64.8V111.3Z" fill="#EAA36E"/>
<path d="M64.8 106.6H60.2V111.2H64.8V106.6Z" fill="#D17E46"/>
<path d="M64.8 102H60.2V106.6H64.8V102Z" fill="#C14336"/>
<path d="M64.8 97.3999H60.2V102H64.8V97.3999Z" fill="#8C2A25"/>
<path d="M64.8 92.7H60.2V97.3H64.8V92.7Z" fill="#DDD7D7"/>
<path d="M64.8 88.1001H60.2V92.7001H64.8V88.1001Z" fill="#DDD7D7"/>
<path d="M64.8 83.5H60.2V88.1H64.8V83.5Z" fill="#DDD7D7"/>
<path d="M64.8 78.8H60.2V83.4H64.8V78.8Z" fill="#DDD7D7"/>
<path d="M64.8 74.2H60.2V78.8H64.8V74.2Z" fill="#DDD7D7"/>
<path d="M64.8 69.5H60.2V74.1H64.8V69.5Z" fill="#D17E46"/>
<path d="M64.8 64.8999H60.2V69.4999H64.8V64.8999Z" fill="#EAA36E"/>
<path d="M64.8 60.3H60.2V64.9H64.8V60.3Z" fill="#EAA36E"/>
<path d="M64.8 55.6001H60.2V60.2001H64.8V55.6001Z" fill="#EAA36E"/>
<path d="M64.8 51H60.2V55.6H64.8V51Z" fill="white"/>
<path d="M64.8 46.3999H60.2V50.9999H64.8V46.3999Z" fill="#EAA36E"/>
<path d="M64.8 41.7H60.2V46.2999H64.8V41.7Z" fill="#EAA36E"/>
<path d="M64.8 37.1001H60.2V41.7001H64.8V37.1001Z" fill="#EAA36E"/>
<path d="M64.8 32.5H60.2V37.1H64.8V32.5Z" fill="#D17E46"/>
<path d="M64.8 27.8H60.2V32.4H64.8V27.8Z" fill="#28221E"/>
<path d="M64.8 23.2H60.2V27.7999H64.8V23.2Z" fill="#28221E"/>
<path d="M64.8 18.5H60.2V23.1H64.8V18.5Z" fill="#514943"/>
<path d="M64.8 13.8999H60.2V18.4999H64.8V13.8999Z" fill="#514943"/>
<path d="M64.8 9.30005H60.2V13.9H64.8V9.30005Z" fill="#514943"/>
<path d="M64.8 4.6001H60.2V9.2001H64.8V4.6001Z" fill="#514943"/>
<path d="M64.8 0H60.2V4.6H64.8V0Z" fill="#70655E"/>
<path d="M60.2001 102H55.6001V106.6H60.2001V102Z" fill="#C14336"/>
<path d="M60.2001 97.3999H55.6001V102H60.2001V97.3999Z" fill="#8C2A25"/>
<path d="M60.2001 92.7H55.6001V97.3H60.2001V92.7Z" fill="#F2EBEB"/>
<path d="M60.2001 88.1001H55.6001V92.7001H60.2001V88.1001Z" fill="#F2EBEB"/>
<path d="M60.2001 83.5H55.6001V88.1H60.2001V83.5Z" fill="#F2EBEB"/>
<path d="M60.2001 78.8H55.6001V83.4H60.2001V78.8Z" fill="#F2EBEB"/>
<path d="M60.2001 74.2H55.6001V78.8H60.2001V74.2Z" fill="#DDD7D7"/>
<path d="M60.2001 69.5H55.6001V74.1H60.2001V69.5Z" fill="#D17E46"/>
<path d="M60.2001 64.8999H55.6001V69.4999H60.2001V64.8999Z" fill="#EAA36E"/>
<path d="M60.2001 60.3H55.6001V64.9H60.2001V60.3Z" fill="#EAA36E"/>
<path d="M60.2001 55.6001H55.6001V60.2001H60.2001V55.6001Z" fill="white"/>
<path d="M60.2001 51H55.6001V55.6H60.2001V51Z" fill="white"/>
<path d="M60.2001 46.3999H55.6001V50.9999H60.2001V46.3999Z" fill="#EAA36E"/>
<path d="M60.2001 41.7H55.6001V46.2999H60.2001V41.7Z" fill="#EAA36E"/>
<path d="M60.2001 37.1001H55.6001V41.7001H60.2001V37.1001Z" fill="#EAA36E"/>
<path d="M60.2001 32.5H55.6001V37.1H60.2001V32.5Z" fill="#D17E46"/>
<path d="M60.2001 27.8H55.6001V32.4H60.2001V27.8Z" fill="#D17E46"/>
<path d="M60.2001 23.2H55.6001V27.7999H60.2001V23.2Z" fill="#28221E"/>
<path d="M60.2001 18.5H55.6001V23.1H60.2001V18.5Z" fill="#514943"/>
<path d="M60.2001 13.8999H55.6001V18.4999H60.2001V13.8999Z" fill="#28221E"/>
<path d="M60.2001 9.30005H55.6001V13.9H60.2001V9.30005Z" fill="#514943"/>
<path d="M60.2001 4.6001H55.6001V9.2001H60.2001V4.6001Z" fill="#514943"/>
<path d="M60.2001 0H55.6001V4.6H60.2001V0Z" fill="#70655E"/>
<path d="M55.6 102H51V106.6H55.6V102Z" fill="#C14336"/>
<path d="M55.6 97.3999H51V102H55.6V97.3999Z" fill="#8C2A25"/>
<path d="M55.6 92.7H51V97.3H55.6V92.7Z" fill="#F2EBEB"/>
<path d="M55.6 88.1001H51V92.7001H55.6V88.1001Z" fill="#F2EBEB"/>
<path d="M55.6 83.5H51V88.1H55.6V83.5Z" fill="#F2EBEB"/>
<path d="M55.6 78.8H51V83.4H55.6V78.8Z" fill="#F2EBEB"/>
<path d="M55.6 74.2H51V78.8H55.6V74.2Z" fill="#DDD7D7"/>
<path d="M55.6 69.5H51V74.1H55.6V69.5Z" fill="#D17E46"/>
<path d="M55.6 64.8999H51V69.4999H55.6V64.8999Z" fill="#EAA36E"/>
<path d="M55.6 60.3H51V64.9H55.6V60.3Z" fill="white"/>
<path d="M55.6 55.6001H51V60.2001H55.6V55.6001Z" fill="white"/>
<path d="M55.6 51H51V55.6H55.6V51Z" fill="white"/>
<path d="M55.6 46.3999H51V50.9999H55.6V46.3999Z" fill="#EAA36E"/>
<path d="M55.6 41.7H51V46.2999H55.6V41.7Z" fill="#EAA36E"/>
<path d="M55.6 37.1001H51V41.7001H55.6V37.1001Z" fill="#EAA36E"/>
<path d="M55.6 32.5H51V37.1H55.6V32.5Z" fill="#D17E46"/>
<path d="M55.6 27.8H51V32.4H55.6V27.8Z" fill="#28221E"/>
<path d="M55.6 23.2H51V27.7999H55.6V23.2Z" fill="#28221E"/>
<path d="M55.6 18.5H51V23.1H55.6V18.5Z" fill="#28221E"/>
<path d="M55.6 13.8999H51V18.4999H55.6V13.8999Z" fill="#514943"/>
<path d="M55.6 9.30005H51V13.9H55.6V9.30005Z" fill="#514943"/>
<path d="M55.6 4.6001H51V9.2001H55.6V4.6001Z" fill="#514943"/>
<path d="M55.6 0H51V4.6H55.6V0Z" fill="#70655E"/>
<path d="M50.9 102H46.3V106.6H50.9V102Z" fill="#C14336"/>
<path d="M50.9 97.3999H46.3V102H50.9V97.3999Z" fill="#8C2A25"/>
<path d="M50.9 92.7H46.3V97.3H50.9V92.7Z" fill="#F2EBEB"/>
<path d="M50.9 88.1001H46.3V92.7001H50.9V88.1001Z" fill="#F2EBEB"/>
<path d="M50.9 83.5H46.3V88.1H50.9V83.5Z" fill="#F2EBEB"/>
<path d="M50.9 78.8H46.3V83.4H50.9V78.8Z" fill="#F2EBEB"/>
<path d="M50.9 74.2H46.3V78.8H50.9V74.2Z" fill="#DDD7D7"/>
<path d="M50.9 69.5H46.3V74.1H50.9V69.5Z" fill="#D17E46"/>
<path d="M50.9 64.8999H46.3V69.4999H50.9V64.8999Z" fill="#EAA36E"/>
<path d="M50.9 60.3H46.3V64.9H50.9V60.3Z" fill="white"/>
<path d="M50.9 55.6001H46.3V60.2001H50.9V55.6001Z" fill="white"/>
<path d="M50.9 51H46.3V55.6H50.9V51Z" fill="white"/>
<path d="M50.9 46.3999H46.3V50.9999H50.9V46.3999Z" fill="#EAA36E"/>
<path d="M50.9 41.7H46.3V46.2999H50.9V41.7Z" fill="#EAA36E"/>
<path d="M50.9 37.1001H46.3V41.7001H50.9V37.1001Z" fill="#EAA36E"/>
<path d="M50.9 32.5H46.3V37.1H50.9V32.5Z" fill="#D17E46"/>
<path d="M50.9 27.8H46.3V32.4H50.9V27.8Z" fill="#28221E"/>
<path d="M50.9 23.2H46.3V27.7999H50.9V23.2Z" fill="#514943"/>
<path d="M50.9 18.5H46.3V23.1H50.9V18.5Z" fill="#514943"/>
<path d="M50.9 13.8999H46.3V18.4999H50.9V13.8999Z" fill="#514943"/>
<path d="M50.9 9.30005H46.3V13.9H50.9V9.30005Z" fill="#514943"/>
<path d="M50.9 4.6001H46.3V9.2001H50.9V4.6001Z" fill="#514943"/>
<path d="M50.9 0H46.3V4.6H50.9V0Z" fill="#70655E"/>
<path d="M46.3 102H41.7V106.6H46.3V102Z" fill="#C14336"/>
<path d="M46.3 97.3999H41.7V102H46.3V97.3999Z" fill="#8C2A25"/>
<path d="M46.3 92.7H41.7V97.3H46.3V92.7Z" fill="#F2EBEB"/>
<path d="M46.3 88.1001H41.7V92.7001H46.3V88.1001Z" fill="#F2EBEB"/>
<path d="M46.3 83.5H41.7V88.1H46.3V83.5Z" fill="#F2EBEB"/>
<path d="M46.3 78.8H41.7V83.4H46.3V78.8Z" fill="#F2EBEB"/>
<path d="M46.3 74.2H41.7V78.8H46.3V74.2Z" fill="#DDD7D7"/>
<path d="M46.3 69.5H41.7V74.1H46.3V69.5Z" fill="#D17E46"/>
<path d="M46.3 64.8999H41.7V69.4999H46.3V64.8999Z" fill="#EAA36E"/>
<path d="M46.3 60.3H41.7V64.9H46.3V60.3Z" fill="#EAA36E"/>
<path d="M46.3 55.6001H41.7V60.2001H46.3V55.6001Z" fill="white"/>
<path d="M46.3 51H41.7V55.6H46.3V51Z" fill="white"/>
<path d="M46.3 46.3999H41.7V50.9999H46.3V46.3999Z" fill="#EAA36E"/>
<path d="M46.3 41.7H41.7V46.2999H46.3V41.7Z" fill="#EAA36E"/>
<path d="M46.3 37.1001H41.7V41.7001H46.3V37.1001Z" fill="#EAA36E"/>
<path d="M46.3 32.5H41.7V37.1H46.3V32.5Z" fill="#D17E46"/>
<path d="M46.3 27.8H41.7V32.4H46.3V27.8Z" fill="#28221E"/>
<path d="M46.3 23.2H41.7V27.7999H46.3V23.2Z" fill="#514943"/>
<path d="M46.3 18.5H41.7V23.1H46.3V18.5Z" fill="#514943"/>
<path d="M46.3 13.8999H41.7V18.4999H46.3V13.8999Z" fill="#514943"/>
<path d="M46.3 9.30005H41.7V13.9H46.3V9.30005Z" fill="#514943"/>
<path d="M46.3 4.6001H41.7V9.2001H46.3V4.6001Z" fill="#514943"/>
<path d="M46.3 0H41.7V4.6H46.3V0Z" fill="#70655E"/>
<path d="M41.6 115.9H37V120.5H41.6V115.9Z" fill="#8C2A25"/>
<path d="M41.6 111.3H37V115.9H41.6V111.3Z" fill="#EAA36E"/>
<path d="M41.6 106.6H37V111.2H41.6V106.6Z" fill="#D17E46"/>
<path d="M41.6 102H37V106.6H41.6V102Z" fill="#C14336"/>
<path d="M41.6 97.3999H37V102H41.6V97.3999Z" fill="#8C2A25"/>
<path d="M41.6 92.7H37V97.3H41.6V92.7Z" fill="#F2EBEB"/>
<path d="M41.6 88.1001H37V92.7001H41.6V88.1001Z" fill="#F2EBEB"/>
<path d="M41.6 83.5H37V88.1H41.6V83.5Z" fill="#F2EBEB"/>
<path d="M41.6 78.8H37V83.4H41.6V78.8Z" fill="#F2EBEB"/>
<path d="M41.6 74.2H37V78.8H41.6V74.2Z" fill="#DDD7D7"/>
<path d="M41.6 69.5H37V74.1H41.6V69.5Z" fill="#D17E46"/>
<path d="M41.6 64.8999H37V69.4999H41.6V64.8999Z" fill="#EAA36E"/>
<path d="M41.6 60.3H37V64.9H41.6V60.3Z" fill="#EAA36E"/>
<path d="M41.6 55.6001H37V60.2001H41.6V55.6001Z" fill="#EAA36E"/>
<path d="M41.6 51H37V55.6H41.6V51Z" fill="white"/>
<path d="M41.6 46.3999H37V50.9999H41.6V46.3999Z" fill="#EAA36E"/>
<path d="M41.6 41.7H37V46.2999H41.6V41.7Z" fill="#EAA36E"/>
<path d="M41.6 37.1001H37V41.7001H41.6V37.1001Z" fill="#EAA36E"/>
<path d="M41.6 32.5H37V37.1H41.6V32.5Z" fill="#D17E46"/>
<path d="M41.6 27.8H37V32.4H41.6V27.8Z" fill="#28221E"/>
<path d="M41.6 23.2H37V27.7999H41.6V23.2Z" fill="#514943"/>
<path d="M41.6 18.5H37V23.1H41.6V18.5Z" fill="#514943"/>
<path d="M41.6 13.8999H37V18.4999H41.6V13.8999Z" fill="#514943"/>
<path d="M41.6 9.30005H37V13.9H41.6V9.30005Z" fill="#514943"/>
<path d="M41.6 4.6001H37V9.2001H41.6V4.6001Z" fill="#514943"/>
<path d="M41.6 0H37V4.6H41.6V0Z" fill="#70655E"/>
<path d="M36.9999 115.9H32.3999V120.5H36.9999V115.9Z" fill="#8C2A25"/>
<path d="M36.9999 111.3H32.3999V115.9H36.9999V111.3Z" fill="#EAA36E"/>
<path d="M36.9999 106.6H32.3999V111.2H36.9999V106.6Z" fill="#D17E46"/>
<path d="M36.9999 102H32.3999V106.6H36.9999V102Z" fill="#C14336"/>
<path d="M36.9999 97.3999H32.3999V102H36.9999V97.3999Z" fill="#8C2A25"/>
<path d="M36.9999 92.7H32.3999V97.3H36.9999V92.7Z" fill="#F2EBEB"/>
<path d="M36.9999 88.1001H32.3999V92.7001H36.9999V88.1001Z" fill="#DDD7D7"/>
<path d="M36.9999 83.5H32.3999V88.1H36.9999V83.5Z" fill="#DDD7D7"/>
<path d="M36.9999 78.8H32.3999V83.4H36.9999V78.8Z" fill="#DDD7D7"/>
<path d="M36.9999 74.2H32.3999V78.8H36.9999V74.2Z" fill="#DDD7D7"/>
<path d="M36.9999 69.5H32.3999V74.1H36.9999V69.5Z" fill="#D17E46"/>
<path d="M36.9999 64.8999H32.3999V69.4999H36.9999V64.8999Z" fill="#EAA36E"/>
<path d="M36.9999 60.3H32.3999V64.9H36.9999V60.3Z" fill="#EAA36E"/>
<path d="M36.9999 55.6001H32.3999V60.2001H36.9999V55.6001Z" fill="#EAA36E"/>
<path d="M36.9999 51H32.3999V55.6H36.9999V51Z" fill="#EAA36E"/>
<path d="M36.9999 46.3999H32.3999V50.9999H36.9999V46.3999Z" fill="#21140C"/>
<path d="M36.9999 41.7H32.3999V46.2999H36.9999V41.7Z" fill="#21140C"/>
<path d="M36.9999 37.1001H32.3999V41.7001H36.9999V37.1001Z" fill="#D17E46"/>
<path d="M36.9999 32.5H32.3999V37.1H36.9999V32.5Z" fill="#D17E46"/>
<path d="M36.9999 27.8H32.3999V32.4H36.9999V27.8Z" fill="#28221E"/>
<path d="M36.9999 23.2H32.3999V27.7999H36.9999V23.2Z" fill="#514943"/>
<path d="M36.9999 18.5H32.3999V23.1H36.9999V18.5Z" fill="#514943"/>
<path d="M36.9999 13.8999H32.3999V18.4999H36.9999V13.8999Z" fill="#514943"/>
<path d="M36.9999 9.30005H32.3999V13.9H36.9999V9.30005Z" fill="#514943"/>
<path d="M36.9999 4.6001H32.3999V9.2001H36.9999V4.6001Z" fill="#70655E"/>
<path d="M36.9999 0H32.3999V4.6H36.9999V0Z" fill="#70655E"/>
<path d="M32.4 97.3999H27.8V102H32.4V97.3999Z" fill="#EAA36E"/>
<path d="M32.4 92.7H27.8V97.3H32.4V92.7Z" fill="#D17E46"/>
<path d="M32.4 88.1001H27.8V92.7001H32.4V88.1001Z" fill="#F2EBEB"/>
<path d="M32.4 83.5H27.8V88.1H32.4V83.5Z" fill="#F2EBEB"/>
<path d="M32.4 78.8H27.8V83.4H32.4V78.8Z" fill="#F2EBEB"/>
<path d="M32.4 74.2H27.8V78.8H32.4V74.2Z" fill="#DDD7D7"/>
<path d="M32.4 69.5H27.8V74.1H32.4V69.5Z" fill="#D17E46"/>
<path d="M32.4 64.8999H27.8V69.4999H32.4V64.8999Z" fill="#EAA36E"/>
<path d="M32.4 60.3H27.8V64.9H32.4V60.3Z" fill="#EAA36E"/>
<path d="M32.4 55.6001H27.8V60.2001H32.4V55.6001Z" fill="#EAA36E"/>
<path d="M32.4 51H27.8V55.6H32.4V51Z" fill="#EAA36E"/>
<path d="M32.4 46.3999H27.8V50.9999H32.4V46.3999Z" fill="#21140C"/>
<path d="M32.4 41.7H27.8V46.2999H32.4V41.7Z" fill="#422C1C"/>
<path d="M32.4 37.1001H27.8V41.7001H32.4V37.1001Z" fill="#D17E46"/>
<path d="M32.4 32.5H27.8V37.1H32.4V32.5Z" fill="#28221E"/>
<path d="M32.4 27.8H27.8V32.4H32.4V27.8Z" fill="#514943"/>
<path d="M32.4 23.2H27.8V27.7999H32.4V23.2Z" fill="#514943"/>
<path d="M32.4 18.5H27.8V23.1H32.4V18.5Z" fill="#514943"/>
<path d="M32.4 13.8999H27.8V18.4999H32.4V13.8999Z" fill="#514943"/>
<path d="M32.4 9.30005H27.8V13.9H32.4V9.30005Z" fill="#514943"/>
<path d="M32.4 4.6001H27.8V9.2001H32.4V4.6001Z" fill="#70655E"/>
<path d="M27.7001 69.5H23.1001V74.1H27.7001V69.5Z" fill="#28221E"/>
<path d="M27.7001 64.8999H23.1001V69.4999H27.7001V64.8999Z" fill="#D17E46"/>
<path d="M27.7001 60.3H23.1001V64.9H27.7001V60.3Z" fill="#D17E46"/>
<path d="M27.7001 55.6001H23.1001V60.2001H27.7001V55.6001Z" fill="#D17E46"/>
<path d="M27.7001 51H23.1001V55.6H27.7001V51Z" fill="#D17E46"/>
<path d="M27.7001 46.3999H23.1001V50.9999H27.7001V46.3999Z" fill="#D17E46"/>
<path d="M27.7001 41.7H23.1001V46.2999H27.7001V41.7Z" fill="#D17E46"/>
<path d="M27.7001 37.1001H23.1001V41.7001H27.7001V37.1001Z" fill="#D17E46"/>
<path d="M27.7001 32.5H23.1001V37.1H27.7001V32.5Z" fill="#28221E"/>
<path d="M27.7001 27.8H23.1001V32.4H27.7001V27.8Z" fill="#514943"/>
<path d="M27.7001 23.2H23.1001V27.7999H27.7001V23.2Z" fill="#514943"/>
<path d="M27.7001 18.5H23.1001V23.1H27.7001V18.5Z" fill="#514943"/>
<path d="M27.7001 13.8999H23.1001V18.4999H27.7001V13.8999Z" fill="#514943"/>
<path d="M27.7001 9.30005H23.1001V13.9H27.7001V9.30005Z" fill="#70655E"/>
<path d="M27.7001 4.6001H23.1001V9.2001H27.7001V4.6001Z" fill="#70655E"/>
<path d="M23.1 69.5H18.5V74.1H23.1V69.5Z" fill="#28221E"/>
<path d="M23.1 64.8999H18.5V69.4999H23.1V64.8999Z" fill="#D17E46"/>
<path d="M23.1 60.3H18.5V64.9H23.1V60.3Z" fill="#D17E46"/>
<path d="M23.1 55.6001H18.5V60.2001H23.1V55.6001Z" fill="#D17E46"/>
<path d="M23.1 51H18.5V55.6H23.1V51Z" fill="#28221E"/>
<path d="M23.1 46.3999H18.5V50.9999H23.1V46.3999Z" fill="#28221E"/>
<path d="M23.1 41.7H18.5V46.2999H23.1V41.7Z" fill="#28221E"/>
<path d="M23.1 37.1001H18.5V41.7001H23.1V37.1001Z" fill="#28221E"/>
<path d="M23.1 32.5H18.5V37.1H23.1V32.5Z" fill="#514943"/>
<path d="M23.1 27.8H18.5V32.4H23.1V27.8Z" fill="#514943"/>
<path d="M23.1 23.2H18.5V27.7999H23.1V23.2Z" fill="#514943"/>
<path d="M23.1 18.5H18.5V23.1H23.1V18.5Z" fill="#514943"/>
<path d="M23.1 13.8999H18.5V18.4999H23.1V13.8999Z" fill="#70655E"/>
<path d="M23.1 9.30005H18.5V13.9H23.1V9.30005Z" fill="#70655E"/>
<path d="M18.4999 69.5H13.8999V74.1H18.4999V69.5Z" fill="#28221E"/>
<path d="M18.4999 64.8999H13.8999V69.4999H18.4999V64.8999Z" fill="#28221E"/>
<path d="M18.4999 60.3H13.8999V64.9H18.4999V60.3Z" fill="#28221E"/>
<path d="M18.4999 55.6001H13.8999V60.2001H18.4999V55.6001Z" fill="#28221E"/>
<path d="M18.4999 51H13.8999V55.6H18.4999V51Z" fill="#514943"/>
<path d="M18.4999 46.3999H13.8999V50.9999H18.4999V46.3999Z" fill="#514943"/>
<path d="M18.4999 41.7H13.8999V46.2999H18.4999V41.7Z" fill="#514943"/>
<path d="M18.4999 37.1001H13.8999V41.7001H18.4999V37.1001Z" fill="#514943"/>
<path d="M18.4999 32.5H13.8999V37.1H18.4999V32.5Z" fill="#514943"/>
<path d="M18.4999 27.8H13.8999V32.4H18.4999V27.8Z" fill="#514943"/>
<path d="M18.4999 23.2H13.8999V27.7999H18.4999V23.2Z" fill="#514943"/>
<path d="M18.4999 18.5H13.8999V23.1H18.4999V18.5Z" fill="#70655E"/>
<path d="M18.4999 13.8999H13.8999V18.4999H18.4999V13.8999Z" fill="#70655E"/>
<path d="M13.7999 69.5H9.19995V74.1H13.7999V69.5Z" fill="#28221E"/>
<path d="M13.7999 64.8999H9.19995V69.4999H13.7999V64.8999Z" fill="#28221E"/>
<path d="M13.7999 60.3H9.19995V64.9H13.7999V60.3Z" fill="#514943"/>
<path d="M13.7999 55.6001H9.19995V60.2001H13.7999V55.6001Z" fill="#514943"/>
<path d="M13.7999 51H9.19995V55.6H13.7999V51Z" fill="#514943"/>
<path d="M13.7999 46.3999H9.19995V50.9999H13.7999V46.3999Z" fill="#514943"/>
<path d="M13.7999 41.7H9.19995V46.2999H13.7999V41.7Z" fill="#514943"/>
<path d="M13.7999 37.1001H9.19995V41.7001H13.7999V37.1001Z" fill="#70655E"/>
<path d="M13.7999 32.5H9.19995V37.1H13.7999V32.5Z" fill="#70655E"/>
<path d="M13.7999 27.8H9.19995V32.4H13.7999V27.8Z" fill="#70655E"/>
<path d="M13.7999 23.2H9.19995V27.7999H13.7999V23.2Z" fill="#70655E"/>
<path d="M9.2001 64.8999H4.6001V69.4999H9.2001V64.8999Z" fill="#28221E"/>
<path d="M9.2001 60.3H4.6001V64.9H9.2001V60.3Z" fill="#70655E"/>
<path d="M9.2001 41.7H4.6001V46.2999H9.2001V41.7Z" fill="#28221E"/>
<path d="M9.2001 37.1001H4.6001V41.7001H9.2001V37.1001Z" fill="#70655E"/>
<path d="M4.6 60.3H0V64.9H4.6V60.3Z" fill="#70655E"/>
<path d="M4.6 37.1001H0V41.7001H4.6V37.1001Z" fill="#70655E"/>
</svg>
