<svg width="75" height="116" viewBox="0 0 75 116" fill="none" xmlns="http://www.w3.org/2000/svg">
<path d="M74.2001 55.6001H69.6001V60.2001H74.2001V55.6001Z" fill="#D17E46"/>
<path d="M74.2001 51H69.6001V55.6H74.2001V51Z" fill="#D17E46"/>
<path d="M74.2001 46.3999H69.6001V50.9999H74.2001V46.3999Z" fill="#D17E46"/>
<path d="M74.2001 41.7H69.6001V46.3H74.2001V41.7Z" fill="#89352C"/>
<path d="M74.2001 37.1001H69.6001V41.7001H74.2001V37.1001Z" fill="#89352C"/>
<path d="M74.2001 32.3999H69.6001V36.9999H74.2001V32.3999Z" fill="#89352C"/>
<path d="M74.2001 27.8H69.6001V32.4001H74.2001V27.8Z" fill="#AD4A3A"/>
<path d="M74.2001 23.2H69.6001V27.8H74.2001V23.2Z" fill="#AD4A3A"/>
<path d="M74.2001 18.5H69.6001V23.1H74.2001V18.5Z" fill="#AD4A3A"/>
<path d="M74.2001 13.8999H69.6001V18.4999H74.2001V13.8999Z" fill="#D36559"/>
<path d="M69.4999 64.8999H64.8999V69.4999H69.4999V64.8999Z" fill="#D17E46"/>
<path d="M69.4999 60.3H64.8999V64.9001H69.4999V60.3Z" fill="#D17E46"/>
<path d="M69.4999 55.6001H64.8999V60.2001H69.4999V55.6001Z" fill="#D17E46"/>
<path d="M69.4999 51H64.8999V55.6H69.4999V51Z" fill="#D17E46"/>
<path d="M69.4999 46.3999H64.8999V50.9999H69.4999V46.3999Z" fill="#D17E46"/>
<path d="M69.4999 41.7H64.8999V46.3H69.4999V41.7Z" fill="#89352C"/>
<path d="M69.4999 37.1001H64.8999V41.7001H69.4999V37.1001Z" fill="#89352C"/>
<path d="M69.4999 32.3999H64.8999V36.9999H69.4999V32.3999Z" fill="#89352C"/>
<path d="M69.4999 27.8H64.8999V32.4001H69.4999V27.8Z" fill="#89352C"/>
<path d="M69.4999 23.2H64.8999V27.8H69.4999V23.2Z" fill="#AD4A3A"/>
<path d="M69.4999 18.5H64.8999V23.1H69.4999V18.5Z" fill="#AD4A3A"/>
<path d="M69.4999 13.8999H64.8999V18.4999H69.4999V13.8999Z" fill="#AD4A3A"/>
<path d="M69.4999 9.30005H64.8999V13.9001H69.4999V9.30005Z" fill="#D36559"/>
<path d="M64.9 92.7H60.3V97.3H64.9V92.7Z" fill="#EAA36E"/>
<path d="M64.9 88.1001H60.3V92.7001H64.9V88.1001Z" fill="#D17E46"/>
<path d="M64.9 83.3999H60.3V87.9999H64.9V83.3999Z" fill="#918B87"/>
<path d="M64.9 78.8H60.3V83.4001H64.9V78.8Z" fill="#918B87"/>
<path d="M64.9 74.2H60.3V78.8H64.9V74.2Z" fill="#707070"/>
<path d="M64.9 69.5H60.3V74.1H64.9V69.5Z" fill="#D17E46"/>
<path d="M64.9 64.8999H60.3V69.4999H64.9V64.8999Z" fill="#D17E46"/>
<path d="M64.9 60.3H60.3V64.9001H64.9V60.3Z" fill="#D17E46"/>
<path d="M64.9 55.6001H60.3V60.2001H64.9V55.6001Z" fill="#EAA36E"/>
<path d="M64.9 51H60.3V55.6H64.9V51Z" fill="#EAA36E"/>
<path d="M64.9 46.3999H60.3V50.9999H64.9V46.3999Z" fill="#D17E46"/>
<path d="M64.9 41.7H60.3V46.3H64.9V41.7Z" fill="#D17E46"/>
<path d="M64.9 37.1001H60.3V41.7001H64.9V37.1001Z" fill="#D17E46"/>
<path d="M64.9 32.3999H60.3V36.9999H64.9V32.3999Z" fill="#D17E46"/>
<path d="M64.9 27.8H60.3V32.4001H64.9V27.8Z" fill="#89352C"/>
<path d="M64.9 23.2H60.3V27.8H64.9V23.2Z" fill="#89352C"/>
<path d="M64.9 18.5H60.3V23.1H64.9V18.5Z" fill="#AD4A3A"/>
<path d="M64.9 13.8999H60.3V18.4999H64.9V13.8999Z" fill="#AD4A3A"/>
<path d="M64.9 9.30005H60.3V13.9001H64.9V9.30005Z" fill="#AD4A3A"/>
<path d="M64.9 4.6001H60.3V9.20009H64.9V4.6001Z" fill="#D36559"/>
<path d="M60.3 111.3H55.7V115.9H60.3V111.3Z" fill="#2D2824"/>
<path d="M60.3 106.6H55.7V111.2H60.3V106.6Z" fill="#7391C6"/>
<path d="M60.3 102H55.7V106.6H60.3V102Z" fill="#5C71A0"/>
<path d="M60.3 97.3999H55.7V102H60.3V97.3999Z" fill="#5C71A0"/>
<path d="M60.3 92.7H55.7V97.3H60.3V92.7Z" fill="#EAA36E"/>
<path d="M60.3 88.1001H55.7V92.7001H60.3V88.1001Z" fill="#D17E46"/>
<path d="M60.3 83.3999H55.7V87.9999H60.3V83.3999Z" fill="#918B87"/>
<path d="M60.3 78.8H55.7V83.4001H60.3V78.8Z" fill="#918B87"/>
<path d="M60.3 74.2H55.7V78.8H60.3V74.2Z" fill="#707070"/>
<path d="M60.3 69.5H55.7V74.1H60.3V69.5Z" fill="#D17E46"/>
<path d="M60.3 64.8999H55.7V69.4999H60.3V64.8999Z" fill="#EAA36E"/>
<path d="M60.3 60.3H55.7V64.9001H60.3V60.3Z" fill="#EAA36E"/>
<path d="M60.3 55.6001H55.7V60.2001H60.3V55.6001Z" fill="#EAA36E"/>
<path d="M60.3 51H55.7V55.6H60.3V51Z" fill="#EAA36E"/>
<path d="M60.3 46.3999H55.7V50.9999H60.3V46.3999Z" fill="#D17E46"/>
<path d="M60.3 41.7H55.7V46.3H60.3V41.7Z" fill="#D17E46"/>
<path d="M60.3 37.1001H55.7V41.7001H60.3V37.1001Z" fill="#D17E46"/>
<path d="M60.3 32.3999H55.7V36.9999H60.3V32.3999Z" fill="#D17E46"/>
<path d="M60.3 27.8H55.7V32.4001H60.3V27.8Z" fill="#89352C"/>
<path d="M60.3 23.2H55.7V27.8H60.3V23.2Z" fill="#89352C"/>
<path d="M60.3 18.5H55.7V23.1H60.3V18.5Z" fill="#AD4A3A"/>
<path d="M60.3 13.8999H55.7V18.4999H60.3V13.8999Z" fill="#AD4A3A"/>
<path d="M60.3 9.30005H55.7V13.9001H60.3V9.30005Z" fill="#AD4A3A"/>
<path d="M60.3 4.6001H55.7V9.20009H60.3V4.6001Z" fill="#D36559"/>
<path d="M55.6 111.3H51V115.9H55.6V111.3Z" fill="#2D2824"/>
<path d="M55.6 106.6H51V111.2H55.6V106.6Z" fill="#7391C6"/>
<path d="M55.6 102H51V106.6H55.6V102Z" fill="#5C71A0"/>
<path d="M55.6 97.3999H51V102H55.6V97.3999Z" fill="#5C71A0"/>
<path d="M55.6 92.7H51V97.3H55.6V92.7Z" fill="#5C71A0"/>
<path d="M55.6 88.1001H51V92.7001H55.6V88.1001Z" fill="#707070"/>
<path d="M55.6 83.3999H51V87.9999H55.6V83.3999Z" fill="#707070"/>
<path d="M55.6 78.8H51V83.4001H55.6V78.8Z" fill="#707070"/>
<path d="M55.6 74.2H51V78.8H55.6V74.2Z" fill="#707070"/>
<path d="M55.6 69.5H51V74.1H55.6V69.5Z" fill="#D17E46"/>
<path d="M55.6 64.8999H51V69.4999H55.6V64.8999Z" fill="#EAA36E"/>
<path d="M55.6 60.3H51V64.9001H55.6V60.3Z" fill="#EAA36E"/>
<path d="M55.6 55.6001H51V60.2001H55.6V55.6001Z" fill="#EAA36E"/>
<path d="M55.6 51H51V55.6H55.6V51Z" fill="#EAA36E"/>
<path d="M55.6 46.3999H51V50.9999H55.6V46.3999Z" fill="#21140C"/>
<path d="M55.6 41.7H51V46.3H55.6V41.7Z" fill="#21140C"/>
<path d="M55.6 37.1001H51V41.7001H55.6V37.1001Z" fill="#EAA36E"/>
<path d="M55.6 32.3999H51V36.9999H55.6V32.3999Z" fill="#D17E46"/>
<path d="M55.6 27.8H51V32.4001H55.6V27.8Z" fill="#D17E46"/>
<path d="M55.6 23.2H51V27.8H55.6V23.2Z" fill="#89352C"/>
<path d="M55.6 18.5H51V23.1H55.6V18.5Z" fill="#AD4A3A"/>
<path d="M55.6 13.8999H51V18.4999H55.6V13.8999Z" fill="#AD4A3A"/>
<path d="M55.6 9.30005H51V13.9001H55.6V9.30005Z" fill="#AD4A3A"/>
<path d="M55.6 4.6001H51V9.20009H55.6V4.6001Z" fill="#D36559"/>
<path d="M50.9999 92.7H46.3999V97.3H50.9999V92.7Z" fill="#5C71A0"/>
<path d="M50.9999 88.1001H46.3999V92.7001H50.9999V88.1001Z" fill="#918B87"/>
<path d="M50.9999 83.3999H46.3999V87.9999H50.9999V83.3999Z" fill="#918B87"/>
<path d="M50.9999 78.8H46.3999V83.4001H50.9999V78.8Z" fill="#918B87"/>
<path d="M50.9999 74.2H46.3999V78.8H50.9999V74.2Z" fill="#707070"/>
<path d="M50.9999 69.5H46.3999V74.1H50.9999V69.5Z" fill="#D17E46"/>
<path d="M50.9999 64.8999H46.3999V69.4999H50.9999V64.8999Z" fill="#EAA36E"/>
<path d="M50.9999 60.3H46.3999V64.9001H50.9999V60.3Z" fill="#EAA36E"/>
<path d="M50.9999 55.6001H46.3999V60.2001H50.9999V55.6001Z" fill="#EAA36E"/>
<path d="M50.9999 51H46.3999V55.6H50.9999V51Z" fill="#EAA36E"/>
<path d="M50.9999 46.3999H46.3999V50.9999H50.9999V46.3999Z" fill="#21140C"/>
<path d="M50.9999 41.7H46.3999V46.3H50.9999V41.7Z" fill="#422C1C"/>
<path d="M50.9999 37.1001H46.3999V41.7001H50.9999V37.1001Z" fill="#EAA36E"/>
<path d="M50.9999 32.3999H46.3999V36.9999H50.9999V32.3999Z" fill="#EAA36E"/>
<path d="M50.9999 27.8H46.3999V32.4001H50.9999V27.8Z" fill="#D17E46"/>
<path d="M50.9999 23.2H46.3999V27.8H50.9999V23.2Z" fill="#89352C"/>
<path d="M50.9999 18.5H46.3999V23.1H50.9999V18.5Z" fill="#AD4A3A"/>
<path d="M50.9999 13.8999H46.3999V18.4999H50.9999V13.8999Z" fill="#AD4A3A"/>
<path d="M50.9999 9.30005H46.3999V13.9001H50.9999V9.30005Z" fill="#AD4A3A"/>
<path d="M50.9999 4.6001H46.3999V9.20009H50.9999V4.6001Z" fill="#AD4A3A"/>
<path d="M50.9999 0H46.3999V4.60001H50.9999V0Z" fill="#D36559"/>
<path d="M46.4 92.7H41.8V97.3H46.4V92.7Z" fill="#5C71A0"/>
<path d="M46.4 88.1001H41.8V92.7001H46.4V88.1001Z" fill="#918B87"/>
<path d="M46.4 83.3999H41.8V87.9999H46.4V83.3999Z" fill="#918B87"/>
<path d="M46.4 78.8H41.8V83.4001H46.4V78.8Z" fill="#918B87"/>
<path d="M46.4 74.2H41.8V78.8H46.4V74.2Z" fill="#707070"/>
<path d="M46.4 69.5H41.8V74.1H46.4V69.5Z" fill="#D17E46"/>
<path d="M46.4 64.8999H41.8V69.4999H46.4V64.8999Z" fill="#EAA36E"/>
<path d="M46.4 60.3H41.8V64.9001H46.4V60.3Z" fill="#EAA36E"/>
<path d="M46.4 55.6001H41.8V60.2001H46.4V55.6001Z" fill="#EAA36E"/>
<path d="M46.4 51H41.8V55.6H46.4V51Z" fill="white"/>
<path d="M46.4 46.3999H41.8V50.9999H46.4V46.3999Z" fill="#EAA36E"/>
<path d="M46.4 41.7H41.8V46.3H46.4V41.7Z" fill="#EAA36E"/>
<path d="M46.4 37.1001H41.8V41.7001H46.4V37.1001Z" fill="#EAA36E"/>
<path d="M46.4 32.3999H41.8V36.9999H46.4V32.3999Z" fill="#EAA36E"/>
<path d="M46.4 27.8H41.8V32.4001H46.4V27.8Z" fill="#D17E46"/>
<path d="M46.4 23.2H41.8V27.8H46.4V23.2Z" fill="#89352C"/>
<path d="M46.4 18.5H41.8V23.1H46.4V18.5Z" fill="#89352C"/>
<path d="M46.4 13.8999H41.8V18.4999H46.4V13.8999Z" fill="#AD4A3A"/>
<path d="M46.4 9.30005H41.8V13.9001H46.4V9.30005Z" fill="#AD4A3A"/>
<path d="M46.4 4.6001H41.8V9.20009H46.4V4.6001Z" fill="#AD4A3A"/>
<path d="M46.4 0H41.8V4.60001H46.4V0Z" fill="#D36559"/>
<path d="M41.7001 92.7H37.1001V97.3H41.7001V92.7Z" fill="#5C71A0"/>
<path d="M41.7001 88.1001H37.1001V92.7001H41.7001V88.1001Z" fill="#918B87"/>
<path d="M41.7001 83.3999H37.1001V87.9999H41.7001V83.3999Z" fill="#918B87"/>
<path d="M41.7001 78.8H37.1001V83.4001H41.7001V78.8Z" fill="#918B87"/>
<path d="M41.7001 74.2H37.1001V78.8H41.7001V74.2Z" fill="#707070"/>
<path d="M41.7001 69.5H37.1001V74.1H41.7001V69.5Z" fill="#D17E46"/>
<path d="M41.7001 64.8999H37.1001V69.4999H41.7001V64.8999Z" fill="#EAA36E"/>
<path d="M41.7001 60.3H37.1001V64.9001H41.7001V60.3Z" fill="#EAA36E"/>
<path d="M41.7001 55.6001H37.1001V60.2001H41.7001V55.6001Z" fill="white"/>
<path d="M41.7001 51H37.1001V55.6H41.7001V51Z" fill="white"/>
<path d="M41.7001 46.3999H37.1001V50.9999H41.7001V46.3999Z" fill="#EAA36E"/>
<path d="M41.7001 41.7H37.1001V46.3H41.7001V41.7Z" fill="#EAA36E"/>
<path d="M41.7001 37.1001H37.1001V41.7001H41.7001V37.1001Z" fill="#EAA36E"/>
<path d="M41.7001 32.3999H37.1001V36.9999H41.7001V32.3999Z" fill="#EAA36E"/>
<path d="M41.7001 27.8H37.1001V32.4001H41.7001V27.8Z" fill="#D17E46"/>
<path d="M41.7001 23.2H37.1001V27.8H41.7001V23.2Z" fill="#89352C"/>
<path d="M41.7001 18.5H37.1001V23.1H41.7001V18.5Z" fill="#89352C"/>
<path d="M41.7001 13.8999H37.1001V18.4999H41.7001V13.8999Z" fill="#AD4A3A"/>
<path d="M41.7001 9.30005H37.1001V13.9001H41.7001V9.30005Z" fill="#AD4A3A"/>
<path d="M41.7001 4.6001H37.1001V9.20009H41.7001V4.6001Z" fill="#AD4A3A"/>
<path d="M41.7001 0H37.1001V4.60001H41.7001V0Z" fill="#D36559"/>
<path d="M37.1 92.7H32.5V97.3H37.1V92.7Z" fill="#5C71A0"/>
<path d="M37.1 88.1001H32.5V92.7001H37.1V88.1001Z" fill="#918B87"/>
<path d="M37.1 83.3999H32.5V87.9999H37.1V83.3999Z" fill="#918B87"/>
<path d="M37.1 78.8H32.5V83.4001H37.1V78.8Z" fill="#918B87"/>
<path d="M37.1 74.2H32.5V78.8H37.1V74.2Z" fill="#707070"/>
<path d="M37.1 69.5H32.5V74.1H37.1V69.5Z" fill="#D17E46"/>
<path d="M37.1 64.8999H32.5V69.4999H37.1V64.8999Z" fill="#EAA36E"/>
<path d="M37.1 60.3H32.5V64.9001H37.1V60.3Z" fill="white"/>
<path d="M37.1 55.6001H32.5V60.2001H37.1V55.6001Z" fill="white"/>
<path d="M37.1 51H32.5V55.6H37.1V51Z" fill="white"/>
<path d="M37.1 46.3999H32.5V50.9999H37.1V46.3999Z" fill="#EAA36E"/>
<path d="M37.1 41.7H32.5V46.3H37.1V41.7Z" fill="#EAA36E"/>
<path d="M37.1 37.1001H32.5V41.7001H37.1V37.1001Z" fill="#EAA36E"/>
<path d="M37.1 32.3999H32.5V36.9999H37.1V32.3999Z" fill="#EAA36E"/>
<path d="M37.1 27.8H32.5V32.4001H37.1V27.8Z" fill="#D17E46"/>
<path d="M37.1 23.2H32.5V27.8H37.1V23.2Z" fill="#89352C"/>
<path d="M37.1 18.5H32.5V23.1H37.1V18.5Z" fill="#89352C"/>
<path d="M37.1 13.8999H32.5V18.4999H37.1V13.8999Z" fill="#AD4A3A"/>
<path d="M37.1 9.30005H32.5V13.9001H37.1V9.30005Z" fill="#AD4A3A"/>
<path d="M37.1 4.6001H32.5V9.20009H37.1V4.6001Z" fill="#AD4A3A"/>
<path d="M37.1 0H32.5V4.60001H37.1V0Z" fill="#D36559"/>
<path d="M32.4999 111.3H27.8999V115.9H32.4999V111.3Z" fill="#2D2824"/>
<path d="M32.4999 106.6H27.8999V111.2H32.4999V106.6Z" fill="#7391C6"/>
<path d="M32.4999 102H27.8999V106.6H32.4999V102Z" fill="#5C71A0"/>
<path d="M32.4999 97.3999H27.8999V102H32.4999V97.3999Z" fill="#5C71A0"/>
<path d="M32.4999 92.7H27.8999V97.3H32.4999V92.7Z" fill="#5C71A0"/>
<path d="M32.4999 88.1001H27.8999V92.7001H32.4999V88.1001Z" fill="#918B87"/>
<path d="M32.4999 83.3999H27.8999V87.9999H32.4999V83.3999Z" fill="#918B87"/>
<path d="M32.4999 78.8H27.8999V83.4001H32.4999V78.8Z" fill="#918B87"/>
<path d="M32.4999 74.2H27.8999V78.8H32.4999V74.2Z" fill="#707070"/>
<path d="M32.4999 69.5H27.8999V74.1H32.4999V69.5Z" fill="#D17E46"/>
<path d="M32.4999 64.8999H27.8999V69.4999H32.4999V64.8999Z" fill="#EAA36E"/>
<path d="M32.4999 60.3H27.8999V64.9001H32.4999V60.3Z" fill="white"/>
<path d="M32.4999 55.6001H27.8999V60.2001H32.4999V55.6001Z" fill="white"/>
<path d="M32.4999 51H27.8999V55.6H32.4999V51Z" fill="white"/>
<path d="M32.4999 46.3999H27.8999V50.9999H32.4999V46.3999Z" fill="#EAA36E"/>
<path d="M32.4999 41.7H27.8999V46.3H32.4999V41.7Z" fill="#EAA36E"/>
<path d="M32.4999 37.1001H27.8999V41.7001H32.4999V37.1001Z" fill="#EAA36E"/>
<path d="M32.4999 32.3999H27.8999V36.9999H32.4999V32.3999Z" fill="#EAA36E"/>
<path d="M32.4999 27.8H27.8999V32.4001H32.4999V27.8Z" fill="#D17E46"/>
<path d="M32.4999 23.2H27.8999V27.8H32.4999V23.2Z" fill="#89352C"/>
<path d="M32.4999 18.5H27.8999V23.1H32.4999V18.5Z" fill="#89352C"/>
<path d="M32.4999 13.8999H27.8999V18.4999H32.4999V13.8999Z" fill="#AD4A3A"/>
<path d="M32.4999 9.30005H27.8999V13.9001H32.4999V9.30005Z" fill="#AD4A3A"/>
<path d="M32.4999 4.6001H27.8999V9.20009H32.4999V4.6001Z" fill="#AD4A3A"/>
<path d="M32.4999 0H27.8999V4.60001H32.4999V0Z" fill="#D36559"/>
<path d="M27.8 111.3H23.2V115.9H27.8V111.3Z" fill="#2D2824"/>
<path d="M27.8 106.6H23.2V111.2H27.8V106.6Z" fill="#7391C6"/>
<path d="M27.8 102H23.2V106.6H27.8V102Z" fill="#5C71A0"/>
<path d="M27.8 97.3999H23.2V102H27.8V97.3999Z" fill="#5C71A0"/>
<path d="M27.8 92.7H23.2V97.3H27.8V92.7Z" fill="#5C71A0"/>
<path d="M27.8 88.1001H23.2V92.7001H27.8V88.1001Z" fill="#918B87"/>
<path d="M27.8 83.3999H23.2V87.9999H27.8V83.3999Z" fill="#707070"/>
<path d="M27.8 78.8H23.2V83.4001H27.8V78.8Z" fill="#707070"/>
<path d="M27.8 74.2H23.2V78.8H27.8V74.2Z" fill="#707070"/>
<path d="M27.8 69.5H23.2V74.1H27.8V69.5Z" fill="#D17E46"/>
<path d="M27.8 64.8999H23.2V69.4999H27.8V64.8999Z" fill="#EAA36E"/>
<path d="M27.8 60.3H23.2V64.9001H27.8V60.3Z" fill="#EAA36E"/>
<path d="M27.8 55.6001H23.2V60.2001H27.8V55.6001Z" fill="white"/>
<path d="M27.8 51H23.2V55.6H27.8V51Z" fill="white"/>
<path d="M27.8 46.3999H23.2V50.9999H27.8V46.3999Z" fill="#EAA36E"/>
<path d="M27.8 41.7H23.2V46.3H27.8V41.7Z" fill="#EAA36E"/>
<path d="M27.8 37.1001H23.2V41.7001H27.8V37.1001Z" fill="#EAA36E"/>
<path d="M27.8 32.3999H23.2V36.9999H27.8V32.3999Z" fill="#EAA36E"/>
<path d="M27.8 27.8H23.2V32.4001H27.8V27.8Z" fill="#D17E46"/>
<path d="M27.8 23.2H23.2V27.8H27.8V23.2Z" fill="#89352C"/>
<path d="M27.8 18.5H23.2V23.1H27.8V18.5Z" fill="#89352C"/>
<path d="M27.8 13.8999H23.2V18.4999H27.8V13.8999Z" fill="#AD4A3A"/>
<path d="M27.8 9.30005H23.2V13.9001H27.8V9.30005Z" fill="#AD4A3A"/>
<path d="M27.8 4.6001H23.2V9.20009H27.8V4.6001Z" fill="#AD4A3A"/>
<path d="M27.8 0H23.2V4.60001H27.8V0Z" fill="#D36559"/>
<path d="M23.2001 92.7H18.6001V97.3H23.2001V92.7Z" fill="#EAA36E"/>
<path d="M23.2001 88.1001H18.6001V92.7001H23.2001V88.1001Z" fill="#D17E46"/>
<path d="M23.2001 83.3999H18.6001V87.9999H23.2001V83.3999Z" fill="#918B87"/>
<path d="M23.2001 78.8H18.6001V83.4001H23.2001V78.8Z" fill="#918B87"/>
<path d="M23.2001 74.2H18.6001V78.8H23.2001V74.2Z" fill="#707070"/>
<path d="M23.2001 69.5H18.6001V74.1H23.2001V69.5Z" fill="#D17E46"/>
<path d="M23.2001 64.8999H18.6001V69.4999H23.2001V64.8999Z" fill="#EAA36E"/>
<path d="M23.2001 60.3H18.6001V64.9001H23.2001V60.3Z" fill="#EAA36E"/>
<path d="M23.2001 55.6001H18.6001V60.2001H23.2001V55.6001Z" fill="#EAA36E"/>
<path d="M23.2001 51H18.6001V55.6H23.2001V51Z" fill="white"/>
<path d="M23.2001 46.3999H18.6001V50.9999H23.2001V46.3999Z" fill="#EAA36E"/>
<path d="M23.2001 41.7H18.6001V46.3H23.2001V41.7Z" fill="#EAA36E"/>
<path d="M23.2001 37.1001H18.6001V41.7001H23.2001V37.1001Z" fill="#EAA36E"/>
<path d="M23.2001 32.3999H18.6001V36.9999H23.2001V32.3999Z" fill="#EAA36E"/>
<path d="M23.2001 27.8H18.6001V32.4001H23.2001V27.8Z" fill="#D17E46"/>
<path d="M23.2001 23.2H18.6001V27.8H23.2001V23.2Z" fill="#89352C"/>
<path d="M23.2001 18.5H18.6001V23.1H23.2001V18.5Z" fill="#89352C"/>
<path d="M23.2001 13.8999H18.6001V18.4999H23.2001V13.8999Z" fill="#AD4A3A"/>
<path d="M23.2001 9.30005H18.6001V13.9001H23.2001V9.30005Z" fill="#AD4A3A"/>
<path d="M23.2001 4.6001H18.6001V9.20009H23.2001V4.6001Z" fill="#AD4A3A"/>
<path d="M23.2001 0H18.6001V4.60001H23.2001V0Z" fill="#D36559"/>
<path d="M18.6 69.5H14V74.1H18.6V69.5Z" fill="#D17E46"/>
<path d="M18.6 64.8999H14V69.4999H18.6V64.8999Z" fill="#EAA36E"/>
<path d="M18.6 60.3H14V64.9001H18.6V60.3Z" fill="#EAA36E"/>
<path d="M18.6 55.6001H14V60.2001H18.6V55.6001Z" fill="#EAA36E"/>
<path d="M18.6 51H14V55.6H18.6V51Z" fill="#EAA36E"/>
<path d="M18.6 46.3999H14V50.9999H18.6V46.3999Z" fill="#21140C"/>
<path d="M18.6 41.7H14V46.3H18.6V41.7Z" fill="#21140C"/>
<path d="M18.6 37.1001H14V41.7001H18.6V37.1001Z" fill="#EAA36E"/>
<path d="M18.6 32.3999H14V36.9999H18.6V32.3999Z" fill="#EAA36E"/>
<path d="M18.6 27.8H14V32.4001H18.6V27.8Z" fill="#D17E46"/>
<path d="M18.6 23.2H14V27.8H18.6V23.2Z" fill="#89352C"/>
<path d="M18.6 18.5H14V23.1H18.6V18.5Z" fill="#89352C"/>
<path d="M18.6 13.8999H14V18.4999H18.6V13.8999Z" fill="#AD4A3A"/>
<path d="M18.6 9.30005H14V13.9001H18.6V9.30005Z" fill="#AD4A3A"/>
<path d="M18.6 4.6001H14V9.20009H18.6V4.6001Z" fill="#AD4A3A"/>
<path d="M18.6 0H14V4.60001H18.6V0Z" fill="#D36559"/>
<path d="M13.9 69.5H9.30005V74.1H13.9V69.5Z" fill="#D17E46"/>
<path d="M13.9 64.8999H9.30005V69.4999H13.9V64.8999Z" fill="#EAA36E"/>
<path d="M13.9 60.3H9.30005V64.9001H13.9V60.3Z" fill="#EAA36E"/>
<path d="M13.9 55.6001H9.30005V60.2001H13.9V55.6001Z" fill="#EAA36E"/>
<path d="M13.9 51H9.30005V55.6H13.9V51Z" fill="#EAA36E"/>
<path d="M13.9 46.3999H9.30005V50.9999H13.9V46.3999Z" fill="#21140C"/>
<path d="M13.9 41.7H9.30005V46.3H13.9V41.7Z" fill="#422C1C"/>
<path d="M13.9 37.1001H9.30005V41.7001H13.9V37.1001Z" fill="#EAA36E"/>
<path d="M13.9 32.3999H9.30005V36.9999H13.9V32.3999Z" fill="#EAA36E"/>
<path d="M13.9 27.8H9.30005V32.4001H13.9V27.8Z" fill="#D17E46"/>
<path d="M13.9 23.2H9.30005V27.8H13.9V23.2Z" fill="#89352C"/>
<path d="M13.9 18.5H9.30005V23.1H13.9V18.5Z" fill="#89352C"/>
<path d="M13.9 13.8999H9.30005V18.4999H13.9V13.8999Z" fill="#AD4A3A"/>
<path d="M13.9 9.30005H9.30005V13.9001H13.9V9.30005Z" fill="#AD4A3A"/>
<path d="M13.9 4.6001H9.30005V9.20009H13.9V4.6001Z" fill="#AD4A3A"/>
<path d="M13.9 0H9.30005V4.60001H13.9V0Z" fill="#D36559"/>
<path d="M9.29999 64.8999H4.69995V69.4999H9.29999V64.8999Z" fill="#D17E46"/>
<path d="M9.29999 60.3H4.69995V64.9001H9.29999V60.3Z" fill="#EAA36E"/>
<path d="M9.29999 55.6001H4.69995V60.2001H9.29999V55.6001Z" fill="#EAA36E"/>
<path d="M9.29999 51H4.69995V55.6H9.29999V51Z" fill="#EAA36E"/>
<path d="M9.29999 46.3999H4.69995V50.9999H9.29999V46.3999Z" fill="#EAA36E"/>
<path d="M9.29999 41.7H4.69995V46.3H9.29999V41.7Z" fill="#EAA36E"/>
<path d="M9.29999 37.1001H4.69995V41.7001H9.29999V37.1001Z" fill="#EAA36E"/>
<path d="M9.29999 32.3999H4.69995V36.9999H9.29999V32.3999Z" fill="#EAA36E"/>
<path d="M9.29999 27.8H4.69995V32.4001H9.29999V27.8Z" fill="#D17E46"/>
<path d="M9.29999 23.2H4.69995V27.8H9.29999V23.2Z" fill="#89352C"/>
<path d="M9.29999 18.5H4.69995V23.1H9.29999V18.5Z" fill="#89352C"/>
<path d="M9.29999 13.8999H4.69995V18.4999H9.29999V13.8999Z" fill="#AD4A3A"/>
<path d="M9.29999 9.30005H4.69995V13.9001H9.29999V9.30005Z" fill="#AD4A3A"/>
<path d="M9.29999 4.6001H4.69995V9.20009H9.29999V4.6001Z" fill="#AD4A3A"/>
<path d="M9.29999 0H4.69995V4.60001H9.29999V0Z" fill="#D36559"/>
<path d="M4.59998 18.5H0V23.1H4.59998V18.5Z" fill="#89352C"/>
<path d="M4.59998 13.8999H0V18.4999H4.59998V13.8999Z" fill="#89352C"/>
<path d="M4.59998 9.30005H0V13.9001H4.59998V9.30005Z" fill="#89352C"/>
<path d="M4.59998 4.6001H0V9.20009H4.59998V4.6001Z" fill="#AD4A3A"/>
</svg>
