<svg width="79" height="117" viewBox="0 0 79 117" fill="none" xmlns="http://www.w3.org/2000/svg">
<path d="M50.9999 111.8H46.3999V116.4H50.9999V111.8Z" fill="#B73434"/>
<path d="M55.6 111.8H51V116.4H55.6V111.8Z" fill="#B73434"/>
<path d="M27.7999 111.8H23.2V116.4H27.7999V111.8Z" fill="#B73434"/>
<path d="M32.4001 111.8H27.8V116.4H32.4001V111.8Z" fill="#B73434"/>
<path d="M46.2999 107.1H41.7V111.7H46.2999V107.1Z" fill="#66667C"/>
<path d="M50.9999 107.1H46.3999V111.7H50.9999V107.1Z" fill="#66667C"/>
<path d="M55.6 107.1H51V111.7H55.6V107.1Z" fill="#66667C"/>
<path d="M23.2001 107.1H18.6001V111.7H23.2001V107.1Z" fill="#66667C"/>
<path d="M27.7999 107.1H23.2V111.7H27.7999V107.1Z" fill="#66667C"/>
<path d="M32.4001 107.1H27.8V111.7H32.4001V107.1Z" fill="#66667C"/>
<path d="M46.2999 102.5H41.7V107.1H46.2999V102.5Z" fill="#494956"/>
<path d="M50.9999 102.5H46.3999V107.1H50.9999V102.5Z" fill="#494956"/>
<path d="M55.6 102.5H51V107.1H55.6V102.5Z" fill="#494956"/>
<path d="M32.4001 102.5H27.8V107.1H32.4001V102.5Z" fill="#494956"/>
<path d="M23.2001 102.5H18.6001V107.1H23.2001V102.5Z" fill="#494956"/>
<path d="M23.2001 97.8999H18.6001V102.5H23.2001V97.8999Z" fill="#494956"/>
<path d="M27.7999 102.5H23.2V107.1H27.7999V102.5Z" fill="#494956"/>
<path d="M27.7999 97.8999H23.2V102.5H27.7999V97.8999Z" fill="#494956"/>
<path d="M32.4001 97.8999H27.8V102.5H32.4001V97.8999Z" fill="#494956"/>
<path d="M37.1 97.8999H32.5V102.5H37.1V97.8999Z" fill="#494956"/>
<path d="M41.7001 97.8999H37.1001V102.5H41.7001V97.8999Z" fill="#494956"/>
<path d="M46.2999 97.8999H41.7V102.5H46.2999V97.8999Z" fill="#494956"/>
<path d="M50.9999 97.8999H46.3999V102.5H50.9999V97.8999Z" fill="#494956"/>
<path d="M55.6 97.8999H51V102.5H55.6V97.8999Z" fill="#494956"/>
<path d="M27.7999 93.2H23.2V97.8H27.7999V93.2Z" fill="#494956"/>
<path d="M32.4001 93.2H27.8V97.8H32.4001V93.2Z" fill="#494956"/>
<path d="M37.1 93.2H32.5V97.8H37.1V93.2Z" fill="#494956"/>
<path d="M41.7001 93.2H37.1001V97.8H41.7001V93.2Z" fill="#494956"/>
<path d="M46.2999 93.2H41.7V97.8H46.2999V93.2Z" fill="#494956"/>
<path d="M50.9999 93.2H46.3999V97.8H50.9999V93.2Z" fill="#494956"/>
<path d="M55.6 93.2H51V97.8H55.6V93.2Z" fill="#494956"/>
<path d="M37.1 74.7H32.5V79.3H37.1V74.7Z" fill="#B9C6DB"/>
<path d="M41.7001 74.7H37.1001V79.3H41.7001V74.7Z" fill="#B9C6DB"/>
<path d="M46.2999 74.7H41.7V79.3H46.2999V74.7Z" fill="#B9C6DB"/>
<path d="M50.9999 74.7H46.3999V79.3H50.9999V74.7Z" fill="#B9C6DB"/>
<path d="M55.6 74.7H51V79.3H55.6V74.7Z" fill="#B9C6DB"/>
<path d="M60.2001 74.7H55.6001V79.3H60.2001V74.7Z" fill="#B9C6DB"/>
<path d="M60.2001 83.8999H55.6001V88.4999H60.2001V83.8999Z" fill="#F0F5FF"/>
<path d="M60.2001 79.3H55.6001V83.9H60.2001V79.3Z" fill="#F0F5FF"/>
<path d="M23.2001 74.7H18.6001V79.3H23.2001V74.7Z" fill="#B9C6DB"/>
<path d="M23.2001 79.3H18.6001V83.9H23.2001V79.3Z" fill="#F0F5FF"/>
<path d="M27.7999 74.7H23.2V79.3H27.7999V74.7Z" fill="#B9C6DB"/>
<path d="M27.7999 79.3H23.2V83.9H27.7999V79.3Z" fill="#B9C6DB"/>
<path d="M32.4001 83.8999H27.8V88.4999H32.4001V83.8999Z" fill="#F0F5FF"/>
<path d="M32.4001 88.6001H27.8V93.2001H32.4001V88.6001Z" fill="#F0F5FF"/>
<path d="M32.4001 74.7H27.8V79.3H32.4001V74.7Z" fill="#B9C6DB"/>
<path d="M32.4001 79.3H27.8V83.9H32.4001V79.3Z" fill="#F0F5FF"/>
<path d="M37.1 79.3H32.5V83.9H37.1V79.3Z" fill="#F0F5FF"/>
<path d="M37.1 83.8999H32.5V88.4999H37.1V83.8999Z" fill="#F0F5FF"/>
<path d="M37.1 88.6001H32.5V93.2001H37.1V88.6001Z" fill="#F0F5FF"/>
<path d="M41.7001 88.6001H37.1001V93.2001H41.7001V88.6001Z" fill="#F0F5FF"/>
<path d="M41.7001 83.8999H37.1001V88.4999H41.7001V83.8999Z" fill="#F0F5FF"/>
<path d="M41.7001 79.3H37.1001V83.9H41.7001V79.3Z" fill="#F0F5FF"/>
<path d="M46.2999 79.3H41.7V83.9H46.2999V79.3Z" fill="#F0F5FF"/>
<path d="M46.2999 83.8999H41.7V88.4999H46.2999V83.8999Z" fill="#F0F5FF"/>
<path d="M46.2999 88.6001H41.7V93.2001H46.2999V88.6001Z" fill="#F0F5FF"/>
<path d="M50.9999 88.6001H46.3999V93.2001H50.9999V88.6001Z" fill="#F0F5FF"/>
<path d="M50.9999 83.8999H46.3999V88.4999H50.9999V83.8999Z" fill="#F0F5FF"/>
<path d="M50.9999 79.3H46.3999V83.9H50.9999V79.3Z" fill="#F0F5FF"/>
<path d="M55.6 88.6001H51V93.2001H55.6V88.6001Z" fill="#F0F5FF"/>
<path d="M55.6 79.3H51V83.9H55.6V79.3Z" fill="#B9C6DB"/>
<path d="M55.6 83.8999H51V88.4999H55.6V83.8999Z" fill="#B9C6DB"/>
<path d="M18.4999 83.8999H13.8999V88.4999H18.4999V83.8999Z" fill="#F0F5FF"/>
<path d="M18.4999 79.3H13.8999V83.9H18.4999V79.3Z" fill="#F0F5FF"/>
<path d="M18.4999 74.7H13.8999V79.3H18.4999V74.7Z" fill="#B9C6DB"/>
<path d="M23.2001 83.8999H18.6001V88.4999H23.2001V83.8999Z" fill="#F0F5FF"/>
<path d="M27.7999 83.8999H23.2V88.4999H27.7999V83.8999Z" fill="#B9C6DB"/>
<path d="M27.7999 88.6001H23.2V93.2001H27.7999V88.6001Z" fill="#B9C6DB"/>
<path d="M60.2001 88.6001H55.6001V93.2001H60.2001V88.6001Z" fill="#D17E46"/>
<path d="M23.2001 88.6001H18.6001V93.2001H23.2001V88.6001Z" fill="#D17E46"/>
<path d="M18.4999 88.6001H13.8999V93.2001H18.4999V88.6001Z" fill="#D17E46"/>
<path d="M60.2001 93.2H55.6001V97.8H60.2001V93.2Z" fill="#EAA36E"/>
<path d="M18.4999 93.2H13.8999V97.8H18.4999V93.2Z" fill="#EAA36E"/>
<path d="M23.2001 93.2H18.6001V97.8H23.2001V93.2Z" fill="#EAA36E"/>
<path d="M69.4999 42.2H64.8999V46.8H69.4999V42.2Z" fill="#EAA36E"/>
<path d="M69.4999 46.8999H64.8999V51.4999H69.4999V46.8999Z" fill="#EAA36E"/>
<path d="M60.2001 46.8999H55.6001V51.4999H60.2001V46.8999Z" fill="#21140C"/>
<path d="M64.9001 46.8999H60.3V51.4999H64.9001V46.8999Z" fill="#21140C"/>
<path d="M64.9001 42.2H60.3V46.8H64.9001V42.2Z" fill="#21140C"/>
<path d="M27.7999 46.8999H23.2V51.4999H27.7999V46.8999Z" fill="#21140C"/>
<path d="M27.7999 42.2H23.2V46.8H27.7999V42.2Z" fill="#422C1C"/>
<path d="M32.4001 46.8999H27.8V51.4999H32.4001V46.8999Z" fill="#21140C"/>
<path d="M32.4001 42.2H27.8V46.8H32.4001V42.2Z" fill="#21140C"/>
<path d="M23.2001 0.5H18.6001V5.10001H23.2001V0.5Z" fill="#9B8B81"/>
<path d="M64.9001 0.5H60.3V5.10001H64.9001V0.5Z" fill="#9B8B81"/>
<path d="M78.7999 37.6001H74.2V42.2001H78.7999V37.6001Z" fill="#5B534D"/>
<path d="M4.59999 37.6001H0V42.2001H4.59999V37.6001Z" fill="#5B534D"/>
<path d="M4.59999 32.8999H0V37.4999H4.59999V32.8999Z" fill="#5B534D"/>
<path d="M4.59999 28.3H0V32.9H4.59999V28.3Z" fill="#5B534D"/>
<path d="M4.59999 23.7H0V28.3H4.59999V23.7Z" fill="#5B534D"/>
<path d="M4.59999 19H0V23.6H4.59999V19Z" fill="#5B534D"/>
<path d="M27.7999 0.5H23.2V5.10001H27.7999V0.5Z" fill="#9B8B81"/>
<path d="M78.7999 32.8999H74.2V37.4999H78.7999V32.8999Z" fill="#5B534D"/>
<path d="M78.7999 23.7H74.2V28.3H78.7999V23.7Z" fill="#776B63"/>
<path d="M78.7999 14.3999H74.2V18.9999H78.7999V14.3999Z" fill="#776B63"/>
<path d="M78.7999 19H74.2V23.6H78.7999V19Z" fill="#776B63"/>
<path d="M78.7999 28.3H74.2V32.9H78.7999V28.3Z" fill="#5B534D"/>
<path d="M9.29994 32.8999H4.69995V37.4999H9.29994V32.8999Z" fill="#5B534D"/>
<path d="M9.29994 42.2H4.69995V46.8H9.29994V42.2Z" fill="#5B534D"/>
<path d="M9.29994 37.6001H4.69995V42.2001H9.29994V37.6001Z" fill="#5B534D"/>
<path d="M74.1 9.80005H69.5V14.4001H74.1V9.80005Z" fill="#776B63"/>
<path d="M69.4999 9.80005H64.8999V14.4001H69.4999V9.80005Z" fill="#776B63"/>
<path d="M69.4999 5.1001H64.8999V9.70007H69.4999V5.1001Z" fill="#9B8B81"/>
<path d="M64.9001 5.1001H60.3V9.70007H64.9001V5.1001Z" fill="#776B63"/>
<path d="M60.2001 0.5H55.6001V5.10001H60.2001V0.5Z" fill="#9B8B81"/>
<path d="M60.2001 5.1001H55.6001V9.70007H60.2001V5.1001Z" fill="#776B63"/>
<path d="M32.4001 0.5H27.8V5.10001H32.4001V0.5Z" fill="#9B8B81"/>
<path d="M37.1 0.5H32.5V5.10001H37.1V0.5Z" fill="#9B8B81"/>
<path d="M41.7001 0.5H37.1001V5.10001H41.7001V0.5Z" fill="#9B8B81"/>
<path d="M46.2999 0.5H41.7V5.10001H46.2999V0.5Z" fill="#9B8B81"/>
<path d="M50.9999 0.5H46.3999V5.10001H50.9999V0.5Z" fill="#9B8B81"/>
<path d="M55.6 0.5H51V5.10001H55.6V0.5Z" fill="#9B8B81"/>
<path d="M18.4999 5.1001H13.8999V9.70007H18.4999V5.1001Z" fill="#9B8B81"/>
<path d="M23.2001 5.1001H18.6001V9.70007H23.2001V5.1001Z" fill="#9B8B81"/>
<path d="M27.7999 5.1001H23.2V9.70007H27.7999V5.1001Z" fill="#776B63"/>
<path d="M13.9001 9.80005H9.30005V14.4001H13.9001V9.80005Z" fill="#776B63"/>
<path d="M9.29994 28.3H4.69995V32.9H9.29994V28.3Z" fill="#5B534D"/>
<path d="M9.29994 23.7H4.69995V28.3H9.29994V23.7Z" fill="#776B63"/>
<path d="M13.9001 14.3999H9.30005V18.9999H13.9001V14.3999Z" fill="#776B63"/>
<path d="M9.29994 14.3999H4.69995V18.9999H9.29994V14.3999Z" fill="#776B63"/>
<path d="M9.29994 19H4.69995V23.6H9.29994V19Z" fill="#776B63"/>
<path d="M41.7001 60.8H37.1001V65.4H41.7001V60.8Z" fill="#776B63"/>
<path d="M50.9999 60.8H46.3999V65.4H50.9999V60.8Z" fill="#776B63"/>
<path d="M18.4999 70H13.8999V74.6H18.4999V70Z" fill="#776B63"/>
<path d="M50.9999 70H46.3999V74.6H50.9999V70Z" fill="#776B63"/>
<path d="M55.6 70H51V74.6H55.6V70Z" fill="#776B63"/>
<path d="M60.2001 70H55.6001V74.6H60.2001V70Z" fill="#776B63"/>
<path d="M64.9001 70H60.3V74.6H64.9001V70Z" fill="#776B63"/>
<path d="M60.2001 65.3999H55.6001V69.9999H60.2001V65.3999Z" fill="#776B63"/>
<path d="M74.1 60.8H69.5V65.4H74.1V60.8Z" fill="#776B63"/>
<path d="M74.1 65.3999H69.5V69.9999H74.1V65.3999Z" fill="#776B63"/>
<path d="M64.9001 60.8H60.3V65.4H64.9001V60.8Z" fill="#776B63"/>
<path d="M64.9001 65.3999H60.3V69.9999H64.9001V65.3999Z" fill="#776B63"/>
<path d="M69.4999 65.3999H64.8999V69.9999H69.4999V65.3999Z" fill="#776B63"/>
<path d="M69.4999 60.8H64.8999V65.4H69.4999V60.8Z" fill="#776B63"/>
<path d="M37.1 65.3999H32.5V69.9999H37.1V65.3999Z" fill="#776B63"/>
<path d="M41.7001 65.3999H37.1001V69.9999H41.7001V65.3999Z" fill="#776B63"/>
<path d="M46.2999 65.3999H41.7V69.9999H46.2999V65.3999Z" fill="#776B63"/>
<path d="M50.9999 65.3999H46.3999V69.9999H50.9999V65.3999Z" fill="#776B63"/>
<path d="M55.6 65.3999H51V69.9999H55.6V65.3999Z" fill="#776B63"/>
<path d="M23.2001 70H18.6001V74.6H23.2001V70Z" fill="#776B63"/>
<path d="M27.7999 70H23.2V74.6H27.7999V70Z" fill="#776B63"/>
<path d="M18.4999 65.3999H13.8999V69.9999H18.4999V65.3999Z" fill="#776B63"/>
<path d="M23.2001 65.3999H18.6001V69.9999H23.2001V65.3999Z" fill="#776B63"/>
<path d="M27.7999 65.3999H23.2V69.9999H27.7999V65.3999Z" fill="#776B63"/>
<path d="M32.4001 70H27.8V74.6H32.4001V70Z" fill="#776B63"/>
<path d="M32.4001 65.3999H27.8V69.9999H32.4001V65.3999Z" fill="#776B63"/>
<path d="M37.1 70H32.5V74.6H37.1V70Z" fill="#776B63"/>
<path d="M41.7001 70H37.1001V74.6H41.7001V70Z" fill="#776B63"/>
<path d="M46.2999 70H41.7V74.6H46.2999V70Z" fill="#776B63"/>
<path d="M13.9001 65.3999H9.30005V69.9999H13.9001V65.3999Z" fill="#776B63"/>
<path d="M13.9001 60.8H9.30005V65.4H13.9001V60.8Z" fill="#776B63"/>
<path d="M18.4999 60.8H13.8999V65.4H18.4999V60.8Z" fill="#9B8B81"/>
<path d="M23.2001 60.8H18.6001V65.4H23.2001V60.8Z" fill="#9B8B81"/>
<path d="M27.7999 60.8H23.2V65.4H27.7999V60.8Z" fill="#9B8B81"/>
<path d="M13.9001 51.5H9.30005V56.1H13.9001V51.5Z" fill="#9B8B81"/>
<path d="M13.9001 56.1001H9.30005V60.7001H13.9001V56.1001Z" fill="#9B8B81"/>
<path d="M18.4999 56.1001H13.8999V60.7001H18.4999V56.1001Z" fill="#9B8B81"/>
<path d="M23.2001 56.1001H18.6001V60.7001H23.2001V56.1001Z" fill="#9B8B81"/>
<path d="M27.7999 56.1001H23.2V60.7001H27.7999V56.1001Z" fill="#9B8B81"/>
<path d="M74.1 56.1001H69.5V60.7001H74.1V56.1001Z" fill="#9B8B81"/>
<path d="M64.9001 56.1001H60.3V60.7001H64.9001V56.1001Z" fill="#9B8B81"/>
<path d="M69.4999 56.1001H64.8999V60.7001H69.4999V56.1001Z" fill="#9B8B81"/>
<path d="M55.6 60.8H51V65.4H55.6V60.8Z" fill="#9B8B81"/>
<path d="M60.2001 60.8H55.6001V65.4H60.2001V60.8Z" fill="#9B8B81"/>
<path d="M60.2001 51.5H55.6001V56.1H60.2001V51.5Z" fill="#9B8B81"/>
<path d="M55.6 56.1001H51V60.7001H55.6V56.1001Z" fill="#9B8B81"/>
<path d="M60.2001 56.1001H55.6001V60.7001H60.2001V56.1001Z" fill="#9B8B81"/>
<path d="M37.1 56.1001H32.5V60.7001H37.1V56.1001Z" fill="#9B8B81"/>
<path d="M37.1 60.8H32.5V65.4H37.1V60.8Z" fill="#9B8B81"/>
<path d="M32.4001 60.8H27.8V65.4H32.4001V60.8Z" fill="#9B8B81"/>
<path d="M32.4001 51.5H27.8V56.1H32.4001V51.5Z" fill="#9B8B81"/>
<path d="M32.4001 56.1001H27.8V60.7001H32.4001V56.1001Z" fill="#9B8B81"/>
<path d="M37.1 46.8999H32.5V51.4999H37.1V46.8999Z" fill="#9B8B81"/>
<path d="M41.7001 46.8999H37.1001V51.4999H41.7001V46.8999Z" fill="#9B8B81"/>
<path d="M46.2999 46.8999H41.7V51.4999H46.2999V46.8999Z" fill="#9B8B81"/>
<path d="M50.9999 46.8999H46.3999V51.4999H50.9999V46.8999Z" fill="#9B8B81"/>
<path d="M55.6 46.8999H51V51.4999H55.6V46.8999Z" fill="#9B8B81"/>
<path d="M46.2999 60.8H41.7V65.4H46.2999V60.8Z" fill="#776B63"/>
<path d="M41.7001 56.1001H37.1001V60.7001H41.7001V56.1001Z" fill="white"/>
<path d="M46.2999 56.1001H41.7V60.7001H46.2999V56.1001Z" fill="white"/>
<path d="M50.9999 56.1001H46.3999V60.7001H50.9999V56.1001Z" fill="white"/>
<path d="M37.1 51.5H32.5V56.1H37.1V51.5Z" fill="white"/>
<path d="M41.7001 51.5H37.1001V56.1H41.7001V51.5Z" fill="white"/>
<path d="M46.2999 51.5H41.7V56.1H46.2999V51.5Z" fill="white"/>
<path d="M50.9999 51.5H46.3999V56.1H50.9999V51.5Z" fill="white"/>
<path d="M55.6 51.5H51V56.1H55.6V51.5Z" fill="white"/>
<path d="M74.1 14.3999H69.5V18.9999H74.1V14.3999Z" fill="#776B63"/>
<path d="M69.4999 14.3999H64.8999V18.9999H69.4999V14.3999Z" fill="#776B63"/>
<path d="M60.2001 9.80005H55.6001V14.4001H60.2001V9.80005Z" fill="#776B63"/>
<path d="M64.9001 9.80005H60.3V14.4001H64.9001V9.80005Z" fill="#776B63"/>
<path d="M50.9999 9.80005H46.3999V14.4001H50.9999V9.80005Z" fill="#776B63"/>
<path d="M55.6 5.1001H51V9.70007H55.6V5.1001Z" fill="#776B63"/>
<path d="M55.6 9.80005H51V14.4001H55.6V9.80005Z" fill="#776B63"/>
<path d="M32.4001 5.1001H27.8V9.70007H32.4001V5.1001Z" fill="#776B63"/>
<path d="M37.1 5.1001H32.5V9.70007H37.1V5.1001Z" fill="#776B63"/>
<path d="M41.7001 5.1001H37.1001V9.70007H41.7001V5.1001Z" fill="#776B63"/>
<path d="M46.2999 5.1001H41.7V9.70007H46.2999V5.1001Z" fill="#776B63"/>
<path d="M50.9999 5.1001H46.3999V9.70007H50.9999V5.1001Z" fill="#776B63"/>
<path d="M18.4999 9.80005H13.8999V14.4001H18.4999V9.80005Z" fill="#776B63"/>
<path d="M23.2001 9.80005H18.6001V14.4001H23.2001V9.80005Z" fill="#776B63"/>
<path d="M27.7999 9.80005H23.2V14.4001H27.7999V9.80005Z" fill="#776B63"/>
<path d="M32.4001 9.80005H27.8V14.4001H32.4001V9.80005Z" fill="#776B63"/>
<path d="M37.1 9.80005H32.5V14.4001H37.1V9.80005Z" fill="#776B63"/>
<path d="M41.7001 9.80005H37.1001V14.4001H41.7001V9.80005Z" fill="#776B63"/>
<path d="M46.2999 9.80005H41.7V14.4001H46.2999V9.80005Z" fill="#776B63"/>
<path d="M18.4999 14.3999H13.8999V18.9999H18.4999V14.3999Z" fill="#776B63"/>
<path d="M23.2001 14.3999H18.6001V18.9999H23.2001V14.3999Z" fill="#776B63"/>
<path d="M27.7999 14.3999H23.2V18.9999H27.7999V14.3999Z" fill="#776B63"/>
<path d="M32.4001 14.3999H27.8V18.9999H32.4001V14.3999Z" fill="#776B63"/>
<path d="M37.1 14.3999H32.5V18.9999H37.1V14.3999Z" fill="#776B63"/>
<path d="M41.7001 14.3999H37.1001V18.9999H41.7001V14.3999Z" fill="#776B63"/>
<path d="M46.2999 14.3999H41.7V18.9999H46.2999V14.3999Z" fill="#776B63"/>
<path d="M50.9999 14.3999H46.3999V18.9999H50.9999V14.3999Z" fill="#776B63"/>
<path d="M55.6 14.3999H51V18.9999H55.6V14.3999Z" fill="#776B63"/>
<path d="M60.2001 14.3999H55.6001V18.9999H60.2001V14.3999Z" fill="#EAA36E"/>
<path d="M64.9001 14.3999H60.3V18.9999H64.9001V14.3999Z" fill="#EAA36E"/>
<path d="M23.2001 42.2H18.6001V46.8H23.2001V42.2Z" fill="#EAA36E"/>
<path d="M23.2001 46.8999H18.6001V51.4999H23.2001V46.8999Z" fill="#EAA36E"/>
<path d="M23.2001 37.6001H18.6001V42.2001H23.2001V37.6001Z" fill="#EAA36E"/>
<path d="M27.7999 37.6001H23.2V42.2001H27.7999V37.6001Z" fill="#EAA36E"/>
<path d="M64.9001 37.6001H60.3V42.2001H64.9001V37.6001Z" fill="#EAA36E"/>
<path d="M69.4999 37.6001H64.8999V42.2001H69.4999V37.6001Z" fill="#EAA36E"/>
<path d="M69.4999 32.8999H64.8999V37.4999H69.4999V32.8999Z" fill="#EAA36E"/>
<path d="M64.9001 51.5H60.3V56.1H64.9001V51.5Z" fill="#EAA36E"/>
<path d="M27.7999 51.5H23.2V56.1H27.7999V51.5Z" fill="#EAA36E"/>
<path d="M69.4999 51.5H64.8999V56.1H69.4999V51.5Z" fill="#EAA36E"/>
<path d="M74.1 46.8999H69.5V51.4999H74.1V46.8999Z" fill="#EAA36E"/>
<path d="M74.1 42.2H69.5V46.8H74.1V42.2Z" fill="#EAA36E"/>
<path d="M74.1 51.5H69.5V56.1H74.1V51.5Z" fill="#EAA36E"/>
<path d="M74.1 37.6001H69.5V42.2001H74.1V37.6001Z" fill="#EAA36E"/>
<path d="M74.1 23.7H69.5V28.3H74.1V23.7Z" fill="#5B534D"/>
<path d="M74.1 28.3H69.5V32.9H74.1V28.3Z" fill="#5B534D"/>
<path d="M74.1 32.8999H69.5V37.4999H74.1V32.8999Z" fill="#EAA36E"/>
<path d="M74.1 19H69.5V23.6H74.1V19Z" fill="#776B63"/>
<path d="M64.9001 28.3H60.3V32.9H64.9001V28.3Z" fill="#EAA36E"/>
<path d="M69.4999 28.3H64.8999V32.9H69.4999V28.3Z" fill="#EAA36E"/>
<path d="M69.4999 23.7H64.8999V28.3H69.4999V23.7Z" fill="#5B534D"/>
<path d="M60.2001 37.6001H55.6001V42.2001H60.2001V37.6001Z" fill="#EAA36E"/>
<path d="M60.2001 42.2H55.6001V46.8H60.2001V42.2Z" fill="#422C1C"/>
<path d="M60.2001 32.8999H55.6001V37.4999H60.2001V32.8999Z" fill="#EAA36E"/>
<path d="M64.9001 32.8999H60.3V37.4999H64.9001V32.8999Z" fill="#EAA36E"/>
<path d="M55.6 42.2H51V46.8H55.6V42.2Z" fill="#EAA36E"/>
<path d="M46.2999 42.2H41.7V46.8H46.2999V42.2Z" fill="#EAA36E"/>
<path d="M50.9999 42.2H46.3999V46.8H50.9999V42.2Z" fill="#EAA36E"/>
<path d="M55.6 37.6001H51V42.2001H55.6V37.6001Z" fill="#EAA36E"/>
<path d="M32.4001 37.6001H27.8V42.2001H32.4001V37.6001Z" fill="#EAA36E"/>
<path d="M50.9999 28.3H46.3999V32.9H50.9999V28.3Z" fill="#EAA36E"/>
<path d="M55.6 32.8999H51V37.4999H55.6V32.8999Z" fill="#EAA36E"/>
<path d="M55.6 28.3H51V32.9H55.6V28.3Z" fill="#EAA36E"/>
<path d="M60.2001 28.3H55.6001V32.9H60.2001V28.3Z" fill="#EAA36E"/>
<path d="M18.4999 42.2H13.8999V46.8H18.4999V42.2Z" fill="#EAA36E"/>
<path d="M18.4999 37.6001H13.8999V42.2001H18.4999V37.6001Z" fill="#EAA36E"/>
<path d="M37.1 37.6001H32.5V42.2001H37.1V37.6001Z" fill="#EAA36E"/>
<path d="M37.1 42.2H32.5V46.8H37.1V42.2Z" fill="#EAA36E"/>
<path d="M41.7001 42.2H37.1001V46.8H41.7001V42.2Z" fill="#EAA36E"/>
<path d="M41.7001 37.6001H37.1001V42.2001H41.7001V37.6001Z" fill="#EAA36E"/>
<path d="M46.2999 37.6001H41.7V42.2001H46.2999V37.6001Z" fill="#EAA36E"/>
<path d="M50.9999 37.6001H46.3999V42.2001H50.9999V37.6001Z" fill="#EAA36E"/>
<path d="M18.4999 32.8999H13.8999V37.4999H18.4999V32.8999Z" fill="#EAA36E"/>
<path d="M18.4999 28.3H13.8999V32.9H18.4999V28.3Z" fill="#EAA36E"/>
<path d="M18.4999 23.7H13.8999V28.3H18.4999V23.7Z" fill="#776B63"/>
<path d="M23.2001 28.3H18.6001V32.9H23.2001V28.3Z" fill="#EAA36E"/>
<path d="M23.2001 32.8999H18.6001V37.4999H23.2001V32.8999Z" fill="#EAA36E"/>
<path d="M23.2001 23.7H18.6001V28.3H23.2001V23.7Z" fill="#EAA36E"/>
<path d="M27.7999 28.3H23.2V32.9H27.7999V28.3Z" fill="#EAA36E"/>
<path d="M27.7999 32.8999H23.2V37.4999H27.7999V32.8999Z" fill="#EAA36E"/>
<path d="M27.7999 23.7H23.2V28.3H27.7999V23.7Z" fill="#EAA36E"/>
<path d="M32.4001 23.7H27.8V28.3H32.4001V23.7Z" fill="#EAA36E"/>
<path d="M32.4001 32.8999H27.8V37.4999H32.4001V32.8999Z" fill="#EAA36E"/>
<path d="M32.4001 28.3H27.8V32.9H32.4001V28.3Z" fill="#EAA36E"/>
<path d="M37.1 23.7H32.5V28.3H37.1V23.7Z" fill="#EAA36E"/>
<path d="M37.1 28.3H32.5V32.9H37.1V28.3Z" fill="#EAA36E"/>
<path d="M37.1 32.8999H32.5V37.4999H37.1V32.8999Z" fill="#EAA36E"/>
<path d="M41.7001 32.8999H37.1001V37.4999H41.7001V32.8999Z" fill="#EAA36E"/>
<path d="M41.7001 28.3H37.1001V32.9H41.7001V28.3Z" fill="#EAA36E"/>
<path d="M41.7001 23.7H37.1001V28.3H41.7001V23.7Z" fill="#EAA36E"/>
<path d="M46.2999 32.8999H41.7V37.4999H46.2999V32.8999Z" fill="#EAA36E"/>
<path d="M46.2999 23.7H41.7V28.3H46.2999V23.7Z" fill="#EAA36E"/>
<path d="M46.2999 28.3H41.7V32.9H46.2999V28.3Z" fill="#EAA36E"/>
<path d="M50.9999 23.7H46.3999V28.3H50.9999V23.7Z" fill="#EAA36E"/>
<path d="M50.9999 32.8999H46.3999V37.4999H50.9999V32.8999Z" fill="#EAA36E"/>
<path d="M60.2001 19H55.6001V23.6H60.2001V19Z" fill="#EAA36E"/>
<path d="M64.9001 19H60.3V23.6H64.9001V19Z" fill="#EAA36E"/>
<path d="M69.4999 19H64.8999V23.6H69.4999V19Z" fill="#776B63"/>
<path d="M64.9001 23.7H60.3V28.3H64.9001V23.7Z" fill="#EAA36E"/>
<path d="M60.2001 23.7H55.6001V28.3H60.2001V23.7Z" fill="#EAA36E"/>
<path d="M55.6 23.7H51V28.3H55.6V23.7Z" fill="#EAA36E"/>
<path d="M55.6 19H51V23.6H55.6V19Z" fill="#EAA36E"/>
<path d="M50.9999 19H46.3999V23.6H50.9999V19Z" fill="#776B63"/>
<path d="M46.2999 19H41.7V23.6H46.2999V19Z" fill="#776B63"/>
<path d="M41.7001 19H37.1001V23.6H41.7001V19Z" fill="#776B63"/>
<path d="M37.1 19H32.5V23.6H37.1V19Z" fill="#776B63"/>
<path d="M32.4001 19H27.8V23.6H32.4001V19Z" fill="#776B63"/>
<path d="M27.7999 19H23.2V23.6H27.7999V19Z" fill="#776B63"/>
<path d="M23.2001 51.5H18.6001V56.1H23.2001V51.5Z" fill="#EAA36E"/>
<path d="M23.2001 19H18.6001V23.6H23.2001V19Z" fill="#776B63"/>
<path d="M18.4999 51.5H13.8999V56.1H18.4999V51.5Z" fill="#D17E46"/>
<path d="M18.4999 46.8999H13.8999V51.4999H18.4999V46.8999Z" fill="#D17E46"/>
<path d="M18.4999 19H13.8999V23.6H18.4999V19Z" fill="#776B63"/>
<path d="M13.9001 46.8999H9.30005V51.4999H13.9001V46.8999Z" fill="#D17E46"/>
<path d="M13.9001 42.2H9.30005V46.8H13.9001V42.2Z" fill="#D17E46"/>
<path d="M13.9001 37.6001H9.30005V42.2001H13.9001V37.6001Z" fill="#D17E46"/>
<path d="M13.9001 32.8999H9.30005V37.4999H13.9001V32.8999Z" fill="#5B534D"/>
<path d="M13.9001 28.3H9.30005V32.9H13.9001V28.3Z" fill="#5B534D"/>
<path d="M13.9001 23.7H9.30005V28.3H13.9001V23.7Z" fill="#776B63"/>
<path d="M13.9001 19H9.30005V23.6H13.9001V19Z" fill="#776B63"/>
<path d="M9.29994 51.5H4.69995V56.1H9.29994V51.5Z" fill="#D17E46"/>
<path d="M9.29994 46.8999H4.69995V51.4999H9.29994V46.8999Z" fill="#EAA36E"/>
</svg>
