<svg width="103" height="111" viewBox="0 0 103 111" fill="none" xmlns="http://www.w3.org/2000/svg">
<path d="M102.4 55.6001H97.8V60.2001H102.4V55.6001Z" fill="#C287D8"/>
<path d="M97.8 51H93.2V55.6H97.8V51Z" fill="#C287D8"/>
<path d="M97.8 46.3999H93.2V50.9999H97.8V46.3999Z" fill="#C287D8"/>
<path d="M97.8 41.7H93.2V46.3H97.8V41.7Z" fill="#C287D8"/>
<path d="M97.8 37.1001H93.2V41.7001H97.8V37.1001Z" fill="#C287D8"/>
<path d="M97.8 32.5H93.2V37.1H97.8V32.5Z" fill="#C287D8"/>
<path d="M97.8 27.8H93.2V32.4001H97.8V27.8Z" fill="#C287D8"/>
<path d="M97.8 23.2H93.2V27.8H97.8V23.2Z" fill="#C287D8"/>
<path d="M97.8 18.6001H93.2V23.2001H97.8V18.6001Z" fill="#C287D8"/>
<path d="M97.8 13.8999H93.2V18.4999H97.8V13.8999Z" fill="#C287D8"/>
<path d="M93.1 9.30005H88.5V13.9001H93.1V9.30005Z" fill="#C287D8"/>
<path d="M88.4999 9.30005H83.8999V13.9001H88.4999V9.30005Z" fill="#C287D8"/>
<path d="M83.9001 4.6001H79.3V9.20007H83.9001V4.6001Z" fill="#C287D8"/>
<path d="M79.2001 4.6001H74.6001V9.20007H79.2001V4.6001Z" fill="#C287D8"/>
<path d="M9.7001 55.6001H5.1001V60.2001H9.7001V55.6001Z" fill="#C287D8"/>
<path d="M5.09999 55.6001H0.5V60.2001H5.09999V55.6001Z" fill="#C287D8"/>
<path d="M9.7001 51H5.1001V55.6H9.7001V51Z" fill="#C287D8"/>
<path d="M9.7001 46.3999H5.1001V50.9999H9.7001V46.3999Z" fill="#C287D8"/>
<path d="M9.7001 41.7H5.1001V46.3H9.7001V41.7Z" fill="#C287D8"/>
<path d="M9.7001 37.1001H5.1001V41.7001H9.7001V37.1001Z" fill="#C287D8"/>
<path d="M9.7001 32.5H5.1001V37.1H9.7001V32.5Z" fill="#C287D8"/>
<path d="M9.7001 27.8H5.1001V32.4001H9.7001V27.8Z" fill="#C287D8"/>
<path d="M9.7001 23.2H5.1001V27.8H9.7001V23.2Z" fill="#C287D8"/>
<path d="M102.4 64.8999H97.8V69.4999H102.4V64.8999Z" fill="#5F587A"/>
<path d="M102.4 60.3H97.8V64.9H102.4V60.3Z" fill="#8967A5"/>
<path d="M97.8 64.8999H93.2V69.4999H97.8V64.8999Z" fill="#5F587A"/>
<path d="M97.8 60.3H93.2V64.9H97.8V60.3Z" fill="#5F587A"/>
<path d="M97.8 55.6001H93.2V60.2001H97.8V55.6001Z" fill="#8967A5"/>
<path d="M93.1 64.8999H88.5V69.4999H93.1V64.8999Z" fill="#5F587A"/>
<path d="M93.1 60.3H88.5V64.9H93.1V60.3Z" fill="#5F587A"/>
<path d="M93.1 55.6001H88.5V60.2001H93.1V55.6001Z" fill="#5F587A"/>
<path d="M93.1 51H88.5V55.6H93.1V51Z" fill="#5F587A"/>
<path d="M93.1 46.3999H88.5V50.9999H93.1V46.3999Z" fill="#5F587A"/>
<path d="M93.1 41.7H88.5V46.3H93.1V41.7Z" fill="#5F587A"/>
<path d="M93.1 37.1001H88.5V41.7001H93.1V37.1001Z" fill="#8967A5"/>
<path d="M93.1 32.5H88.5V37.1H93.1V32.5Z" fill="#8967A5"/>
<path d="M93.1 27.8H88.5V32.4001H93.1V27.8Z" fill="#8967A5"/>
<path d="M93.1 23.2H88.5V27.8H93.1V23.2Z" fill="#8967A5"/>
<path d="M93.1 18.6001H88.5V23.2001H93.1V18.6001Z" fill="#8967A5"/>
<path d="M93.1 13.8999H88.5V18.4999H93.1V13.8999Z" fill="#8967A5"/>
<path d="M88.4999 64.8999H83.8999V69.4999H88.4999V64.8999Z" fill="#5F587A"/>
<path d="M88.4999 60.3H83.8999V64.9H88.4999V60.3Z" fill="#D17E46"/>
<path d="M88.4999 55.6001H83.8999V60.2001H88.4999V55.6001Z" fill="#D17E46"/>
<path d="M88.4999 51H83.8999V55.6H88.4999V51Z" fill="#D17E46"/>
<path d="M88.4999 46.3999H83.8999V50.9999H88.4999V46.3999Z" fill="#D17E46"/>
<path d="M88.4999 41.7H83.8999V46.3H88.4999V41.7Z" fill="#D17E46"/>
<path d="M88.4999 37.1001H83.8999V41.7001H88.4999V37.1001Z" fill="#D17E46"/>
<path d="M88.4999 32.5H83.8999V37.1H88.4999V32.5Z" fill="#5F587A"/>
<path d="M88.4999 27.8H83.8999V32.4001H88.4999V27.8Z" fill="#5F587A"/>
<path d="M88.4999 23.2H83.8999V27.8H88.4999V23.2Z" fill="#8967A5"/>
<path d="M88.4999 18.6001H83.8999V23.2001H88.4999V18.6001Z" fill="#8967A5"/>
<path d="M88.4999 13.8999H83.8999V18.4999H88.4999V13.8999Z" fill="#8967A5"/>
<path d="M83.9001 64.8999H79.3V69.4999H83.9001V64.8999Z" fill="#D17E46"/>
<path d="M83.9001 60.3H79.3V64.9H83.9001V60.3Z" fill="#D17E46"/>
<path d="M83.9001 55.6001H79.3V60.2001H83.9001V55.6001Z" fill="#EAA36E"/>
<path d="M83.9001 51H79.3V55.6H83.9001V51Z" fill="#EAA36E"/>
<path d="M83.9001 46.3999H79.3V50.9999H83.9001V46.3999Z" fill="#EAA36E"/>
<path d="M83.9001 41.7H79.3V46.3H83.9001V41.7Z" fill="#D17E46"/>
<path d="M83.9001 37.1001H79.3V41.7001H83.9001V37.1001Z" fill="#D17E46"/>
<path d="M83.9001 32.5H79.3V37.1H83.9001V32.5Z" fill="#D17E46"/>
<path d="M83.9001 27.8H79.3V32.4001H83.9001V27.8Z" fill="#D17E46"/>
<path d="M83.9001 23.2H79.3V27.8H83.9001V23.2Z" fill="#5F587A"/>
<path d="M83.9001 18.6001H79.3V23.2001H83.9001V18.6001Z" fill="#8967A5"/>
<path d="M83.9001 13.8999H79.3V18.4999H83.9001V13.8999Z" fill="#8967A5"/>
<path d="M83.9001 9.30005H79.3V13.9001H83.9001V9.30005Z" fill="#8967A5"/>
<path d="M79.2001 64.8999H74.6001V69.4999H79.2001V64.8999Z" fill="#D17E46"/>
<path d="M79.2001 60.3H74.6001V64.9H79.2001V60.3Z" fill="#EAA36E"/>
<path d="M79.2001 55.6001H74.6001V60.2001H79.2001V55.6001Z" fill="#EAA36E"/>
<path d="M79.2001 51H74.6001V55.6H79.2001V51Z" fill="#EAA36E"/>
<path d="M79.2001 46.3999H74.6001V50.9999H79.2001V46.3999Z" fill="#EAA36E"/>
<path d="M79.2001 41.7H74.6001V46.3H79.2001V41.7Z" fill="#21140C"/>
<path d="M79.2001 37.1001H74.6001V41.7001H79.2001V37.1001Z" fill="#21140C"/>
<path d="M79.2001 32.5H74.6001V37.1H79.2001V32.5Z" fill="#D17E46"/>
<path d="M79.2001 27.8H74.6001V32.4001H79.2001V27.8Z" fill="#D17E46"/>
<path d="M79.2001 23.2H74.6001V27.8H79.2001V23.2Z" fill="#5F587A"/>
<path d="M79.2001 18.6001H74.6001V23.2001H79.2001V18.6001Z" fill="#8967A5"/>
<path d="M79.2001 13.8999H74.6001V18.4999H79.2001V13.8999Z" fill="#8967A5"/>
<path d="M79.2001 9.30005H74.6001V13.9001H79.2001V9.30005Z" fill="#8967A5"/>
<path d="M74.6 64.8999H70V69.4999H74.6V64.8999Z" fill="#D17E46"/>
<path d="M74.6 60.3H70V64.9H74.6V60.3Z" fill="#EAA36E"/>
<path d="M74.6 55.6001H70V60.2001H74.6V55.6001Z" fill="#EAA36E"/>
<path d="M74.6 51H70V55.6H74.6V51Z" fill="#EAA36E"/>
<path d="M74.6 46.3999H70V50.9999H74.6V46.3999Z" fill="#EAA36E"/>
<path d="M74.6 41.7H70V46.3H74.6V41.7Z" fill="#21140C"/>
<path d="M74.6 37.1001H70V41.7001H74.6V37.1001Z" fill="#422C1C"/>
<path d="M74.6 32.5H70V37.1H74.6V32.5Z" fill="#EAA36E"/>
<path d="M74.6 27.8H70V32.4001H74.6V27.8Z" fill="#D17E46"/>
<path d="M74.6 23.2H70V27.8H74.6V23.2Z" fill="#5F587A"/>
<path d="M74.6 18.6001H70V23.2001H74.6V18.6001Z" fill="#8967A5"/>
<path d="M74.6 13.8999H70V18.4999H74.6V13.8999Z" fill="#8967A5"/>
<path d="M74.6 9.30005H70V13.9001H74.6V9.30005Z" fill="#8967A5"/>
<path d="M74.6 4.6001H70V9.20007H74.6V4.6001Z" fill="#8967A5"/>
<path d="M74.6 0H70V4.60001H74.6V0Z" fill="#C287D8"/>
<path d="M69.9999 64.8999H65.3999V69.4999H69.9999V64.8999Z" fill="#D17E46"/>
<path d="M69.9999 60.3H65.3999V64.9H69.9999V60.3Z" fill="#EAA36E"/>
<path d="M69.9999 55.6001H65.3999V60.2001H69.9999V55.6001Z" fill="#EAA36E"/>
<path d="M69.9999 51H65.3999V55.6H69.9999V51Z" fill="#EAA36E"/>
<path d="M69.9999 46.3999H65.3999V50.9999H69.9999V46.3999Z" fill="white"/>
<path d="M69.9999 41.7H65.3999V46.3H69.9999V41.7Z" fill="#EAA36E"/>
<path d="M69.9999 37.1001H65.3999V41.7001H69.9999V37.1001Z" fill="#EAA36E"/>
<path d="M69.9999 32.5H65.3999V37.1H69.9999V32.5Z" fill="#EAA36E"/>
<path d="M69.9999 27.8H65.3999V32.4001H69.9999V27.8Z" fill="#D17E46"/>
<path d="M69.9999 23.2H65.3999V27.8H69.9999V23.2Z" fill="#5F587A"/>
<path d="M69.9999 18.6001H65.3999V23.2001H69.9999V18.6001Z" fill="#8967A5"/>
<path d="M69.9999 13.8999H65.3999V18.4999H69.9999V13.8999Z" fill="#8967A5"/>
<path d="M69.9999 9.30005H65.3999V13.9001H69.9999V9.30005Z" fill="#8967A5"/>
<path d="M69.9999 4.6001H65.3999V9.20007H69.9999V4.6001Z" fill="#8967A5"/>
<path d="M69.9999 0H65.3999V4.60001H69.9999V0Z" fill="#C287D8"/>
<path d="M65.3 64.8999H60.7V69.4999H65.3V64.8999Z" fill="#D17E46"/>
<path d="M65.3 60.3H60.7V64.9H65.3V60.3Z" fill="#EAA36E"/>
<path d="M65.3 55.6001H60.7V60.2001H65.3V55.6001Z" fill="#EAA36E"/>
<path d="M65.3 51H60.7V55.6H65.3V51Z" fill="white"/>
<path d="M65.3 46.3999H60.7V50.9999H65.3V46.3999Z" fill="white"/>
<path d="M65.3 41.7H60.7V46.3H65.3V41.7Z" fill="#EAA36E"/>
<path d="M65.3 37.1001H60.7V41.7001H65.3V37.1001Z" fill="#EAA36E"/>
<path d="M65.3 32.5H60.7V37.1H65.3V32.5Z" fill="#EAA36E"/>
<path d="M65.3 27.8H60.7V32.4001H65.3V27.8Z" fill="#D17E46"/>
<path d="M65.3 23.2H60.7V27.8H65.3V23.2Z" fill="#5F587A"/>
<path d="M65.3 18.6001H60.7V23.2001H65.3V18.6001Z" fill="#8967A5"/>
<path d="M65.3 13.8999H60.7V18.4999H65.3V13.8999Z" fill="#8967A5"/>
<path d="M65.3 9.30005H60.7V13.9001H65.3V9.30005Z" fill="#8967A5"/>
<path d="M65.3 4.6001H60.7V9.20007H65.3V4.6001Z" fill="#8967A5"/>
<path d="M65.3 0H60.7V4.60001H65.3V0Z" fill="#C287D8"/>
<path d="M60.7001 64.8999H56.1001V69.4999H60.7001V64.8999Z" fill="#D17E46"/>
<path d="M60.7001 60.3H56.1001V64.9H60.7001V60.3Z" fill="#EAA36E"/>
<path d="M60.7001 55.6001H56.1001V60.2001H60.7001V55.6001Z" fill="white"/>
<path d="M60.7001 51H56.1001V55.6H60.7001V51Z" fill="white"/>
<path d="M60.7001 46.3999H56.1001V50.9999H60.7001V46.3999Z" fill="white"/>
<path d="M60.7001 41.7H56.1001V46.3H60.7001V41.7Z" fill="#EAA36E"/>
<path d="M60.7001 37.1001H56.1001V41.7001H60.7001V37.1001Z" fill="#EAA36E"/>
<path d="M60.7001 32.5H56.1001V37.1H60.7001V32.5Z" fill="#EAA36E"/>
<path d="M60.7001 27.8H56.1001V32.4001H60.7001V27.8Z" fill="#D17E46"/>
<path d="M60.7001 23.2H56.1001V27.8H60.7001V23.2Z" fill="#5F587A"/>
<path d="M60.7001 18.6001H56.1001V23.2001H60.7001V18.6001Z" fill="#8967A5"/>
<path d="M60.7001 13.8999H56.1001V18.4999H60.7001V13.8999Z" fill="#8967A5"/>
<path d="M60.7001 9.30005H56.1001V13.9001H60.7001V9.30005Z" fill="#8967A5"/>
<path d="M60.7001 4.6001H56.1001V9.20007H60.7001V4.6001Z" fill="#8967A5"/>
<path d="M60.7001 0H56.1001V4.60001H60.7001V0Z" fill="#C287D8"/>
<path d="M55.9999 64.8999H51.3999V69.4999H55.9999V64.8999Z" fill="#D17E46"/>
<path d="M55.9999 60.3H51.3999V64.9H55.9999V60.3Z" fill="#EAA36E"/>
<path d="M55.9999 55.6001H51.3999V60.2001H55.9999V55.6001Z" fill="white"/>
<path d="M55.9999 51H51.3999V55.6H55.9999V51Z" fill="white"/>
<path d="M55.9999 46.3999H51.3999V50.9999H55.9999V46.3999Z" fill="white"/>
<path d="M55.9999 41.7H51.3999V46.3H55.9999V41.7Z" fill="#EAA36E"/>
<path d="M55.9999 37.1001H51.3999V41.7001H55.9999V37.1001Z" fill="#EAA36E"/>
<path d="M55.9999 32.5H51.3999V37.1H55.9999V32.5Z" fill="#EAA36E"/>
<path d="M55.9999 27.8H51.3999V32.4001H55.9999V27.8Z" fill="#D17E46"/>
<path d="M55.9999 23.2H51.3999V27.8H55.9999V23.2Z" fill="#5F587A"/>
<path d="M55.9999 18.6001H51.3999V23.2001H55.9999V18.6001Z" fill="#8967A5"/>
<path d="M55.9999 13.8999H51.3999V18.4999H55.9999V13.8999Z" fill="#8967A5"/>
<path d="M55.9999 9.30005H51.3999V13.9001H55.9999V9.30005Z" fill="#8967A5"/>
<path d="M55.9999 4.6001H51.3999V9.20007H55.9999V4.6001Z" fill="#8967A5"/>
<path d="M55.9999 0H51.3999V4.60001H55.9999V0Z" fill="#C287D8"/>
<path d="M51.4001 64.8999H46.8V69.4999H51.4001V64.8999Z" fill="#D17E46"/>
<path d="M51.4001 60.3H46.8V64.9H51.4001V60.3Z" fill="#EAA36E"/>
<path d="M51.4001 55.6001H46.8V60.2001H51.4001V55.6001Z" fill="#EAA36E"/>
<path d="M51.4001 51H46.8V55.6H51.4001V51Z" fill="white"/>
<path d="M51.4001 46.3999H46.8V50.9999H51.4001V46.3999Z" fill="white"/>
<path d="M51.4001 41.7H46.8V46.3H51.4001V41.7Z" fill="#EAA36E"/>
<path d="M51.4001 37.1001H46.8V41.7001H51.4001V37.1001Z" fill="#EAA36E"/>
<path d="M51.4001 32.5H46.8V37.1H51.4001V32.5Z" fill="#EAA36E"/>
<path d="M51.4001 27.8H46.8V32.4001H51.4001V27.8Z" fill="#D17E46"/>
<path d="M51.4001 23.2H46.8V27.8H51.4001V23.2Z" fill="#5F587A"/>
<path d="M51.4001 18.6001H46.8V23.2001H51.4001V18.6001Z" fill="#8967A5"/>
<path d="M51.4001 13.8999H46.8V18.4999H51.4001V13.8999Z" fill="#8967A5"/>
<path d="M51.4001 9.30005H46.8V13.9001H51.4001V9.30005Z" fill="#8967A5"/>
<path d="M51.4001 4.6001H46.8V9.20007H51.4001V4.6001Z" fill="#8967A5"/>
<path d="M51.4001 0H46.8V4.60001H51.4001V0Z" fill="#C287D8"/>
<path d="M46.8 64.8999H42.2V69.4999H46.8V64.8999Z" fill="#D17E46"/>
<path d="M46.8 60.3H42.2V64.9H46.8V60.3Z" fill="#EAA36E"/>
<path d="M46.8 55.6001H42.2V60.2001H46.8V55.6001Z" fill="#EAA36E"/>
<path d="M46.8 51H42.2V55.6H46.8V51Z" fill="#EAA36E"/>
<path d="M46.8 46.3999H42.2V50.9999H46.8V46.3999Z" fill="white"/>
<path d="M46.8 41.7H42.2V46.3H46.8V41.7Z" fill="#EAA36E"/>
<path d="M46.8 37.1001H42.2V41.7001H46.8V37.1001Z" fill="#EAA36E"/>
<path d="M46.8 32.5H42.2V37.1H46.8V32.5Z" fill="#EAA36E"/>
<path d="M46.8 27.8H42.2V32.4001H46.8V27.8Z" fill="#D17E46"/>
<path d="M46.8 23.2H42.2V27.8H46.8V23.2Z" fill="#5F587A"/>
<path d="M46.8 18.6001H42.2V23.2001H46.8V18.6001Z" fill="#8967A5"/>
<path d="M46.8 13.8999H42.2V18.4999H46.8V13.8999Z" fill="#8967A5"/>
<path d="M46.8 9.30005H42.2V13.9001H46.8V9.30005Z" fill="#8967A5"/>
<path d="M46.8 4.6001H42.2V9.20007H46.8V4.6001Z" fill="#8967A5"/>
<path d="M46.8 0H42.2V4.60001H46.8V0Z" fill="#C287D8"/>
<path d="M42.1 64.8999H37.5V69.4999H42.1V64.8999Z" fill="#D17E46"/>
<path d="M42.1 60.3H37.5V64.9H42.1V60.3Z" fill="#EAA36E"/>
<path d="M42.1 55.6001H37.5V60.2001H42.1V55.6001Z" fill="#EAA36E"/>
<path d="M42.1 51H37.5V55.6H42.1V51Z" fill="#EAA36E"/>
<path d="M42.1 46.3999H37.5V50.9999H42.1V46.3999Z" fill="#EAA36E"/>
<path d="M42.1 41.7H37.5V46.3H42.1V41.7Z" fill="#21140C"/>
<path d="M42.1 37.1001H37.5V41.7001H42.1V37.1001Z" fill="#21140C"/>
<path d="M42.1 32.5H37.5V37.1H42.1V32.5Z" fill="#EAA36E"/>
<path d="M42.1 27.8H37.5V32.4001H42.1V27.8Z" fill="#D17E46"/>
<path d="M42.1 23.2H37.5V27.8H42.1V23.2Z" fill="#5F587A"/>
<path d="M42.1 18.6001H37.5V23.2001H42.1V18.6001Z" fill="#8967A5"/>
<path d="M42.1 13.8999H37.5V18.4999H42.1V13.8999Z" fill="#8967A5"/>
<path d="M42.1 9.30005H37.5V13.9001H42.1V9.30005Z" fill="#8967A5"/>
<path d="M42.1 4.6001H37.5V9.20007H42.1V4.6001Z" fill="#8967A5"/>
<path d="M42.1 0H37.5V4.60001H42.1V0Z" fill="#C287D8"/>
<path d="M37.4999 64.8999H32.8999V69.4999H37.4999V64.8999Z" fill="#D17E46"/>
<path d="M37.4999 60.3H32.8999V64.9H37.4999V60.3Z" fill="#EAA36E"/>
<path d="M37.4999 55.6001H32.8999V60.2001H37.4999V55.6001Z" fill="#EAA36E"/>
<path d="M37.4999 51H32.8999V55.6H37.4999V51Z" fill="#EAA36E"/>
<path d="M37.4999 46.3999H32.8999V50.9999H37.4999V46.3999Z" fill="#EAA36E"/>
<path d="M37.4999 41.7H32.8999V46.3H37.4999V41.7Z" fill="#21140C"/>
<path d="M37.4999 37.1001H32.8999V41.7001H37.4999V37.1001Z" fill="#422C1C"/>
<path d="M37.4999 32.5H32.8999V37.1H37.4999V32.5Z" fill="#D17E46"/>
<path d="M37.4999 27.8H32.8999V32.4001H37.4999V27.8Z" fill="#5F587A"/>
<path d="M37.4999 23.2H32.8999V27.8H37.4999V23.2Z" fill="#5F587A"/>
<path d="M37.4999 18.6001H32.8999V23.2001H37.4999V18.6001Z" fill="#8967A5"/>
<path d="M37.4999 13.8999H32.8999V18.4999H37.4999V13.8999Z" fill="#8967A5"/>
<path d="M37.4999 9.30005H32.8999V13.9001H37.4999V9.30005Z" fill="#8967A5"/>
<path d="M37.4999 4.6001H32.8999V9.20007H37.4999V4.6001Z" fill="#8967A5"/>
<path d="M37.4999 0H32.8999V4.60001H37.4999V0Z" fill="#C287D8"/>
<path d="M32.9001 64.8999H28.3V69.4999H32.9001V64.8999Z" fill="#5F587A"/>
<path d="M32.9001 60.3H28.3V64.9H32.9001V60.3Z" fill="#D17E46"/>
<path d="M32.9001 55.6001H28.3V60.2001H32.9001V55.6001Z" fill="#D17E46"/>
<path d="M32.9001 51H28.3V55.6H32.9001V51Z" fill="#D17E46"/>
<path d="M32.9001 46.3999H28.3V50.9999H32.9001V46.3999Z" fill="#D17E46"/>
<path d="M32.9001 41.7H28.3V46.3H32.9001V41.7Z" fill="#D17E46"/>
<path d="M32.9001 37.1001H28.3V41.7001H32.9001V37.1001Z" fill="#D17E46"/>
<path d="M32.9001 32.5H28.3V37.1H32.9001V32.5Z" fill="#D17E46"/>
<path d="M32.9001 27.8H28.3V32.4001H32.9001V27.8Z" fill="#5F587A"/>
<path d="M32.9001 23.2H28.3V27.8H32.9001V23.2Z" fill="#8967A5"/>
<path d="M32.9001 18.6001H28.3V23.2001H32.9001V18.6001Z" fill="#8967A5"/>
<path d="M32.9001 13.8999H28.3V18.4999H32.9001V13.8999Z" fill="#8967A5"/>
<path d="M32.9001 9.30005H28.3V13.9001H32.9001V9.30005Z" fill="#8967A5"/>
<path d="M32.9001 4.6001H28.3V9.20007H32.9001V4.6001Z" fill="#C287D8"/>
<path d="M28.2001 64.8999H23.6001V69.4999H28.2001V64.8999Z" fill="#5F587A"/>
<path d="M28.2001 60.3H23.6001V64.9H28.2001V60.3Z" fill="#D17E46"/>
<path d="M28.2001 55.6001H23.6001V60.2001H28.2001V55.6001Z" fill="#D17E46"/>
<path d="M28.2001 51H23.6001V55.6H28.2001V51Z" fill="#D17E46"/>
<path d="M28.2001 46.3999H23.6001V50.9999H28.2001V46.3999Z" fill="#D17E46"/>
<path d="M28.2001 41.7H23.6001V46.3H28.2001V41.7Z" fill="#5F587A"/>
<path d="M28.2001 37.1001H23.6001V41.7001H28.2001V37.1001Z" fill="#5F587A"/>
<path d="M28.2001 32.5H23.6001V37.1H28.2001V32.5Z" fill="#5F587A"/>
<path d="M28.2001 27.8H23.6001V32.4001H28.2001V27.8Z" fill="#5F587A"/>
<path d="M28.2001 23.2H23.6001V27.8H28.2001V23.2Z" fill="#8967A5"/>
<path d="M28.2001 18.6001H23.6001V23.2001H28.2001V18.6001Z" fill="#8967A5"/>
<path d="M28.2001 13.8999H23.6001V18.4999H28.2001V13.8999Z" fill="#8967A5"/>
<path d="M28.2001 9.30005H23.6001V13.9001H28.2001V9.30005Z" fill="#8967A5"/>
<path d="M28.2001 4.6001H23.6001V9.20007H28.2001V4.6001Z" fill="#C287D8"/>
<path d="M23.6 64.8999H19V69.4999H23.6V64.8999Z" fill="#5F587A"/>
<path d="M23.6 60.3H19V64.9H23.6V60.3Z" fill="#5F587A"/>
<path d="M23.6 55.6001H19V60.2001H23.6V55.6001Z" fill="#5F587A"/>
<path d="M23.6 51H19V55.6H23.6V51Z" fill="#5F587A"/>
<path d="M23.6 46.3999H19V50.9999H23.6V46.3999Z" fill="#5F587A"/>
<path d="M23.6 41.7H19V46.3H23.6V41.7Z" fill="#8967A5"/>
<path d="M23.6 37.1001H19V41.7001H23.6V37.1001Z" fill="#8967A5"/>
<path d="M23.6 32.5H19V37.1H23.6V32.5Z" fill="#8967A5"/>
<path d="M23.6 27.8H19V32.4001H23.6V27.8Z" fill="#8967A5"/>
<path d="M23.6 23.2H19V27.8H23.6V23.2Z" fill="#8967A5"/>
<path d="M23.6 18.6001H19V23.2001H23.6V18.6001Z" fill="#8967A5"/>
<path d="M23.6 13.8999H19V18.4999H23.6V13.8999Z" fill="#8967A5"/>
<path d="M23.6 9.30005H19V13.9001H23.6V9.30005Z" fill="#8967A5"/>
<path d="M23.6 4.6001H19V9.20007H23.6V4.6001Z" fill="#C287D8"/>
<path d="M18.9999 64.8999H14.3999V69.4999H18.9999V64.8999Z" fill="#5F587A"/>
<path d="M18.9999 60.3H14.3999V64.9H18.9999V60.3Z" fill="#8967A5"/>
<path d="M18.9999 55.6001H14.3999V60.2001H18.9999V55.6001Z" fill="#8967A5"/>
<path d="M18.9999 51H14.3999V55.6H18.9999V51Z" fill="#8967A5"/>
<path d="M18.9999 46.3999H14.3999V50.9999H18.9999V46.3999Z" fill="#8967A5"/>
<path d="M18.9999 41.7H14.3999V46.3H18.9999V41.7Z" fill="#8967A5"/>
<path d="M18.9999 37.1001H14.3999V41.7001H18.9999V37.1001Z" fill="#8967A5"/>
<path d="M18.9999 32.5H14.3999V37.1H18.9999V32.5Z" fill="#8967A5"/>
<path d="M18.9999 27.8H14.3999V32.4001H18.9999V27.8Z" fill="#8967A5"/>
<path d="M18.9999 23.2H14.3999V27.8H18.9999V23.2Z" fill="#8967A5"/>
<path d="M18.9999 18.6001H14.3999V23.2001H18.9999V18.6001Z" fill="#8967A5"/>
<path d="M18.9999 13.8999H14.3999V18.4999H18.9999V13.8999Z" fill="#8967A5"/>
<path d="M18.9999 9.30005H14.3999V13.9001H18.9999V9.30005Z" fill="#C287D8"/>
<path d="M14.2999 64.8999H9.69995V69.4999H14.2999V64.8999Z" fill="#5F587A"/>
<path d="M14.2999 60.3H9.69995V64.9H14.2999V60.3Z" fill="#8967A5"/>
<path d="M14.2999 55.6001H9.69995V60.2001H14.2999V55.6001Z" fill="#8967A5"/>
<path d="M14.2999 51H9.69995V55.6H14.2999V51Z" fill="#8967A5"/>
<path d="M14.2999 46.3999H9.69995V50.9999H14.2999V46.3999Z" fill="#8967A5"/>
<path d="M14.2999 41.7H9.69995V46.3H14.2999V41.7Z" fill="#8967A5"/>
<path d="M14.2999 37.1001H9.69995V41.7001H14.2999V37.1001Z" fill="#8967A5"/>
<path d="M14.2999 32.5H9.69995V37.1H14.2999V32.5Z" fill="#8967A5"/>
<path d="M14.2999 27.8H9.69995V32.4001H14.2999V27.8Z" fill="#8967A5"/>
<path d="M14.2999 23.2H9.69995V27.8H14.2999V23.2Z" fill="#8967A5"/>
<path d="M14.2999 18.6001H9.69995V23.2001H14.2999V18.6001Z" fill="#C287D8"/>
<path d="M14.2999 13.8999H9.69995V18.4999H14.2999V13.8999Z" fill="#C287D8"/>
<path d="M9.7001 64.8999H5.1001V69.4999H9.7001V64.8999Z" fill="#5F587A"/>
<path d="M9.7001 60.3H5.1001V64.9H9.7001V60.3Z" fill="#8967A5"/>
<path d="M5.09999 60.3H0.5V64.9H5.09999V60.3Z" fill="#8967A5"/>
<path d="M79.6 87.8H75V92.4H79.6" fill="#EAA36E"/>
<path d="M79.6 83.2H75V87.8H79.6" fill="#D17E46"/>
<path d="M79.6 78.5H75V83.1H79.6" fill="#544D4A"/>
<path d="M79.6 73.8999H75V78.4999H79.6" fill="#544D4A"/>
<path d="M79.6 69.3H75V73.9H79.6" fill="#3A3532"/>
<path d="M74.9999 106.4H70.3999V111H74.9999V106.4Z" fill="#3C4047"/>
<path d="M74.9999 101.7H70.3999V106.3H74.9999V101.7Z" fill="#EAA36E"/>
<path d="M74.9999 97.1001H70.3999V101.7H74.9999V97.1001Z" fill="#D17E46"/>
<path d="M74.9999 92.5H70.3999V97.1H74.9999V92.5Z" fill="#78BCD1"/>
<path d="M74.9999 87.8H70.3999V92.4H74.9999V87.8Z" fill="#EAA36E"/>
<path d="M74.9999 83.2H70.3999V87.8H74.9999V83.2Z" fill="#D17E46"/>
<path d="M74.9999 78.5H70.3999V83.1H74.9999V78.5Z" fill="#544D4A"/>
<path d="M74.9999 73.8999H70.3999V78.4999H74.9999V73.8999Z" fill="#544D4A"/>
<path d="M70.3999 69.3V73.9H74.9999V69.3" fill="#3A3532"/>
<path d="M70.3 106.4H65.7V111H70.3V106.4Z" fill="#3C4047"/>
<path d="M70.3 101.7H65.7V106.3H70.3V101.7Z" fill="#EAA36E"/>
<path d="M70.3 97.1001H65.7V101.7H70.3V97.1001Z" fill="#D17E46"/>
<path d="M70.3 92.5H65.7V97.1H70.3V92.5Z" fill="#78BCD1"/>
<path d="M70.3 87.8H65.7V92.4H70.3V87.8Z" fill="#5391AA"/>
<path d="M70.3 83.2H65.7V87.8H70.3V83.2Z" fill="#3A3532"/>
<path d="M70.3 78.5H65.7V83.1H70.3V78.5Z" fill="#3A3532"/>
<path d="M70.3 73.8999H65.7V78.4999H70.3V73.8999Z" fill="#3A3532"/>
<path d="M65.7 69.3V73.9H70.3V69.3" fill="#3A3532"/>
<path d="M65.7001 92.5H61.1001V97.1H65.7001V92.5Z" fill="#78BCD1"/>
<path d="M65.7001 87.8H61.1001V92.4H65.7001V87.8Z" fill="#5391AA"/>
<path d="M65.7001 83.2H61.1001V87.8H65.7001V83.2Z" fill="#544D4A"/>
<path d="M65.7001 78.5H61.1001V83.1H65.7001V78.5Z" fill="#544D4A"/>
<path d="M65.7001 73.8999H61.1001V78.4999H65.7001V73.8999Z" fill="#544D4A"/>
<path d="M61.1001 69.3V73.9H65.7001V69.3" fill="#3A3532"/>
<path d="M61.1 87.8H56.5V92.4H61.1V87.8Z" fill="#5391AA"/>
<path d="M61.1 83.2H56.5V87.8H61.1V83.2Z" fill="#544D4A"/>
<path d="M61.1 78.5H56.5V83.1H61.1V78.5Z" fill="#544D4A"/>
<path d="M61.1 73.8999H56.5V78.4999H61.1V73.8999Z" fill="#544D4A"/>
<path d="M56.5 69.3V73.9H61.1V69.3" fill="#3A3532"/>
<path d="M56.4001 87.8H51.8V92.4H56.4001V87.8Z" fill="#5391AA"/>
<path d="M56.4001 83.2H51.8V87.8H56.4001V83.2Z" fill="#544D4A"/>
<path d="M56.4001 78.5H51.8V83.1H56.4001V78.5Z" fill="#544D4A"/>
<path d="M56.4001 73.8999H51.8V78.4999H56.4001V73.8999Z" fill="#544D4A"/>
<path d="M51.8 69.3V73.9H56.4001V69.3" fill="#3A3532"/>
<path d="M51.8 92.5H47.2V97.1H51.8V92.5Z" fill="#78BCD1"/>
<path d="M51.8 87.8H47.2V92.4H51.8V87.8Z" fill="#5391AA"/>
<path d="M51.8 83.2H47.2V87.8H51.8V83.2Z" fill="#544D4A"/>
<path d="M51.8 78.5H47.2V83.1H51.8V78.5Z" fill="#544D4A"/>
<path d="M51.8 73.8999H47.2V78.4999H51.8V73.8999Z" fill="#544D4A"/>
<path d="M47.2 69.3V73.9H51.8V69.3" fill="#3A3532"/>
<path d="M47.2001 106.4H42.6001V111H47.2001V106.4Z" fill="#3C4047"/>
<path d="M47.2001 101.7H42.6001V106.3H47.2001V101.7Z" fill="#EAA36E"/>
<path d="M47.2001 97.1001H42.6001V101.7H47.2001V97.1001Z" fill="#D17E46"/>
<path d="M47.2001 92.5H42.6001V97.1H47.2001V92.5Z" fill="#78BCD1"/>
<path d="M47.2001 87.8H42.6001V92.4H47.2001V87.8Z" fill="#5391AA"/>
<path d="M47.2001 83.2H42.6001V87.8H47.2001V83.2Z" fill="#544D4A"/>
<path d="M47.2001 78.5H42.6001V83.1H47.2001V78.5Z" fill="#544D4A"/>
<path d="M47.2001 73.8999H42.6001V78.4999H47.2001V73.8999Z" fill="#544D4A"/>
<path d="M42.6001 69.3V73.9H47.2001V69.3" fill="#3A3532"/>
<path d="M42.4999 106.4H37.8999V111H42.4999V106.4Z" fill="#3C4047"/>
<path d="M42.4999 101.7H37.8999V106.3H42.4999V101.7Z" fill="#EAA36E"/>
<path d="M42.4999 97.1001H37.8999V101.7H42.4999V97.1001Z" fill="#D17E46"/>
<path d="M42.4999 92.5H37.8999V97.1H42.4999V92.5Z" fill="#78BCD1"/>
<path d="M42.4999 87.8H37.8999V92.4H42.4999V87.8Z" fill="#5391AA"/>
<path d="M42.4999 83.2H37.8999V87.8H42.4999V83.2Z" fill="#544D4A"/>
<path d="M42.4999 78.5H37.8999V83.1H42.4999V78.5Z" fill="#3A3532"/>
<path d="M42.4999 73.8999H37.8999V78.4999H42.4999V73.8999Z" fill="#3A3532"/>
<path d="M37.8999 69.3V73.9H42.4999V69.3" fill="#3A3532"/>
<path d="M33.3 92.4H37.9001V87.8H33.3" fill="#EAA36E"/>
<path d="M33.3 87.8H37.9001V83.2H33.3" fill="#D17E46"/>
<path d="M33.3 83.1H37.9001V78.5H33.3" fill="#544D4A"/>
<path d="M33.3 78.4999H37.9001V73.8999H33.3" fill="#544D4A"/>
<path d="M33.3 73.9H37.9001V69.3H33.3" fill="#3A3532"/>
</svg>
