<svg width="84" height="111" viewBox="0 0 84 111" fill="none" xmlns="http://www.w3.org/2000/svg">
<path d="M65.6 87.8H61V92.4H65.6" fill="#EAA36E"/>
<path d="M65.6 83.2002H61V87.8002H65.6" fill="#D17E46"/>
<path d="M65.6 78.5H61V83.1H65.6" fill="#E04B84"/>
<path d="M65.6 73.9001H61V78.5001H65.6" fill="#E04B84"/>
<path d="M65.6 69.3H61V73.9H65.6" fill="#AF3165"/>
<path d="M60.9999 106.4H56.3999V111H60.9999V106.4Z" fill="#3C4047"/>
<path d="M60.9999 101.7H56.3999V106.3H60.9999V101.7Z" fill="#EAA36E"/>
<path d="M60.9999 97.1001H56.3999V101.7H60.9999V97.1001Z" fill="#D17E46"/>
<path d="M60.9999 92.5H56.3999V97.1H60.9999V92.5Z" fill="#736F8E"/>
<path d="M60.9999 87.8H56.3999V92.4H60.9999V87.8Z" fill="#EAA36E"/>
<path d="M60.9999 83.2002H56.3999V87.8002H60.9999V83.2002Z" fill="#D17E46"/>
<path d="M60.9999 78.5H56.3999V83.1H60.9999V78.5Z" fill="#E04B84"/>
<path d="M60.9999 73.9001H56.3999V78.5001H60.9999V73.9001Z" fill="#E04B84"/>
<path d="M56.3999 69.3V73.9H60.9999V69.3" fill="#AF3165"/>
<path d="M56.3 106.4H51.7V111H56.3V106.4Z" fill="#3C4047"/>
<path d="M56.3 101.7H51.7V106.3H56.3V101.7Z" fill="#EAA36E"/>
<path d="M56.3 97.1001H51.7V101.7H56.3V97.1001Z" fill="#D17E46"/>
<path d="M56.3 92.5H51.7V97.1H56.3V92.5Z" fill="#736F8E"/>
<path d="M56.3 87.8H51.7V92.4H56.3V87.8Z" fill="#494751"/>
<path d="M56.3 83.2002H51.7V87.8002H56.3V83.2002Z" fill="#AF3165"/>
<path d="M56.3 78.5H51.7V83.1H56.3V78.5Z" fill="#AF3165"/>
<path d="M56.3 73.9001H51.7V78.5001H56.3V73.9001Z" fill="#AF3165"/>
<path d="M51.7 69.3V73.9H56.3V69.3" fill="#AF3165"/>
<path d="M51.7001 92.5H47.1001V97.1H51.7001V92.5Z" fill="#736F8E"/>
<path d="M51.7001 87.8H47.1001V92.4H51.7001V87.8Z" fill="#494751"/>
<path d="M51.7001 83.2002H47.1001V87.8002H51.7001V83.2002Z" fill="#E04B84"/>
<path d="M51.7001 78.5H47.1001V83.1H51.7001V78.5Z" fill="#E04B84"/>
<path d="M51.7001 73.9001H47.1001V78.5001H51.7001V73.9001Z" fill="#E04B84"/>
<path d="M47.1001 69.3V73.9H51.7001V69.3" fill="#AF3165"/>
<path d="M47.1 87.8H42.5V92.4H47.1V87.8Z" fill="#494751"/>
<path d="M47.1 83.2002H42.5V87.8002H47.1V83.2002Z" fill="#E04B84"/>
<path d="M47.1 78.5H42.5V83.1H47.1V78.5Z" fill="#E04B84"/>
<path d="M47.1 73.9001H42.5V78.5001H47.1V73.9001Z" fill="#E04B84"/>
<path d="M42.5 69.3V73.9H47.1V69.3" fill="#AF3165"/>
<path d="M42.4001 87.8H37.8V92.4H42.4001V87.8Z" fill="#494751"/>
<path d="M42.4001 83.2002H37.8V87.8002H42.4001V83.2002Z" fill="#E04B84"/>
<path d="M42.4001 78.5H37.8V83.1H42.4001V78.5Z" fill="#E04B84"/>
<path d="M42.4001 73.9001H37.8V78.5001H42.4001V73.9001Z" fill="#E04B84"/>
<path d="M37.8 69.3V73.9H42.4001V69.3" fill="#AF3165"/>
<path d="M37.8 92.5H33.2V97.1H37.8V92.5Z" fill="#736F8E"/>
<path d="M37.8 87.8H33.2V92.4H37.8V87.8Z" fill="#494751"/>
<path d="M37.8 83.2002H33.2V87.8002H37.8V83.2002Z" fill="#E04B84"/>
<path d="M37.8 78.5H33.2V83.1H37.8V78.5Z" fill="#E04B84"/>
<path d="M37.8 73.9001H33.2V78.5001H37.8V73.9001Z" fill="#E04B84"/>
<path d="M33.2 69.3V73.9H37.8V69.3" fill="#AF3165"/>
<path d="M33.2001 106.4H28.6001V111H33.2001V106.4Z" fill="#3C4047"/>
<path d="M33.2001 101.7H28.6001V106.3H33.2001V101.7Z" fill="#EAA36E"/>
<path d="M33.2001 97.1001H28.6001V101.7H33.2001V97.1001Z" fill="#D17E46"/>
<path d="M33.2001 92.5H28.6001V97.1H33.2001V92.5Z" fill="#736F8E"/>
<path d="M33.2001 87.8H28.6001V92.4H33.2001V87.8Z" fill="#494751"/>
<path d="M33.2001 83.2002H28.6001V87.8002H33.2001V83.2002Z" fill="#E04B84"/>
<path d="M33.2001 78.5H28.6001V83.1H33.2001V78.5Z" fill="#E04B84"/>
<path d="M33.2001 73.9001H28.6001V78.5001H33.2001V73.9001Z" fill="#E04B84"/>
<path d="M28.6001 69.3V73.9H33.2001V69.3" fill="#AF3165"/>
<path d="M28.4999 106.4H23.8999V111H28.4999V106.4Z" fill="#3C4047"/>
<path d="M28.4999 101.7H23.8999V106.3H28.4999V101.7Z" fill="#EAA36E"/>
<path d="M28.4999 97.1001H23.8999V101.7H28.4999V97.1001Z" fill="#D17E46"/>
<path d="M28.4999 92.5H23.8999V97.1H28.4999V92.5Z" fill="#736F8E"/>
<path d="M28.4999 87.8H23.8999V92.4H28.4999V87.8Z" fill="#494751"/>
<path d="M28.4999 83.2002H23.8999V87.8002H28.4999V83.2002Z" fill="#E04B84"/>
<path d="M28.4999 78.5H23.8999V83.1H28.4999V78.5Z" fill="#AF3165"/>
<path d="M28.4999 73.9001H23.8999V78.5001H28.4999V73.9001Z" fill="#AF3165"/>
<path d="M23.8999 69.3V73.9H28.4999V69.3" fill="#AF3165"/>
<path d="M19.3 92.4H23.9001V87.8H19.3" fill="#EAA36E"/>
<path d="M19.3 87.8002H23.9001V83.2002H19.3" fill="#D17E46"/>
<path d="M19.3 83.1H23.9001V78.5H19.3" fill="#E04B84"/>
<path d="M19.3 78.5001H23.9001V73.9001H19.3" fill="#E04B84"/>
<path d="M19.3 73.9H23.9001V69.3H19.3" fill="#AF3165"/>
<path d="M83.6 55.8H79V60.4H83.6V55.8Z" fill="#704019"/>
<path d="M83.6 51.1001H79V55.7001H83.6V51.1001Z" fill="#704019"/>
<path d="M83.6 46.5H79V51.1H83.6V46.5Z" fill="#704019"/>
<path d="M83.6 41.9001H79V46.5001H83.6V41.9001Z" fill="#704019"/>
<path d="M83.6 37.2002H79V41.8002H83.6V37.2002Z" fill="#704019"/>
<path d="M83.6 32.6001H79V37.2001H83.6V32.6001Z" fill="#704019"/>
<path d="M78.9001 55.8H74.3V60.4H78.9001V55.8Z" fill="#704019"/>
<path d="M78.9001 51.1001H74.3V55.7001H78.9001V51.1001Z" fill="#704019"/>
<path d="M78.9001 46.5H74.3V51.1H78.9001V46.5Z" fill="#704019"/>
<path d="M78.9001 41.9001H74.3V46.5001H78.9001V41.9001Z" fill="#704019"/>
<path d="M78.9001 37.2002H74.3V41.8002H78.9001V37.2002Z" fill="#704019"/>
<path d="M78.9001 32.6001H74.3V37.2001H78.9001V32.6001Z" fill="#996F41"/>
<path d="M78.9001 27.9001H74.3V32.5001H78.9001V27.9001Z" fill="#996F41"/>
<path d="M78.9001 23.3H74.3V27.9001H78.9001V23.3Z" fill="#996F41"/>
<path d="M78.9001 18.7002H74.3V23.3002H78.9001V18.7002Z" fill="#996F41"/>
<path d="M74.3 60.4001H69.7V65.0001H74.3V60.4001Z" fill="#D17E46"/>
<path d="M74.3 55.8H69.7V60.4H74.3V55.8Z" fill="#D17E46"/>
<path d="M74.3 51.1001H69.7V55.7001H74.3V51.1001Z" fill="#D17E46"/>
<path d="M74.3 46.5H69.7V51.1H74.3V46.5Z" fill="#D17E46"/>
<path d="M74.3 41.9001H69.7V46.5001H74.3V41.9001Z" fill="#D17E46"/>
<path d="M74.3 37.2002H69.7V41.8002H74.3V37.2002Z" fill="#D17E46"/>
<path d="M74.3 32.6001H69.7V37.2001H74.3V32.6001Z" fill="#704019"/>
<path d="M74.3 27.9001H69.7V32.5001H74.3V27.9001Z" fill="#704019"/>
<path d="M74.3 23.3H69.7V27.9001H74.3V23.3Z" fill="#996F41"/>
<path d="M74.3 18.7002H69.7V23.3002H74.3V18.7002Z" fill="#996F41"/>
<path d="M74.3 14H69.7V18.6H74.3V14Z" fill="#C4A174"/>
<path d="M69.7001 65H65.1001V69.6H69.7001V65Z" fill="#D17E46"/>
<path d="M69.7001 60.4001H65.1001V65.0001H69.7001V60.4001Z" fill="#D17E46"/>
<path d="M69.7001 55.8H65.1001V60.4H69.7001V55.8Z" fill="#EAA36E"/>
<path d="M69.7001 51.1001H65.1001V55.7001H69.7001V51.1001Z" fill="#EAA36E"/>
<path d="M69.7001 46.5H65.1001V51.1H69.7001V46.5Z" fill="#EAA36E"/>
<path d="M69.7001 41.9001H65.1001V46.5001H69.7001V41.9001Z" fill="#D17E46"/>
<path d="M69.7001 37.2002H65.1001V41.8002H69.7001V37.2002Z" fill="#D17E46"/>
<path d="M69.7001 32.6001H65.1001V37.2001H69.7001V32.6001Z" fill="#D17E46"/>
<path d="M69.7001 27.9001H65.1001V32.5001H69.7001V27.9001Z" fill="#D17E46"/>
<path d="M69.7001 23.3H65.1001V27.9001H69.7001V23.3Z" fill="#704019"/>
<path d="M69.7001 18.7002H65.1001V23.3002H69.7001V18.7002Z" fill="#996F41"/>
<path d="M69.7001 14H65.1001V18.6H69.7001V14Z" fill="#996F41"/>
<path d="M69.7001 9.40015H65.1001V14.0002H69.7001V9.40015Z" fill="#C4A174"/>
<path d="M64.9999 65H60.3999V69.6H64.9999V65Z" fill="#D17E46"/>
<path d="M64.9999 60.4001H60.3999V65.0001H64.9999V60.4001Z" fill="#EAA36E"/>
<path d="M64.9999 55.8H60.3999V60.4H64.9999V55.8Z" fill="#EAA36E"/>
<path d="M64.9999 51.1001H60.3999V55.7001H64.9999V51.1001Z" fill="#EAA36E"/>
<path d="M64.9999 46.5H60.3999V51.1H64.9999V46.5Z" fill="#EAA36E"/>
<path d="M64.9999 41.9001H60.3999V46.5001H64.9999V41.9001Z" fill="#21140C"/>
<path d="M64.9999 37.2002H60.3999V41.8002H64.9999V37.2002Z" fill="#21140C"/>
<path d="M64.9999 32.6001H60.3999V37.2001H64.9999V32.6001Z" fill="#D17E46"/>
<path d="M64.9999 27.9001H60.3999V32.5001H64.9999V27.9001Z" fill="#D17E46"/>
<path d="M64.9999 23.3H60.3999V27.9001H64.9999V23.3Z" fill="#704019"/>
<path d="M64.9999 18.7002H60.3999V23.3002H64.9999V18.7002Z" fill="#996F41"/>
<path d="M64.9999 14H60.3999V18.6H64.9999V14Z" fill="#996F41"/>
<path d="M64.9999 9.40015H60.3999V14.0002H64.9999V9.40015Z" fill="#996F41"/>
<path d="M64.9999 4.80005H60.3999V9.40005H64.9999V4.80005Z" fill="#C4A174"/>
<path d="M60.4001 65H55.8V69.6H60.4001V65Z" fill="#D17E46"/>
<path d="M60.4001 60.4001H55.8V65.0001H60.4001V60.4001Z" fill="#EAA36E"/>
<path d="M60.4001 55.8H55.8V60.4H60.4001V55.8Z" fill="#EAA36E"/>
<path d="M60.4001 51.1001H55.8V55.7001H60.4001V51.1001Z" fill="#EAA36E"/>
<path d="M60.4001 46.5H55.8V51.1H60.4001V46.5Z" fill="#EAA36E"/>
<path d="M60.4001 41.9001H55.8V46.5001H60.4001V41.9001Z" fill="#21140C"/>
<path d="M60.4001 37.2002H55.8V41.8002H60.4001V37.2002Z" fill="#422C1C"/>
<path d="M60.4001 32.6001H55.8V37.2001H60.4001V32.6001Z" fill="#EAA36E"/>
<path d="M60.4001 27.9001H55.8V32.5001H60.4001V27.9001Z" fill="#D17E46"/>
<path d="M60.4001 23.3H55.8V27.9001H60.4001V23.3Z" fill="#704019"/>
<path d="M60.4001 18.7002H55.8V23.3002H60.4001V18.7002Z" fill="#996F41"/>
<path d="M60.4001 14H55.8V18.6H60.4001V14Z" fill="#996F41"/>
<path d="M60.4001 9.40015H55.8V14.0002H60.4001V9.40015Z" fill="#996F41"/>
<path d="M60.4001 4.80005H55.8V9.40005H60.4001V4.80005Z" fill="#C4A174"/>
<path d="M55.8 65H51.2V69.6H55.8V65Z" fill="#D17E46"/>
<path d="M55.8 60.4001H51.2V65.0001H55.8V60.4001Z" fill="#EAA36E"/>
<path d="M55.8 55.8H51.2V60.4H55.8V55.8Z" fill="#EAA36E"/>
<path d="M55.8 51.1001H51.2V55.7001H55.8V51.1001Z" fill="#EAA36E"/>
<path d="M55.8 46.5H51.2V51.1H55.8V46.5Z" fill="white"/>
<path d="M55.8 41.9001H51.2V46.5001H55.8V41.9001Z" fill="#EAA36E"/>
<path d="M55.8 37.2002H51.2V41.8002H55.8V37.2002Z" fill="#EAA36E"/>
<path d="M55.8 32.6001H51.2V37.2001H55.8V32.6001Z" fill="#EAA36E"/>
<path d="M55.8 27.9001H51.2V32.5001H55.8V27.9001Z" fill="#D17E46"/>
<path d="M55.8 23.3H51.2V27.9001H55.8V23.3Z" fill="#704019"/>
<path d="M55.8 18.7002H51.2V23.3002H55.8V18.7002Z" fill="#996F41"/>
<path d="M55.8 14H51.2V18.6H55.8V14Z" fill="#996F41"/>
<path d="M55.8 9.40015H51.2V14.0002H55.8V9.40015Z" fill="#996F41"/>
<path d="M55.8 4.80005H51.2V9.40005H55.8V4.80005Z" fill="#996F41"/>
<path d="M55.8 0.100098H51.2V4.70007H55.8V0.100098Z" fill="#C4A174"/>
<path d="M51.1 65H46.5V69.6H51.1V65Z" fill="#D17E46"/>
<path d="M51.1 60.4001H46.5V65.0001H51.1V60.4001Z" fill="#EAA36E"/>
<path d="M51.1 55.8H46.5V60.4H51.1V55.8Z" fill="#EAA36E"/>
<path d="M51.1 51.1001H46.5V55.7001H51.1V51.1001Z" fill="white"/>
<path d="M51.1 46.5H46.5V51.1H51.1V46.5Z" fill="white"/>
<path d="M51.1 41.9001H46.5V46.5001H51.1V41.9001Z" fill="#EAA36E"/>
<path d="M51.1 37.2002H46.5V41.8002H51.1V37.2002Z" fill="#EAA36E"/>
<path d="M51.1 32.6001H46.5V37.2001H51.1V32.6001Z" fill="#EAA36E"/>
<path d="M51.1 27.9001H46.5V32.5001H51.1V27.9001Z" fill="#D17E46"/>
<path d="M51.1 23.3H46.5V27.9001H51.1V23.3Z" fill="#704019"/>
<path d="M51.1 18.7002H46.5V23.3002H51.1V18.7002Z" fill="#996F41"/>
<path d="M51.1 14H46.5V18.6H51.1V14Z" fill="#996F41"/>
<path d="M51.1 9.40015H46.5V14.0002H51.1V9.40015Z" fill="#996F41"/>
<path d="M51.1 4.80005H46.5V9.40005H51.1V4.80005Z" fill="#996F41"/>
<path d="M51.1 0.100098H46.5V4.70007H51.1V0.100098Z" fill="#C4A174"/>
<path d="M46.4999 65H41.8999V69.6H46.4999V65Z" fill="#D17E46"/>
<path d="M46.4999 60.4001H41.8999V65.0001H46.4999V60.4001Z" fill="#EAA36E"/>
<path d="M46.4999 55.8H41.8999V60.4H46.4999V55.8Z" fill="white"/>
<path d="M46.4999 51.1001H41.8999V55.7001H46.4999V51.1001Z" fill="white"/>
<path d="M46.4999 46.5H41.8999V51.1H46.4999V46.5Z" fill="white"/>
<path d="M46.4999 41.9001H41.8999V46.5001H46.4999V41.9001Z" fill="#EAA36E"/>
<path d="M46.4999 37.2002H41.8999V41.8002H46.4999V37.2002Z" fill="#EAA36E"/>
<path d="M46.4999 32.6001H41.8999V37.2001H46.4999V32.6001Z" fill="#EAA36E"/>
<path d="M46.4999 27.9001H41.8999V32.5001H46.4999V27.9001Z" fill="#D17E46"/>
<path d="M46.4999 23.3H41.8999V27.9001H46.4999V23.3Z" fill="#704019"/>
<path d="M46.4999 18.7002H41.8999V23.3002H46.4999V18.7002Z" fill="#996F41"/>
<path d="M46.4999 14H41.8999V18.6H46.4999V14Z" fill="#996F41"/>
<path d="M46.4999 9.40015H41.8999V14.0002H46.4999V9.40015Z" fill="#996F41"/>
<path d="M46.4999 4.80005H41.8999V9.40005H46.4999V4.80005Z" fill="#996F41"/>
<path d="M46.4999 0.100098H41.8999V4.70007H46.4999V0.100098Z" fill="#C4A174"/>
<path d="M41.9001 65H37.3V69.6H41.9001V65Z" fill="#D17E46"/>
<path d="M41.9001 60.4001H37.3V65.0001H41.9001V60.4001Z" fill="#EAA36E"/>
<path d="M41.9001 55.8H37.3V60.4H41.9001V55.8Z" fill="white"/>
<path d="M41.9001 51.1001H37.3V55.7001H41.9001V51.1001Z" fill="white"/>
<path d="M41.9001 46.5H37.3V51.1H41.9001V46.5Z" fill="white"/>
<path d="M41.9001 41.9001H37.3V46.5001H41.9001V41.9001Z" fill="#EAA36E"/>
<path d="M41.9001 37.2002H37.3V41.8002H41.9001V37.2002Z" fill="#EAA36E"/>
<path d="M41.9001 32.6001H37.3V37.2001H41.9001V32.6001Z" fill="#EAA36E"/>
<path d="M41.9001 27.9001H37.3V32.5001H41.9001V27.9001Z" fill="#D17E46"/>
<path d="M41.9001 23.3H37.3V27.9001H41.9001V23.3Z" fill="#704019"/>
<path d="M41.9001 18.7002H37.3V23.3002H41.9001V18.7002Z" fill="#996F41"/>
<path d="M41.9001 14H37.3V18.6H41.9001V14Z" fill="#996F41"/>
<path d="M41.9001 9.40015H37.3V14.0002H41.9001V9.40015Z" fill="#996F41"/>
<path d="M41.9001 4.80005H37.3V9.40005H41.9001V4.80005Z" fill="#996F41"/>
<path d="M41.9001 0.100098H37.3V4.70007H41.9001V0.100098Z" fill="#C4A174"/>
<path d="M37.2001 65H32.6001V69.6H37.2001V65Z" fill="#D17E46"/>
<path d="M37.2001 60.4001H32.6001V65.0001H37.2001V60.4001Z" fill="#EAA36E"/>
<path d="M37.2001 55.8H32.6001V60.4H37.2001V55.8Z" fill="#EAA36E"/>
<path d="M37.2001 51.1001H32.6001V55.7001H37.2001V51.1001Z" fill="white"/>
<path d="M37.2001 46.5H32.6001V51.1H37.2001V46.5Z" fill="white"/>
<path d="M37.2001 41.9001H32.6001V46.5001H37.2001V41.9001Z" fill="#EAA36E"/>
<path d="M37.2001 37.2002H32.6001V41.8002H37.2001V37.2002Z" fill="#EAA36E"/>
<path d="M37.2001 32.6001H32.6001V37.2001H37.2001V32.6001Z" fill="#EAA36E"/>
<path d="M37.2001 27.9001H32.6001V32.5001H37.2001V27.9001Z" fill="#D17E46"/>
<path d="M37.2001 23.3H32.6001V27.9001H37.2001V23.3Z" fill="#704019"/>
<path d="M37.2001 18.7002H32.6001V23.3002H37.2001V18.7002Z" fill="#996F41"/>
<path d="M37.2001 14H32.6001V18.6H37.2001V14Z" fill="#996F41"/>
<path d="M37.2001 9.40015H32.6001V14.0002H37.2001V9.40015Z" fill="#996F41"/>
<path d="M37.2001 4.80005H32.6001V9.40005H37.2001V4.80005Z" fill="#996F41"/>
<path d="M37.2001 0.100098H32.6001V4.70007H37.2001V0.100098Z" fill="#C4A174"/>
<path d="M32.6 65H28V69.6H32.6V65Z" fill="#D17E46"/>
<path d="M32.6 60.4001H28V65.0001H32.6V60.4001Z" fill="#EAA36E"/>
<path d="M32.6 55.8H28V60.4H32.6V55.8Z" fill="#EAA36E"/>
<path d="M32.6 51.1001H28V55.7001H32.6V51.1001Z" fill="#EAA36E"/>
<path d="M32.6 46.5H28V51.1H32.6V46.5Z" fill="white"/>
<path d="M32.6 41.9001H28V46.5001H32.6V41.9001Z" fill="#EAA36E"/>
<path d="M32.6 37.2002H28V41.8002H32.6V37.2002Z" fill="#EAA36E"/>
<path d="M32.6 32.6001H28V37.2001H32.6V32.6001Z" fill="#EAA36E"/>
<path d="M32.6 27.9001H28V32.5001H32.6V27.9001Z" fill="#D17E46"/>
<path d="M32.6 23.3H28V27.9001H32.6V23.3Z" fill="#704019"/>
<path d="M32.6 18.7002H28V23.3002H32.6V18.7002Z" fill="#996F41"/>
<path d="M32.6 14H28V18.6H32.6V14Z" fill="#996F41"/>
<path d="M32.6 9.40015H28V14.0002H32.6V9.40015Z" fill="#996F41"/>
<path d="M32.6 4.80005H28V9.40005H32.6V4.80005Z" fill="#996F41"/>
<path d="M32.6 0.100098H28V4.70007H32.6V0.100098Z" fill="#C4A174"/>
<path d="M27.9001 65H23.3V69.6H27.9001V65Z" fill="#D17E46"/>
<path d="M27.9001 60.4001H23.3V65.0001H27.9001V60.4001Z" fill="#EAA36E"/>
<path d="M27.9001 55.8H23.3V60.4H27.9001V55.8Z" fill="#EAA36E"/>
<path d="M27.9001 51.1001H23.3V55.7001H27.9001V51.1001Z" fill="#EAA36E"/>
<path d="M27.9001 46.5H23.3V51.1H27.9001V46.5Z" fill="#EAA36E"/>
<path d="M27.9001 41.9001H23.3V46.5001H27.9001V41.9001Z" fill="#21140C"/>
<path d="M27.9001 37.2002H23.3V41.8002H27.9001V37.2002Z" fill="#21140C"/>
<path d="M27.9001 32.6001H23.3V37.2001H27.9001V32.6001Z" fill="#D17E46"/>
<path d="M27.9001 27.9001H23.3V32.5001H27.9001V27.9001Z" fill="#D17E46"/>
<path d="M27.9001 23.3H23.3V27.9001H27.9001V23.3Z" fill="#704019"/>
<path d="M27.9001 18.7002H23.3V23.3002H27.9001V18.7002Z" fill="#996F41"/>
<path d="M27.9001 14H23.3V18.6H27.9001V14Z" fill="#996F41"/>
<path d="M27.9001 9.40015H23.3V14.0002H27.9001V9.40015Z" fill="#996F41"/>
<path d="M27.9001 4.80005H23.3V9.40005H27.9001V4.80005Z" fill="#C4A174"/>
<path d="M27.9001 0.100098H23.3V4.70007H27.9001V0.100098Z" fill="#C4A174"/>
<path d="M23.3 65H18.7V69.6H23.3V65Z" fill="#D17E46"/>
<path d="M23.3 60.4001H18.7V65.0001H23.3V60.4001Z" fill="#EAA36E"/>
<path d="M23.3 55.8H18.7V60.4H23.3V55.8Z" fill="#EAA36E"/>
<path d="M23.3 51.1001H18.7V55.7001H23.3V51.1001Z" fill="#EAA36E"/>
<path d="M23.3 46.5H18.7V51.1H23.3V46.5Z" fill="#EAA36E"/>
<path d="M23.3 41.9001H18.7V46.5001H23.3V41.9001Z" fill="#21140C"/>
<path d="M23.3 37.2002H18.7V41.8002H23.3V37.2002Z" fill="#422C1C"/>
<path d="M23.3 32.6001H18.7V37.2001H23.3V32.6001Z" fill="#D17E46"/>
<path d="M23.3 27.9001H18.7V32.5001H23.3V27.9001Z" fill="#704019"/>
<path d="M23.3 23.3H18.7V27.9001H23.3V23.3Z" fill="#704019"/>
<path d="M23.3 18.7002H18.7V23.3002H23.3V18.7002Z" fill="#996F41"/>
<path d="M23.3 14H18.7V18.6H23.3V14Z" fill="#996F41"/>
<path d="M23.3 9.40015H18.7V14.0002H23.3V9.40015Z" fill="#996F41"/>
<path d="M23.3 4.80005H18.7V9.40005H23.3V4.80005Z" fill="#C4A174"/>
<path d="M18.7001 60.4001H14.1001V65.0001H18.7001V60.4001Z" fill="#D17E46"/>
<path d="M18.7001 55.8H14.1001V60.4H18.7001V55.8Z" fill="#D17E46"/>
<path d="M18.7001 51.1001H14.1001V55.7001H18.7001V51.1001Z" fill="#D17E46"/>
<path d="M18.7001 46.5H14.1001V51.1H18.7001V46.5Z" fill="#D17E46"/>
<path d="M18.7001 41.9001H14.1001V46.5001H18.7001V41.9001Z" fill="#D17E46"/>
<path d="M18.7001 37.2002H14.1001V41.8002H18.7001V37.2002Z" fill="#D17E46"/>
<path d="M18.7001 32.6001H14.1001V37.2001H18.7001V32.6001Z" fill="#D17E46"/>
<path d="M18.7001 27.9001H14.1001V32.5001H18.7001V27.9001Z" fill="#704019"/>
<path d="M18.7001 23.3H14.1001V27.9001H18.7001V23.3Z" fill="#996F41"/>
<path d="M18.7001 18.7002H14.1001V23.3002H18.7001V18.7002Z" fill="#996F41"/>
<path d="M18.7001 14H14.1001V18.6H18.7001V14Z" fill="#996F41"/>
<path d="M18.7001 9.40015H14.1001V14.0002H18.7001V9.40015Z" fill="#C4A174"/>
<path d="M18.7001 4.80005H14.1001V9.40005H18.7001V4.80005Z" fill="#C4A174"/>
<path d="M13.9999 60.4001H9.3999V65.0001H13.9999V60.4001Z" fill="#D17E46"/>
<path d="M13.9999 55.8H9.3999V60.4H13.9999V55.8Z" fill="#D17E46"/>
<path d="M13.9999 51.1001H9.3999V55.7001H13.9999V51.1001Z" fill="#D17E46"/>
<path d="M13.9999 46.5H9.3999V51.1H13.9999V46.5Z" fill="#D17E46"/>
<path d="M13.9999 41.9001H9.3999V46.5001H13.9999V41.9001Z" fill="#704019"/>
<path d="M13.9999 37.2002H9.3999V41.8002H13.9999V37.2002Z" fill="#704019"/>
<path d="M13.9999 32.6001H9.3999V37.2001H13.9999V32.6001Z" fill="#704019"/>
<path d="M13.9999 27.9001H9.3999V32.5001H13.9999V27.9001Z" fill="#704019"/>
<path d="M13.9999 23.3H9.3999V27.9001H13.9999V23.3Z" fill="#996F41"/>
<path d="M13.9999 18.7002H9.3999V23.3002H13.9999V18.7002Z" fill="#996F41"/>
<path d="M13.9999 14H9.3999V18.6H13.9999V14Z" fill="#996F41"/>
<path d="M13.9999 9.40015H9.3999V14.0002H13.9999V9.40015Z" fill="#C4A174"/>
<path d="M9.40005 55.8H4.80005V60.4H9.40005V55.8Z" fill="#704019"/>
<path d="M9.40005 51.1001H4.80005V55.7001H9.40005V51.1001Z" fill="#704019"/>
<path d="M9.40005 46.5H4.80005V51.1H9.40005V46.5Z" fill="#704019"/>
<path d="M9.40005 41.9001H4.80005V46.5001H9.40005V41.9001Z" fill="#996F41"/>
<path d="M9.40005 37.2002H4.80005V41.8002H9.40005V37.2002Z" fill="#996F41"/>
<path d="M9.40005 32.6001H4.80005V37.2001H9.40005V32.6001Z" fill="#996F41"/>
<path d="M9.40005 27.9001H4.80005V32.5001H9.40005V27.9001Z" fill="#996F41"/>
<path d="M9.40005 23.3H4.80005V27.9001H9.40005V23.3Z" fill="#996F41"/>
<path d="M9.40005 18.7002H4.80005V23.3002H9.40005V18.7002Z" fill="#996F41"/>
<path d="M9.40005 14H4.80005V18.6H9.40005V14Z" fill="#C4A174"/>
<path d="M4.79996 55.8H0.199951V60.4H4.79996V55.8Z" fill="#704019"/>
<path d="M4.79996 51.1001H0.199951V55.7001H4.79996V51.1001Z" fill="#704019"/>
<path d="M4.79996 46.5H0.199951V51.1H4.79996V46.5Z" fill="#704019"/>
<path d="M4.79996 41.9001H0.199951V46.5001H4.79996V41.9001Z" fill="#996F41"/>
<path d="M4.79996 37.2002H0.199951V41.8002H4.79996V37.2002Z" fill="#996F41"/>
<path d="M4.79996 32.6001H0.199951V37.2001H4.79996V32.6001Z" fill="#996F41"/>
<path d="M4.79996 27.9001H0.199951V32.5001H4.79996V27.9001Z" fill="#C4A174"/>
<path d="M4.79996 23.3H0.199951V27.9001H4.79996V23.3Z" fill="#C4A174"/>
</svg>
