<svg width="80" height="108" viewBox="0 0 80 108" fill="none" xmlns="http://www.w3.org/2000/svg">
<path d="M61.3 84.3H56.7V88.9H61.3V84.3Z" fill="#EAA36E"/>
<path d="M61.3 79.7002H56.7V84.3002H61.3V79.7002Z" fill="#D17E46"/>
<path d="M61.3 75H56.7V79.6H61.3V75Z" fill="#9286AD"/>
<path d="M56.7001 102.9H52.1001V107.5H56.7001V102.9Z" fill="#2D3266"/>
<path d="M56.7001 98.2002H52.1001V102.8H56.7001V98.2002Z" fill="#EAA36E"/>
<path d="M56.7001 93.6001H52.1001V98.2001H56.7001V93.6001Z" fill="#D17E46"/>
<path d="M56.7001 89H52.1001V93.6H56.7001V89Z" fill="#2D3266"/>
<path d="M56.7001 84.3H52.1001V88.9H56.7001V84.3Z" fill="#EAA36E"/>
<path d="M56.7001 79.7002H52.1001V84.3002H56.7001V79.7002Z" fill="#D17E46"/>
<path d="M56.7001 75H52.1001V79.6H56.7001V75Z" fill="#9286AD"/>
<path d="M52.1 102.9H47.5V107.5H52.1V102.9Z" fill="#2D3266"/>
<path d="M52.1 98.2002H47.5V102.8H52.1V98.2002Z" fill="#EAA36E"/>
<path d="M52.1 93.6001H47.5V98.2001H52.1V93.6001Z" fill="#D17E46"/>
<path d="M52.1 89H47.5V93.6H52.1V89Z" fill="#2D3266"/>
<path d="M52.1 84.3H47.5V88.9H52.1V84.3Z" fill="#2D3266"/>
<path d="M52.1 79.7002H47.5V84.3002H52.1V79.7002Z" fill="#736793"/>
<path d="M52.1 75H47.5V79.6H52.1V75Z" fill="#736793"/>
<path d="M47.4001 89H42.8V93.6H47.4001V89Z" fill="#2D3266"/>
<path d="M47.4001 84.3H42.8V88.9H47.4001V84.3Z" fill="#2D3266"/>
<path d="M47.4001 79.7002H42.8V84.3002H47.4001V79.7002Z" fill="#9286AD"/>
<path d="M47.4001 75H42.8V79.6H47.4001V75Z" fill="#9286AD"/>
<path d="M42.8 89H38.2V93.6H42.8V89Z" fill="#2D3266"/>
<path d="M42.8 84.3H38.2V88.9H42.8V84.3Z" fill="#2D3266"/>
<path d="M42.8 79.7002H38.2V84.3002H42.8V79.7002Z" fill="#9286AD"/>
<path d="M42.8 75H38.2V79.6H42.8V75Z" fill="#9286AD"/>
<path d="M38.2001 89H33.6001V93.6H38.2001V89Z" fill="#2D3266"/>
<path d="M38.2001 84.3H33.6001V88.9H38.2001V84.3Z" fill="#2D3266"/>
<path d="M38.2001 79.7002H33.6001V84.3002H38.2001V79.7002Z" fill="#9286AD"/>
<path d="M38.2001 75H33.6001V79.6H38.2001V75Z" fill="#9286AD"/>
<path d="M33.4999 89H28.8999V93.6H33.4999V89Z" fill="#2D3266"/>
<path d="M33.4999 84.3H28.8999V88.9H33.4999V84.3Z" fill="#2D3266"/>
<path d="M33.4999 79.7002H28.8999V84.3002H33.4999V79.7002Z" fill="#9286AD"/>
<path d="M33.4999 75H28.8999V79.6H33.4999V75Z" fill="#9286AD"/>
<path d="M28.9001 102.9H24.3V107.5H28.9001V102.9Z" fill="#2D3266"/>
<path d="M28.9001 98.2002H24.3V102.8H28.9001V98.2002Z" fill="#EAA36E"/>
<path d="M28.9001 93.6001H24.3V98.2001H28.9001V93.6001Z" fill="#D17E46"/>
<path d="M28.9001 89H24.3V93.6H28.9001V89Z" fill="#2D3266"/>
<path d="M28.9001 84.3H24.3V88.9H28.9001V84.3Z" fill="#2D3266"/>
<path d="M28.9001 79.7002H24.3V84.3002H28.9001V79.7002Z" fill="#9286AD"/>
<path d="M28.9001 75H24.3V79.6H28.9001V75Z" fill="#9286AD"/>
<path d="M24.2001 102.9H19.6001V107.5H24.2001V102.9Z" fill="#2D3266"/>
<path d="M24.2001 98.2002H19.6001V102.8H24.2001V98.2002Z" fill="#EAA36E"/>
<path d="M24.2001 93.6001H19.6001V98.2001H24.2001V93.6001Z" fill="#D17E46"/>
<path d="M24.2001 89H19.6001V93.6H24.2001V89Z" fill="#2D3266"/>
<path d="M24.2001 84.3H19.6001V88.9H24.2001V84.3Z" fill="#2D3266"/>
<path d="M24.2001 79.7002H19.6001V84.3002H24.2001V79.7002Z" fill="#736793"/>
<path d="M24.2001 75H19.6001V79.6H24.2001V75Z" fill="#736793"/>
<path d="M15 88.9H19.6V84.3H15" fill="#EAA36E"/>
<path d="M15 84.3002H19.6V79.7002H15" fill="#D17E46"/>
<path d="M15 79.6H19.6V75H15" fill="#9286AD"/>
<path d="M70.2001 5.30005H65.6001V9.90005H70.2001V5.30005Z" fill="#7B83AD"/>
<path d="M5.29996 19.2002H0.699951V23.8002H5.29996V19.2002Z" fill="#7B83AD"/>
<path d="M5.29996 14.6001H0.699951V19.2001H5.29996V14.6001Z" fill="#7B83AD"/>
<path d="M9.89981 9.90015H5.2998V14.5002H9.89981V9.90015Z" fill="#7B83AD"/>
<path d="M79.4999 60.9001H74.8999V65.5001H79.4999V60.9001Z" fill="#5B5F7F"/>
<path d="M79.4999 56.3H74.8999V60.9H79.4999V56.3Z" fill="#5B5F7F"/>
<path d="M65.6 0.600098H61V5.20007H65.6V0.600098Z" fill="#7B83AD"/>
<path d="M65.6 5.30005H61V9.90005H65.6V5.30005Z" fill="#7B83AD"/>
<path d="M60.8998 0.600098H56.2998V5.20007H60.8998V0.600098Z" fill="#7B83AD"/>
<path d="M79.4999 23.8H74.8999V28.4001H79.4999V23.8Z" fill="#7B83AD"/>
<path d="M79.4999 19.2002H74.8999V23.8002H79.4999V19.2002Z" fill="#7B83AD"/>
<path d="M79.4999 14.6001H74.8999V19.2001H79.4999V14.6001Z" fill="#7B83AD"/>
<path d="M74.8 23.8H70.2V28.4001H74.8V23.8Z" fill="#5B5F7F"/>
<path d="M74.8 19.2002H70.2V23.8002H74.8V19.2002Z" fill="#5B5F7F"/>
<path d="M74.8 14.6001H70.2V19.2001H74.8V14.6001Z" fill="#5B5F7F"/>
<path d="M74.8 9.90015H70.2V14.5002H74.8V9.90015Z" fill="#7B83AD"/>
<path d="M70.2001 9.90015H65.6001V14.5002H70.2001V9.90015Z" fill="#5B5F7F"/>
<path d="M56.3 0.600098H51.7V5.20007H56.3V0.600098Z" fill="#7B83AD"/>
<path d="M65.6 9.90015H61V14.5002H65.6V9.90015Z" fill="#5B5F7F"/>
<path d="M70.2001 14.6001H65.6001V19.2001H70.2001V14.6001Z" fill="#5B5F7F"/>
<path d="M60.8998 5.30005H56.2998V9.90005H60.8998V5.30005Z" fill="#5B5F7F"/>
<path d="M51.7001 9.90015H47.1001V14.5002H51.7001V9.90015Z" fill="#5B5F7F"/>
<path d="M19.2001 9.90015H14.6001V14.5002H19.2001V9.90015Z" fill="#5B5F7F"/>
<path d="M23.8998 9.90015H19.2998V14.5002H23.8998V9.90015Z" fill="#5B5F7F"/>
<path d="M28.4999 9.90015H23.8999V14.5002H28.4999V9.90015Z" fill="#5B5F7F"/>
<path d="M28.4999 5.30005H23.8999V9.90005H28.4999V5.30005Z" fill="#5B5F7F"/>
<path d="M33.1 9.90015H28.5V14.5002H33.1V9.90015Z" fill="#5B5F7F"/>
<path d="M33.1 5.30005H28.5V9.90005H33.1V5.30005Z" fill="#5B5F7F"/>
<path d="M42.3998 9.90015H37.7998V14.5002H42.3998V9.90015Z" fill="#5B5F7F"/>
<path d="M42.3998 5.30005H37.7998V9.90005H42.3998V5.30005Z" fill="#5B5F7F"/>
<path d="M37.7001 9.90015H33.1001V14.5002H37.7001V9.90015Z" fill="#5B5F7F"/>
<path d="M37.7001 5.30005H33.1001V9.90005H37.7001V5.30005Z" fill="#5B5F7F"/>
<path d="M46.9999 9.90015H42.3999V14.5002H46.9999V9.90015Z" fill="#5B5F7F"/>
<path d="M46.9999 5.30005H42.3999V9.90005H46.9999V5.30005Z" fill="#5B5F7F"/>
<path d="M14.6 19.2002H10V23.8002H14.6V19.2002Z" fill="#5B5F7F"/>
<path d="M65.6 14.6001H61V19.2001H65.6V14.6001Z" fill="#5B5F7F"/>
<path d="M51.7001 5.30005H47.1001V9.90005H51.7001V5.30005Z" fill="#5B5F7F"/>
<path d="M51.7001 0.600098H47.1001V5.20007H51.7001V0.600098Z" fill="#7B83AD"/>
<path d="M51.7001 14.6001H47.1001V19.2001H51.7001V14.6001Z" fill="#5B5F7F"/>
<path d="M56.3 14.6001H51.7V19.2001H56.3V14.6001Z" fill="#5B5F7F"/>
<path d="M56.3 9.90015H51.7V14.5002H56.3V9.90015Z" fill="#5B5F7F"/>
<path d="M56.3 5.30005H51.7V9.90005H56.3V5.30005Z" fill="#5B5F7F"/>
<path d="M60.8998 14.6001H56.2998V19.2001H60.8998V14.6001Z" fill="#5B5F7F"/>
<path d="M60.8998 9.90015H56.2998V14.5002H60.8998V9.90015Z" fill="#5B5F7F"/>
<path d="M19.2001 14.6001H14.6001V19.2001H19.2001V14.6001Z" fill="#5B5F7F"/>
<path d="M19.2001 5.30005H14.6001V9.90005H19.2001V5.30005Z" fill="#7B83AD"/>
<path d="M23.8998 14.6001H19.2998V19.2001H23.8998V14.6001Z" fill="#5B5F7F"/>
<path d="M23.8998 5.30005H19.2998V9.90005H23.8998V5.30005Z" fill="#5B5F7F"/>
<path d="M23.8998 0.600098H19.2998V5.20007H23.8998V0.600098Z" fill="#7B83AD"/>
<path d="M28.4999 14.6001H23.8999V19.2001H28.4999V14.6001Z" fill="#5B5F7F"/>
<path d="M28.4999 0.600098H23.8999V5.20007H28.4999V0.600098Z" fill="#7B83AD"/>
<path d="M33.1 14.6001H28.5V19.2001H33.1V14.6001Z" fill="#5B5F7F"/>
<path d="M33.1 0.600098H28.5V5.20007H33.1V0.600098Z" fill="#7B83AD"/>
<path d="M42.3998 14.6001H37.7998V19.2001H42.3998V14.6001Z" fill="#5B5F7F"/>
<path d="M42.3998 0.600098H37.7998V5.20007H42.3998V0.600098Z" fill="#7B83AD"/>
<path d="M37.7001 14.6001H33.1001V19.2001H37.7001V14.6001Z" fill="#5B5F7F"/>
<path d="M37.7001 0.600098H33.1001V5.20007H37.7001V0.600098Z" fill="#7B83AD"/>
<path d="M46.9999 14.6001H42.3999V19.2001H46.9999V14.6001Z" fill="#5B5F7F"/>
<path d="M46.9999 0.600098H42.3999V5.20007H46.9999V0.600098Z" fill="#7B83AD"/>
<path d="M9.89981 19.2002H5.2998V23.8002H9.89981V19.2002Z" fill="#5B5F7F"/>
<path d="M9.89981 14.6001H5.2998V19.2001H9.89981V14.6001Z" fill="#7B83AD"/>
<path d="M14.6 14.6001H10V19.2001H14.6V14.6001Z" fill="#5B5F7F"/>
<path d="M14.6 9.90015H10V14.5002H14.6V9.90015Z" fill="#5B5F7F"/>
<path d="M14.6 5.30005H10V9.90005H14.6V5.30005Z" fill="#7B83AD"/>
<path d="M9.89981 23.8H5.2998V28.4001H9.89981V23.8Z" fill="#5B5F7F"/>
<path d="M5.29996 65.6001H0.699951V70.2001H5.29996V65.6001Z" fill="#5B5F7F"/>
<path d="M5.29996 60.9001H0.699951V65.5001H5.29996V60.9001Z" fill="#5B5F7F"/>
<path d="M5.29996 56.3H0.699951V60.9H5.29996V56.3Z" fill="#5B5F7F"/>
<path d="M5.29996 51.6001H0.699951V56.2001H5.29996V51.6001Z" fill="#5B5F7F"/>
<path d="M5.29996 47H0.699951V51.6H5.29996V47Z" fill="#5B5F7F"/>
<path d="M5.29996 42.4001H0.699951V47.0001H5.29996V42.4001Z" fill="#7B83AD"/>
<path d="M5.29996 37.7002H0.699951V42.3002H5.29996V37.7002Z" fill="#7B83AD"/>
<path d="M5.29996 33.1001H0.699951V37.7001H5.29996V33.1001Z" fill="#7B83AD"/>
<path d="M5.29996 28.5H0.699951V33.1H5.29996V28.5Z" fill="#7B83AD"/>
<path d="M5.29996 23.8H0.699951V28.4001H5.29996V23.8Z" fill="#7B83AD"/>
<path d="M9.89981 28.5H5.2998V33.1H9.89981V28.5Z" fill="#43455B"/>
<path d="M9.89981 70.2002H5.2998V74.8002H9.89981V70.2002Z" fill="#43455B"/>
<path d="M9.89981 65.6001H5.2998V70.2001H9.89981V65.6001Z" fill="#43455B"/>
<path d="M9.89981 60.9001H5.2998V65.5001H9.89981V60.9001Z" fill="#43455B"/>
<path d="M9.89981 56.3H5.2998V60.9H9.89981V56.3Z" fill="#43455B"/>
<path d="M9.89981 51.6001H5.2998V56.2001H9.89981V51.6001Z" fill="#43455B"/>
<path d="M9.89981 47H5.2998V51.6H9.89981V47Z" fill="#43455B"/>
<path d="M9.89981 42.4001H5.2998V47.0001H9.89981V42.4001Z" fill="#43455B"/>
<path d="M9.89981 37.7002H5.2998V42.3002H9.89981V37.7002Z" fill="#43455B"/>
<path d="M9.89981 33.1001H5.2998V37.7001H9.89981V33.1001Z" fill="#43455B"/>
<path d="M5.29996 70.2002H0.699951V74.8002H5.29996V70.2002Z" fill="#43455B"/>
<path d="M14.6 70.2002H10V74.8002H14.6V70.2002Z" fill="#43455B"/>
<path d="M14.6 65.6001H10V70.2001H14.6V65.6001Z" fill="#43455B"/>
<path d="M14.6 60.9001H10V65.5001H14.6V60.9001Z" fill="#43455B"/>
<path d="M65.6 65.6001H61V70.2001H65.6V65.6001Z" fill="#43455B"/>
<path d="M70.2001 65.6001H65.6001V70.2001H70.2001V65.6001Z" fill="#43455B"/>
<path d="M70.2001 60.9001H65.6001V65.5001H70.2001V60.9001Z" fill="#43455B"/>
<path d="M74.8 47H70.2V51.6H74.8V47Z" fill="#43455B"/>
<path d="M65.6 70.2002H61V74.8002H65.6V70.2002Z" fill="#43455B"/>
<path d="M79.4999 70.2002H74.8999V74.8002H79.4999V70.2002Z" fill="#43455B"/>
<path d="M79.4999 65.6001H74.8999V70.2001H79.4999V65.6001Z" fill="#5B5F7F"/>
<path d="M79.4999 51.6001H74.8999V56.2001H79.4999V51.6001Z" fill="#5B5F7F"/>
<path d="M79.4999 47H74.8999V51.6H79.4999V47Z" fill="#5B5F7F"/>
<path d="M74.8 70.2002H70.2V74.8002H74.8V70.2002Z" fill="#43455B"/>
<path d="M74.8 65.6001H70.2V70.2001H74.8V65.6001Z" fill="#5B5F7F"/>
<path d="M74.8 60.9001H70.2V65.5001H74.8V60.9001Z" fill="#5B5F7F"/>
<path d="M74.8 56.3H70.2V60.9H74.8V56.3Z" fill="#43455B"/>
<path d="M74.8 51.6001H70.2V56.2001H74.8V51.6001Z" fill="#43455B"/>
<path d="M70.2001 70.2002H65.6001V74.8002H70.2001V70.2002Z" fill="#43455B"/>
<path d="M79.4999 28.5H74.8999V33.1H79.4999V28.5Z" fill="#43455B"/>
<path d="M74.8 28.5H70.2V33.1H74.8V28.5Z" fill="#43455B"/>
<path d="M65.6 19.2002H61V23.8002H65.6V19.2002Z" fill="#43455B"/>
<path d="M70.2001 33.1001H65.6001V37.7001H70.2001V33.1001Z" fill="#43455B"/>
<path d="M70.2001 28.5H65.6001V33.1H70.2001V28.5Z" fill="#43455B"/>
<path d="M70.2001 23.8H65.6001V28.4001H70.2001V23.8Z" fill="#43455B"/>
<path d="M70.2001 19.2002H65.6001V23.8002H70.2001V19.2002Z" fill="#43455B"/>
<path d="M51.7001 19.2002H47.1001V23.8002H51.7001V19.2002Z" fill="#43455B"/>
<path d="M56.3 19.2002H51.7V23.8002H56.3V19.2002Z" fill="#43455B"/>
<path d="M60.8998 19.2002H56.2998V23.8002H60.8998V19.2002Z" fill="#43455B"/>
<path d="M19.2001 23.8H14.6001V28.4001H19.2001V23.8Z" fill="#43455B"/>
<path d="M19.2001 19.2002H14.6001V23.8002H19.2001V19.2002Z" fill="#43455B"/>
<path d="M23.8998 19.2002H19.2998V23.8002H23.8998V19.2002Z" fill="#43455B"/>
<path d="M28.4999 19.2002H23.8999V23.8002H28.4999V19.2002Z" fill="#43455B"/>
<path d="M33.1 19.2002H28.5V23.8002H33.1V19.2002Z" fill="#43455B"/>
<path d="M42.3998 19.2002H37.7998V23.8002H42.3998V19.2002Z" fill="#43455B"/>
<path d="M37.7001 19.2002H33.1001V23.8002H37.7001V19.2002Z" fill="#43455B"/>
<path d="M46.9999 19.2002H42.3999V23.8002H46.9999V19.2002Z" fill="#43455B"/>
<path d="M14.6 28.5H10V33.1H14.6V28.5Z" fill="#43455B"/>
<path d="M14.6 23.8H10V28.4001H14.6V23.8Z" fill="#43455B"/>
<path d="M70.6 51.9001H66V56.5001H70.6" fill="#D17E46"/>
<path d="M70.6 47.2002H66V51.8002H70.6" fill="#D17E46"/>
<path d="M70.6 42.6001H66V47.2001H70.6" fill="#D17E46"/>
<path d="M70.6 38H66V42.6H70.6" fill="#D17E46"/>
<path d="M65.9 24H61.3V28.6H65.9" fill="#D17E46"/>
<path d="M24.2001 24H19.6001V28.6H24.2001" fill="#D17E46"/>
<path d="M65.9999 61.1001H61.3999V65.7001H65.9999" fill="#D17E46"/>
<path d="M65.9999 61.1V56.5H61.3999V61.1H65.9999Z" fill="#D17E46"/>
<path d="M65.9999 51.9001H61.3999V56.5001H65.9999V51.9001Z" fill="#EAA36E"/>
<path d="M65.9999 47.2002H61.3999V51.8002H65.9999V47.2002Z" fill="#EAA36E"/>
<path d="M65.9999 42.6001H61.3999V47.2001H65.9999V42.6001Z" fill="#EAA36E"/>
<path d="M65.9999 38H61.3999V42.6H65.9999V38Z" fill="#D17E46"/>
<path d="M65.9999 33.3H61.3999V37.9H65.9999V33.3Z" fill="#D17E46"/>
<path d="M65.9999 28.7002H61.3999V33.3002H65.9999" fill="#D17E46"/>
<path d="M61.3 70.4001H56.7V75.0001H61.3V70.4001Z" fill="#9286AD"/>
<path d="M61.3 65.8H56.7V70.4H61.3V65.8Z" fill="#736793"/>
<path d="M61.3 61.1001H56.7V65.7001H61.3V61.1001Z" fill="#D17E46"/>
<path d="M61.3 56.5H56.7V61.1H61.3V56.5Z" fill="#EAA36E"/>
<path d="M61.3 51.9001H56.7V56.5001H61.3V51.9001Z" fill="#EAA36E"/>
<path d="M61.3 47.2002H56.7V51.8002H61.3V47.2002Z" fill="#EAA36E"/>
<path d="M61.3 42.6001H56.7V47.2001H61.3V42.6001Z" fill="#EAA36E"/>
<path d="M61.3 38H56.7V42.6H61.3V38Z" fill="#21140C"/>
<path d="M61.3 33.3H56.7V37.9H61.3V33.3Z" fill="#21140C"/>
<path d="M61.3 28.7002H56.7V33.3002H61.3V28.7002Z" fill="#D17E46"/>
<path d="M56.7 24V28.6H61.3V24" fill="#D17E46"/>
<path d="M56.7001 70.4001H52.1001V75.0001H56.7001V70.4001Z" fill="#9286AD"/>
<path d="M56.7001 65.8H52.1001V70.4H56.7001V65.8Z" fill="#736793"/>
<path d="M56.7001 61.1001H52.1001V65.7001H56.7001V61.1001Z" fill="#D17E46"/>
<path d="M56.7001 56.5H52.1001V61.1H56.7001V56.5Z" fill="#EAA36E"/>
<path d="M56.7001 51.9001H52.1001V56.5001H56.7001V51.9001Z" fill="#EAA36E"/>
<path d="M56.7001 47.2002H52.1001V51.8002H56.7001V47.2002Z" fill="#EAA36E"/>
<path d="M56.7001 42.6001H52.1001V47.2001H56.7001V42.6001Z" fill="#EAA36E"/>
<path d="M56.7001 38H52.1001V42.6H56.7001V38Z" fill="#21140C"/>
<path d="M56.7001 33.3H52.1001V37.9H56.7001V33.3Z" fill="#422C1C"/>
<path d="M56.7001 28.7002H52.1001V33.3002H56.7001V28.7002Z" fill="#EAA36E"/>
<path d="M52.1001 24V28.6H56.7001V24" fill="#D17E46"/>
<path d="M52.1 70.4001H47.5V75.0001H52.1V70.4001Z" fill="#736793"/>
<path d="M52.1 65.8H47.5V70.4H52.1V65.8Z" fill="#736793"/>
<path d="M52.1 61.1001H47.5V65.7001H52.1V61.1001Z" fill="#D17E46"/>
<path d="M52.1 56.5H47.5V61.1H52.1V56.5Z" fill="#EAA36E"/>
<path d="M52.1 51.9001H47.5V56.5001H52.1V51.9001Z" fill="#EAA36E"/>
<path d="M52.1 47.2002H47.5V51.8002H52.1V47.2002Z" fill="#EAA36E"/>
<path d="M52.1 42.6001H47.5V47.2001H52.1V42.6001Z" fill="white"/>
<path d="M52.1 38H47.5V42.6H52.1V38Z" fill="#EAA36E"/>
<path d="M52.1 33.3H47.5V37.9H52.1V33.3Z" fill="#EAA36E"/>
<path d="M52.1 28.7002H47.5V33.3002H52.1V28.7002Z" fill="#EAA36E"/>
<path d="M47.5 24V28.6H52.1V24" fill="#D17E46"/>
<path d="M47.4001 70.4001H42.8V75.0001H47.4001V70.4001Z" fill="#9286AD"/>
<path d="M47.4001 65.8H42.8V70.4H47.4001V65.8Z" fill="#736793"/>
<path d="M47.4001 61.1001H42.8V65.7001H47.4001V61.1001Z" fill="#D17E46"/>
<path d="M47.4001 56.5H42.8V61.1H47.4001V56.5Z" fill="#EAA36E"/>
<path d="M47.4001 51.9001H42.8V56.5001H47.4001V51.9001Z" fill="#EAA36E"/>
<path d="M47.4001 47.2002H42.8V51.8002H47.4001V47.2002Z" fill="white"/>
<path d="M47.4001 42.6001H42.8V47.2001H47.4001V42.6001Z" fill="white"/>
<path d="M47.4001 38H42.8V42.6H47.4001V38Z" fill="#EAA36E"/>
<path d="M47.4001 33.3H42.8V37.9H47.4001V33.3Z" fill="#EAA36E"/>
<path d="M47.4001 28.7002H42.8V33.3002H47.4001V28.7002Z" fill="#EAA36E"/>
<path d="M42.8 24V28.6H47.4001V24" fill="#D17E46"/>
<path d="M42.8 70.4001H38.2V75.0001H42.8V70.4001Z" fill="#9286AD"/>
<path d="M42.8 65.8H38.2V70.4H42.8V65.8Z" fill="#736793"/>
<path d="M42.8 61.1001H38.2V65.7001H42.8V61.1001Z" fill="#D17E46"/>
<path d="M42.8 56.5H38.2V61.1H42.8V56.5Z" fill="#EAA36E"/>
<path d="M42.8 51.9001H38.2V56.5001H42.8V51.9001Z" fill="white"/>
<path d="M42.8 47.2002H38.2V51.8002H42.8V47.2002Z" fill="white"/>
<path d="M42.8 42.6001H38.2V47.2001H42.8V42.6001Z" fill="white"/>
<path d="M42.8 38H38.2V42.6H42.8V38Z" fill="#EAA36E"/>
<path d="M42.8 33.3H38.2V37.9H42.8V33.3Z" fill="#EAA36E"/>
<path d="M42.8 28.7002H38.2V33.3002H42.8V28.7002Z" fill="#EAA36E"/>
<path d="M38.2 24V28.6H42.8V24" fill="#D17E46"/>
<path d="M38.2001 70.4001H33.6001V75.0001H38.2001V70.4001Z" fill="#9286AD"/>
<path d="M38.2001 65.8H33.6001V70.4H38.2001V65.8Z" fill="#736793"/>
<path d="M38.2001 61.1001H33.6001V65.7001H38.2001V61.1001Z" fill="#D17E46"/>
<path d="M38.2001 56.5H33.6001V61.1H38.2001V56.5Z" fill="#EAA36E"/>
<path d="M38.2001 51.9001H33.6001V56.5001H38.2001V51.9001Z" fill="white"/>
<path d="M38.2001 47.2002H33.6001V51.8002H38.2001V47.2002Z" fill="white"/>
<path d="M38.2001 42.6001H33.6001V47.2001H38.2001V42.6001Z" fill="white"/>
<path d="M38.2001 38H33.6001V42.6H38.2001V38Z" fill="#EAA36E"/>
<path d="M38.2001 33.3H33.6001V37.9H38.2001V33.3Z" fill="#EAA36E"/>
<path d="M38.2001 28.7002H33.6001V33.3002H38.2001V28.7002Z" fill="#EAA36E"/>
<path d="M33.6001 24V28.6H38.2001V24" fill="#D17E46"/>
<path d="M33.4999 70.4001H28.8999V75.0001H33.4999V70.4001Z" fill="#9286AD"/>
<path d="M33.4999 65.8H28.8999V70.4H33.4999V65.8Z" fill="#736793"/>
<path d="M33.4999 61.1001H28.8999V65.7001H33.4999V61.1001Z" fill="#D17E46"/>
<path d="M33.4999 56.5H28.8999V61.1H33.4999V56.5Z" fill="#EAA36E"/>
<path d="M33.4999 51.9001H28.8999V56.5001H33.4999V51.9001Z" fill="#EAA36E"/>
<path d="M33.4999 47.2002H28.8999V51.8002H33.4999V47.2002Z" fill="white"/>
<path d="M33.4999 42.6001H28.8999V47.2001H33.4999V42.6001Z" fill="white"/>
<path d="M33.4999 38H28.8999V42.6H33.4999V38Z" fill="#EAA36E"/>
<path d="M33.4999 33.3H28.8999V37.9H33.4999V33.3Z" fill="#EAA36E"/>
<path d="M33.4999 28.7002H28.8999V33.3002H33.4999V28.7002Z" fill="#EAA36E"/>
<path d="M28.8999 24V28.6H33.4999V24" fill="#D17E46"/>
<path d="M28.9001 70.4001H24.3V75.0001H28.9001V70.4001Z" fill="#9286AD"/>
<path d="M28.9001 65.8H24.3V70.4H28.9001V65.8Z" fill="#736793"/>
<path d="M28.9001 61.1001H24.3V65.7001H28.9001V61.1001Z" fill="#D17E46"/>
<path d="M28.9001 56.5H24.3V61.1H28.9001V56.5Z" fill="#EAA36E"/>
<path d="M28.9001 51.9001H24.3V56.5001H28.9001V51.9001Z" fill="#EAA36E"/>
<path d="M28.9001 47.2002H24.3V51.8002H28.9001V47.2002Z" fill="#EAA36E"/>
<path d="M28.9001 42.6001H24.3V47.2001H28.9001V42.6001Z" fill="white"/>
<path d="M28.9001 38H24.3V42.6H28.9001V38Z" fill="#EAA36E"/>
<path d="M28.9001 33.3H24.3V37.9H28.9001V33.3Z" fill="#EAA36E"/>
<path d="M28.9001 28.7002H24.3V33.3002H28.9001V28.7002Z" fill="#EAA36E"/>
<path d="M24.3 24V28.6H28.9001V24" fill="#D17E46"/>
<path d="M24.2001 70.4001H19.6001V75.0001H24.2001V70.4001Z" fill="#736793"/>
<path d="M24.2001 65.8H19.6001V70.4H24.2001V65.8Z" fill="#736793"/>
<path d="M24.2001 61.1001H19.6001V65.7001H24.2001V61.1001Z" fill="#D17E46"/>
<path d="M24.2001 56.5H19.6001V61.1H24.2001V56.5Z" fill="#EAA36E"/>
<path d="M24.2001 51.9001H19.6001V56.5001H24.2001V51.9001Z" fill="#EAA36E"/>
<path d="M24.2001 47.2002H19.6001V51.8002H24.2001V47.2002Z" fill="#EAA36E"/>
<path d="M24.2001 42.6001H19.6001V47.2001H24.2001V42.6001Z" fill="#EAA36E"/>
<path d="M24.2001 38H19.6001V42.6H24.2001V38Z" fill="#21140C"/>
<path d="M24.2001 33.3H19.6001V37.9H24.2001V33.3Z" fill="#21140C"/>
<path d="M19.6001 28.7002V33.3002H24.2001V28.7002H19.6001Z" fill="#D17E46"/>
<path d="M15 75.0001H19.6V70.4001H15" fill="#9286AD"/>
<path d="M15 70.4H19.6V65.8H15" fill="#736793"/>
<path d="M15 65.7001H19.6V61.1001H15" fill="#D17E46"/>
<path d="M15 61.1H19.6V56.5H15V61.1Z" fill="#EAA36E"/>
<path d="M19.6 51.9001H15V56.5001H19.6V51.9001Z" fill="#EAA36E"/>
<path d="M19.6 47.2002H15V51.8002H19.6V47.2002Z" fill="#EAA36E"/>
<path d="M19.6 42.6001H15V47.2001H19.6V42.6001Z" fill="#EAA36E"/>
<path d="M19.6 38H15V42.6H19.6V38Z" fill="#21140C"/>
<path d="M19.6 33.3H15V37.9H19.6V33.3Z" fill="#422C1C"/>
<path d="M15 28.7002V33.3002H19.6V28.7002" fill="#D17E46"/>
<path d="M14.9999 61.1V56.5H10.3999V61.1" fill="#D17E46"/>
<path d="M14.9999 51.9001H10.3999V56.5001H14.9999V51.9001Z" fill="#D17E46"/>
<path d="M14.9999 47.2002H10.3999V51.8002H14.9999V47.2002Z" fill="#D17E46"/>
<path d="M10.3999 42.6001V47.2001H14.9999V42.6001H10.3999Z" fill="#D17E46"/>
<path d="M10.3999 42.6H14.9999V38H10.3999" fill="#D17E46"/>
<path d="M10.3999 37.9H14.9999V33.3H10.3999" fill="#D17E46"/>
<path d="M79.6 42H75V46.6H79.6V42Z" fill="#D17E46"/>
<path d="M79.6 37.4001H75V42.0001H79.6V37.4001Z" fill="#D17E46"/>
<path d="M79.6 32.7002H75V37.3002H79.6V32.7002Z" fill="#D17E46"/>
<path d="M74.9999 42H70.3999V46.6H74.9999V42Z" fill="#D17E46"/>
<path d="M74.9999 37.4001H70.3999V42.0001H74.9999V37.4001Z" fill="#EAA36E"/>
<path d="M74.9999 32.7002H70.3999V37.3002H74.9999V32.7002Z" fill="#EAA36E"/>
<path d="M70.3 55.9001H65.7V60.5001H70.3V55.9001Z" fill="#D17E46"/>
<path d="M70.3 51.3H65.7V55.9H70.3V51.3Z" fill="#D17E46"/>
<path d="M70.3 46.6001H65.7V51.2001H70.3V46.6001Z" fill="#D17E46"/>
<path d="M70.3 42H65.7V46.6H70.3V42Z" fill="#D17E46"/>
</svg>
