<svg width="76" height="117" viewBox="0 0 76 117" fill="none" xmlns="http://www.w3.org/2000/svg">
<path d="M65.8 93.0999H61.2V97.6999H65.8V93.0999Z" fill="#EAA36E"/>
<path d="M65.8 88.5H61.2V93.1H65.8V88.5Z" fill="#D17E46"/>
<path d="M65.8 83.7998H61.2V88.3998H65.8V83.7998Z" fill="#A6D1C9"/>
<path d="M65.8 79.2H61.2V83.7999H65.8V79.2Z" fill="#A6D1C9"/>
<path d="M65.8 74.5999H61.2V79.1999H65.8V74.5999Z" fill="#79AFA5"/>
<path d="M61.1998 111.7H56.5999V116.3H61.1998V111.7Z" fill="#2D2824"/>
<path d="M61.1998 107H56.5999V111.6H61.1998V107Z" fill="#69707C"/>
<path d="M61.1998 102.4H56.5999V107H61.1998V102.4Z" fill="#4C515B"/>
<path d="M61.1998 97.7998H56.5999V102.4H61.1998V97.7998Z" fill="#4C515B"/>
<path d="M61.1998 93.0999H56.5999V97.6999H61.1998V93.0999Z" fill="#EAA36E"/>
<path d="M61.1998 88.5H56.5999V93.1H61.1998V88.5Z" fill="#D17E46"/>
<path d="M61.1998 83.7998H56.5999V88.3998H61.1998V83.7998Z" fill="#A6D1C9"/>
<path d="M61.1998 79.2H56.5999V83.7999H61.1998V79.2Z" fill="#A6D1C9"/>
<path d="M61.1998 74.5999H56.5999V79.1999H61.1998V74.5999Z" fill="#79AFA5"/>
<path d="M56.4999 111.7H51.8999V116.3H56.4999V111.7Z" fill="#2D2824"/>
<path d="M56.4999 107H51.8999V111.6H56.4999V107Z" fill="#69707C"/>
<path d="M56.4999 102.4H51.8999V107H56.4999V102.4Z" fill="#4C515B"/>
<path d="M56.4999 97.7998H51.8999V102.4H56.4999V97.7998Z" fill="#4C515B"/>
<path d="M56.4999 93.0999H51.8999V97.6999H56.4999V93.0999Z" fill="#4C515B"/>
<path d="M56.4999 88.5H51.8999V93.1H56.4999V88.5Z" fill="#79AFA5"/>
<path d="M56.4999 83.7998H51.8999V88.3998H56.4999V83.7998Z" fill="#79AFA5"/>
<path d="M56.4999 79.2H51.8999V83.7999H56.4999V79.2Z" fill="#79AFA5"/>
<path d="M56.4999 74.5999H51.8999V79.1999H56.4999V74.5999Z" fill="#79AFA5"/>
<path d="M51.8998 93.0999H47.2998V97.6999H51.8998V93.0999Z" fill="#4C515B"/>
<path d="M51.8998 88.5H47.2998V93.1H51.8998V88.5Z" fill="#A6D1C9"/>
<path d="M51.8998 83.7998H47.2998V88.3998H51.8998V83.7998Z" fill="#A6D1C9"/>
<path d="M51.8998 79.2H47.2998V83.7999H51.8998V79.2Z" fill="#A6D1C9"/>
<path d="M51.8998 74.5999H47.2998V79.1999H51.8998V74.5999Z" fill="#79AFA5"/>
<path d="M47.3 93.0999H42.7V97.6999H47.3V93.0999Z" fill="#4C515B"/>
<path d="M47.3 88.5H42.7V93.1H47.3V88.5Z" fill="#A6D1C9"/>
<path d="M47.3 83.7998H42.7V88.3998H47.3V83.7998Z" fill="#A6D1C9"/>
<path d="M47.3 79.2H42.7V83.7999H47.3V79.2Z" fill="#A6D1C9"/>
<path d="M47.3 74.5999H42.7V79.1999H47.3V74.5999Z" fill="#79AFA5"/>
<path d="M42.6 93.0999H38V97.6999H42.6V93.0999Z" fill="#4C515B"/>
<path d="M42.6 88.5H38V93.1H42.6V88.5Z" fill="#A6D1C9"/>
<path d="M42.6 83.7998H38V88.3998H42.6V83.7998Z" fill="#A6D1C9"/>
<path d="M42.6 79.2H38V83.7999H42.6V79.2Z" fill="#A6D1C9"/>
<path d="M42.6 74.5999H38V79.1999H42.6V74.5999Z" fill="#79AFA5"/>
<path d="M37.9999 93.0999H33.3999V97.6999H37.9999V93.0999Z" fill="#4C515B"/>
<path d="M37.9999 88.5H33.3999V93.1H37.9999V88.5Z" fill="#A6D1C9"/>
<path d="M37.9999 83.7998H33.3999V88.3998H37.9999V83.7998Z" fill="#A6D1C9"/>
<path d="M37.9999 79.2H33.3999V83.7999H37.9999V79.2Z" fill="#A6D1C9"/>
<path d="M37.9999 74.5999H33.3999V79.1999H37.9999V74.5999Z" fill="#79AFA5"/>
<path d="M33.3998 111.7H28.7998V116.3H33.3998V111.7Z" fill="#2D2824"/>
<path d="M33.3998 107H28.7998V111.6H33.3998V107Z" fill="#69707C"/>
<path d="M33.3998 102.4H28.7998V107H33.3998V102.4Z" fill="#4C515B"/>
<path d="M33.3998 97.7998H28.7998V102.4H33.3998V97.7998Z" fill="#4C515B"/>
<path d="M33.3998 93.0999H28.7998V97.6999H33.3998V93.0999Z" fill="#4C515B"/>
<path d="M33.3998 88.5H28.7998V93.1H33.3998V88.5Z" fill="#A6D1C9"/>
<path d="M33.3998 83.7998H28.7998V88.3998H33.3998V83.7998Z" fill="#A6D1C9"/>
<path d="M33.3998 79.2H28.7998V83.7999H33.3998V79.2Z" fill="#A6D1C9"/>
<path d="M33.3998 74.5999H28.7998V79.1999H33.3998V74.5999Z" fill="#79AFA5"/>
<path d="M28.6998 111.7H24.0999V116.3H28.6998V111.7Z" fill="#2D2824"/>
<path d="M28.6998 107H24.0999V111.6H28.6998V107Z" fill="#69707C"/>
<path d="M28.6998 102.4H24.0999V107H28.6998V102.4Z" fill="#4C515B"/>
<path d="M28.6998 97.7998H24.0999V102.4H28.6998V97.7998Z" fill="#4C515B"/>
<path d="M28.6998 93.0999H24.0999V97.6999H28.6998V93.0999Z" fill="#4C515B"/>
<path d="M28.6998 88.5H24.0999V93.1H28.6998V88.5Z" fill="#A6D1C9"/>
<path d="M28.6998 83.7998H24.0999V88.3998H28.6998V83.7998Z" fill="#79AFA5"/>
<path d="M28.6998 79.2H24.0999V83.7999H28.6998V79.2Z" fill="#79AFA5"/>
<path d="M28.6998 74.5999H24.0999V79.1999H28.6998V74.5999Z" fill="#79AFA5"/>
<path d="M24.1 93.0999H19.5V97.6999H24.1V93.0999Z" fill="#EAA36E"/>
<path d="M24.1 88.5H19.5V93.1H24.1V88.5Z" fill="#D17E46"/>
<path d="M24.1 83.7998H19.5V88.3998H24.1V83.7998Z" fill="#A6D1C9"/>
<path d="M24.1 79.2H19.5V83.7999H24.1V79.2Z" fill="#A6D1C9"/>
<path d="M24.1 74.5999H19.5V79.1999H24.1V74.5999Z" fill="#79AFA5"/>
<path d="M75.1 56H70.5V60.6H75.1V56Z" fill="#D17E46"/>
<path d="M75.1 51.3999H70.5V55.9999H75.1V51.3999Z" fill="#D17E46"/>
<path d="M75.1 46.7998H70.5V51.3998H75.1V46.7998Z" fill="#D17E46"/>
<path d="M75.1 42.0999H70.5V46.6999H75.1V42.0999Z" fill="#776F5F"/>
<path d="M75.1 37.5H70.5V42.1H75.1V37.5Z" fill="#776F5F"/>
<path d="M75.1 32.7998H70.5V37.3998H75.1V32.7998Z" fill="#776F5F"/>
<path d="M75.1 28.2H70.5V32.7999H75.1V28.2Z" fill="#93846A"/>
<path d="M75.1 23.5999H70.5V28.1999H75.1V23.5999Z" fill="#93846A"/>
<path d="M75.1 18.8999H70.5V23.4999H75.1V18.8999Z" fill="#93846A"/>
<path d="M75.1 14.2998H70.5V18.8998H75.1V14.2998Z" fill="#C1A884"/>
<path d="M70.3998 65.2998H65.7998V69.8998H70.3998V65.2998Z" fill="#D17E46"/>
<path d="M70.3998 60.7H65.7998V65.2999H70.3998V60.7Z" fill="#D17E46"/>
<path d="M70.3998 56H65.7998V60.6H70.3998V56Z" fill="#D17E46"/>
<path d="M70.3998 51.3999H65.7998V55.9999H70.3998V51.3999Z" fill="#D17E46"/>
<path d="M70.3998 46.7998H65.7998V51.3998H70.3998V46.7998Z" fill="#D17E46"/>
<path d="M70.3998 42.0999H65.7998V46.6999H70.3998V42.0999Z" fill="#776F5F"/>
<path d="M70.3998 37.5H65.7998V42.1H70.3998V37.5Z" fill="#776F5F"/>
<path d="M70.3998 32.7998H65.7998V37.3998H70.3998V32.7998Z" fill="#776F5F"/>
<path d="M70.3998 28.2H65.7998V32.7999H70.3998V28.2Z" fill="#776F5F"/>
<path d="M70.3998 23.5999H65.7998V28.1999H70.3998V23.5999Z" fill="#93846A"/>
<path d="M70.3998 18.8999H65.7998V23.4999H70.3998V18.8999Z" fill="#93846A"/>
<path d="M70.3998 14.2998H65.7998V18.8998H70.3998V14.2998Z" fill="#93846A"/>
<path d="M70.3998 9.69995H65.7998V14.2999H70.3998V9.69995Z" fill="#C1A884"/>
<path d="M65.8 69.8999H61.2V74.4999H65.8V69.8999Z" fill="#D17E46"/>
<path d="M65.8 65.2998H61.2V69.8998H65.8V65.2998Z" fill="#D17E46"/>
<path d="M65.8 60.7H61.2V65.2999H65.8V60.7Z" fill="#D17E46"/>
<path d="M65.8 56H61.2V60.6H65.8V56Z" fill="#EAA36E"/>
<path d="M65.8 51.3999H61.2V55.9999H65.8V51.3999Z" fill="#EAA36E"/>
<path d="M65.8 46.7998H61.2V51.3998H65.8V46.7998Z" fill="#D17E46"/>
<path d="M65.8 42.0999H61.2V46.6999H65.8V42.0999Z" fill="#D17E46"/>
<path d="M65.8 37.5H61.2V42.1H65.8V37.5Z" fill="#D17E46"/>
<path d="M65.8 32.7998H61.2V37.3998H65.8V32.7998Z" fill="#D17E46"/>
<path d="M65.8 28.2H61.2V32.7999H65.8V28.2Z" fill="#776F5F"/>
<path d="M65.8 23.5999H61.2V28.1999H65.8V23.5999Z" fill="#776F5F"/>
<path d="M65.8 18.8999H61.2V23.4999H65.8V18.8999Z" fill="#93846A"/>
<path d="M65.8 14.2998H61.2V18.8998H65.8V14.2998Z" fill="#93846A"/>
<path d="M65.8 9.69995H61.2V14.2999H65.8V9.69995Z" fill="#93846A"/>
<path d="M65.8 5H61.2V9.60001H65.8V5Z" fill="#C1A884"/>
<path d="M61.1998 69.8999H56.5999V74.4999H61.1998V69.8999Z" fill="#D17E46"/>
<path d="M61.1998 65.2998H56.5999V69.8998H61.1998V65.2998Z" fill="#EAA36E"/>
<path d="M61.1998 60.7H56.5999V65.2999H61.1998V60.7Z" fill="#EAA36E"/>
<path d="M61.1998 56H56.5999V60.6H61.1998V56Z" fill="#EAA36E"/>
<path d="M61.1998 51.3999H56.5999V55.9999H61.1998V51.3999Z" fill="#EAA36E"/>
<path d="M61.1998 46.7998H56.5999V51.3998H61.1998V46.7998Z" fill="#D17E46"/>
<path d="M61.1998 42.0999H56.5999V46.6999H61.1998V42.0999Z" fill="#D17E46"/>
<path d="M61.1998 37.5H56.5999V42.1H61.1998V37.5Z" fill="#D17E46"/>
<path d="M61.1998 32.7998H56.5999V37.3998H61.1998V32.7998Z" fill="#D17E46"/>
<path d="M61.1998 28.2H56.5999V32.7999H61.1998V28.2Z" fill="#776F5F"/>
<path d="M61.1998 23.5999H56.5999V28.1999H61.1998V23.5999Z" fill="#776F5F"/>
<path d="M61.1998 18.8999H56.5999V23.4999H61.1998V18.8999Z" fill="#93846A"/>
<path d="M61.1998 14.2998H56.5999V18.8998H61.1998V14.2998Z" fill="#93846A"/>
<path d="M61.1998 9.69995H56.5999V14.2999H61.1998V9.69995Z" fill="#93846A"/>
<path d="M61.1998 5H56.5999V9.60001H61.1998V5Z" fill="#C1A884"/>
<path d="M56.4999 69.8999H51.8999V74.4999H56.4999V69.8999Z" fill="#D17E46"/>
<path d="M56.4999 65.2998H51.8999V69.8998H56.4999V65.2998Z" fill="#EAA36E"/>
<path d="M56.4999 60.7H51.8999V65.2999H56.4999V60.7Z" fill="#EAA36E"/>
<path d="M56.4999 56H51.8999V60.6H56.4999V56Z" fill="#EAA36E"/>
<path d="M56.4999 51.3999H51.8999V55.9999H56.4999V51.3999Z" fill="#EAA36E"/>
<path d="M56.4999 46.7998H51.8999V51.3998H56.4999V46.7998Z" fill="#21140C"/>
<path d="M56.4999 42.0999H51.8999V46.6999H56.4999V42.0999Z" fill="#21140C"/>
<path d="M56.4999 37.5H51.8999V42.1H56.4999V37.5Z" fill="#EAA36E"/>
<path d="M56.4999 32.7998H51.8999V37.3998H56.4999V32.7998Z" fill="#D17E46"/>
<path d="M56.4999 28.2H51.8999V32.7999H56.4999V28.2Z" fill="#D17E46"/>
<path d="M56.4999 23.5999H51.8999V28.1999H56.4999V23.5999Z" fill="#776F5F"/>
<path d="M56.4999 18.8999H51.8999V23.4999H56.4999V18.8999Z" fill="#93846A"/>
<path d="M56.4999 14.2998H51.8999V18.8998H56.4999V14.2998Z" fill="#93846A"/>
<path d="M56.4999 9.69995H51.8999V14.2999H56.4999V9.69995Z" fill="#93846A"/>
<path d="M56.4999 5H51.8999V9.60001H56.4999V5Z" fill="#C1A884"/>
<path d="M51.8998 69.8999H47.2998V74.4999H51.8998V69.8999Z" fill="#D17E46"/>
<path d="M51.8998 65.2998H47.2998V69.8998H51.8998V65.2998Z" fill="#EAA36E"/>
<path d="M51.8998 60.7H47.2998V65.2999H51.8998V60.7Z" fill="#EAA36E"/>
<path d="M51.8998 56H47.2998V60.6H51.8998V56Z" fill="#EAA36E"/>
<path d="M51.8998 51.3999H47.2998V55.9999H51.8998V51.3999Z" fill="#EAA36E"/>
<path d="M51.8998 46.7998H47.2998V51.3998H51.8998V46.7998Z" fill="#21140C"/>
<path d="M51.8998 42.0999H47.2998V46.6999H51.8998V42.0999Z" fill="#422C1C"/>
<path d="M51.8998 37.5H47.2998V42.1H51.8998V37.5Z" fill="#EAA36E"/>
<path d="M51.8998 32.7998H47.2998V37.3998H51.8998V32.7998Z" fill="#EAA36E"/>
<path d="M51.8998 28.2H47.2998V32.7999H51.8998V28.2Z" fill="#D17E46"/>
<path d="M51.8998 23.5999H47.2998V28.1999H51.8998V23.5999Z" fill="#776F5F"/>
<path d="M51.8998 18.8999H47.2998V23.4999H51.8998V18.8999Z" fill="#93846A"/>
<path d="M51.8998 14.2998H47.2998V18.8998H51.8998V14.2998Z" fill="#93846A"/>
<path d="M51.8998 9.69995H47.2998V14.2999H51.8998V9.69995Z" fill="#93846A"/>
<path d="M51.8998 5H47.2998V9.60001H51.8998V5Z" fill="#93846A"/>
<path d="M51.8998 0.399902H47.2998V4.99991H51.8998V0.399902Z" fill="#C1A884"/>
<path d="M47.3 69.8999H42.7V74.4999H47.3V69.8999Z" fill="#D17E46"/>
<path d="M47.3 65.2998H42.7V69.8998H47.3V65.2998Z" fill="#EAA36E"/>
<path d="M47.3 60.7H42.7V65.2999H47.3V60.7Z" fill="#EAA36E"/>
<path d="M47.3 56H42.7V60.6H47.3V56Z" fill="#EAA36E"/>
<path d="M47.3 51.3999H42.7V55.9999H47.3V51.3999Z" fill="white"/>
<path d="M47.3 46.7998H42.7V51.3998H47.3V46.7998Z" fill="#EAA36E"/>
<path d="M47.3 42.0999H42.7V46.6999H47.3V42.0999Z" fill="#EAA36E"/>
<path d="M47.3 37.5H42.7V42.1H47.3V37.5Z" fill="#EAA36E"/>
<path d="M47.3 32.7998H42.7V37.3998H47.3V32.7998Z" fill="#EAA36E"/>
<path d="M47.3 28.2H42.7V32.7999H47.3V28.2Z" fill="#D17E46"/>
<path d="M47.3 23.5999H42.7V28.1999H47.3V23.5999Z" fill="#776F5F"/>
<path d="M47.3 18.8999H42.7V23.4999H47.3V18.8999Z" fill="#776F5F"/>
<path d="M47.3 14.2998H42.7V18.8998H47.3V14.2998Z" fill="#93846A"/>
<path d="M47.3 9.69995H42.7V14.2999H47.3V9.69995Z" fill="#93846A"/>
<path d="M47.3 5H42.7V9.60001H47.3V5Z" fill="#93846A"/>
<path d="M47.3 0.399902H42.7V4.99991H47.3V0.399902Z" fill="#C1A884"/>
<path d="M42.6 69.8999H38V74.4999H42.6V69.8999Z" fill="#D17E46"/>
<path d="M42.6 65.2998H38V69.8998H42.6V65.2998Z" fill="#EAA36E"/>
<path d="M42.6 60.7H38V65.2999H42.6V60.7Z" fill="#EAA36E"/>
<path d="M42.6 56H38V60.6H42.6V56Z" fill="white"/>
<path d="M42.6 51.3999H38V55.9999H42.6V51.3999Z" fill="white"/>
<path d="M42.6 46.7998H38V51.3998H42.6V46.7998Z" fill="#EAA36E"/>
<path d="M42.6 42.0999H38V46.6999H42.6V42.0999Z" fill="#EAA36E"/>
<path d="M42.6 37.5H38V42.1H42.6V37.5Z" fill="#EAA36E"/>
<path d="M42.6 32.7998H38V37.3998H42.6V32.7998Z" fill="#EAA36E"/>
<path d="M42.6 28.2H38V32.7999H42.6V28.2Z" fill="#D17E46"/>
<path d="M42.6 23.5999H38V28.1999H42.6V23.5999Z" fill="#776F5F"/>
<path d="M42.6 18.8999H38V23.4999H42.6V18.8999Z" fill="#776F5F"/>
<path d="M42.6 14.2998H38V18.8998H42.6V14.2998Z" fill="#93846A"/>
<path d="M42.6 9.69995H38V14.2999H42.6V9.69995Z" fill="#93846A"/>
<path d="M42.6 5H38V9.60001H42.6V5Z" fill="#93846A"/>
<path d="M42.6 0.399902H38V4.99991H42.6V0.399902Z" fill="#C1A884"/>
<path d="M37.9999 69.8999H33.3999V74.4999H37.9999V69.8999Z" fill="#D17E46"/>
<path d="M37.9999 65.2998H33.3999V69.8998H37.9999V65.2998Z" fill="#EAA36E"/>
<path d="M37.9999 60.7H33.3999V65.2999H37.9999V60.7Z" fill="white"/>
<path d="M37.9999 56H33.3999V60.6H37.9999V56Z" fill="white"/>
<path d="M37.9999 51.3999H33.3999V55.9999H37.9999V51.3999Z" fill="white"/>
<path d="M37.9999 46.7998H33.3999V51.3998H37.9999V46.7998Z" fill="#EAA36E"/>
<path d="M37.9999 42.0999H33.3999V46.6999H37.9999V42.0999Z" fill="#EAA36E"/>
<path d="M37.9999 37.5H33.3999V42.1H37.9999V37.5Z" fill="#EAA36E"/>
<path d="M37.9999 32.7998H33.3999V37.3998H37.9999V32.7998Z" fill="#EAA36E"/>
<path d="M37.9999 28.2H33.3999V32.7999H37.9999V28.2Z" fill="#D17E46"/>
<path d="M37.9999 23.5999H33.3999V28.1999H37.9999V23.5999Z" fill="#776F5F"/>
<path d="M37.9999 18.8999H33.3999V23.4999H37.9999V18.8999Z" fill="#776F5F"/>
<path d="M37.9999 14.2998H33.3999V18.8998H37.9999V14.2998Z" fill="#93846A"/>
<path d="M37.9999 9.69995H33.3999V14.2999H37.9999V9.69995Z" fill="#93846A"/>
<path d="M37.9999 5H33.3999V9.60001H37.9999V5Z" fill="#93846A"/>
<path d="M37.9999 0.399902H33.3999V4.99991H37.9999V0.399902Z" fill="#C1A884"/>
<path d="M33.3998 69.8999H28.7998V74.4999H33.3998V69.8999Z" fill="#D17E46"/>
<path d="M33.3998 65.2998H28.7998V69.8998H33.3998V65.2998Z" fill="#EAA36E"/>
<path d="M33.3998 60.7H28.7998V65.2999H33.3998V60.7Z" fill="white"/>
<path d="M33.3998 56H28.7998V60.6H33.3998V56Z" fill="white"/>
<path d="M33.3998 51.3999H28.7998V55.9999H33.3998V51.3999Z" fill="white"/>
<path d="M33.3998 46.7998H28.7998V51.3998H33.3998V46.7998Z" fill="#EAA36E"/>
<path d="M33.3998 42.0999H28.7998V46.6999H33.3998V42.0999Z" fill="#EAA36E"/>
<path d="M33.3998 37.5H28.7998V42.1H33.3998V37.5Z" fill="#EAA36E"/>
<path d="M33.3998 32.7998H28.7998V37.3998H33.3998V32.7998Z" fill="#EAA36E"/>
<path d="M33.3998 28.2H28.7998V32.7999H33.3998V28.2Z" fill="#D17E46"/>
<path d="M33.3998 23.5999H28.7998V28.1999H33.3998V23.5999Z" fill="#776F5F"/>
<path d="M33.3998 18.8999H28.7998V23.4999H33.3998V18.8999Z" fill="#776F5F"/>
<path d="M33.3998 14.2998H28.7998V18.8998H33.3998V14.2998Z" fill="#93846A"/>
<path d="M33.3998 9.69995H28.7998V14.2999H33.3998V9.69995Z" fill="#93846A"/>
<path d="M33.3998 5H28.7998V9.60001H33.3998V5Z" fill="#93846A"/>
<path d="M33.3998 0.399902H28.7998V4.99991H33.3998V0.399902Z" fill="#C1A884"/>
<path d="M28.6998 69.8999H24.0999V74.4999H28.6998V69.8999Z" fill="#D17E46"/>
<path d="M28.6998 65.2998H24.0999V69.8998H28.6998V65.2998Z" fill="#EAA36E"/>
<path d="M28.6998 60.7H24.0999V65.2999H28.6998V60.7Z" fill="#EAA36E"/>
<path d="M28.6998 56H24.0999V60.6H28.6998V56Z" fill="white"/>
<path d="M28.6998 51.3999H24.0999V55.9999H28.6998V51.3999Z" fill="white"/>
<path d="M28.6998 46.7998H24.0999V51.3998H28.6998V46.7998Z" fill="#EAA36E"/>
<path d="M28.6998 42.0999H24.0999V46.6999H28.6998V42.0999Z" fill="#EAA36E"/>
<path d="M28.6998 37.5H24.0999V42.1H28.6998V37.5Z" fill="#EAA36E"/>
<path d="M28.6998 32.7998H24.0999V37.3998H28.6998V32.7998Z" fill="#EAA36E"/>
<path d="M28.6998 28.2H24.0999V32.7999H28.6998V28.2Z" fill="#D17E46"/>
<path d="M28.6998 23.5999H24.0999V28.1999H28.6998V23.5999Z" fill="#776F5F"/>
<path d="M28.6998 18.8999H24.0999V23.4999H28.6998V18.8999Z" fill="#776F5F"/>
<path d="M28.6998 14.2998H24.0999V18.8998H28.6998V14.2998Z" fill="#93846A"/>
<path d="M28.6998 9.69995H24.0999V14.2999H28.6998V9.69995Z" fill="#93846A"/>
<path d="M28.6998 5H24.0999V9.60001H28.6998V5Z" fill="#93846A"/>
<path d="M28.6998 0.399902H24.0999V4.99991H28.6998V0.399902Z" fill="#C1A884"/>
<path d="M24.1 69.8999H19.5V74.4999H24.1V69.8999Z" fill="#D17E46"/>
<path d="M24.1 65.2998H19.5V69.8998H24.1V65.2998Z" fill="#EAA36E"/>
<path d="M24.1 60.7H19.5V65.2999H24.1V60.7Z" fill="#EAA36E"/>
<path d="M24.1 56H19.5V60.6H24.1V56Z" fill="#EAA36E"/>
<path d="M24.1 51.3999H19.5V55.9999H24.1V51.3999Z" fill="white"/>
<path d="M24.1 46.7998H19.5V51.3998H24.1V46.7998Z" fill="#EAA36E"/>
<path d="M24.1 42.0999H19.5V46.6999H24.1V42.0999Z" fill="#EAA36E"/>
<path d="M24.1 37.5H19.5V42.1H24.1V37.5Z" fill="#EAA36E"/>
<path d="M24.1 32.7998H19.5V37.3998H24.1V32.7998Z" fill="#EAA36E"/>
<path d="M24.1 28.2H19.5V32.7999H24.1V28.2Z" fill="#D17E46"/>
<path d="M24.1 23.5999H19.5V28.1999H24.1V23.5999Z" fill="#776F5F"/>
<path d="M24.1 18.8999H19.5V23.4999H24.1V18.8999Z" fill="#776F5F"/>
<path d="M24.1 14.2998H19.5V18.8998H24.1V14.2998Z" fill="#93846A"/>
<path d="M24.1 9.69995H19.5V14.2999H24.1V9.69995Z" fill="#93846A"/>
<path d="M24.1 5H19.5V9.60001H24.1V5Z" fill="#93846A"/>
<path d="M24.1 0.399902H19.5V4.99991H24.1V0.399902Z" fill="#C1A884"/>
<path d="M19.4999 69.8999H14.8999V74.4999H19.4999V69.8999Z" fill="#D17E46"/>
<path d="M19.4999 65.2998H14.8999V69.8998H19.4999V65.2998Z" fill="#EAA36E"/>
<path d="M19.4999 60.7H14.8999V65.2999H19.4999V60.7Z" fill="#EAA36E"/>
<path d="M19.4999 56H14.8999V60.6H19.4999V56Z" fill="#EAA36E"/>
<path d="M19.4999 51.3999H14.8999V55.9999H19.4999V51.3999Z" fill="#EAA36E"/>
<path d="M19.4999 46.7998H14.8999V51.3998H19.4999V46.7998Z" fill="#21140C"/>
<path d="M19.4999 42.0999H14.8999V46.6999H19.4999V42.0999Z" fill="#21140C"/>
<path d="M19.4999 37.5H14.8999V42.1H19.4999V37.5Z" fill="#EAA36E"/>
<path d="M19.4999 32.7998H14.8999V37.3998H19.4999V32.7998Z" fill="#EAA36E"/>
<path d="M19.4999 28.2H14.8999V32.7999H19.4999V28.2Z" fill="#D17E46"/>
<path d="M19.4999 23.5999H14.8999V28.1999H19.4999V23.5999Z" fill="#776F5F"/>
<path d="M19.4999 18.8999H14.8999V23.4999H19.4999V18.8999Z" fill="#776F5F"/>
<path d="M19.4999 14.2998H14.8999V18.8998H19.4999V14.2998Z" fill="#93846A"/>
<path d="M19.4999 9.69995H14.8999V14.2999H19.4999V9.69995Z" fill="#93846A"/>
<path d="M19.4999 5H14.8999V9.60001H19.4999V5Z" fill="#93846A"/>
<path d="M19.4999 0.399902H14.8999V4.99991H19.4999V0.399902Z" fill="#C1A884"/>
<path d="M14.8 69.8999H10.2V74.4999H14.8V69.8999Z" fill="#D17E46"/>
<path d="M14.8 65.2998H10.2V69.8998H14.8V65.2998Z" fill="#EAA36E"/>
<path d="M14.8 60.7H10.2V65.2999H14.8V60.7Z" fill="#EAA36E"/>
<path d="M14.8 56H10.2V60.6H14.8V56Z" fill="#EAA36E"/>
<path d="M14.8 51.3999H10.2V55.9999H14.8V51.3999Z" fill="#EAA36E"/>
<path d="M14.8 46.7998H10.2V51.3998H14.8V46.7998Z" fill="#21140C"/>
<path d="M14.8 42.0999H10.2V46.6999H14.8V42.0999Z" fill="#422C1C"/>
<path d="M14.8 37.5H10.2V42.1H14.8V37.5Z" fill="#EAA36E"/>
<path d="M14.8 32.7998H10.2V37.3998H14.8V32.7998Z" fill="#EAA36E"/>
<path d="M14.8 28.2H10.2V32.7999H14.8V28.2Z" fill="#D17E46"/>
<path d="M14.8 23.5999H10.2V28.1999H14.8V23.5999Z" fill="#776F5F"/>
<path d="M14.8 18.8999H10.2V23.4999H14.8V18.8999Z" fill="#776F5F"/>
<path d="M14.8 14.2998H10.2V18.8998H14.8V14.2998Z" fill="#93846A"/>
<path d="M14.8 9.69995H10.2V14.2999H14.8V9.69995Z" fill="#93846A"/>
<path d="M14.8 5H10.2V9.60001H14.8V5Z" fill="#93846A"/>
<path d="M14.8 0.399902H10.2V4.99991H14.8V0.399902Z" fill="#C1A884"/>
<path d="M10.1998 65.2998H5.59985V69.8998H10.1998V65.2998Z" fill="#D17E46"/>
<path d="M10.1998 60.7H5.59985V65.2999H10.1998V60.7Z" fill="#EAA36E"/>
<path d="M10.1998 56H5.59985V60.6H10.1998V56Z" fill="#EAA36E"/>
<path d="M10.1998 51.3999H5.59985V55.9999H10.1998V51.3999Z" fill="#EAA36E"/>
<path d="M10.1998 46.7998H5.59985V51.3998H10.1998V46.7998Z" fill="#EAA36E"/>
<path d="M10.1998 42.0999H5.59985V46.6999H10.1998V42.0999Z" fill="#EAA36E"/>
<path d="M10.1998 37.5H5.59985V42.1H10.1998V37.5Z" fill="#EAA36E"/>
<path d="M10.1998 32.7998H5.59985V37.3998H10.1998V32.7998Z" fill="#EAA36E"/>
<path d="M10.1998 28.2H5.59985V32.7999H10.1998V28.2Z" fill="#D17E46"/>
<path d="M10.1998 23.5999H5.59985V28.1999H10.1998V23.5999Z" fill="#776F5F"/>
<path d="M10.1998 18.8999H5.59985V23.4999H10.1998V18.8999Z" fill="#776F5F"/>
<path d="M10.1998 14.2998H5.59985V18.8998H10.1998V14.2998Z" fill="#93846A"/>
<path d="M10.1998 9.69995H5.59985V14.2999H10.1998V9.69995Z" fill="#93846A"/>
<path d="M10.1998 5H5.59985V9.60001H10.1998V5Z" fill="#93846A"/>
<path d="M10.1998 0.399902H5.59985V4.99991H10.1998V0.399902Z" fill="#C1A884"/>
<path d="M5.49994 18.8999H0.899902V23.4999H5.49994V18.8999Z" fill="#776F5F"/>
<path d="M5.49994 14.2998H0.899902V18.8998H5.49994V14.2998Z" fill="#776F5F"/>
<path d="M5.49994 9.69995H0.899902V14.2999H5.49994V9.69995Z" fill="#776F5F"/>
<path d="M5.49994 5H0.899902V9.60001H5.49994V5Z" fill="#93846A"/>
</svg>
