<svg width="84" height="108" viewBox="0 0 84 108" fill="none" xmlns="http://www.w3.org/2000/svg">
<path d="M83.9001 65.5H79.3V70.1H83.9001V65.5Z" fill="#755C4E"/>
<path d="M79.2001 70.1001H74.6001V74.7001H79.2001V70.1001Z" fill="#755C4E"/>
<path d="M79.2001 65.5H74.6001V70.1H79.2001V65.5Z" fill="#755C4E"/>
<path d="M79.2001 60.8H74.6001V65.4H79.2001V60.8Z" fill="#755C4E"/>
<path d="M79.2001 51.6001H74.6001V56.2001H79.2001V51.6001Z" fill="#563E35"/>
<path d="M79.2001 46.9001H74.6001V51.5002H79.2001V46.9001Z" fill="#563E35"/>
<path d="M79.2001 42.3H74.6001V46.9H79.2001V42.3Z" fill="#563E35"/>
<path d="M79.2001 37.7002H74.6001V42.3002H79.2001V37.7002Z" fill="#563E35"/>
<path d="M79.2001 33H74.6001V37.6H79.2001V33Z" fill="#563E35"/>
<path d="M79.2001 28.4001H74.6001V33.0001H79.2001V28.4001Z" fill="#755C4E"/>
<path d="M79.2001 23.8H74.6001V28.4H79.2001V23.8Z" fill="#755C4E"/>
<path d="M79.2001 19.1001H74.6001V23.7001H79.2001V19.1001Z" fill="#755C4E"/>
<path d="M74.6 70.1001H70V74.7001H74.6V70.1001Z" fill="#755C4E"/>
<path d="M74.6 65.5H70V70.1H74.6V65.5Z" fill="#755C4E"/>
<path d="M74.6 60.8H70V65.4H74.6V60.8Z" fill="#563E35"/>
<path d="M74.6 56.2002H70V60.8002H74.6V56.2002Z" fill="#4562A2"/>
<path d="M74.6 33H70V37.6H74.6V33Z" fill="#563E35"/>
<path d="M74.6 28.4001H70V33.0001H74.6V28.4001Z" fill="#563E35"/>
<path d="M74.6 23.8H70V28.4H74.6V23.8Z" fill="#563E35"/>
<path d="M74.6 19.1001H70V23.7001H74.6V19.1001Z" fill="#563E35"/>
<path d="M74.6 14.5H70V19.1H74.6V14.5Z" fill="#755C4E"/>
<path d="M74.6 9.80005H70V14.4H74.6V9.80005Z" fill="#A57F71"/>
<path d="M69.9999 19.1001H65.3999V23.7001H69.9999V19.1001Z" fill="#563E35"/>
<path d="M69.9999 14.5H65.3999V19.1H69.9999V14.5Z" fill="#563E35"/>
<path d="M69.9999 9.80005H65.3999V14.4H69.9999V9.80005Z" fill="#755C4E"/>
<path d="M69.9999 5.2002H65.3999V9.8002H69.9999V5.2002Z" fill="#A57F71"/>
<path d="M65.2999 19.1001H60.7V23.7001H65.2999V19.1001Z" fill="#563E35"/>
<path d="M65.2999 14.5H60.7V19.1H65.2999V14.5Z" fill="#755C4E"/>
<path d="M65.2999 9.80005H60.7V14.4H65.2999V9.80005Z" fill="#755C4E"/>
<path d="M65.2999 5.2002H60.7V9.8002H65.2999V5.2002Z" fill="#A57F71"/>
<path d="M65.2999 0.600098H60.7V5.2001H65.2999V0.600098Z" fill="#A57F71"/>
<path d="M60.7001 19.1001H56.1001V23.7001H60.7001V19.1001Z" fill="#563E35"/>
<path d="M60.7001 14.5H56.1001V19.1H60.7001V14.5Z" fill="#755C4E"/>
<path d="M60.7001 9.80005H56.1001V14.4H60.7001V9.80005Z" fill="#755C4E"/>
<path d="M60.7001 5.2002H56.1001V9.8002H60.7001V5.2002Z" fill="#755C4E"/>
<path d="M60.7001 0.600098H56.1001V5.2001H60.7001V0.600098Z" fill="#A57F71"/>
<path d="M56.1 19.1001H51.5V23.7001H56.1V19.1001Z" fill="#563E35"/>
<path d="M56.1 14.5H51.5V19.1H56.1V14.5Z" fill="#755C4E"/>
<path d="M56.1 9.80005H51.5V14.4H56.1V9.80005Z" fill="#755C4E"/>
<path d="M56.1 5.2002H51.5V9.8002H56.1V5.2002Z" fill="#755C4E"/>
<path d="M56.1 0.600098H51.5V5.2001H56.1V0.600098Z" fill="#A57F71"/>
<path d="M51.4001 19.1001H46.8V23.7001H51.4001V19.1001Z" fill="#563E35"/>
<path d="M51.4001 14.5H46.8V19.1H51.4001V14.5Z" fill="#755C4E"/>
<path d="M51.4001 9.80005H46.8V14.4H51.4001V9.80005Z" fill="#755C4E"/>
<path d="M51.4001 5.2002H46.8V9.8002H51.4001V5.2002Z" fill="#755C4E"/>
<path d="M51.4001 0.600098H46.8V5.2001H51.4001V0.600098Z" fill="#A57F71"/>
<path d="M46.7999 19.1001H42.2V23.7001H46.7999V19.1001Z" fill="#563E35"/>
<path d="M46.7999 14.5H42.2V19.1H46.7999V14.5Z" fill="#755C4E"/>
<path d="M46.7999 9.80005H42.2V14.4H46.7999V9.80005Z" fill="#755C4E"/>
<path d="M46.7999 5.2002H42.2V9.8002H46.7999V5.2002Z" fill="#755C4E"/>
<path d="M46.7999 0.600098H42.2V5.2001H46.7999V0.600098Z" fill="#A57F71"/>
<path d="M42.1 19.1001H37.5V23.7001H42.1V19.1001Z" fill="#563E35"/>
<path d="M42.1 14.5H37.5V19.1H42.1V14.5Z" fill="#755C4E"/>
<path d="M42.1 9.80005H37.5V14.4H42.1V9.80005Z" fill="#755C4E"/>
<path d="M42.1 5.2002H37.5V9.8002H42.1V5.2002Z" fill="#755C4E"/>
<path d="M42.1 0.600098H37.5V5.2001H42.1V0.600098Z" fill="#A57F71"/>
<path d="M37.4999 19.1001H32.8999V23.7001H37.4999V19.1001Z" fill="#563E35"/>
<path d="M37.4999 14.5H32.8999V19.1H37.4999V14.5Z" fill="#755C4E"/>
<path d="M37.4999 9.80005H32.8999V14.4H37.4999V9.80005Z" fill="#755C4E"/>
<path d="M37.4999 5.2002H32.8999V9.8002H37.4999V5.2002Z" fill="#755C4E"/>
<path d="M37.4999 0.600098H32.8999V5.2001H37.4999V0.600098Z" fill="#A57F71"/>
<path d="M32.9001 19.1001H28.3V23.7001H32.9001V19.1001Z" fill="#563E35"/>
<path d="M32.9001 14.5H28.3V19.1H32.9001V14.5Z" fill="#755C4E"/>
<path d="M32.9001 9.80005H28.3V14.4H32.9001V9.80005Z" fill="#755C4E"/>
<path d="M32.9001 5.2002H28.3V9.8002H32.9001V5.2002Z" fill="#755C4E"/>
<path d="M32.9001 0.600098H28.3V5.2001H32.9001V0.600098Z" fill="#A57F71"/>
<path d="M28.2001 19.1001H23.6001V23.7001H28.2001V19.1001Z" fill="#563E35"/>
<path d="M28.2001 14.5H23.6001V19.1H28.2001V14.5Z" fill="#755C4E"/>
<path d="M28.2001 9.80005H23.6001V14.4H28.2001V9.80005Z" fill="#755C4E"/>
<path d="M28.2001 5.2002H23.6001V9.8002H28.2001V5.2002Z" fill="#A57F71"/>
<path d="M28.2001 0.600098H23.6001V5.2001H28.2001V0.600098Z" fill="#A57F71"/>
<path d="M23.6 23.8H19V28.4H23.6V23.8Z" fill="#563E35"/>
<path d="M23.6 19.1001H19V23.7001H23.6V19.1001Z" fill="#755C4E"/>
<path d="M23.6 14.5H19V19.1H23.6V14.5Z" fill="#755C4E"/>
<path d="M23.6 9.80005H19V14.4H23.6V9.80005Z" fill="#A57F71"/>
<path d="M23.6 5.2002H19V9.8002H23.6V5.2002Z" fill="#A57F71"/>
<path d="M18.9999 23.8H14.3999V28.4H18.9999V23.8Z" fill="#563E35"/>
<path d="M18.9999 19.1001H14.3999V23.7001H18.9999V19.1001Z" fill="#755C4E"/>
<path d="M18.9999 14.5H14.3999V19.1H18.9999V14.5Z" fill="#A57F71"/>
<path d="M18.9999 9.80005H14.3999V14.4H18.9999V9.80005Z" fill="#A57F71"/>
<path d="M18.9999 5.2002H14.3999V9.8002H18.9999V5.2002Z" fill="#A57F71"/>
<path d="M14.2999 70.1001H9.69995V74.7001H14.2999V70.1001Z" fill="#755C4E"/>
<path d="M14.2999 65.5H9.69995V70.1H14.2999V65.5Z" fill="#755C4E"/>
<path d="M14.2999 60.8H9.69995V65.4H14.2999V60.8Z" fill="#755C4E"/>
<path d="M14.2999 56.2002H9.69995V60.8002H14.2999V56.2002Z" fill="#4562A2"/>
<path d="M14.2999 42.3H9.69995V46.9H14.2999V42.3Z" fill="#563E35"/>
<path d="M14.2999 37.7002H9.69995V42.3002H14.2999V37.7002Z" fill="#563E35"/>
<path d="M14.2999 33H9.69995V37.6H14.2999V33Z" fill="#563E35"/>
<path d="M14.2999 28.4001H9.69995V33.0001H14.2999V28.4001Z" fill="#563E35"/>
<path d="M14.2999 23.8H9.69995V28.4H14.2999V23.8Z" fill="#755C4E"/>
<path d="M14.2999 19.1001H9.69995V23.7001H14.2999V19.1001Z" fill="#A57F71"/>
<path d="M14.2999 14.5H9.69995V19.1H14.2999V14.5Z" fill="#A57F71"/>
<path d="M14.2999 9.80005H9.69995V14.4H14.2999V9.80005Z" fill="#A57F71"/>
<path d="M9.7001 70.1001H5.1001V74.7001H9.7001V70.1001Z" fill="#755C4E"/>
<path d="M9.7001 65.5H5.1001V70.1H9.7001V65.5Z" fill="#755C4E"/>
<path d="M9.7001 60.8H5.1001V65.4H9.7001V60.8Z" fill="#755C4E"/>
<path d="M9.7001 51.6001H5.1001V56.2001H9.7001V51.6001Z" fill="#563E35"/>
<path d="M9.7001 46.9001H5.1001V51.5002H9.7001V46.9001Z" fill="#563E35"/>
<path d="M9.7001 42.3H5.1001V46.9H9.7001V42.3Z" fill="#A57F71"/>
<path d="M9.7001 37.7002H5.1001V42.3002H9.7001V37.7002Z" fill="#A57F71"/>
<path d="M9.7001 33H5.1001V37.6H9.7001V33Z" fill="#A57F71"/>
<path d="M9.7001 28.4001H5.1001V33.0001H9.7001V28.4001Z" fill="#A57F71"/>
<path d="M9.7001 23.8H5.1001V28.4H9.7001V23.8Z" fill="#A57F71"/>
<path d="M9.7001 19.1001H5.1001V23.7001H9.7001V19.1001Z" fill="#A57F71"/>
<path d="M9.7001 14.5H5.1001V19.1H9.7001V14.5Z" fill="#A57F71"/>
<path d="M5.10001 65.5H0.5V70.1H5.10001V65.5Z" fill="#755C4E"/>
<path d="M74.7001 51.5H70.1001V56.1H74.7001" fill="#D17E46"/>
<path d="M74.7001 46.8H70.1001V51.4H74.7001" fill="#D17E46"/>
<path d="M74.7001 42.2002H70.1001V46.8002H74.7001" fill="#D17E46"/>
<path d="M74.7001 37.6001H70.1001V42.2001H74.7001" fill="#D17E46"/>
<path d="M69.7001 23.6001H65.1001V28.2001H69.7001" fill="#D17E46"/>
<path d="M28.7001 23.6001H24.1001V28.2001H28.7001" fill="#D17E46"/>
<path d="M70.1 60.7002H65.5V65.3002H70.1" fill="#D17E46"/>
<path d="M70.1 60.7001V56.1001H65.5V60.7001H70.1Z" fill="#D17E46"/>
<path d="M70.1 51.5H65.5V56.1H70.1V51.5Z" fill="#EAA36E"/>
<path d="M70.1 46.8H65.5V51.4H70.1V46.8Z" fill="#EAA36E"/>
<path d="M70.1 42.2002H65.5V46.8002H70.1V42.2002Z" fill="#EAA36E"/>
<path d="M70.1 37.6001H65.5V42.2001H70.1V37.6001Z" fill="#D17E46"/>
<path d="M70.1 32.9001H65.5V37.5001H70.1V32.9001Z" fill="#D17E46"/>
<path d="M70.1 28.3H65.5V32.9H70.1" fill="#D17E46"/>
<path d="M65.4001 83.9001H60.8V88.5002H65.4001V83.9001Z" fill="#EAA36E"/>
<path d="M65.4001 79.3H60.8V83.9H65.4001V79.3Z" fill="#D17E46"/>
<path d="M65.4001 74.6001H60.8V79.2001H65.4001V74.6001Z" fill="#638BBA"/>
<path d="M65.4001 70H60.8V74.6H65.4001V70Z" fill="#638BBA"/>
<path d="M65.4001 65.4001H60.8V70.0002H65.4001V65.4001Z" fill="#596F9B"/>
<path d="M65.4001 60.7002H60.8V65.3002H65.4001V60.7002Z" fill="#D17E46"/>
<path d="M65.4001 56.1001H60.8V60.7001H65.4001V56.1001Z" fill="#EAA36E"/>
<path d="M65.4001 51.5H60.8V56.1H65.4001V51.5Z" fill="#EAA36E"/>
<path d="M65.4001 46.8H60.8V51.4H65.4001V46.8Z" fill="#EAA36E"/>
<path d="M65.4001 42.2002H60.8V46.8002H65.4001V42.2002Z" fill="#EAA36E"/>
<path d="M65.4001 37.6001H60.8V42.2001H65.4001V37.6001Z" fill="#21140C"/>
<path d="M65.4001 32.9001H60.8V37.5001H65.4001V32.9001Z" fill="#21140C"/>
<path d="M65.4001 28.3H60.8V32.9H65.4001V28.3Z" fill="#D17E46"/>
<path d="M60.8 23.6001V28.2001H65.4001V23.6001" fill="#D17E46"/>
<path d="M60.7999 102.5H56.2V107.1H60.7999V102.5Z" fill="#2B252B"/>
<path d="M60.7999 97.8H56.2V102.4H60.7999V97.8Z" fill="#EAA36E"/>
<path d="M60.7999 93.2002H56.2V97.8002H60.7999V93.2002Z" fill="#D17E46"/>
<path d="M60.7999 88.6001H56.2V93.2001H60.7999V88.6001Z" fill="#2C2D30"/>
<path d="M60.7999 83.9001H56.2V88.5002H60.7999V83.9001Z" fill="#EAA36E"/>
<path d="M60.7999 79.3H56.2V83.9H60.7999V79.3Z" fill="#D17E46"/>
<path d="M60.7999 74.6001H56.2V79.2001H60.7999V74.6001Z" fill="#638BBA"/>
<path d="M60.7999 70H56.2V74.6H60.7999V70Z" fill="#638BBA"/>
<path d="M60.7999 65.4001H56.2V70.0002H60.7999V65.4001Z" fill="#596F9B"/>
<path d="M60.7999 60.7002H56.2V65.3002H60.7999V60.7002Z" fill="#D17E46"/>
<path d="M60.7999 56.1001H56.2V60.7001H60.7999V56.1001Z" fill="#EAA36E"/>
<path d="M60.7999 51.5H56.2V56.1H60.7999V51.5Z" fill="#EAA36E"/>
<path d="M60.7999 46.8H56.2V51.4H60.7999V46.8Z" fill="#EAA36E"/>
<path d="M60.7999 42.2002H56.2V46.8002H60.7999V42.2002Z" fill="#EAA36E"/>
<path d="M60.7999 37.6001H56.2V42.2001H60.7999V37.6001Z" fill="#21140C"/>
<path d="M60.7999 32.9001H56.2V37.5001H60.7999V32.9001Z" fill="#422C1C"/>
<path d="M60.7999 28.3H56.2V32.9H60.7999V28.3Z" fill="#EAA36E"/>
<path d="M56.2 23.6001V28.2001H60.7999V23.6001" fill="#D17E46"/>
<path d="M56.2001 102.5H51.6001V107.1H56.2001V102.5Z" fill="#2B252B"/>
<path d="M56.2001 97.8H51.6001V102.4H56.2001V97.8Z" fill="#EAA36E"/>
<path d="M56.2001 93.2002H51.6001V97.8002H56.2001V93.2002Z" fill="#D17E46"/>
<path d="M56.2001 88.6001H51.6001V93.2001H56.2001V88.6001Z" fill="#2C2D30"/>
<path d="M56.2001 83.9001H51.6001V88.5002H56.2001V83.9001Z" fill="#2C2D30"/>
<path d="M56.2001 79.3H51.6001V83.9H56.2001V79.3Z" fill="#596F9B"/>
<path d="M56.2001 74.6001H51.6001V79.2001H56.2001V74.6001Z" fill="#596F9B"/>
<path d="M56.2001 70H51.6001V74.6H56.2001V70Z" fill="#596F9B"/>
<path d="M56.2001 65.4001H51.6001V70.0002H56.2001V65.4001Z" fill="#596F9B"/>
<path d="M56.2001 60.7002H51.6001V65.3002H56.2001V60.7002Z" fill="#D17E46"/>
<path d="M56.2001 56.1001H51.6001V60.7001H56.2001V56.1001Z" fill="#EAA36E"/>
<path d="M56.2001 51.5H51.6001V56.1H56.2001V51.5Z" fill="#EAA36E"/>
<path d="M56.2001 46.8H51.6001V51.4H56.2001V46.8Z" fill="#EAA36E"/>
<path d="M56.2001 42.2002H51.6001V46.8002H56.2001V42.2002Z" fill="white"/>
<path d="M56.2001 37.6001H51.6001V42.2001H56.2001V37.6001Z" fill="#EAA36E"/>
<path d="M56.2001 32.9001H51.6001V37.5001H56.2001V32.9001Z" fill="#EAA36E"/>
<path d="M56.2001 28.3H51.6001V32.9H56.2001V28.3Z" fill="#EAA36E"/>
<path d="M51.6001 23.6001V28.2001H56.2001V23.6001" fill="#D17E46"/>
<path d="M51.4999 88.6001H46.8999V93.2001H51.4999V88.6001Z" fill="#2C2D30"/>
<path d="M51.4999 83.9001H46.8999V88.5002H51.4999V83.9001Z" fill="#2C2D30"/>
<path d="M51.4999 79.3H46.8999V83.9H51.4999V79.3Z" fill="#638BBA"/>
<path d="M51.4999 74.6001H46.8999V79.2001H51.4999V74.6001Z" fill="#638BBA"/>
<path d="M51.4999 70H46.8999V74.6H51.4999V70Z" fill="#638BBA"/>
<path d="M51.4999 65.4001H46.8999V70.0002H51.4999V65.4001Z" fill="#596F9B"/>
<path d="M51.4999 60.7002H46.8999V65.3002H51.4999V60.7002Z" fill="#D17E46"/>
<path d="M51.4999 56.1001H46.8999V60.7001H51.4999V56.1001Z" fill="#EAA36E"/>
<path d="M51.4999 51.5H46.8999V56.1H51.4999V51.5Z" fill="#EAA36E"/>
<path d="M51.4999 46.8H46.8999V51.4H51.4999V46.8Z" fill="white"/>
<path d="M51.4999 42.2002H46.8999V46.8002H51.4999V42.2002Z" fill="white"/>
<path d="M51.4999 37.6001H46.8999V42.2001H51.4999V37.6001Z" fill="#EAA36E"/>
<path d="M51.4999 32.9001H46.8999V37.5001H51.4999V32.9001Z" fill="#EAA36E"/>
<path d="M51.4999 28.3H46.8999V32.9H51.4999V28.3Z" fill="#EAA36E"/>
<path d="M46.8999 23.6001V28.2001H51.4999V23.6001" fill="#D17E46"/>
<path d="M46.9001 88.6001H42.3V93.2001H46.9001V88.6001Z" fill="#2C2D30"/>
<path d="M46.9001 83.9001H42.3V88.5002H46.9001V83.9001Z" fill="#2C2D30"/>
<path d="M46.9001 79.3H42.3V83.9H46.9001V79.3Z" fill="#638BBA"/>
<path d="M46.9001 74.6001H42.3V79.2001H46.9001V74.6001Z" fill="#638BBA"/>
<path d="M46.9001 70H42.3V74.6H46.9001V70Z" fill="#638BBA"/>
<path d="M46.9001 65.4001H42.3V70.0002H46.9001V65.4001Z" fill="#596F9B"/>
<path d="M46.9001 60.7002H42.3V65.3002H46.9001V60.7002Z" fill="#D17E46"/>
<path d="M46.9001 56.1001H42.3V60.7001H46.9001V56.1001Z" fill="#EAA36E"/>
<path d="M46.9001 51.5H42.3V56.1H46.9001V51.5Z" fill="white"/>
<path d="M46.9001 46.8H42.3V51.4H46.9001V46.8Z" fill="white"/>
<path d="M46.9001 42.2002H42.3V46.8002H46.9001V42.2002Z" fill="white"/>
<path d="M46.9001 37.6001H42.3V42.2001H46.9001V37.6001Z" fill="#EAA36E"/>
<path d="M46.9001 32.9001H42.3V37.5001H46.9001V32.9001Z" fill="#EAA36E"/>
<path d="M46.9001 28.3H42.3V32.9H46.9001V28.3Z" fill="#EAA36E"/>
<path d="M42.3 23.6001V28.2001H46.9001V23.6001" fill="#D17E46"/>
<path d="M42.2999 88.6001H37.7V93.2001H42.2999V88.6001Z" fill="#2C2D30"/>
<path d="M42.2999 83.9001H37.7V88.5002H42.2999V83.9001Z" fill="#2C2D30"/>
<path d="M42.2999 79.3H37.7V83.9H42.2999V79.3Z" fill="#638BBA"/>
<path d="M42.2999 74.6001H37.7V79.2001H42.2999V74.6001Z" fill="#638BBA"/>
<path d="M42.2999 70H37.7V74.6H42.2999V70Z" fill="#638BBA"/>
<path d="M42.2999 65.4001H37.7V70.0002H42.2999V65.4001Z" fill="#596F9B"/>
<path d="M42.2999 60.7002H37.7V65.3002H42.2999V60.7002Z" fill="#D17E46"/>
<path d="M42.2999 56.1001H37.7V60.7001H42.2999V56.1001Z" fill="#EAA36E"/>
<path d="M42.2999 51.5H37.7V56.1H42.2999V51.5Z" fill="white"/>
<path d="M42.2999 46.8H37.7V51.4H42.2999V46.8Z" fill="white"/>
<path d="M42.2999 42.2002H37.7V46.8002H42.2999V42.2002Z" fill="white"/>
<path d="M42.2999 37.6001H37.7V42.2001H42.2999V37.6001Z" fill="#EAA36E"/>
<path d="M42.2999 32.9001H37.7V37.5001H42.2999V32.9001Z" fill="#EAA36E"/>
<path d="M42.2999 28.3H37.7V32.9H42.2999V28.3Z" fill="#EAA36E"/>
<path d="M37.7 23.6001V28.2001H42.2999V23.6001" fill="#D17E46"/>
<path d="M37.6 88.6001H33V93.2001H37.6V88.6001Z" fill="#2C2D30"/>
<path d="M37.6 83.9001H33V88.5002H37.6V83.9001Z" fill="#2C2D30"/>
<path d="M37.6 79.3H33V83.9H37.6V79.3Z" fill="#638BBA"/>
<path d="M37.6 74.6001H33V79.2001H37.6V74.6001Z" fill="#638BBA"/>
<path d="M37.6 70H33V74.6H37.6V70Z" fill="#638BBA"/>
<path d="M37.6 65.4001H33V70.0002H37.6V65.4001Z" fill="#596F9B"/>
<path d="M37.6 60.7002H33V65.3002H37.6V60.7002Z" fill="#D17E46"/>
<path d="M37.6 56.1001H33V60.7001H37.6V56.1001Z" fill="#EAA36E"/>
<path d="M37.6 51.5H33V56.1H37.6V51.5Z" fill="#EAA36E"/>
<path d="M37.6 46.8H33V51.4H37.6V46.8Z" fill="white"/>
<path d="M37.6 42.2002H33V46.8002H37.6V42.2002Z" fill="white"/>
<path d="M37.6 37.6001H33V42.2001H37.6V37.6001Z" fill="#EAA36E"/>
<path d="M37.6 32.9001H33V37.5001H37.6V32.9001Z" fill="#EAA36E"/>
<path d="M37.6 28.3H33V32.9H37.6V28.3Z" fill="#EAA36E"/>
<path d="M33 23.6001V28.2001H37.6V23.6001" fill="#D17E46"/>
<path d="M32.9999 102.5H28.3999V107.1H32.9999V102.5Z" fill="#2B252B"/>
<path d="M32.9999 97.8H28.3999V102.4H32.9999V97.8Z" fill="#EAA36E"/>
<path d="M32.9999 93.2002H28.3999V97.8002H32.9999V93.2002Z" fill="#D17E46"/>
<path d="M32.9999 88.6001H28.3999V93.2001H32.9999V88.6001Z" fill="#2C2D30"/>
<path d="M32.9999 83.9001H28.3999V88.5002H32.9999V83.9001Z" fill="#2C2D30"/>
<path d="M32.9999 79.3H28.3999V83.9H32.9999V79.3Z" fill="#638BBA"/>
<path d="M32.9999 74.6001H28.3999V79.2001H32.9999V74.6001Z" fill="#638BBA"/>
<path d="M32.9999 70H28.3999V74.6H32.9999V70Z" fill="#638BBA"/>
<path d="M32.9999 65.4001H28.3999V70.0002H32.9999V65.4001Z" fill="#596F9B"/>
<path d="M32.9999 60.7002H28.3999V65.3002H32.9999V60.7002Z" fill="#D17E46"/>
<path d="M32.9999 56.1001H28.3999V60.7001H32.9999V56.1001Z" fill="#EAA36E"/>
<path d="M32.9999 51.5H28.3999V56.1H32.9999V51.5Z" fill="#EAA36E"/>
<path d="M32.9999 46.8H28.3999V51.4H32.9999V46.8Z" fill="#EAA36E"/>
<path d="M32.9999 42.2002H28.3999V46.8002H32.9999V42.2002Z" fill="white"/>
<path d="M32.9999 37.6001H28.3999V42.2001H32.9999V37.6001Z" fill="#EAA36E"/>
<path d="M32.9999 32.9001H28.3999V37.5001H32.9999V32.9001Z" fill="#EAA36E"/>
<path d="M32.9999 28.3H28.3999V32.9H32.9999V28.3Z" fill="#EAA36E"/>
<path d="M28.3999 23.6001V28.2001H32.9999V23.6001" fill="#D17E46"/>
<path d="M28.2999 102.5H23.7V107.1H28.2999V102.5Z" fill="#2B252B"/>
<path d="M28.2999 97.8H23.7V102.4H28.2999V97.8Z" fill="#EAA36E"/>
<path d="M28.2999 93.2002H23.7V97.8002H28.2999V93.2002Z" fill="#D17E46"/>
<path d="M28.2999 88.6001H23.7V93.2001H28.2999V88.6001Z" fill="#2C2D30"/>
<path d="M28.2999 83.9001H23.7V88.5002H28.2999V83.9001Z" fill="#2C2D30"/>
<path d="M28.2999 79.3H23.7V83.9H28.2999V79.3Z" fill="#596F9B"/>
<path d="M28.2999 74.6001H23.7V79.2001H28.2999V74.6001Z" fill="#596F9B"/>
<path d="M28.2999 70H23.7V74.6H28.2999V70Z" fill="#596F9B"/>
<path d="M28.2999 65.4001H23.7V70.0002H28.2999V65.4001Z" fill="#596F9B"/>
<path d="M28.2999 60.7002H23.7V65.3002H28.2999V60.7002Z" fill="#D17E46"/>
<path d="M28.2999 56.1001H23.7V60.7001H28.2999V56.1001Z" fill="#EAA36E"/>
<path d="M28.2999 51.5H23.7V56.1H28.2999V51.5Z" fill="#EAA36E"/>
<path d="M28.2999 46.8H23.7V51.4H28.2999V46.8Z" fill="#EAA36E"/>
<path d="M28.2999 42.2002H23.7V46.8002H28.2999V42.2002Z" fill="#EAA36E"/>
<path d="M28.2999 37.6001H23.7V42.2001H28.2999V37.6001Z" fill="#21140C"/>
<path d="M28.2999 32.9001H23.7V37.5001H28.2999V32.9001Z" fill="#21140C"/>
<path d="M23.7 28.3V32.9H28.2999V28.3H23.7Z" fill="#D17E46"/>
<path d="M19.1001 88.5002H23.7001V83.9001H19.1001" fill="#EAA36E"/>
<path d="M19.1001 83.9H23.7001V79.3H19.1001" fill="#D17E46"/>
<path d="M19.1001 79.2001H23.7001V74.6001H19.1001" fill="#638BBA"/>
<path d="M19.1001 74.6H23.7001V70H19.1001" fill="#638BBA"/>
<path d="M19.1001 70.0002H23.7001V65.4001H19.1001" fill="#596F9B"/>
<path d="M19.1001 65.3002H23.7001V60.7002H19.1001" fill="#D17E46"/>
<path d="M19.1001 60.7001H23.7001V56.1001H19.1001V60.7001Z" fill="#EAA36E"/>
<path d="M23.7001 51.5H19.1001V56.1H23.7001V51.5Z" fill="#EAA36E"/>
<path d="M23.7001 46.8H19.1001V51.4H23.7001V46.8Z" fill="#EAA36E"/>
<path d="M23.7001 42.2002H19.1001V46.8002H23.7001V42.2002Z" fill="#EAA36E"/>
<path d="M23.7001 37.6001H19.1001V42.2001H23.7001V37.6001Z" fill="#21140C"/>
<path d="M23.7001 32.9001H19.1001V37.5001H23.7001V32.9001Z" fill="#422C1C"/>
<path d="M19.1001 28.3V32.9H23.7001V28.3" fill="#D17E46"/>
<path d="M14.5 28.3V32.9H19.1V28.3" fill="#D17E46"/>
<path d="M19.1 60.7001V56.1001H14.5V60.7001" fill="#D17E46"/>
<path d="M19.1 51.5H14.5V56.1H19.1V51.5Z" fill="#D17E46"/>
<path d="M19.1 46.8H14.5V51.4H19.1V46.8Z" fill="#D17E46"/>
<path d="M14.5 42.2002V46.8002H19.1V42.2002H14.5Z" fill="#D17E46"/>
<path d="M14.5 42.2001H19.1V37.6001H14.5" fill="#D17E46"/>
<path d="M14.5 37.5001H19.1V32.9001H14.5" fill="#D17E46"/>
<path d="M9.80005 56.1H14.4001V51.5H9.80005" fill="#D17E46"/>
<path d="M9.80005 51.4H14.4001V46.8H9.80005" fill="#D17E46"/>
</svg>
