<svg width="93" height="117" viewBox="0 0 93 117" fill="none" xmlns="http://www.w3.org/2000/svg">
<path d="M65.1 102.9H60.5V107.5H65.1V102.9Z" fill="#454B5B"/>
<path d="M65.1 98.3H60.5V102.9H65.1V98.3Z" fill="#454B5B"/>
<path d="M60.3998 102.9H55.7998V107.5H60.3998V102.9Z" fill="#585F75"/>
<path d="M60.3998 98.3H55.7998V102.9H60.3998V98.3Z" fill="#454B5B"/>
<path d="M60.3998 93.7H55.7998V98.3H60.3998V93.7Z" fill="#454B5B"/>
<path d="M55.7999 98.3H51.2V102.9H55.7999V98.3Z" fill="#585F75"/>
<path d="M55.7999 93.7H51.2V98.3H55.7999V93.7Z" fill="#454B5B"/>
<path d="M51.1 98.3H46.5V102.9H51.1V98.3Z" fill="#585F75"/>
<path d="M51.1 93.7H46.5V98.3H51.1V93.7Z" fill="#454B5B"/>
<path d="M46.4999 98.3H41.8999V102.9H46.4999V98.3Z" fill="#585F75"/>
<path d="M46.4999 93.7H41.8999V98.3H46.4999V93.7Z" fill="#454B5B"/>
<path d="M41.8998 98.3H37.2998V102.9H41.8998V98.3Z" fill="#585F75"/>
<path d="M41.8998 93.7H37.2998V98.3H41.8998V93.7Z" fill="#454B5B"/>
<path d="M37.1999 102.9H32.5999V107.5H37.1999V102.9Z" fill="#585F75"/>
<path d="M37.1999 98.3H32.5999V102.9H37.1999V98.3Z" fill="#585F75"/>
<path d="M37.1999 93.7H32.5999V98.3H37.1999V93.7Z" fill="#454B5B"/>
<path d="M32.6 102.9H28V107.5H32.6V102.9Z" fill="#585F75"/>
<path d="M32.6 98.3H28V102.9H32.6V98.3Z" fill="#585F75"/>
<path d="M32.6 93.7H28V98.3H32.6V93.7Z" fill="#454B5B"/>
<path d="M92.8998 70H88.2998V74.6H92.8998V70Z" fill="#843A71"/>
<path d="M92.8998 65.3999H88.2998V69.9999H92.8998V65.3999Z" fill="#AA508A"/>
<path d="M92.8998 60.8H88.2998V65.4H92.8998V60.8Z" fill="#AA508A"/>
<path d="M88.2999 74.7H83.7V79.3H88.2999V74.7Z" fill="#843A71"/>
<path d="M88.2999 70H83.7V74.6H88.2999V70Z" fill="#843A71"/>
<path d="M88.2999 65.3999H83.7V69.9999H88.2999V65.3999Z" fill="#AA508A"/>
<path d="M88.2999 60.8H83.7V65.4H88.2999V60.8Z" fill="#AA508A"/>
<path d="M88.2999 56.1001H83.7V60.7001H88.2999V56.1001Z" fill="#843A71"/>
<path d="M88.2999 51.5H83.7V56.1H88.2999V51.5Z" fill="#843A71"/>
<path d="M88.2999 46.8999H83.7V51.4999H88.2999V46.8999Z" fill="#AA508A"/>
<path d="M88.2999 42.2H83.7V46.8H88.2999V42.2Z" fill="#AA508A"/>
<path d="M88.2999 37.6001H83.7V42.2001H88.2999V37.6001Z" fill="#AA508A"/>
<path d="M88.2999 32.8999H83.7V37.4999H88.2999V32.8999Z" fill="#AA508A"/>
<path d="M88.2999 28.3H83.7V32.9H88.2999V28.3Z" fill="#BC6494"/>
<path d="M88.2999 23.7H83.7V28.3H88.2999V23.7Z" fill="#BC6494"/>
<path d="M83.6 74.7H79V79.3H83.6V74.7Z" fill="#843A71"/>
<path d="M83.6 70H79V74.6H83.6V70Z" fill="#843A71"/>
<path d="M83.6 65.3999H79V69.9999H83.6V65.3999Z" fill="#843A71"/>
<path d="M83.6 60.8H79V65.4H83.6V60.8Z" fill="#AA508A"/>
<path d="M83.6 56.1001H79V60.7001H83.6V56.1001Z" fill="#843A71"/>
<path d="M83.6 51.5H79V56.1H83.6V51.5Z" fill="#D17E46"/>
<path d="M83.6 46.8999H79V51.4999H83.6V46.8999Z" fill="#D17E46"/>
<path d="M83.6 42.2H79V46.8H83.6V42.2Z" fill="#D17E46"/>
<path d="M83.6 37.6001H79V42.2001H83.6V37.6001Z" fill="#AA508A"/>
<path d="M83.6 32.8999H79V37.4999H83.6V32.8999Z" fill="#AA508A"/>
<path d="M83.6 28.3H79V32.9H83.6V28.3Z" fill="#AA508A"/>
<path d="M83.6 23.7H79V28.3H83.6V23.7Z" fill="#BC6494"/>
<path d="M83.6 19H79V23.6H83.6V19Z" fill="#BC6494"/>
<path d="M83.6 14.3999H79V18.9999H83.6V14.3999Z" fill="#BC6494"/>
<path d="M83.6 9.80005H79V14.4H83.6V9.80005Z" fill="#BC6494"/>
<path d="M78.9999 74.7H74.3999V79.3H78.9999V74.7Z" fill="#843A71"/>
<path d="M78.9999 70H74.3999V74.6H78.9999V70Z" fill="#843A71"/>
<path d="M78.9999 65.3999H74.3999V69.9999H78.9999V65.3999Z" fill="#843A71"/>
<path d="M78.9999 60.8H74.3999V65.4H78.9999V60.8Z" fill="#843A71"/>
<path d="M78.9999 56.1001H74.3999V60.7001H78.9999V56.1001Z" fill="#843A71"/>
<path d="M78.9999 51.5H74.3999V56.1H78.9999V51.5Z" fill="#D17E46"/>
<path d="M78.9999 46.8999H74.3999V51.4999H78.9999V46.8999Z" fill="#EAA36E"/>
<path d="M78.9999 42.2H74.3999V46.8H78.9999V42.2Z" fill="#EAA36E"/>
<path d="M78.9999 37.6001H74.3999V42.2001H78.9999V37.6001Z" fill="#AA508A"/>
<path d="M78.9999 32.8999H74.3999V37.4999H78.9999V32.8999Z" fill="#AA508A"/>
<path d="M78.9999 28.3H74.3999V32.9H78.9999V28.3Z" fill="#AA508A"/>
<path d="M78.9999 23.7H74.3999V28.3H78.9999V23.7Z" fill="#AA508A"/>
<path d="M78.9999 19H74.3999V23.6H78.9999V19Z" fill="#AA508A"/>
<path d="M78.9999 14.3999H74.3999V18.9999H78.9999V14.3999Z" fill="#BC6494"/>
<path d="M78.9999 9.80005H74.3999V14.4H78.9999V9.80005Z" fill="#BC6494"/>
<path d="M74.2999 74.7H69.7V79.3H74.2999V74.7Z" fill="#843A71"/>
<path d="M74.2999 70H69.7V74.6H74.2999V70Z" fill="#843A71"/>
<path d="M74.2999 65.3999H69.7V69.9999H74.2999V65.3999Z" fill="#D17E46"/>
<path d="M74.2999 60.8H69.7V65.4H74.2999V60.8Z" fill="#D17E46"/>
<path d="M74.2999 56.1001H69.7V60.7001H74.2999V56.1001Z" fill="#D17E46"/>
<path d="M74.2999 51.5H69.7V56.1H74.2999V51.5Z" fill="#D17E46"/>
<path d="M74.2999 46.8999H69.7V51.4999H74.2999V46.8999Z" fill="#843A71"/>
<path d="M74.2999 42.2H69.7V46.8H74.2999V42.2Z" fill="#843A71"/>
<path d="M74.2999 37.6001H69.7V42.2001H74.2999V37.6001Z" fill="#843A71"/>
<path d="M74.2999 32.8999H69.7V37.4999H74.2999V32.8999Z" fill="#843A71"/>
<path d="M74.2999 28.3H69.7V32.9H74.2999V28.3Z" fill="#AA508A"/>
<path d="M74.2999 23.7H69.7V28.3H74.2999V23.7Z" fill="#AA508A"/>
<path d="M74.2999 19H69.7V23.6H74.2999V19Z" fill="#AA508A"/>
<path d="M74.2999 14.3999H69.7V18.9999H74.2999V14.3999Z" fill="#AA508A"/>
<path d="M74.2999 9.80005H69.7V14.4H74.2999V9.80005Z" fill="#BC6494"/>
<path d="M74.2999 5.1001H69.7V9.7001H74.2999V5.1001Z" fill="#BC6494"/>
<path d="M69.6999 93.2H65.0999V97.8H69.6999V93.2Z" fill="#EAA36E"/>
<path d="M69.6999 88.6001H65.0999V93.2001H69.6999V88.6001Z" fill="#D17E46"/>
<path d="M69.6999 83.8999H65.0999V88.4999H69.6999V83.8999Z" fill="#E8C8E3"/>
<path d="M69.6999 79.3H65.0999V83.9H69.6999V79.3Z" fill="#E8C8E3"/>
<path d="M69.6999 74.7H65.0999V79.3H69.6999V74.7Z" fill="#C6A8C0"/>
<path d="M69.6999 70H65.0999V74.6H69.6999V70Z" fill="#D17E46"/>
<path d="M69.6999 65.3999H65.0999V69.9999H69.6999V65.3999Z" fill="#D17E46"/>
<path d="M69.6999 60.8H65.0999V65.4H69.6999V60.8Z" fill="#D17E46"/>
<path d="M69.6999 56.1001H65.0999V60.7001H69.6999V56.1001Z" fill="#D17E46"/>
<path d="M69.6999 51.5H65.0999V56.1H69.6999V51.5Z" fill="#D17E46"/>
<path d="M69.6999 46.8999H65.0999V51.4999H69.6999V46.8999Z" fill="#D17E46"/>
<path d="M69.6999 42.2H65.0999V46.8H69.6999V42.2Z" fill="#D17E46"/>
<path d="M69.6999 37.6001H65.0999V42.2001H69.6999V37.6001Z" fill="#D17E46"/>
<path d="M69.6999 32.8999H65.0999V37.4999H69.6999V32.8999Z" fill="#D17E46"/>
<path d="M69.6999 28.3H65.0999V32.9H69.6999V28.3Z" fill="#843A71"/>
<path d="M69.6999 23.7H65.0999V28.3H69.6999V23.7Z" fill="#AA508A"/>
<path d="M69.6999 19H65.0999V23.6H69.6999V19Z" fill="#AA508A"/>
<path d="M69.6999 14.3999H65.0999V18.9999H69.6999V14.3999Z" fill="#AA508A"/>
<path d="M69.6999 9.80005H65.0999V14.4H69.6999V9.80005Z" fill="#BC6494"/>
<path d="M69.6999 5.1001H65.0999V9.7001H69.6999V5.1001Z" fill="#BC6494"/>
<path d="M65.1 116.4V111.8H60.5V116.4" fill="#6B7187"/>
<path d="M65.1 107.1H60.5V111.7H65.1V107.1Z" fill="#EAA36E"/>
<path d="M65.1 93.2H60.5V97.8H65.1V93.2Z" fill="#EAA36E"/>
<path d="M65.1 88.6001H60.5V93.2001H65.1V88.6001Z" fill="#D17E46"/>
<path d="M65.1 83.8999H60.5V88.4999H65.1V83.8999Z" fill="#E8C8E3"/>
<path d="M65.1 79.3H60.5V83.9H65.1V79.3Z" fill="#E8C8E3"/>
<path d="M65.1 74.7H60.5V79.3H65.1V74.7Z" fill="#C6A8C0"/>
<path d="M65.1 70H60.5V74.6H65.1V70Z" fill="#D17E46"/>
<path d="M65.1 65.3999H60.5V69.9999H65.1V65.3999Z" fill="#D17E46"/>
<path d="M65.1 60.8H60.5V65.4H65.1V60.8Z" fill="#EAA36E"/>
<path d="M65.1 56.1001H60.5V60.7001H65.1V56.1001Z" fill="#EAA36E"/>
<path d="M65.1 51.5H60.5V56.1H65.1V51.5Z" fill="#EAA36E"/>
<path d="M65.1 46.8999H60.5V51.4999H65.1V46.8999Z" fill="#21140C"/>
<path d="M65.1 42.2H60.5V46.8H65.1V42.2Z" fill="#21140C"/>
<path d="M65.1 37.6001H60.5V42.2001H65.1V37.6001Z" fill="#EAA36E"/>
<path d="M65.1 32.8999H60.5V37.4999H65.1V32.8999Z" fill="#D17E46"/>
<path d="M65.1 28.3H60.5V32.9H65.1V28.3Z" fill="#D17E46"/>
<path d="M65.1 23.7H60.5V28.3H65.1V23.7Z" fill="#843A71"/>
<path d="M65.1 19H60.5V23.6H65.1V19Z" fill="#AA508A"/>
<path d="M65.1 14.3999H60.5V18.9999H65.1V14.3999Z" fill="#AA508A"/>
<path d="M65.1 9.80005H60.5V14.4H65.1V9.80005Z" fill="#AA508A"/>
<path d="M65.1 5.1001H60.5V9.7001H65.1V5.1001Z" fill="#BC6494"/>
<path d="M65.1 0.5H60.5V5.1H65.1V0.5Z" fill="#BC6494"/>
<path d="M60.3998 116.4V111.8H55.7998V116.4" fill="#6B7187"/>
<path d="M60.3998 107.1H55.7998V111.7H60.3998V107.1Z" fill="#EAA36E"/>
<path d="M60.3998 88.6001H55.7998V93.2001H60.3998V88.6001Z" fill="#C6A8C0"/>
<path d="M60.3998 83.8999H55.7998V88.4999H60.3998V83.8999Z" fill="#C6A8C0"/>
<path d="M60.3998 79.3H55.7998V83.9H60.3998V79.3Z" fill="#C6A8C0"/>
<path d="M60.3998 74.7H55.7998V79.3H60.3998V74.7Z" fill="#C6A8C0"/>
<path d="M60.3998 70H55.7998V74.6H60.3998V70Z" fill="#D17E46"/>
<path d="M60.3998 65.3999H55.7998V69.9999H60.3998V65.3999Z" fill="#EAA36E"/>
<path d="M60.3998 60.8H55.7998V65.4H60.3998V60.8Z" fill="#EAA36E"/>
<path d="M60.3998 56.1001H55.7998V60.7001H60.3998V56.1001Z" fill="#EAA36E"/>
<path d="M60.3998 51.5H55.7998V56.1H60.3998V51.5Z" fill="#EAA36E"/>
<path d="M60.3998 46.8999H55.7998V51.4999H60.3998V46.8999Z" fill="#21140C"/>
<path d="M60.3998 42.2H55.7998V46.8H60.3998V42.2Z" fill="#422C1C"/>
<path d="M60.3998 37.6001H55.7998V42.2001H60.3998V37.6001Z" fill="#EAA36E"/>
<path d="M60.3998 32.8999H55.7998V37.4999H60.3998V32.8999Z" fill="#EAA36E"/>
<path d="M60.3998 28.3H55.7998V32.9H60.3998V28.3Z" fill="#D17E46"/>
<path d="M60.3998 23.7H55.7998V28.3H60.3998V23.7Z" fill="#843A71"/>
<path d="M60.3998 19H55.7998V23.6H60.3998V19Z" fill="#AA508A"/>
<path d="M60.3998 14.3999H55.7998V18.9999H60.3998V14.3999Z" fill="#AA508A"/>
<path d="M60.3998 9.80005H55.7998V14.4H60.3998V9.80005Z" fill="#AA508A"/>
<path d="M60.3998 5.1001H55.7998V9.7001H60.3998V5.1001Z" fill="#AA508A"/>
<path d="M60.3998 0.5H55.7998V5.1H60.3998V0.5Z" fill="#BC6494"/>
<path d="M55.7999 88.6001H51.2V93.2001H55.7999V88.6001Z" fill="#E8C8E3"/>
<path d="M55.7999 83.8999H51.2V88.4999H55.7999V83.8999Z" fill="#E8C8E3"/>
<path d="M55.7999 79.3H51.2V83.9H55.7999V79.3Z" fill="#E8C8E3"/>
<path d="M55.7999 74.7H51.2V79.3H55.7999V74.7Z" fill="#C6A8C0"/>
<path d="M55.7999 70H51.2V74.6H55.7999V70Z" fill="#D17E46"/>
<path d="M55.7999 65.3999H51.2V69.9999H55.7999V65.3999Z" fill="#EAA36E"/>
<path d="M55.7999 60.8H51.2V65.4H55.7999V60.8Z" fill="#EAA36E"/>
<path d="M55.7999 56.1001H51.2V60.7001H55.7999V56.1001Z" fill="#EAA36E"/>
<path d="M55.7999 51.5H51.2V56.1H55.7999V51.5Z" fill="#FFFEFD"/>
<path d="M55.7999 46.8999H51.2V51.4999H55.7999V46.8999Z" fill="#EAA36E"/>
<path d="M55.7999 42.2H51.2V46.8H55.7999V42.2Z" fill="#EAA36E"/>
<path d="M55.7999 37.6001H51.2V42.2001H55.7999V37.6001Z" fill="#EAA36E"/>
<path d="M55.7999 32.8999H51.2V37.4999H55.7999V32.8999Z" fill="#EAA36E"/>
<path d="M55.7999 28.3H51.2V32.9H55.7999V28.3Z" fill="#D17E46"/>
<path d="M55.7999 23.7H51.2V28.3H55.7999V23.7Z" fill="#843A71"/>
<path d="M55.7999 19H51.2V23.6H55.7999V19Z" fill="#843A71"/>
<path d="M55.7999 14.3999H51.2V18.9999H55.7999V14.3999Z" fill="#AA508A"/>
<path d="M55.7999 9.80005H51.2V14.4H55.7999V9.80005Z" fill="#AA508A"/>
<path d="M55.7999 5.1001H51.2V9.7001H55.7999V5.1001Z" fill="#AA508A"/>
<path d="M55.7999 0.5H51.2V5.1H55.7999V0.5Z" fill="#BC6494"/>
<path d="M51.1999 88.6001H46.5999V93.2001H51.1999V88.6001Z" fill="#E8C8E3"/>
<path d="M51.1999 83.8999H46.5999V88.4999H51.1999V83.8999Z" fill="#E8C8E3"/>
<path d="M51.1999 79.3H46.5999V83.9H51.1999V79.3Z" fill="#E8C8E3"/>
<path d="M51.1999 74.7H46.5999V79.3H51.1999V74.7Z" fill="#C6A8C0"/>
<path d="M51.1999 70H46.5999V74.6H51.1999V70Z" fill="#D17E46"/>
<path d="M51.1999 65.3999H46.5999V69.9999H51.1999V65.3999Z" fill="#EAA36E"/>
<path d="M51.1999 60.8H46.5999V65.4H51.1999V60.8Z" fill="#EAA36E"/>
<path d="M51.1999 56.1001H46.5999V60.7001H51.1999V56.1001Z" fill="#FFFEFD"/>
<path d="M51.1999 51.5H46.5999V56.1H51.1999V51.5Z" fill="#FFFEFD"/>
<path d="M51.1999 46.8999H46.5999V51.4999H51.1999V46.8999Z" fill="#EAA36E"/>
<path d="M51.1999 42.2H46.5999V46.8H51.1999V42.2Z" fill="#EAA36E"/>
<path d="M51.1999 37.6001H46.5999V42.2001H51.1999V37.6001Z" fill="#EAA36E"/>
<path d="M51.1999 32.8999H46.5999V37.4999H51.1999V32.8999Z" fill="#EAA36E"/>
<path d="M51.1999 28.3H46.5999V32.9H51.1999V28.3Z" fill="#D17E46"/>
<path d="M51.1999 23.7H46.5999V28.3H51.1999V23.7Z" fill="#843A71"/>
<path d="M51.1999 19H46.5999V23.6H51.1999V19Z" fill="#843A71"/>
<path d="M51.1999 14.3999H46.5999V18.9999H51.1999V14.3999Z" fill="#AA508A"/>
<path d="M51.1999 9.80005H46.5999V14.4H51.1999V9.80005Z" fill="#AA508A"/>
<path d="M51.1999 5.1001H46.5999V9.7001H51.1999V5.1001Z" fill="#AA508A"/>
<path d="M51.1999 0.5H46.5999V5.1H51.1999V0.5Z" fill="#BC6494"/>
<path d="M46.4999 88.6001H41.8999V93.2001H46.4999V88.6001Z" fill="#E8C8E3"/>
<path d="M46.4999 83.8999H41.8999V88.4999H46.4999V83.8999Z" fill="#E8C8E3"/>
<path d="M46.4999 79.3H41.8999V83.9H46.4999V79.3Z" fill="#E8C8E3"/>
<path d="M46.4999 74.7H41.8999V79.3H46.4999V74.7Z" fill="#C6A8C0"/>
<path d="M46.4999 70H41.8999V74.6H46.4999V70Z" fill="#D17E46"/>
<path d="M46.4999 65.3999H41.8999V69.9999H46.4999V65.3999Z" fill="#EAA36E"/>
<path d="M46.4999 60.8H41.8999V65.4H46.4999V60.8Z" fill="#FFFEFD"/>
<path d="M46.4999 56.1001H41.8999V60.7001H46.4999V56.1001Z" fill="#FFFEFD"/>
<path d="M46.4999 51.5H41.8999V56.1H46.4999V51.5Z" fill="#FFFEFD"/>
<path d="M46.4999 46.8999H41.8999V51.4999H46.4999V46.8999Z" fill="#EAA36E"/>
<path d="M46.4999 42.2H41.8999V46.8H46.4999V42.2Z" fill="#EAA36E"/>
<path d="M46.4999 37.6001H41.8999V42.2001H46.4999V37.6001Z" fill="#EAA36E"/>
<path d="M46.4999 32.8999H41.8999V37.4999H46.4999V32.8999Z" fill="#EAA36E"/>
<path d="M46.4999 28.3H41.8999V32.9H46.4999V28.3Z" fill="#D17E46"/>
<path d="M46.4999 23.7H41.8999V28.3H46.4999V23.7Z" fill="#843A71"/>
<path d="M46.4999 19H41.8999V23.6H46.4999V19Z" fill="#843A71"/>
<path d="M46.4999 14.3999H41.8999V18.9999H46.4999V14.3999Z" fill="#AA508A"/>
<path d="M46.4999 9.80005H41.8999V14.4H46.4999V9.80005Z" fill="#AA508A"/>
<path d="M46.4999 5.1001H41.8999V9.7001H46.4999V5.1001Z" fill="#AA508A"/>
<path d="M46.4999 0.5H41.8999V5.1H46.4999V0.5Z" fill="#BC6494"/>
<path d="M41.8998 88.6001H37.2998V93.2001H41.8998V88.6001Z" fill="#E8C8E3"/>
<path d="M41.8998 83.8999H37.2998V88.4999H41.8998V83.8999Z" fill="#E8C8E3"/>
<path d="M41.8998 79.3H37.2998V83.9H41.8998V79.3Z" fill="#E8C8E3"/>
<path d="M41.8998 74.7H37.2998V79.3H41.8998V74.7Z" fill="#C6A8C0"/>
<path d="M41.8998 70H37.2998V74.6H41.8998V70Z" fill="#D17E46"/>
<path d="M41.8998 65.3999H37.2998V69.9999H41.8998V65.3999Z" fill="#EAA36E"/>
<path d="M41.8998 60.8H37.2998V65.4H41.8998V60.8Z" fill="#FFFEFD"/>
<path d="M41.8998 56.1001H37.2998V60.7001H41.8998V56.1001Z" fill="#FFFEFD"/>
<path d="M41.8998 51.5H37.2998V56.1H41.8998V51.5Z" fill="#FFFEFD"/>
<path d="M41.8998 46.8999H37.2998V51.4999H41.8998V46.8999Z" fill="#EAA36E"/>
<path d="M41.8998 42.2H37.2998V46.8H41.8998V42.2Z" fill="#EAA36E"/>
<path d="M41.8998 37.6001H37.2998V42.2001H41.8998V37.6001Z" fill="#EAA36E"/>
<path d="M41.8998 32.8999H37.2998V37.4999H41.8998V32.8999Z" fill="#D17E46"/>
<path d="M41.8998 28.3H37.2998V32.9H41.8998V28.3Z" fill="#D17E46"/>
<path d="M41.8998 23.7H37.2998V28.3H41.8998V23.7Z" fill="#843A71"/>
<path d="M41.8998 19H37.2998V23.6H41.8998V19Z" fill="#AA508A"/>
<path d="M41.8998 14.3999H37.2998V18.9999H41.8998V14.3999Z" fill="#AA508A"/>
<path d="M41.8998 9.80005H37.2998V14.4H41.8998V9.80005Z" fill="#BC6494"/>
<path d="M41.8998 5.1001H37.2998V9.7001H41.8998V5.1001Z" fill="#BC6494"/>
<path d="M41.8998 0.5H37.2998V5.1H41.8998V0.5Z" fill="#BC6494"/>
<path d="M37.2999 116.4V111.8H32.7V116.4" fill="#6B7187"/>
<path d="M37.2999 107.1H32.7V111.7H37.2999V107.1Z" fill="#EAA36E"/>
<path d="M37.2999 88.6001H32.7V93.2001H37.2999V88.6001Z" fill="#E8C8E3"/>
<path d="M37.2999 83.8999H32.7V88.4999H37.2999V83.8999Z" fill="#E8C8E3"/>
<path d="M37.2999 79.3H32.7V83.9H37.2999V79.3Z" fill="#E8C8E3"/>
<path d="M37.2999 74.7H32.7V79.3H37.2999V74.7Z" fill="#C6A8C0"/>
<path d="M37.2999 70H32.7V74.6H37.2999V70Z" fill="#D17E46"/>
<path d="M37.2999 65.3999H32.7V69.9999H37.2999V65.3999Z" fill="#EAA36E"/>
<path d="M37.2999 60.8H32.7V65.4H37.2999V60.8Z" fill="#EAA36E"/>
<path d="M37.2999 56.1001H32.7V60.7001H37.2999V56.1001Z" fill="#FFFEFD"/>
<path d="M37.2999 51.5H32.7V56.1H37.2999V51.5Z" fill="#FFFEFD"/>
<path d="M37.2999 46.8999H32.7V51.4999H37.2999V46.8999Z" fill="#EAA36E"/>
<path d="M37.2999 42.2H32.7V46.8H37.2999V42.2Z" fill="#EAA36E"/>
<path d="M37.2999 37.6001H32.7V42.2001H37.2999V37.6001Z" fill="#EAA36E"/>
<path d="M37.2999 32.8999H32.7V37.4999H37.2999V32.8999Z" fill="#D17E46"/>
<path d="M37.2999 28.3H32.7V32.9H37.2999V28.3Z" fill="#843A71"/>
<path d="M37.2999 23.7H32.7V28.3H37.2999V23.7Z" fill="#843A71"/>
<path d="M37.2999 19H32.7V23.6H37.2999V19Z" fill="#AA508A"/>
<path d="M37.2999 14.3999H32.7V18.9999H37.2999V14.3999Z" fill="#AA508A"/>
<path d="M37.2999 9.80005H32.7V14.4H37.2999V9.80005Z" fill="#BC6494"/>
<path d="M37.2999 5.1001H32.7V9.7001H37.2999V5.1001Z" fill="#BC6494"/>
<path d="M37.2999 0.5H32.7V5.1H37.2999V0.5Z" fill="#BC6494"/>
<path d="M32.6 116.4V111.8H28V116.4" fill="#6B7187"/>
<path d="M32.6 107.1H28V111.7H32.6V107.1Z" fill="#EAA36E"/>
<path d="M32.6 88.6001H28V93.2001H32.6V88.6001Z" fill="#E8C8E3"/>
<path d="M32.6 83.8999H28V88.4999H32.6V83.8999Z" fill="#C6A8C0"/>
<path d="M32.6 79.3H28V83.9H32.6V79.3Z" fill="#C6A8C0"/>
<path d="M32.6 74.7H28V79.3H32.6V74.7Z" fill="#C6A8C0"/>
<path d="M32.6 70H28V74.6H32.6V70Z" fill="#D17E46"/>
<path d="M32.6 65.3999H28V69.9999H32.6V65.3999Z" fill="#EAA36E"/>
<path d="M32.6 60.8H28V65.4H32.6V60.8Z" fill="#EAA36E"/>
<path d="M32.6 56.1001H28V60.7001H32.6V56.1001Z" fill="#EAA36E"/>
<path d="M32.6 51.5H28V56.1H32.6V51.5Z" fill="#FFFEFD"/>
<path d="M32.6 46.8999H28V51.4999H32.6V46.8999Z" fill="#EAA36E"/>
<path d="M32.6 42.2H28V46.8H32.6V42.2Z" fill="#EAA36E"/>
<path d="M32.6 37.6001H28V42.2001H32.6V37.6001Z" fill="#EAA36E"/>
<path d="M32.6 32.8999H28V37.4999H32.6V32.8999Z" fill="#D17E46"/>
<path d="M32.6 28.3H28V32.9H32.6V28.3Z" fill="#843A71"/>
<path d="M32.6 23.7H28V28.3H32.6V23.7Z" fill="#843A71"/>
<path d="M32.6 19H28V23.6H32.6V19Z" fill="#AA508A"/>
<path d="M32.6 14.3999H28V18.9999H32.6V14.3999Z" fill="#AA508A"/>
<path d="M32.6 9.80005H28V14.4H32.6V9.80005Z" fill="#BC6494"/>
<path d="M32.6 5.1001H28V9.7001H32.6V5.1001Z" fill="#BC6494"/>
<path d="M32.6 0.5H28V5.1H32.6V0.5Z" fill="#BC6494"/>
<path d="M27.9999 93.2H23.3999V97.8H27.9999V93.2Z" fill="#EAA36E"/>
<path d="M27.9999 88.6001H23.3999V93.2001H27.9999V88.6001Z" fill="#D17E46"/>
<path d="M27.9999 83.8999H23.3999V88.4999H27.9999V83.8999Z" fill="#E8C8E3"/>
<path d="M27.9999 79.3H23.3999V83.9H27.9999V79.3Z" fill="#E8C8E3"/>
<path d="M27.9999 74.7H23.3999V79.3H27.9999V74.7Z" fill="#C6A8C0"/>
<path d="M27.9999 70H23.3999V74.6H27.9999V70Z" fill="#D17E46"/>
<path d="M27.9999 65.3999H23.3999V69.9999H27.9999V65.3999Z" fill="#EAA36E"/>
<path d="M27.9999 60.8H23.3999V65.4H27.9999V60.8Z" fill="#EAA36E"/>
<path d="M27.9999 56.1001H23.3999V60.7001H27.9999V56.1001Z" fill="#EAA36E"/>
<path d="M27.9999 51.5H23.3999V56.1H27.9999V51.5Z" fill="#EAA36E"/>
<path d="M27.9999 46.8999H23.3999V51.4999H27.9999V46.8999Z" fill="#21140C"/>
<path d="M27.9999 42.2H23.3999V46.8H27.9999V42.2Z" fill="#21140C"/>
<path d="M27.9999 37.6001H23.3999V42.2001H27.9999V37.6001Z" fill="#EAA36E"/>
<path d="M27.9999 32.8999H23.3999V37.4999H27.9999V32.8999Z" fill="#D17E46"/>
<path d="M27.9999 28.3H23.3999V32.9H27.9999V28.3Z" fill="#843A71"/>
<path d="M27.9999 23.7H23.3999V28.3H27.9999V23.7Z" fill="#AA508A"/>
<path d="M27.9999 19H23.3999V23.6H27.9999V19Z" fill="#AA508A"/>
<path d="M27.9999 14.3999H23.3999V18.9999H27.9999V14.3999Z" fill="#AA508A"/>
<path d="M27.9999 9.80005H23.3999V14.4H27.9999V9.80005Z" fill="#BC6494"/>
<path d="M27.9999 5.1001H23.3999V9.7001H27.9999V5.1001Z" fill="#BC6494"/>
<path d="M23.2999 74.7H18.7V79.3H23.2999V74.7Z" fill="#843A71"/>
<path d="M23.2999 70H18.7V74.6H23.2999V70Z" fill="#D17E46"/>
<path d="M23.2999 65.3999H18.7V69.9999H23.2999V65.3999Z" fill="#EAA36E"/>
<path d="M23.2999 60.8H18.7V65.4H23.2999V60.8Z" fill="#EAA36E"/>
<path d="M23.2999 56.1001H18.7V60.7001H23.2999V56.1001Z" fill="#EAA36E"/>
<path d="M23.2999 51.5H18.7V56.1H23.2999V51.5Z" fill="#EAA36E"/>
<path d="M23.2999 46.8999H18.7V51.4999H23.2999V46.8999Z" fill="#21140C"/>
<path d="M23.2999 42.2H18.7V46.8H23.2999V42.2Z" fill="#422C1C"/>
<path d="M23.2999 37.6001H18.7V42.2001H23.2999V37.6001Z" fill="#EAA36E"/>
<path d="M23.2999 32.8999H18.7V37.4999H23.2999V32.8999Z" fill="#D17E46"/>
<path d="M23.2999 28.3H18.7V32.9H23.2999V28.3Z" fill="#843A71"/>
<path d="M23.2999 23.7H18.7V28.3H23.2999V23.7Z" fill="#AA508A"/>
<path d="M23.2999 19H18.7V23.6H23.2999V19Z" fill="#AA508A"/>
<path d="M23.2999 14.3999H18.7V18.9999H23.2999V14.3999Z" fill="#BC6494"/>
<path d="M23.2999 9.80005H18.7V14.4H23.2999V9.80005Z" fill="#BC6494"/>
<path d="M23.2999 5.1001H18.7V9.7001H23.2999V5.1001Z" fill="#BC6494"/>
<path d="M18.6999 74.7H14.0999V79.3H18.6999V74.7Z" fill="#843A71"/>
<path d="M18.6999 70H14.0999V74.6H18.6999V70Z" fill="#843A71"/>
<path d="M18.6999 65.3999H14.0999V69.9999H18.6999V65.3999Z" fill="#EAA36E"/>
<path d="M18.6999 60.8H14.0999V65.4H18.6999V60.8Z" fill="#EAA36E"/>
<path d="M18.6999 56.1001H14.0999V60.7001H18.6999V56.1001Z" fill="#EAA36E"/>
<path d="M18.6999 51.5H14.0999V56.1H18.6999V51.5Z" fill="#EAA36E"/>
<path d="M18.6999 46.8999H14.0999V51.4999H18.6999V46.8999Z" fill="#EAA36E"/>
<path d="M18.6999 42.2H14.0999V46.8H18.6999V42.2Z" fill="#EAA36E"/>
<path d="M18.6999 37.6001H14.0999V42.2001H18.6999V37.6001Z" fill="#843A71"/>
<path d="M18.6999 32.8999H14.0999V37.4999H18.6999V32.8999Z" fill="#843A71"/>
<path d="M18.6999 28.3H14.0999V32.9H18.6999V28.3Z" fill="#AA508A"/>
<path d="M18.6999 23.7H14.0999V28.3H18.6999V23.7Z" fill="#AA508A"/>
<path d="M18.6999 19H14.0999V23.6H18.6999V19Z" fill="#AA508A"/>
<path d="M18.6999 14.3999H14.0999V18.9999H18.6999V14.3999Z" fill="#BC6494"/>
<path d="M14.1 74.7H9.5V79.3H14.1V74.7Z" fill="#843A71"/>
<path d="M14.1 70H9.5V74.6H14.1V70Z" fill="#843A71"/>
<path d="M14.1 65.3999H9.5V69.9999H14.1V65.3999Z" fill="#843A71"/>
<path d="M14.1 60.8H9.5V65.4H14.1V60.8Z" fill="#843A71"/>
<path d="M14.1 56.1001H9.5V60.7001H14.1V56.1001Z" fill="#843A71"/>
<path d="M14.1 51.5H9.5V56.1H14.1V51.5Z" fill="#843A71"/>
<path d="M14.1 46.8999H9.5V51.4999H14.1V46.8999Z" fill="#843A71"/>
<path d="M14.1 42.2H9.5V46.8H14.1V42.2Z" fill="#843A71"/>
<path d="M14.1 37.6001H9.5V42.2001H14.1V37.6001Z" fill="#843A71"/>
<path d="M14.1 32.8999H9.5V37.4999H14.1V32.8999Z" fill="#AA508A"/>
<path d="M14.1 28.3H9.5V32.9H14.1V28.3Z" fill="#AA508A"/>
<path d="M14.1 23.7H9.5V28.3H14.1V23.7Z" fill="#AA508A"/>
<path d="M14.1 19H9.5V23.6H14.1V19Z" fill="#BC6494"/>
<path d="M9.39981 74.7H4.7998V79.3H9.39981V74.7Z" fill="#843A71"/>
<path d="M9.39981 70H4.7998V74.6H9.39981V70Z" fill="#843A71"/>
<path d="M9.39981 65.3999H4.7998V69.9999H9.39981V65.3999Z" fill="#843A71"/>
<path d="M9.39981 60.8H4.7998V65.4H9.39981V60.8Z" fill="#843A71"/>
<path d="M9.39981 56.1001H4.7998V60.7001H9.39981V56.1001Z" fill="#843A71"/>
<path d="M9.39981 51.5H4.7998V56.1H9.39981V51.5Z" fill="#843A71"/>
<path d="M9.39981 46.8999H4.7998V51.4999H9.39981V46.8999Z" fill="#843A71"/>
<path d="M9.39981 42.2H4.7998V46.8H9.39981V42.2Z" fill="#843A71"/>
<path d="M9.39981 37.6001H4.7998V42.2001H9.39981V37.6001Z" fill="#AA508A"/>
<path d="M9.39981 32.8999H4.7998V37.4999H9.39981V32.8999Z" fill="#AA508A"/>
<path d="M9.39981 28.3H4.7998V32.9H9.39981V28.3Z" fill="#AA508A"/>
<path d="M9.39981 23.7H4.7998V28.3H9.39981V23.7Z" fill="#AA508A"/>
<path d="M9.39981 19H4.7998V23.6H9.39981V19Z" fill="#BC6494"/>
<path d="M4.79993 70H0.199951V74.6H4.79993V70Z" fill="#843A71"/>
<path d="M4.79993 65.3999H0.199951V69.9999H4.79993V65.3999Z" fill="#AA508A"/>
</svg>
