<svg width="88" height="126" viewBox="0 0 88 126" fill="none" xmlns="http://www.w3.org/2000/svg">
<path d="M87.9999 18.5H83.3999V23.1H87.9999V18.5Z" fill="#84602D"/>
<path d="M87.9999 13.8999H83.3999V18.4999H87.9999V13.8999Z" fill="#D1924E"/>
<path d="M83.4 60.3H78.8V64.9001H83.4V60.3Z" fill="#D17E46"/>
<path d="M83.4 55.6001H78.8V60.2001H83.4V55.6001Z" fill="#D17E46"/>
<path d="M83.4 51H78.8V55.6H83.4V51Z" fill="#D17E46"/>
<path d="M83.4 46.3999H78.8V50.9999H83.4V46.3999Z" fill="#634E2A"/>
<path d="M83.4 41.7H78.8V46.2999H83.4V41.7Z" fill="#634E2A"/>
<path d="M83.4 37.1001H78.8V41.7001H83.4V37.1001Z" fill="#634E2A"/>
<path d="M83.4 32.3999H78.8V36.9999H83.4V32.3999Z" fill="#84602D"/>
<path d="M83.4 27.8H78.8V32.4001H83.4V27.8Z" fill="#84602D"/>
<path d="M83.4 23.2H78.8V27.7999H83.4V23.2Z" fill="#84602D"/>
<path d="M83.4 18.5H78.8V23.1H83.4V18.5Z" fill="#84602D"/>
<path d="M83.4 13.8999H78.8V18.4999H83.4V13.8999Z" fill="#84602D"/>
<path d="M83.4 9.30005H78.8V13.9001H83.4V9.30005Z" fill="#D1924E"/>
<path d="M78.7001 69.5H74.1001V74.1H78.7001V69.5Z" fill="#D17E46"/>
<path d="M78.7001 64.8999H74.1001V69.4999H78.7001V64.8999Z" fill="#D17E46"/>
<path d="M78.7001 60.3H74.1001V64.9001H78.7001V60.3Z" fill="#D17E46"/>
<path d="M78.7001 55.6001H74.1001V60.2001H78.7001V55.6001Z" fill="#D17E46"/>
<path d="M78.7001 51H74.1001V55.6H78.7001V51Z" fill="#D17E46"/>
<path d="M78.7001 46.3999H74.1001V50.9999H78.7001V46.3999Z" fill="#5B421D"/>
<path d="M78.7001 41.7H74.1001V46.2999H78.7001V41.7Z" fill="#5B421D"/>
<path d="M78.7001 37.1001H74.1001V41.7001H78.7001V37.1001Z" fill="#5B421D"/>
<path d="M78.7001 32.3999H74.1001V36.9999H78.7001V32.3999Z" fill="#634E2A"/>
<path d="M78.7001 27.8H74.1001V32.4001H78.7001V27.8Z" fill="#84602D"/>
<path d="M78.7001 23.2H74.1001V27.7999H78.7001V23.2Z" fill="#84602D"/>
<path d="M78.7001 18.5H74.1001V23.1H78.7001V18.5Z" fill="#84602D"/>
<path d="M78.7001 13.8999H74.1001V18.4999H78.7001V13.8999Z" fill="#84602D"/>
<path d="M78.7001 9.30005H74.1001V13.9001H78.7001V9.30005Z" fill="#84602D"/>
<path d="M78.7001 4.6001H74.1001V9.2001H78.7001V4.6001Z" fill="#D1924E"/>
<path d="M74.1 97.3999H69.5V102H74.1V97.3999Z" fill="#EAA36E"/>
<path d="M74.1 92.7H69.5V97.2999H74.1V92.7Z" fill="#D17E46"/>
<path d="M74.1 88.1001H69.5V92.7001H74.1V88.1001Z" fill="#97ADD1"/>
<path d="M74.1 83.3999H69.5V87.9999H74.1V83.3999Z" fill="#97ADD1"/>
<path d="M74.1 78.8H69.5V83.4001H74.1V78.8Z" fill="#5A6A91"/>
<path d="M74.1 74.2H69.5V78.7999H74.1V74.2Z" fill="#D17E46"/>
<path d="M74.1 69.5H69.5V74.1H74.1V69.5Z" fill="#D17E46"/>
<path d="M74.1 64.8999H69.5V69.4999H74.1V64.8999Z" fill="#D17E46"/>
<path d="M74.1 60.3H69.5V64.9001H74.1V60.3Z" fill="#D17E46"/>
<path d="M74.1 55.6001H69.5V60.2001H74.1V55.6001Z" fill="#D17E46"/>
<path d="M74.1 51H69.5V55.6H74.1V51Z" fill="#D17E46"/>
<path d="M74.1 46.3999H69.5V50.9999H74.1V46.3999Z" fill="#5B421D"/>
<path d="M74.1 41.7H69.5V46.2999H74.1V41.7Z" fill="#5B421D"/>
<path d="M74.1 37.1001H69.5V41.7001H74.1V37.1001Z" fill="#5B421D"/>
<path d="M74.1 32.3999H69.5V36.9999H74.1V32.3999Z" fill="#5B421D"/>
<path d="M74.1 27.8H69.5V32.4001H74.1V27.8Z" fill="#634E2A"/>
<path d="M74.1 23.2H69.5V27.7999H74.1V23.2Z" fill="#84602D"/>
<path d="M74.1 18.5H69.5V23.1H74.1V18.5Z" fill="#84602D"/>
<path d="M74.1 13.8999H69.5V18.4999H74.1V13.8999Z" fill="#84602D"/>
<path d="M74.1 9.30005H69.5V13.9001H74.1V9.30005Z" fill="#84602D"/>
<path d="M74.1 4.6001H69.5V9.2001H74.1V4.6001Z" fill="#84602D"/>
<path d="M69.4999 120.5H64.8999V125.1H69.4999V120.5Z" fill="#BC3F3F"/>
<path d="M69.4999 115.9H64.8999V120.5H69.4999V115.9Z" fill="#535F8C"/>
<path d="M69.4999 111.3H64.8999V115.9H69.4999V111.3Z" fill="#303756"/>
<path d="M69.4999 106.6H64.8999V111.2H69.4999V106.6Z" fill="#303756"/>
<path d="M69.4999 102H64.8999V106.6H69.4999V102Z" fill="#303756"/>
<path d="M69.4999 97.3999H64.8999V102H69.4999V97.3999Z" fill="#EAA36E"/>
<path d="M69.4999 92.7H64.8999V97.2999H69.4999V92.7Z" fill="#D17E46"/>
<path d="M69.4999 88.1001H64.8999V92.7001H69.4999V88.1001Z" fill="#97ADD1"/>
<path d="M69.4999 83.3999H64.8999V87.9999H69.4999V83.3999Z" fill="#97ADD1"/>
<path d="M69.4999 78.8H64.8999V83.4001H69.4999V78.8Z" fill="#5A6A91"/>
<path d="M69.4999 74.2H64.8999V78.7999H69.4999V74.2Z" fill="#D17E46"/>
<path d="M69.4999 69.5H64.8999V74.1H69.4999V69.5Z" fill="#D17E46"/>
<path d="M69.4999 64.8999H64.8999V69.4999H69.4999V64.8999Z" fill="#D17E46"/>
<path d="M69.4999 60.3H64.8999V64.9001H69.4999V60.3Z" fill="#EAA36E"/>
<path d="M69.4999 55.6001H64.8999V60.2001H69.4999V55.6001Z" fill="#EAA36E"/>
<path d="M69.4999 51H64.8999V55.6H69.4999V51Z" fill="#D17E46"/>
<path d="M69.4999 46.3999H64.8999V50.9999H69.4999V46.3999Z" fill="#D17E46"/>
<path d="M69.4999 41.7H64.8999V46.2999H69.4999V41.7Z" fill="#D17E46"/>
<path d="M69.4999 37.1001H64.8999V41.7001H69.4999V37.1001Z" fill="#D17E46"/>
<path d="M69.4999 32.3999H64.8999V36.9999H69.4999V32.3999Z" fill="#5B421D"/>
<path d="M69.4999 27.8H64.8999V32.4001H69.4999V27.8Z" fill="#5B421D"/>
<path d="M69.4999 23.2H64.8999V27.7999H69.4999V23.2Z" fill="#84602D"/>
<path d="M69.4999 18.5H64.8999V23.1H69.4999V18.5Z" fill="#84602D"/>
<path d="M69.4999 13.8999H64.8999V18.4999H69.4999V13.8999Z" fill="#84602D"/>
<path d="M69.4999 9.30005H64.8999V13.9001H69.4999V9.30005Z" fill="#84602D"/>
<path d="M69.4999 4.6001H64.8999V9.2001H69.4999V4.6001Z" fill="#84602D"/>
<path d="M69.4999 0H64.8999V4.6H69.4999V0Z" fill="#D1924E"/>
<path d="M64.8 120.5H60.2V125.1H64.8V120.5Z" fill="#BC3F3F"/>
<path d="M64.8 115.9H60.2V120.5H64.8V115.9Z" fill="#535F8C"/>
<path d="M64.8 111.3H60.2V115.9H64.8V111.3Z" fill="#303756"/>
<path d="M64.8 106.6H60.2V111.2H64.8V106.6Z" fill="#303756"/>
<path d="M64.8 102H60.2V106.6H64.8V102Z" fill="#303756"/>
<path d="M64.8 97.3999H60.2V102H64.8V97.3999Z" fill="#303756"/>
<path d="M64.8 92.7H60.2V97.2999H64.8V92.7Z" fill="#5A6A91"/>
<path d="M64.8 88.1001H60.2V92.7001H64.8V88.1001Z" fill="#5A6A91"/>
<path d="M64.8 83.3999H60.2V87.9999H64.8V83.3999Z" fill="#5A6A91"/>
<path d="M64.8 78.8H60.2V83.4001H64.8V78.8Z" fill="#5A6A91"/>
<path d="M64.8 74.2H60.2V78.7999H64.8V74.2Z" fill="#D17E46"/>
<path d="M64.8 69.5H60.2V74.1H64.8V69.5Z" fill="#EAA36E"/>
<path d="M64.8 64.8999H60.2V69.4999H64.8V64.8999Z" fill="#EAA36E"/>
<path d="M64.8 60.3H60.2V64.9001H64.8V60.3Z" fill="#EAA36E"/>
<path d="M64.8 55.6001H60.2V60.2001H64.8V55.6001Z" fill="#EAA36E"/>
<path d="M64.8 51H60.2V55.6H64.8V51Z" fill="#D17E46"/>
<path d="M64.8 46.3999H60.2V50.9999H64.8V46.3999Z" fill="#D17E46"/>
<path d="M64.8 41.7H60.2V46.2999H64.8V41.7Z" fill="#D17E46"/>
<path d="M64.8 37.1001H60.2V41.7001H64.8V37.1001Z" fill="#D17E46"/>
<path d="M64.8 32.3999H60.2V36.9999H64.8V32.3999Z" fill="#5B421D"/>
<path d="M64.8 27.8H60.2V32.4001H64.8V27.8Z" fill="#5B421D"/>
<path d="M64.8 23.2H60.2V27.7999H64.8V23.2Z" fill="#84602D"/>
<path d="M64.8 18.5H60.2V23.1H64.8V18.5Z" fill="#84602D"/>
<path d="M64.8 13.8999H60.2V18.4999H64.8V13.8999Z" fill="#84602D"/>
<path d="M64.8 9.30005H60.2V13.9001H64.8V9.30005Z" fill="#84602D"/>
<path d="M64.8 4.6001H60.2V9.2001H64.8V4.6001Z" fill="#84602D"/>
<path d="M64.8 0H60.2V4.6H64.8V0Z" fill="#D1924E"/>
<path d="M60.2001 102H55.6001V106.6H60.2001V102Z" fill="#303756"/>
<path d="M60.2001 97.3999H55.6001V102H60.2001V97.3999Z" fill="#303756"/>
<path d="M60.2001 92.7H55.6001V97.2999H60.2001V92.7Z" fill="#97ADD1"/>
<path d="M60.2001 88.1001H55.6001V92.7001H60.2001V88.1001Z" fill="#97ADD1"/>
<path d="M60.2001 83.3999H55.6001V87.9999H60.2001V83.3999Z" fill="#97ADD1"/>
<path d="M60.2001 78.8H55.6001V83.4001H60.2001V78.8Z" fill="#5A6A91"/>
<path d="M60.2001 74.2H55.6001V78.7999H60.2001V74.2Z" fill="#D17E46"/>
<path d="M60.2001 69.5H55.6001V74.1H60.2001V69.5Z" fill="#EAA36E"/>
<path d="M60.2001 64.8999H55.6001V69.4999H60.2001V64.8999Z" fill="#EAA36E"/>
<path d="M60.2001 60.3H55.6001V64.9001H60.2001V60.3Z" fill="#EAA36E"/>
<path d="M60.2001 55.6001H55.6001V60.2001H60.2001V55.6001Z" fill="#EAA36E"/>
<path d="M60.2001 51H55.6001V55.6H60.2001V51Z" fill="#21140C"/>
<path d="M60.2001 46.3999H55.6001V50.9999H60.2001V46.3999Z" fill="#21140C"/>
<path d="M60.2001 41.7H55.6001V46.2999H60.2001V41.7Z" fill="#EAA36E"/>
<path d="M60.2001 37.1001H55.6001V41.7001H60.2001V37.1001Z" fill="#D17E46"/>
<path d="M60.2001 32.3999H55.6001V36.9999H60.2001V32.3999Z" fill="#D17E46"/>
<path d="M60.2001 27.8H55.6001V32.4001H60.2001V27.8Z" fill="#5B421D"/>
<path d="M60.2001 23.2H55.6001V27.7999H60.2001V23.2Z" fill="#5B421D"/>
<path d="M60.2001 18.5H55.6001V23.1H60.2001V18.5Z" fill="#84602D"/>
<path d="M60.2001 13.8999H55.6001V18.4999H60.2001V13.8999Z" fill="#84602D"/>
<path d="M60.2001 9.30005H55.6001V13.9001H60.2001V9.30005Z" fill="#84602D"/>
<path d="M60.2001 4.6001H55.6001V9.2001H60.2001V4.6001Z" fill="#84602D"/>
<path d="M60.2001 0H55.6001V4.6H60.2001V0Z" fill="#D1924E"/>
<path d="M55.6 102H51V106.6H55.6V102Z" fill="#303756"/>
<path d="M55.6 97.3999H51V102H55.6V97.3999Z" fill="#303756"/>
<path d="M55.6 92.7H51V97.2999H55.6V92.7Z" fill="#97ADD1"/>
<path d="M55.6 88.1001H51V92.7001H55.6V88.1001Z" fill="#97ADD1"/>
<path d="M55.6 83.3999H51V87.9999H55.6V83.3999Z" fill="#97ADD1"/>
<path d="M55.6 78.8H51V83.4001H55.6V78.8Z" fill="#5A6A91"/>
<path d="M55.6 74.2H51V78.7999H55.6V74.2Z" fill="#D17E46"/>
<path d="M55.6 69.5H51V74.1H55.6V69.5Z" fill="#EAA36E"/>
<path d="M55.6 64.8999H51V69.4999H55.6V64.8999Z" fill="#EAA36E"/>
<path d="M55.6 60.3H51V64.9001H55.6V60.3Z" fill="#EAA36E"/>
<path d="M55.6 55.6001H51V60.2001H55.6V55.6001Z" fill="#EAA36E"/>
<path d="M55.6 51H51V55.6H55.6V51Z" fill="#21140C"/>
<path d="M55.6 46.3999H51V50.9999H55.6V46.3999Z" fill="#422C1C"/>
<path d="M55.6 41.7H51V46.2999H55.6V41.7Z" fill="#EAA36E"/>
<path d="M55.6 37.1001H51V41.7001H55.6V37.1001Z" fill="#EAA36E"/>
<path d="M55.6 32.3999H51V36.9999H55.6V32.3999Z" fill="#D17E46"/>
<path d="M55.6 27.8H51V32.4001H55.6V27.8Z" fill="#5B421D"/>
<path d="M55.6 23.2H51V27.7999H55.6V23.2Z" fill="#5B421D"/>
<path d="M55.6 18.5H51V23.1H55.6V18.5Z" fill="#84602D"/>
<path d="M55.6 13.8999H51V18.4999H55.6V13.8999Z" fill="#84602D"/>
<path d="M55.6 9.30005H51V13.9001H55.6V9.30005Z" fill="#84602D"/>
<path d="M55.6 4.6001H51V9.2001H55.6V4.6001Z" fill="#84602D"/>
<path d="M55.6 0H51V4.6H55.6V0Z" fill="#D1924E"/>
<path d="M50.9001 102H46.3V106.6H50.9001V102Z" fill="#303756"/>
<path d="M50.9001 97.3999H46.3V102H50.9001V97.3999Z" fill="#303756"/>
<path d="M50.9001 92.7H46.3V97.2999H50.9001V92.7Z" fill="#97ADD1"/>
<path d="M50.9001 88.1001H46.3V92.7001H50.9001V88.1001Z" fill="#97ADD1"/>
<path d="M50.9001 83.3999H46.3V87.9999H50.9001V83.3999Z" fill="#97ADD1"/>
<path d="M50.9001 78.8H46.3V83.4001H50.9001V78.8Z" fill="#5A6A91"/>
<path d="M50.9001 74.2H46.3V78.7999H50.9001V74.2Z" fill="#D17E46"/>
<path d="M50.9001 69.5H46.3V74.1H50.9001V69.5Z" fill="#EAA36E"/>
<path d="M50.9001 64.8999H46.3V69.4999H50.9001V64.8999Z" fill="#EAA36E"/>
<path d="M50.9001 60.3H46.3V64.9001H50.9001V60.3Z" fill="#EAA36E"/>
<path d="M50.9001 55.6001H46.3V60.2001H50.9001V55.6001Z" fill="white"/>
<path d="M50.9001 51H46.3V55.6H50.9001V51Z" fill="#EAA36E"/>
<path d="M50.9001 46.3999H46.3V50.9999H50.9001V46.3999Z" fill="#EAA36E"/>
<path d="M50.9001 41.7H46.3V46.2999H50.9001V41.7Z" fill="#EAA36E"/>
<path d="M50.9001 37.1001H46.3V41.7001H50.9001V37.1001Z" fill="#EAA36E"/>
<path d="M50.9001 32.3999H46.3V36.9999H50.9001V32.3999Z" fill="#D17E46"/>
<path d="M50.9001 27.8H46.3V32.4001H50.9001V27.8Z" fill="#5B421D"/>
<path d="M50.9001 23.2H46.3V27.7999H50.9001V23.2Z" fill="#5B421D"/>
<path d="M50.9001 18.5H46.3V23.1H50.9001V18.5Z" fill="#84602D"/>
<path d="M50.9001 13.8999H46.3V18.4999H50.9001V13.8999Z" fill="#84602D"/>
<path d="M50.9001 9.30005H46.3V13.9001H50.9001V9.30005Z" fill="#84602D"/>
<path d="M50.9001 4.6001H46.3V9.2001H50.9001V4.6001Z" fill="#84602D"/>
<path d="M50.9001 0H46.3V4.6H50.9001V0Z" fill="#D1924E"/>
<path d="M46.3 102H41.7V106.6H46.3V102Z" fill="#303756"/>
<path d="M46.3 97.3999H41.7V102H46.3V97.3999Z" fill="#303756"/>
<path d="M46.3 92.7H41.7V97.2999H46.3V92.7Z" fill="#97ADD1"/>
<path d="M46.3 88.1001H41.7V92.7001H46.3V88.1001Z" fill="#97ADD1"/>
<path d="M46.3 83.3999H41.7V87.9999H46.3V83.3999Z" fill="#97ADD1"/>
<path d="M46.3 78.8H41.7V83.4001H46.3V78.8Z" fill="#5A6A91"/>
<path d="M46.3 74.2H41.7V78.7999H46.3V74.2Z" fill="#D17E46"/>
<path d="M46.3 69.5H41.7V74.1H46.3V69.5Z" fill="#EAA36E"/>
<path d="M46.3 64.8999H41.7V69.4999H46.3V64.8999Z" fill="#EAA36E"/>
<path d="M46.3 60.3H41.7V64.9001H46.3V60.3Z" fill="white"/>
<path d="M46.3 55.6001H41.7V60.2001H46.3V55.6001Z" fill="white"/>
<path d="M46.3 51H41.7V55.6H46.3V51Z" fill="#EAA36E"/>
<path d="M46.3 46.3999H41.7V50.9999H46.3V46.3999Z" fill="#EAA36E"/>
<path d="M46.3 41.7H41.7V46.2999H46.3V41.7Z" fill="#EAA36E"/>
<path d="M46.3 37.1001H41.7V41.7001H46.3V37.1001Z" fill="#EAA36E"/>
<path d="M46.3 32.3999H41.7V36.9999H46.3V32.3999Z" fill="#D17E46"/>
<path d="M46.3 27.8H41.7V32.4001H46.3V27.8Z" fill="#5B421D"/>
<path d="M46.3 23.2H41.7V27.7999H46.3V23.2Z" fill="#5B421D"/>
<path d="M46.3 18.5H41.7V23.1H46.3V18.5Z" fill="#84602D"/>
<path d="M46.3 13.8999H41.7V18.4999H46.3V13.8999Z" fill="#84602D"/>
<path d="M46.3 9.30005H41.7V13.9001H46.3V9.30005Z" fill="#84602D"/>
<path d="M46.3 4.6001H41.7V9.2001H46.3V4.6001Z" fill="#84602D"/>
<path d="M46.3 0H41.7V4.6H46.3V0Z" fill="#D1924E"/>
<path d="M41.7001 102H37.1001V106.6H41.7001V102Z" fill="#303756"/>
<path d="M41.7001 97.3999H37.1001V102H41.7001V97.3999Z" fill="#303756"/>
<path d="M41.7001 92.7H37.1001V97.2999H41.7001V92.7Z" fill="#97ADD1"/>
<path d="M41.7001 88.1001H37.1001V92.7001H41.7001V88.1001Z" fill="#97ADD1"/>
<path d="M41.7001 83.3999H37.1001V87.9999H41.7001V83.3999Z" fill="#97ADD1"/>
<path d="M41.7001 78.8H37.1001V83.4001H41.7001V78.8Z" fill="#5A6A91"/>
<path d="M41.7001 74.2H37.1001V78.7999H41.7001V74.2Z" fill="#D17E46"/>
<path d="M41.7001 69.5H37.1001V74.1H41.7001V69.5Z" fill="#EAA36E"/>
<path d="M41.7001 64.8999H37.1001V69.4999H41.7001V64.8999Z" fill="white"/>
<path d="M41.7001 60.3H37.1001V64.9001H41.7001V60.3Z" fill="white"/>
<path d="M41.7001 55.6001H37.1001V60.2001H41.7001V55.6001Z" fill="white"/>
<path d="M41.7001 51H37.1001V55.6H41.7001V51Z" fill="#EAA36E"/>
<path d="M41.7001 46.3999H37.1001V50.9999H41.7001V46.3999Z" fill="#EAA36E"/>
<path d="M41.7001 41.7H37.1001V46.2999H41.7001V41.7Z" fill="#EAA36E"/>
<path d="M41.7001 37.1001H37.1001V41.7001H41.7001V37.1001Z" fill="#EAA36E"/>
<path d="M41.7001 32.3999H37.1001V36.9999H41.7001V32.3999Z" fill="#D17E46"/>
<path d="M41.7001 27.8H37.1001V32.4001H41.7001V27.8Z" fill="#5B421D"/>
<path d="M41.7001 23.2H37.1001V27.7999H41.7001V23.2Z" fill="#5B421D"/>
<path d="M41.7001 18.5H37.1001V23.1H41.7001V18.5Z" fill="#84602D"/>
<path d="M41.7001 13.8999H37.1001V18.4999H41.7001V13.8999Z" fill="#84602D"/>
<path d="M41.7001 9.30005H37.1001V13.9001H41.7001V9.30005Z" fill="#84602D"/>
<path d="M41.7001 4.6001H37.1001V9.2001H41.7001V4.6001Z" fill="#84602D"/>
<path d="M41.7001 0H37.1001V4.6H41.7001V0Z" fill="#D1924E"/>
<path d="M36.9999 120.5H32.3999V125.1H36.9999V120.5Z" fill="#BC3F3F"/>
<path d="M36.9999 115.9H32.3999V120.5H36.9999V115.9Z" fill="#535F8C"/>
<path d="M36.9999 111.3H32.3999V115.9H36.9999V111.3Z" fill="#303756"/>
<path d="M36.9999 106.6H32.3999V111.2H36.9999V106.6Z" fill="#303756"/>
<path d="M36.9999 102H32.3999V106.6H36.9999V102Z" fill="#303756"/>
<path d="M36.9999 97.3999H32.3999V102H36.9999V97.3999Z" fill="#303756"/>
<path d="M36.9999 92.7H32.3999V97.2999H36.9999V92.7Z" fill="#97ADD1"/>
<path d="M36.9999 88.1001H32.3999V92.7001H36.9999V88.1001Z" fill="#97ADD1"/>
<path d="M36.9999 83.3999H32.3999V87.9999H36.9999V83.3999Z" fill="#97ADD1"/>
<path d="M36.9999 78.8H32.3999V83.4001H36.9999V78.8Z" fill="#5A6A91"/>
<path d="M36.9999 74.2H32.3999V78.7999H36.9999V74.2Z" fill="#D17E46"/>
<path d="M36.9999 69.5H32.3999V74.1H36.9999V69.5Z" fill="#EAA36E"/>
<path d="M36.9999 64.8999H32.3999V69.4999H36.9999V64.8999Z" fill="white"/>
<path d="M36.9999 60.3H32.3999V64.9001H36.9999V60.3Z" fill="white"/>
<path d="M36.9999 55.6001H32.3999V60.2001H36.9999V55.6001Z" fill="white"/>
<path d="M36.9999 51H32.3999V55.6H36.9999V51Z" fill="#EAA36E"/>
<path d="M36.9999 46.3999H32.3999V50.9999H36.9999V46.3999Z" fill="#EAA36E"/>
<path d="M36.9999 41.7H32.3999V46.2999H36.9999V41.7Z" fill="#EAA36E"/>
<path d="M36.9999 37.1001H32.3999V41.7001H36.9999V37.1001Z" fill="#EAA36E"/>
<path d="M36.9999 32.3999H32.3999V36.9999H36.9999V32.3999Z" fill="#D17E46"/>
<path d="M36.9999 27.8H32.3999V32.4001H36.9999V27.8Z" fill="#5B421D"/>
<path d="M36.9999 23.2H32.3999V27.7999H36.9999V23.2Z" fill="#5B421D"/>
<path d="M36.9999 18.5H32.3999V23.1H36.9999V18.5Z" fill="#84602D"/>
<path d="M36.9999 13.8999H32.3999V18.4999H36.9999V13.8999Z" fill="#84602D"/>
<path d="M36.9999 9.30005H32.3999V13.9001H36.9999V9.30005Z" fill="#84602D"/>
<path d="M36.9999 4.6001H32.3999V9.2001H36.9999V4.6001Z" fill="#84602D"/>
<path d="M36.9999 0H32.3999V4.6H36.9999V0Z" fill="#D1924E"/>
<path d="M32.4001 120.5H27.8V125.1H32.4001V120.5Z" fill="#BC3F3F"/>
<path d="M32.4001 115.9H27.8V120.5H32.4001V115.9Z" fill="#535F8C"/>
<path d="M32.4001 111.3H27.8V115.9H32.4001V111.3Z" fill="#303756"/>
<path d="M32.4001 106.6H27.8V111.2H32.4001V106.6Z" fill="#303756"/>
<path d="M32.4001 102H27.8V106.6H32.4001V102Z" fill="#303756"/>
<path d="M32.4001 97.3999H27.8V102H32.4001V97.3999Z" fill="#303756"/>
<path d="M32.4001 92.7H27.8V97.2999H32.4001V92.7Z" fill="#97ADD1"/>
<path d="M32.4001 88.1001H27.8V92.7001H32.4001V88.1001Z" fill="#5A6A91"/>
<path d="M32.4001 83.3999H27.8V87.9999H32.4001V83.3999Z" fill="#5A6A91"/>
<path d="M32.4001 78.8H27.8V83.4001H32.4001V78.8Z" fill="#5A6A91"/>
<path d="M32.4001 74.2H27.8V78.7999H32.4001V74.2Z" fill="#D17E46"/>
<path d="M32.4001 69.5H27.8V74.1H32.4001V69.5Z" fill="#EAA36E"/>
<path d="M32.4001 64.8999H27.8V69.4999H32.4001V64.8999Z" fill="#EAA36E"/>
<path d="M32.4001 60.3H27.8V64.9001H32.4001V60.3Z" fill="white"/>
<path d="M32.4001 55.6001H27.8V60.2001H32.4001V55.6001Z" fill="white"/>
<path d="M32.4001 51H27.8V55.6H32.4001V51Z" fill="#EAA36E"/>
<path d="M32.4001 46.3999H27.8V50.9999H32.4001V46.3999Z" fill="#EAA36E"/>
<path d="M32.4001 41.7H27.8V46.2999H32.4001V41.7Z" fill="#EAA36E"/>
<path d="M32.4001 37.1001H27.8V41.7001H32.4001V37.1001Z" fill="#EAA36E"/>
<path d="M32.4001 32.3999H27.8V36.9999H32.4001V32.3999Z" fill="#D17E46"/>
<path d="M32.4001 27.8H27.8V32.4001H32.4001V27.8Z" fill="#5B421D"/>
<path d="M32.4001 23.2H27.8V27.7999H32.4001V23.2Z" fill="#5B421D"/>
<path d="M32.4001 18.5H27.8V23.1H32.4001V18.5Z" fill="#84602D"/>
<path d="M32.4001 13.8999H27.8V18.4999H32.4001V13.8999Z" fill="#84602D"/>
<path d="M32.4001 9.30005H27.8V13.9001H32.4001V9.30005Z" fill="#84602D"/>
<path d="M32.4001 4.6001H27.8V9.2001H32.4001V4.6001Z" fill="#84602D"/>
<path d="M32.4001 0H27.8V4.6H32.4001V0Z" fill="#D1924E"/>
<path d="M27.7001 97.3999H23.1001V102H27.7001V97.3999Z" fill="#EAA36E"/>
<path d="M27.7001 92.7H23.1001V97.2999H27.7001V92.7Z" fill="#D17E46"/>
<path d="M27.7001 88.1001H23.1001V92.7001H27.7001V88.1001Z" fill="#97ADD1"/>
<path d="M27.7001 83.3999H23.1001V87.9999H27.7001V83.3999Z" fill="#97ADD1"/>
<path d="M27.7001 78.8H23.1001V83.4001H27.7001V78.8Z" fill="#5A6A91"/>
<path d="M27.7001 74.2H23.1001V78.7999H27.7001V74.2Z" fill="#D17E46"/>
<path d="M27.7001 69.5H23.1001V74.1H27.7001V69.5Z" fill="#EAA36E"/>
<path d="M27.7001 64.8999H23.1001V69.4999H27.7001V64.8999Z" fill="#EAA36E"/>
<path d="M27.7001 60.3H23.1001V64.9001H27.7001V60.3Z" fill="#EAA36E"/>
<path d="M27.7001 55.6001H23.1001V60.2001H27.7001V55.6001Z" fill="white"/>
<path d="M27.7001 51H23.1001V55.6H27.7001V51Z" fill="#EAA36E"/>
<path d="M27.7001 46.3999H23.1001V50.9999H27.7001V46.3999Z" fill="#EAA36E"/>
<path d="M27.7001 41.7H23.1001V46.2999H27.7001V41.7Z" fill="#EAA36E"/>
<path d="M27.7001 37.1001H23.1001V41.7001H27.7001V37.1001Z" fill="#EAA36E"/>
<path d="M27.7001 32.3999H23.1001V36.9999H27.7001V32.3999Z" fill="#D17E46"/>
<path d="M27.7001 27.8H23.1001V32.4001H27.7001V27.8Z" fill="#5B421D"/>
<path d="M27.7001 23.2H23.1001V27.7999H27.7001V23.2Z" fill="#5B421D"/>
<path d="M27.7001 18.5H23.1001V23.1H27.7001V18.5Z" fill="#84602D"/>
<path d="M27.7001 13.8999H23.1001V18.4999H27.7001V13.8999Z" fill="#84602D"/>
<path d="M27.7001 9.30005H23.1001V13.9001H27.7001V9.30005Z" fill="#84602D"/>
<path d="M27.7001 4.6001H23.1001V9.2001H27.7001V4.6001Z" fill="#84602D"/>
<path d="M27.7001 0H23.1001V4.6H27.7001V0Z" fill="#D1924E"/>
<path d="M23.1 74.2H18.5V78.7999H23.1V74.2Z" fill="#D17E46"/>
<path d="M23.1 69.5H18.5V74.1H23.1V69.5Z" fill="#EAA36E"/>
<path d="M23.1 64.8999H18.5V69.4999H23.1V64.8999Z" fill="#EAA36E"/>
<path d="M23.1 60.3H18.5V64.9001H23.1V60.3Z" fill="#EAA36E"/>
<path d="M23.1 55.6001H18.5V60.2001H23.1V55.6001Z" fill="#EAA36E"/>
<path d="M23.1 51H18.5V55.6H23.1V51Z" fill="#21140C"/>
<path d="M23.1 46.3999H18.5V50.9999H23.1V46.3999Z" fill="#21140C"/>
<path d="M23.1 41.7H18.5V46.2999H23.1V41.7Z" fill="#EAA36E"/>
<path d="M23.1 37.1001H18.5V41.7001H23.1V37.1001Z" fill="#EAA36E"/>
<path d="M23.1 32.3999H18.5V36.9999H23.1V32.3999Z" fill="#D17E46"/>
<path d="M23.1 27.8H18.5V32.4001H23.1V27.8Z" fill="#5B421D"/>
<path d="M23.1 23.2H18.5V27.7999H23.1V23.2Z" fill="#5B421D"/>
<path d="M23.1 18.5H18.5V23.1H23.1V18.5Z" fill="#84602D"/>
<path d="M23.1 13.8999H18.5V18.4999H23.1V13.8999Z" fill="#84602D"/>
<path d="M23.1 9.30005H18.5V13.9001H23.1V9.30005Z" fill="#84602D"/>
<path d="M23.1 4.6001H18.5V9.2001H23.1V4.6001Z" fill="#D1924E"/>
<path d="M18.4999 74.2H13.8999V78.7999H18.4999V74.2Z" fill="#D17E46"/>
<path d="M18.4999 69.5H13.8999V74.1H18.4999V69.5Z" fill="#EAA36E"/>
<path d="M18.4999 64.8999H13.8999V69.4999H18.4999V64.8999Z" fill="#EAA36E"/>
<path d="M18.4999 60.3H13.8999V64.9001H18.4999V60.3Z" fill="#EAA36E"/>
<path d="M18.4999 55.6001H13.8999V60.2001H18.4999V55.6001Z" fill="#EAA36E"/>
<path d="M18.4999 51H13.8999V55.6H18.4999V51Z" fill="#21140C"/>
<path d="M18.4999 46.3999H13.8999V50.9999H18.4999V46.3999Z" fill="#422C1C"/>
<path d="M18.4999 41.7H13.8999V46.2999H18.4999V41.7Z" fill="#EAA36E"/>
<path d="M18.4999 37.1001H13.8999V41.7001H18.4999V37.1001Z" fill="#EAA36E"/>
<path d="M18.4999 32.3999H13.8999V36.9999H18.4999V32.3999Z" fill="#D17E46"/>
<path d="M18.4999 27.8H13.8999V32.4001H18.4999V27.8Z" fill="#5B421D"/>
<path d="M18.4999 23.2H13.8999V27.7999H18.4999V23.2Z" fill="#5B421D"/>
<path d="M18.4999 18.5H13.8999V23.1H18.4999V18.5Z" fill="#84602D"/>
<path d="M18.4999 13.8999H13.8999V18.4999H18.4999V13.8999Z" fill="#84602D"/>
<path d="M18.4999 9.30005H13.8999V13.9001H18.4999V9.30005Z" fill="#84602D"/>
<path d="M18.4999 4.6001H13.8999V9.2001H18.4999V4.6001Z" fill="#D1924E"/>
<path d="M13.9001 69.5H9.30005V74.1H13.9001V69.5Z" fill="#D17E46"/>
<path d="M13.9001 64.8999H9.30005V69.4999H13.9001V64.8999Z" fill="#EAA36E"/>
<path d="M13.9001 60.3H9.30005V64.9001H13.9001V60.3Z" fill="#EAA36E"/>
<path d="M13.9001 55.6001H9.30005V60.2001H13.9001V55.6001Z" fill="#EAA36E"/>
<path d="M13.9001 51H9.30005V55.6H13.9001V51Z" fill="#EAA36E"/>
<path d="M13.9001 46.3999H9.30005V50.9999H13.9001V46.3999Z" fill="#EAA36E"/>
<path d="M13.9001 41.7H9.30005V46.2999H13.9001V41.7Z" fill="#EAA36E"/>
<path d="M13.9001 37.1001H9.30005V41.7001H13.9001V37.1001Z" fill="#EAA36E"/>
<path d="M13.9001 32.3999H9.30005V36.9999H13.9001V32.3999Z" fill="#D17E46"/>
<path d="M13.9001 27.8H9.30005V32.4001H13.9001V27.8Z" fill="#5B421D"/>
<path d="M13.9001 23.2H9.30005V27.7999H13.9001V23.2Z" fill="#5B421D"/>
<path d="M13.9001 18.5H9.30005V23.1H13.9001V18.5Z" fill="#84602D"/>
<path d="M13.9001 13.8999H9.30005V18.4999H13.9001V13.8999Z" fill="#84602D"/>
<path d="M13.9001 9.30005H9.30005V13.9001H13.9001V9.30005Z" fill="#84602D"/>
<path d="M13.9001 4.6001H9.30005V9.2001H13.9001V4.6001Z" fill="#D1924E"/>
<path d="M9.20007 41.7H4.6001V46.2999H9.20007V41.7Z" fill="#5B421D"/>
<path d="M9.20007 37.1001H4.6001V41.7001H9.20007V37.1001Z" fill="#5B421D"/>
<path d="M9.20007 32.3999H4.6001V36.9999H9.20007V32.3999Z" fill="#5B421D"/>
<path d="M9.20007 27.8H4.6001V32.4001H9.20007V27.8Z" fill="#5B421D"/>
<path d="M9.20007 23.2H4.6001V27.7999H9.20007V23.2Z" fill="#5B421D"/>
<path d="M9.20007 18.5H4.6001V23.1H9.20007V18.5Z" fill="#84602D"/>
<path d="M9.20007 13.8999H4.6001V18.4999H9.20007V13.8999Z" fill="#84602D"/>
<path d="M9.20007 9.30005H4.6001V13.9001H9.20007V9.30005Z" fill="#84602D"/>
<path d="M9.20007 4.6001H4.6001V9.2001H9.20007V4.6001Z" fill="#D1924E"/>
<path d="M4.60001 23.2H0V27.7999H4.60001V23.2Z" fill="#5B421D"/>
<path d="M4.60001 18.5H0V23.1H4.60001V18.5Z" fill="#5B421D"/>
<path d="M4.60001 13.8999H0V18.4999H4.60001V13.8999Z" fill="#84602D"/>
<path d="M4.60001 9.30005H0V13.9001H4.60001V9.30005Z" fill="#D1924E"/>
</svg>
