<svg width="84" height="121" viewBox="0 0 84 121" fill="none" xmlns="http://www.w3.org/2000/svg">
<path d="M4.60004 32.5H0V37.1H4.60004V32.5Z" fill="#352E28"/>
<path d="M4.60004 27.8H0V32.4H4.60004V27.8Z" fill="#352E28"/>
<path d="M4.60004 23.2H0V27.8H4.60004V23.2Z" fill="#5B4E45"/>
<path d="M4.60004 18.6001H0V23.2001H4.60004V18.6001Z" fill="#5B4E45"/>
<path d="M13.8 13.8999H9.19995V18.4999H13.8V13.8999Z" fill="#443D36"/>
<path d="M13.8 9.30005H9.19995V13.9H13.8V9.30005Z" fill="#5B4E45"/>
<path d="M9.20007 18.6001H4.6001V23.2001H9.20007V18.6001Z" fill="#443D36"/>
<path d="M9.20007 13.8999H4.6001V18.4999H9.20007V13.8999Z" fill="#5B4E45"/>
<path d="M23.1 4.69995H18.5V9.29996H23.1V4.69995Z" fill="#443D36"/>
<path d="M60.2001 0H55.6001V4.6H60.2001V0Z" fill="#5B4E45"/>
<path d="M55.6 0H51V4.6H55.6V0Z" fill="#5B4E45"/>
<path d="M50.9 0H46.3V4.6H50.9V0Z" fill="#5B4E45"/>
<path d="M46.3 0H41.7V4.6H46.3V0Z" fill="#5B4E45"/>
<path d="M41.7001 0H37.1001V4.6H41.7001V0Z" fill="#5B4E45"/>
<path d="M36.9999 0H32.3999V4.6H36.9999V0Z" fill="#5B4E45"/>
<path d="M32.4 0H27.8V4.6H32.4V0Z" fill="#5B4E45"/>
<path d="M27.7001 0H23.1001V4.6H27.7001V0Z" fill="#5B4E45"/>
<path d="M23.1 0H18.5V4.6H23.1V0Z" fill="#5B4E45"/>
<path d="M18.4999 9.30005H13.8999V13.9H18.4999V9.30005Z" fill="#443D36"/>
<path d="M18.4999 4.69995H13.8999V9.29996H18.4999V4.69995Z" fill="#5B4E45"/>
<path d="M83.4 13.8999H78.8V18.4999H83.4V13.8999Z" fill="#443D36"/>
<path d="M83.4 9.30005H78.8V13.9H83.4V9.30005Z" fill="#443D36"/>
<path d="M83.4 4.69995H78.8V9.29996H83.4V4.69995Z" fill="#5B4E45"/>
<path d="M78.7001 18.6001H74.1001V23.2001H78.7001V18.6001Z" fill="#443D36"/>
<path d="M78.7001 13.8999H74.1001V18.4999H78.7001V13.8999Z" fill="#443D36"/>
<path d="M78.7001 9.30005H74.1001V13.9H78.7001V9.30005Z" fill="#443D36"/>
<path d="M74.1 9.30005H69.5V13.9H74.1V9.30005Z" fill="#443D36"/>
<path d="M74.1 4.69995H69.5V9.29996H74.1V4.69995Z" fill="#5B4E45"/>
<path d="M74.1 13.8999H69.5V18.4999H74.1V13.8999Z" fill="#443D36"/>
<path d="M69.4999 9.30005H64.8999V13.9H69.4999V9.30005Z" fill="#443D36"/>
<path d="M69.4999 4.69995H64.8999V9.29996H69.4999V4.69995Z" fill="#443D36"/>
<path d="M64.8 4.69995H60.2V9.29996H64.8V4.69995Z" fill="#443D36"/>
<path d="M13.8 18.6001H9.19995V23.2001H13.8V18.6001Z" fill="#443D36"/>
<path d="M55.6 13.8999H51V18.4999H55.6V13.8999Z" fill="#443D36"/>
<path d="M50.9 13.8999H46.3V18.4999H50.9V13.8999Z" fill="#443D36"/>
<path d="M46.3 13.8999H41.7V18.4999H46.3V13.8999Z" fill="#443D36"/>
<path d="M41.7001 13.8999H37.1001V18.4999H41.7001V13.8999Z" fill="#443D36"/>
<path d="M36.9999 13.8999H32.3999V18.4999H36.9999V13.8999Z" fill="#443D36"/>
<path d="M32.4 13.8999H27.8V18.4999H32.4V13.8999Z" fill="#443D36"/>
<path d="M27.7001 13.8999H23.1001V18.4999H27.7001V13.8999Z" fill="#443D36"/>
<path d="M23.1 13.8999H18.5V18.4999H23.1V13.8999Z" fill="#443D36"/>
<path d="M18.4999 13.8999H13.8999V18.4999H18.4999V13.8999Z" fill="#443D36"/>
<path d="M74.1 37.1001H69.5V41.7001H74.1V37.1001Z" fill="#352E28"/>
<path d="M69.4999 23.2H64.8999V27.8H69.4999V23.2Z" fill="#352E28"/>
<path d="M74.1 32.5H69.5V37.1H74.1V32.5Z" fill="#352E28"/>
<path d="M74.1 27.8H69.5V32.4H74.1V27.8Z" fill="#352E28"/>
<path d="M74.1 23.2H69.5V27.8H74.1V23.2Z" fill="#352E28"/>
<path d="M74.1 18.6001H69.5V23.2001H74.1V18.6001Z" fill="#443D36"/>
<path d="M69.4999 13.8999H64.8999V18.4999H69.4999V13.8999Z" fill="#443D36"/>
<path d="M64.8 9.30005H60.2V13.9H64.8V9.30005Z" fill="#443D36"/>
<path d="M60.2001 4.69995H55.6001V9.29996H60.2001V4.69995Z" fill="#443D36"/>
<path d="M69.4999 18.6001H64.8999V23.2001H69.4999V18.6001Z" fill="#443D36"/>
<path d="M55.6 4.69995H51V9.29996H55.6V4.69995Z" fill="#443D36"/>
<path d="M50.9 4.69995H46.3V9.29996H50.9V4.69995Z" fill="#443D36"/>
<path d="M46.3 4.69995H41.7V9.29996H46.3V4.69995Z" fill="#443D36"/>
<path d="M41.7001 4.69995H37.1001V9.29996H41.7001V4.69995Z" fill="#443D36"/>
<path d="M36.9999 4.69995H32.3999V9.29996H36.9999V4.69995Z" fill="#443D36"/>
<path d="M32.4 4.69995H27.8V9.29996H32.4V4.69995Z" fill="#443D36"/>
<path d="M27.7001 4.69995H23.1001V9.29996H27.7001V4.69995Z" fill="#443D36"/>
<path d="M64.8 13.8999H60.2V18.4999H64.8V13.8999Z" fill="#443D36"/>
<path d="M60.2001 13.8999H55.6001V18.4999H60.2001V13.8999Z" fill="#443D36"/>
<path d="M60.2001 9.30005H55.6001V13.9H60.2001V9.30005Z" fill="#443D36"/>
<path d="M55.6 9.30005H51V13.9H55.6V9.30005Z" fill="#443D36"/>
<path d="M50.9 9.30005H46.3V13.9H50.9V9.30005Z" fill="#443D36"/>
<path d="M46.3 9.30005H41.7V13.9H46.3V9.30005Z" fill="#443D36"/>
<path d="M41.7001 9.30005H37.1001V13.9H41.7001V9.30005Z" fill="#443D36"/>
<path d="M36.9999 9.30005H32.3999V13.9H36.9999V9.30005Z" fill="#443D36"/>
<path d="M32.4 9.30005H27.8V13.9H32.4V9.30005Z" fill="#443D36"/>
<path d="M27.7001 9.30005H23.1001V13.9H27.7001V9.30005Z" fill="#443D36"/>
<path d="M23.1 9.30005H18.5V13.9H23.1V9.30005Z" fill="#443D36"/>
<path d="M9.20007 46.3999H4.6001V50.9999H9.20007V46.3999Z" fill="#352E28"/>
<path d="M9.20007 41.8H4.6001V46.4H9.20007V41.8Z" fill="#352E28"/>
<path d="M9.20007 37.1001H4.6001V41.7001H9.20007V37.1001Z" fill="#352E28"/>
<path d="M9.20007 32.5H4.6001V37.1H9.20007V32.5Z" fill="#352E28"/>
<path d="M9.20007 27.8H4.6001V32.4H9.20007V27.8Z" fill="#352E28"/>
<path d="M9.20007 23.2H4.6001V27.8H9.20007V23.2Z" fill="#443D36"/>
<path d="M13.8 37.1001H9.19995V41.7001H13.8V37.1001Z" fill="#352E28"/>
<path d="M13.8 32.5H9.19995V37.1H13.8V32.5Z" fill="#352E28"/>
<path d="M13.8 27.8H9.19995V32.4H13.8V27.8Z" fill="#352E28"/>
<path d="M13.8 23.2H9.19995V27.8H13.8V23.2Z" fill="#352E28"/>
<path d="M64.8 23.2H60.2V27.8H64.8V23.2Z" fill="#352E28"/>
<path d="M64.8 18.6001H60.2V23.2001H64.8V18.6001Z" fill="#443D36"/>
<path d="M60.2001 23.2H55.6001V27.8H60.2001V23.2Z" fill="#352E28"/>
<path d="M60.2001 18.6001H55.6001V23.2001H60.2001V18.6001Z" fill="#443D36"/>
<path d="M55.6 23.2H51V27.8H55.6V23.2Z" fill="#352E28"/>
<path d="M55.6 18.6001H51V23.2001H55.6V18.6001Z" fill="#443D36"/>
<path d="M50.9 23.2H46.3V27.8H50.9V23.2Z" fill="#352E28"/>
<path d="M50.9 18.6001H46.3V23.2001H50.9V18.6001Z" fill="#443D36"/>
<path d="M46.3 23.2H41.7V27.8H46.3V23.2Z" fill="#352E28"/>
<path d="M46.3 18.6001H41.7V23.2001H46.3V18.6001Z" fill="#443D36"/>
<path d="M41.7001 23.2H37.1001V27.8H41.7001V23.2Z" fill="#352E28"/>
<path d="M41.7001 18.6001H37.1001V23.2001H41.7001V18.6001Z" fill="#443D36"/>
<path d="M36.9999 23.2H32.3999V27.8H36.9999V23.2Z" fill="#352E28"/>
<path d="M36.9999 18.6001H32.3999V23.2001H36.9999V18.6001Z" fill="#443D36"/>
<path d="M32.4 23.2H27.8V27.8H32.4V23.2Z" fill="#352E28"/>
<path d="M32.4 18.6001H27.8V23.2001H32.4V18.6001Z" fill="#443D36"/>
<path d="M27.7001 23.2H23.1001V27.8H27.7001V23.2Z" fill="#352E28"/>
<path d="M27.7001 18.6001H23.1001V23.2001H27.7001V18.6001Z" fill="#443D36"/>
<path d="M23.1 23.2H18.5V27.8H23.1V23.2Z" fill="#352E28"/>
<path d="M23.1 18.6001H18.5V23.2001H23.1V18.6001Z" fill="#443D36"/>
<path d="M18.4999 23.2H13.8999V27.8H18.4999V23.2Z" fill="#352E28"/>
<path d="M18.4999 18.6001H13.8999V23.2001H18.4999V18.6001Z" fill="#443D36"/>
<path d="M69.1 46.2H64.5V50.8H69.1V46.2Z" fill="#EAA36E"/>
<path d="M69.1 50.8999H64.5V55.4999H69.1V50.8999Z" fill="#EAA36E"/>
<path d="M59.8 50.8999H55.2V55.4999H59.8V50.8999Z" fill="#21140C"/>
<path d="M64.4999 50.8999H59.8999V55.4999H64.4999V50.8999Z" fill="#21140C"/>
<path d="M64.4999 46.2H59.8999V50.8H64.4999V46.2Z" fill="#21140C"/>
<path d="M27.4 50.8999H22.8V55.4999H27.4V50.8999Z" fill="#21140C"/>
<path d="M27.4 46.2H22.8V50.8H27.4V46.2Z" fill="#422C1C"/>
<path d="M31.9999 50.8999H27.3999V55.4999H31.9999V50.8999Z" fill="#21140C"/>
<path d="M31.9999 46.2H27.3999V50.8H31.9999V46.2Z" fill="#21140C"/>
<path d="M41.3 64.8H36.7V69.4H41.3V64.8Z" fill="#352E28"/>
<path d="M50.6 64.8H46V69.4H50.6V64.8Z" fill="#352E28"/>
<path d="M18.1 74H13.5V78.6H18.1V74Z" fill="#352E28"/>
<path d="M50.6 74H46V78.6H50.6V74Z" fill="#352E28"/>
<path d="M55.2001 74H50.6001V78.6H55.2001V74Z" fill="#352E28"/>
<path d="M59.8 74H55.2V78.6H59.8V74Z" fill="#352E28"/>
<path d="M64.4999 74H59.8999V78.6H64.4999V74Z" fill="#352E28"/>
<path d="M59.8 69.3999H55.2V73.9999H59.8V69.3999Z" fill="#352E28"/>
<path d="M73.7001 64.8H69.1001V69.4H73.7001V64.8Z" fill="#352E28"/>
<path d="M73.7001 69.3999H69.1001V73.9999H73.7001V69.3999Z" fill="#352E28"/>
<path d="M64.4999 64.8H59.8999V69.4H64.4999V64.8Z" fill="#352E28"/>
<path d="M64.4999 69.3999H59.8999V73.9999H64.4999V69.3999Z" fill="#352E28"/>
<path d="M69.1 69.3999H64.5V73.9999H69.1V69.3999Z" fill="#352E28"/>
<path d="M69.1 64.8H64.5V69.4H69.1V64.8Z" fill="#352E28"/>
<path d="M36.7001 69.3999H32.1001V73.9999H36.7001V69.3999Z" fill="#352E28"/>
<path d="M41.3 69.3999H36.7V73.9999H41.3V69.3999Z" fill="#352E28"/>
<path d="M45.9 69.3999H41.3V73.9999H45.9V69.3999Z" fill="#352E28"/>
<path d="M50.6 69.3999H46V73.9999H50.6V69.3999Z" fill="#352E28"/>
<path d="M55.2001 69.3999H50.6001V73.9999H55.2001V69.3999Z" fill="#352E28"/>
<path d="M22.8 74H18.2V78.6H22.8V74Z" fill="#352E28"/>
<path d="M27.4 74H22.8V78.6H27.4V74Z" fill="#352E28"/>
<path d="M18.1 69.3999H13.5V73.9999H18.1V69.3999Z" fill="#352E28"/>
<path d="M22.8 69.3999H18.2V73.9999H22.8V69.3999Z" fill="#352E28"/>
<path d="M27.4 69.3999H22.8V73.9999H27.4V69.3999Z" fill="#352E28"/>
<path d="M31.9999 74H27.3999V78.6H31.9999V74Z" fill="#352E28"/>
<path d="M31.9999 69.3999H27.3999V73.9999H31.9999V69.3999Z" fill="#352E28"/>
<path d="M36.7001 74H32.1001V78.6H36.7001V74Z" fill="#352E28"/>
<path d="M41.3 74H36.7V78.6H41.3V74Z" fill="#352E28"/>
<path d="M45.9 74H41.3V78.6H45.9V74Z" fill="#352E28"/>
<path d="M13.4999 69.3999H8.8999V73.9999H13.4999V69.3999Z" fill="#352E28"/>
<path d="M13.4999 64.8H8.8999V69.4H13.4999V64.8Z" fill="#352E28"/>
<path d="M18.1 64.8H13.5V69.4H18.1V64.8Z" fill="#443D36"/>
<path d="M22.8 64.8H18.2V69.4H22.8V64.8Z" fill="#443D36"/>
<path d="M27.4 64.8H22.8V69.4H27.4V64.8Z" fill="#443D36"/>
<path d="M13.4999 55.5H8.8999V60.1H13.4999V55.5Z" fill="#443D36"/>
<path d="M13.4999 60.1001H8.8999V64.7001H13.4999V60.1001Z" fill="#443D36"/>
<path d="M18.1 60.1001H13.5V64.7001H18.1V60.1001Z" fill="#443D36"/>
<path d="M22.8 60.1001H18.2V64.7001H22.8V60.1001Z" fill="#443D36"/>
<path d="M27.4 60.1001H22.8V64.7001H27.4V60.1001Z" fill="#443D36"/>
<path d="M73.7001 60.1001H69.1001V64.7001H73.7001V60.1001Z" fill="#443D36"/>
<path d="M64.4999 60.1001H59.8999V64.7001H64.4999V60.1001Z" fill="#443D36"/>
<path d="M69.1 60.1001H64.5V64.7001H69.1V60.1001Z" fill="#443D36"/>
<path d="M55.2001 64.8H50.6001V69.4H55.2001V64.8Z" fill="#443D36"/>
<path d="M59.8 64.8H55.2V69.4H59.8V64.8Z" fill="#443D36"/>
<path d="M59.8 55.5H55.2V60.1H59.8V55.5Z" fill="#443D36"/>
<path d="M55.2001 60.1001H50.6001V64.7001H55.2001V60.1001Z" fill="#443D36"/>
<path d="M59.8 60.1001H55.2V64.7001H59.8V60.1001Z" fill="#443D36"/>
<path d="M36.7001 60.1001H32.1001V64.7001H36.7001V60.1001Z" fill="#443D36"/>
<path d="M36.7001 64.8H32.1001V69.4H36.7001V64.8Z" fill="#443D36"/>
<path d="M31.9999 64.8H27.3999V69.4H31.9999V64.8Z" fill="#443D36"/>
<path d="M31.9999 55.5H27.3999V60.1H31.9999V55.5Z" fill="#443D36"/>
<path d="M31.9999 60.1001H27.3999V64.7001H31.9999V60.1001Z" fill="#443D36"/>
<path d="M36.7001 50.8999H32.1001V55.4999H36.7001V50.8999Z" fill="#443D36"/>
<path d="M41.3 50.8999H36.7V55.4999H41.3V50.8999Z" fill="#443D36"/>
<path d="M45.9 50.8999H41.3V55.4999H45.9V50.8999Z" fill="#443D36"/>
<path d="M50.6 50.8999H46V55.4999H50.6V50.8999Z" fill="#443D36"/>
<path d="M55.2001 50.8999H50.6001V55.4999H55.2001V50.8999Z" fill="#443D36"/>
<path d="M45.9 64.8H41.3V69.4H45.9V64.8Z" fill="#352E28"/>
<path d="M41.3 60.1001H36.7V64.7001H41.3V60.1001Z" fill="white"/>
<path d="M45.9 60.1001H41.3V64.7001H45.9V60.1001Z" fill="white"/>
<path d="M50.6 60.1001H46V64.7001H50.6V60.1001Z" fill="white"/>
<path d="M36.7001 55.5H32.1001V60.1H36.7001V55.5Z" fill="white"/>
<path d="M41.3 55.5H36.7V60.1H41.3V55.5Z" fill="white"/>
<path d="M45.9 55.5H41.3V60.1H45.9V55.5Z" fill="white"/>
<path d="M50.6 55.5H46V60.1H50.6V55.5Z" fill="white"/>
<path d="M55.2001 55.5H50.6001V60.1H55.2001V55.5Z" fill="white"/>
<path d="M50.6 115.8H46V120.4H50.6V115.8Z" fill="#383533"/>
<path d="M55.2001 115.8H50.6001V120.4H55.2001V115.8Z" fill="#383533"/>
<path d="M23.4 115.8H18.8V120.4H23.4V115.8Z" fill="#383533"/>
<path d="M27.9999 115.8H23.3999V120.4H27.9999V115.8Z" fill="#383533"/>
<path d="M50.6 111.1H46V115.7H50.6V111.1Z" fill="#88C7D8"/>
<path d="M55.2001 111.1H50.6001V115.7H55.2001V111.1Z" fill="#88C7D8"/>
<path d="M22.8 111.1H18.2V115.7H22.8V111.1Z" fill="#88C7D8"/>
<path d="M27.4 111.1H22.8V115.7H27.4V111.1Z" fill="#88C7D8"/>
<path d="M50.6 106.5H46V111.1H50.6V106.5Z" fill="#5E93BF"/>
<path d="M55.2001 106.5H50.6001V111.1H55.2001V106.5Z" fill="#5E93BF"/>
<path d="M22.8 106.5H18.2V111.1H22.8V106.5Z" fill="#5E93BF"/>
<path d="M22.8 101.9H18.2V106.5H22.8V101.9Z" fill="#5E93BF"/>
<path d="M27.4 106.5H22.8V111.1H27.4V106.5Z" fill="#5E93BF"/>
<path d="M27.4 101.9H22.8V106.5H27.4V101.9Z" fill="#5E93BF"/>
<path d="M31.9999 101.9H27.3999V106.5H31.9999V101.9Z" fill="#5E93BF"/>
<path d="M36.7001 101.9H32.1001V106.5H36.7001V101.9Z" fill="#5E93BF"/>
<path d="M41.3 101.9H36.7V106.5H41.3V101.9Z" fill="#5E93BF"/>
<path d="M45.9 101.9H41.3V106.5H45.9V101.9Z" fill="#5E93BF"/>
<path d="M50.6 101.9H46V106.5H50.6V101.9Z" fill="#5E93BF"/>
<path d="M55.2001 101.9H50.6001V106.5H55.2001V101.9Z" fill="#5E93BF"/>
<path d="M27.4 97.2H22.8V101.8H27.4V97.2Z" fill="#5E93BF"/>
<path d="M31.9999 97.2H27.3999V101.8H31.9999V97.2Z" fill="#5E93BF"/>
<path d="M36.7001 97.2H32.1001V101.8H36.7001V97.2Z" fill="#5E93BF"/>
<path d="M41.3 97.2H36.7V101.8H41.3V97.2Z" fill="#5E93BF"/>
<path d="M45.9 97.2H41.3V101.8H45.9V97.2Z" fill="#5E93BF"/>
<path d="M50.6 97.2H46V101.8H50.6V97.2Z" fill="#5E93BF"/>
<path d="M55.2001 97.2H50.6001V101.8H55.2001V97.2Z" fill="#5E93BF"/>
<path d="M36.7001 78.7H32.1001V83.3H36.7001V78.7Z" fill="#7A6E96"/>
<path d="M41.3 78.7H36.7V83.3H41.3V78.7Z" fill="#7A6E96"/>
<path d="M45.9 78.7H41.3V83.3H45.9V78.7Z" fill="#7A6E96"/>
<path d="M50.6 78.7H46V83.3H50.6V78.7Z" fill="#7A6E96"/>
<path d="M55.2001 78.7H50.6001V83.3H55.2001V78.7Z" fill="#7A6E96"/>
<path d="M59.8 78.7H55.2V83.3H59.8V78.7Z" fill="#7A6E96"/>
<path d="M59.8 87.8999H55.2V92.4999H59.8V87.8999Z" fill="#A499BA"/>
<path d="M59.8 83.3H55.2V87.9H59.8V83.3Z" fill="#A499BA"/>
<path d="M22.8 78.7H18.2V83.3H22.8V78.7Z" fill="#7A6E96"/>
<path d="M22.8 83.3H18.2V87.9H22.8V83.3Z" fill="#A499BA"/>
<path d="M27.4 78.7H22.8V83.3H27.4V78.7Z" fill="#7A6E96"/>
<path d="M27.4 83.3H22.8V87.9H27.4V83.3Z" fill="#7A6E96"/>
<path d="M31.9999 87.8999H27.3999V92.4999H31.9999V87.8999Z" fill="#A499BA"/>
<path d="M31.9999 92.6001H27.3999V97.2001H31.9999V92.6001Z" fill="#A499BA"/>
<path d="M31.9999 78.7H27.3999V83.3H31.9999V78.7Z" fill="#7A6E96"/>
<path d="M31.9999 83.3H27.3999V87.9H31.9999V83.3Z" fill="#A499BA"/>
<path d="M36.7001 83.3H32.1001V87.9H36.7001V83.3Z" fill="#A499BA"/>
<path d="M36.7001 87.8999H32.1001V92.4999H36.7001V87.8999Z" fill="#A499BA"/>
<path d="M36.7001 92.6001H32.1001V97.2001H36.7001V92.6001Z" fill="#A499BA"/>
<path d="M41.3 92.6001H36.7V97.2001H41.3V92.6001Z" fill="#A499BA"/>
<path d="M41.3 87.8999H36.7V92.4999H41.3V87.8999Z" fill="#A499BA"/>
<path d="M41.3 83.3H36.7V87.9H41.3V83.3Z" fill="#A499BA"/>
<path d="M45.9 83.3H41.3V87.9H45.9V83.3Z" fill="#A499BA"/>
<path d="M45.9 87.8999H41.3V92.4999H45.9V87.8999Z" fill="#A499BA"/>
<path d="M45.9 92.6001H41.3V97.2001H45.9V92.6001Z" fill="#A499BA"/>
<path d="M50.6 92.6001H46V97.2001H50.6V92.6001Z" fill="#A499BA"/>
<path d="M50.6 87.8999H46V92.4999H50.6V87.8999Z" fill="#A499BA"/>
<path d="M50.6 83.3H46V87.9H50.6V83.3Z" fill="#A499BA"/>
<path d="M55.2001 92.6001H50.6001V97.2001H55.2001V92.6001Z" fill="#A499BA"/>
<path d="M55.2001 83.3H50.6001V87.9H55.2001V83.3Z" fill="#7A6E96"/>
<path d="M55.2001 87.8999H50.6001V92.4999H55.2001V87.8999Z" fill="#7A6E96"/>
<path d="M18.1 87.8999H13.5V92.4999H18.1V87.8999Z" fill="#A499BA"/>
<path d="M18.1 83.3H13.5V87.9H18.1V83.3Z" fill="#A499BA"/>
<path d="M18.1 78.7H13.5V83.3H18.1V78.7Z" fill="#7A6E96"/>
<path d="M22.8 87.8999H18.2V92.4999H22.8V87.8999Z" fill="#A499BA"/>
<path d="M27.4 87.8999H22.8V92.4999H27.4V87.8999Z" fill="#7A6E96"/>
<path d="M27.4 92.6001H22.8V97.2001H27.4V92.6001Z" fill="#7A6E96"/>
<path d="M59.8 92.6001H55.2V97.2001H59.8V92.6001Z" fill="#D17E46"/>
<path d="M22.8 92.6001H18.2V97.2001H22.8V92.6001Z" fill="#D17E46"/>
<path d="M18.1 92.6001H13.5V97.2001H18.1V92.6001Z" fill="#D17E46"/>
<path d="M59.8 97.2H55.2V101.8H59.8V97.2Z" fill="#EAA36E"/>
<path d="M18.1 97.2H13.5V101.8H18.1V97.2Z" fill="#EAA36E"/>
<path d="M22.8 97.2H18.2V101.8H22.8V97.2Z" fill="#EAA36E"/>
<path d="M22.8 46.2H18.2V50.8H22.8V46.2Z" fill="#EAA36E"/>
<path d="M22.8 50.8999H18.2V55.4999H22.8V50.8999Z" fill="#EAA36E"/>
<path d="M22.8 41.6001H18.2V46.2001H22.8V41.6001Z" fill="#EAA36E"/>
<path d="M27.4 41.6001H22.8V46.2001H27.4V41.6001Z" fill="#EAA36E"/>
<path d="M64.4999 41.6001H59.8999V46.2001H64.4999V41.6001Z" fill="#EAA36E"/>
<path d="M69.1 41.6001H64.5V46.2001H69.1V41.6001Z" fill="#EAA36E"/>
<path d="M69.1 36.8999H64.5V41.4999H69.1V36.8999Z" fill="#EAA36E"/>
<path d="M64.4999 55.5H59.8999V60.1H64.4999V55.5Z" fill="#EAA36E"/>
<path d="M27.4 55.5H22.8V60.1H27.4V55.5Z" fill="#EAA36E"/>
<path d="M69.1 55.5H64.5V60.1H69.1V55.5Z" fill="#EAA36E"/>
<path d="M73.7001 50.8999H69.1001V55.4999H73.7001V50.8999Z" fill="#EAA36E"/>
<path d="M73.7001 46.2H69.1001V50.8H73.7001V46.2Z" fill="#EAA36E"/>
<path d="M73.7001 55.5H69.1001V60.1H73.7001V55.5Z" fill="#EAA36E"/>
<path d="M73.7001 41.6001H69.1001V46.2001H73.7001V41.6001Z" fill="#EAA36E"/>
<path d="M64.4999 32.3H59.8999V36.9H64.4999V32.3Z" fill="#EAA36E"/>
<path d="M69.1 32.3H64.5V36.9H69.1V32.3Z" fill="#EAA36E"/>
<path d="M69.1 27.7H64.5V32.3H69.1V27.7Z" fill="#EAA36E"/>
<path d="M59.8 41.6001H55.2V46.2001H59.8V41.6001Z" fill="#EAA36E"/>
<path d="M59.8 46.2H55.2V50.8H59.8V46.2Z" fill="#422C1C"/>
<path d="M59.8 36.8999H55.2V41.4999H59.8V36.8999Z" fill="#EAA36E"/>
<path d="M64.4999 36.8999H59.8999V41.4999H64.4999V36.8999Z" fill="#EAA36E"/>
<path d="M55.2001 46.2H50.6001V50.8H55.2001V46.2Z" fill="#EAA36E"/>
<path d="M45.9 46.2H41.3V50.8H45.9V46.2Z" fill="#EAA36E"/>
<path d="M50.6 46.2H46V50.8H50.6V46.2Z" fill="#EAA36E"/>
<path d="M55.2001 41.6001H50.6001V46.2001H55.2001V41.6001Z" fill="#EAA36E"/>
<path d="M31.9999 41.6001H27.3999V46.2001H31.9999V41.6001Z" fill="#EAA36E"/>
<path d="M50.6 32.3H46V36.9H50.6V32.3Z" fill="#EAA36E"/>
<path d="M55.2001 36.8999H50.6001V41.4999H55.2001V36.8999Z" fill="#EAA36E"/>
<path d="M55.2001 32.3H50.6001V36.9H55.2001V32.3Z" fill="#EAA36E"/>
<path d="M59.8 32.3H55.2V36.9H59.8V32.3Z" fill="#EAA36E"/>
<path d="M18.1 46.2H13.5V50.8H18.1V46.2Z" fill="#EAA36E"/>
<path d="M18.1 41.6001H13.5V46.2001H18.1V41.6001Z" fill="#EAA36E"/>
<path d="M36.7001 41.6001H32.1001V46.2001H36.7001V41.6001Z" fill="#EAA36E"/>
<path d="M36.7001 46.2H32.1001V50.8H36.7001V46.2Z" fill="#EAA36E"/>
<path d="M41.3 46.2H36.7V50.8H41.3V46.2Z" fill="#EAA36E"/>
<path d="M41.3 41.6001H36.7V46.2001H41.3V41.6001Z" fill="#EAA36E"/>
<path d="M45.9 41.6001H41.3V46.2001H45.9V41.6001Z" fill="#EAA36E"/>
<path d="M50.6 41.6001H46V46.2001H50.6V41.6001Z" fill="#EAA36E"/>
<path d="M18.1 36.8999H13.5V41.4999H18.1V36.8999Z" fill="#EAA36E"/>
<path d="M18.1 32.3H13.5V36.9H18.1V32.3Z" fill="#EAA36E"/>
<path d="M18.1 27.7H13.5V32.3H18.1V27.7Z" fill="#EAA36E"/>
<path d="M22.8 32.3H18.2V36.9H22.8V32.3Z" fill="#EAA36E"/>
<path d="M22.8 36.8999H18.2V41.4999H22.8V36.8999Z" fill="#EAA36E"/>
<path d="M22.8 27.7H18.2V32.3H22.8V27.7Z" fill="#EAA36E"/>
<path d="M27.4 32.3H22.8V36.9H27.4V32.3Z" fill="#EAA36E"/>
<path d="M27.4 36.8999H22.8V41.4999H27.4V36.8999Z" fill="#EAA36E"/>
<path d="M27.4 27.7H22.8V32.3H27.4V27.7Z" fill="#EAA36E"/>
<path d="M31.9999 27.7H27.3999V32.3H31.9999V27.7Z" fill="#EAA36E"/>
<path d="M31.9999 36.8999H27.3999V41.4999H31.9999V36.8999Z" fill="#EAA36E"/>
<path d="M31.9999 32.3H27.3999V36.9H31.9999V32.3Z" fill="#EAA36E"/>
<path d="M36.7001 27.7H32.1001V32.3H36.7001V27.7Z" fill="#EAA36E"/>
<path d="M36.7001 32.3H32.1001V36.9H36.7001V32.3Z" fill="#EAA36E"/>
<path d="M36.7001 36.8999H32.1001V41.4999H36.7001V36.8999Z" fill="#EAA36E"/>
<path d="M41.3 36.8999H36.7V41.4999H41.3V36.8999Z" fill="#EAA36E"/>
<path d="M41.3 32.3H36.7V36.9H41.3V32.3Z" fill="#EAA36E"/>
<path d="M41.3 27.7H36.7V32.3H41.3V27.7Z" fill="#EAA36E"/>
<path d="M45.9 36.8999H41.3V41.4999H45.9V36.8999Z" fill="#EAA36E"/>
<path d="M45.9 27.7H41.3V32.3H45.9V27.7Z" fill="#EAA36E"/>
<path d="M45.9 32.3H41.3V36.9H45.9V32.3Z" fill="#EAA36E"/>
<path d="M50.6 27.7H46V32.3H50.6V27.7Z" fill="#EAA36E"/>
<path d="M50.6 36.8999H46V41.4999H50.6V36.8999Z" fill="#EAA36E"/>
<path d="M64.4999 27.7H59.8999V32.3H64.4999V27.7Z" fill="#EAA36E"/>
<path d="M59.8 27.7H55.2V32.3H59.8V27.7Z" fill="#EAA36E"/>
<path d="M55.2001 27.7H50.6001V32.3H55.2001V27.7Z" fill="#EAA36E"/>
<path d="M22.8 55.5H18.2V60.1H22.8V55.5Z" fill="#EAA36E"/>
<path d="M18.1 55.5H13.5V60.1H18.1V55.5Z" fill="#D17E46"/>
<path d="M18.2 50.9L13.6 50.8L13.5 55.4L18.1 55.5L18.2 50.9Z" fill="#D17E46"/>
<path d="M13.4999 50.8999H8.8999V55.4999H13.4999V50.8999Z" fill="#D17E46"/>
<path d="M13.4999 46.2H8.8999V50.8H13.4999V46.2Z" fill="#D17E46"/>
<path d="M13.4999 41.6001H8.8999V46.2001H13.4999V41.6001Z" fill="#D17E46"/>
<path d="M8.90002 55.5H4.30005V60.1H8.90002V55.5Z" fill="#D17E46"/>
<path d="M8.90002 50.8999H4.30005V55.4999H8.90002V50.8999Z" fill="#EAA36E"/>
</svg>
