<svg width="80" height="117" viewBox="0 0 80 117" fill="none" xmlns="http://www.w3.org/2000/svg">
<path d="M70.3998 42.5999H65.7998V47.1999H70.3998V42.5999Z" fill="#EAA36E"/>
<path d="M70.3998 47.2998H65.7998V51.8998H70.3998V47.2998Z" fill="#EAA36E"/>
<path d="M61.1 47.2998H56.5V51.8998H61.1V47.2998Z" fill="#21140C"/>
<path d="M65.8 47.2998H61.2V51.8998H65.8V47.2998Z" fill="#21140C"/>
<path d="M65.8 42.5999H61.2V47.1999H65.8V42.5999Z" fill="#21140C"/>
<path d="M28.6998 47.2998H24.0999V51.8998H28.6998V47.2998Z" fill="#21140C"/>
<path d="M28.6998 42.5999H24.0999V47.1999H28.6998V42.5999Z" fill="#422C1C"/>
<path d="M33.3 47.2998H28.7V51.8998H33.3V47.2998Z" fill="#21140C"/>
<path d="M33.3 42.5999H28.7V47.1999H33.3V42.5999Z" fill="#21140C"/>
<path d="M24.1 0.899902H19.5V5.49991H24.1V0.899902Z" fill="#82583C"/>
<path d="M65.8 0.899902H61.2V5.49991H65.8V0.899902Z" fill="#82583C"/>
<path d="M79.6998 38H75.0999V42.6H79.6998V38Z" fill="#473121"/>
<path d="M5.49991 38H0.899902V42.6H5.49991V38Z" fill="#473121"/>
<path d="M5.49991 33.2998H0.899902V37.8998H5.49991V33.2998Z" fill="#473121"/>
<path d="M5.49991 28.7H0.899902V33.3H5.49991V28.7Z" fill="#473121"/>
<path d="M5.49991 24.0999H0.899902V28.6998H5.49991V24.0999Z" fill="#473121"/>
<path d="M5.49991 19.3999H0.899902V23.9999H5.49991V19.3999Z" fill="#473121"/>
<path d="M28.6998 0.899902H24.0999V5.49991H28.6998V0.899902Z" fill="#82583C"/>
<path d="M79.6998 33.2998H75.0999V37.8998H79.6998V33.2998Z" fill="#473121"/>
<path d="M79.6998 24.0999H75.0999V28.6998H79.6998V24.0999Z" fill="#5B422E"/>
<path d="M79.6998 14.7998H75.0999V19.3998H79.6998V14.7998Z" fill="#5B422E"/>
<path d="M79.6998 19.3999H75.0999V23.9999H79.6998V19.3999Z" fill="#5B422E"/>
<path d="M79.6998 28.7H75.0999V33.3H79.6998V28.7Z" fill="#473121"/>
<path d="M10.1998 33.2998H5.59985V37.8998H10.1998V33.2998Z" fill="#473121"/>
<path d="M10.1998 42.5999H5.59985V47.1999H10.1998V42.5999Z" fill="#473121"/>
<path d="M10.1998 38H5.59985V42.6H10.1998V38Z" fill="#473121"/>
<path d="M74.9999 10.2H70.3999V14.8H74.9999V10.2Z" fill="#5B422E"/>
<path d="M70.3998 10.2H65.7998V14.8H70.3998V10.2Z" fill="#5B422E"/>
<path d="M70.3998 5.5H65.7998V10.1H70.3998V5.5Z" fill="#82583C"/>
<path d="M65.8 5.5H61.2V10.1H65.8V5.5Z" fill="#5B422E"/>
<path d="M61.1 0.899902H56.5V5.49991H61.1V0.899902Z" fill="#82583C"/>
<path d="M61.1 5.5H56.5V10.1H61.1V5.5Z" fill="#5B422E"/>
<path d="M33.3 0.899902H28.7V5.49991H33.3V0.899902Z" fill="#82583C"/>
<path d="M37.9999 0.899902H33.3999V5.49991H37.9999V0.899902Z" fill="#82583C"/>
<path d="M42.6 0.899902H38V5.49991H42.6V0.899902Z" fill="#82583C"/>
<path d="M47.1998 0.899902H42.5999V5.49991H47.1998V0.899902Z" fill="#82583C"/>
<path d="M51.8998 0.899902H47.2998V5.49991H51.8998V0.899902Z" fill="#82583C"/>
<path d="M56.4999 0.899902H51.8999V5.49991H56.4999V0.899902Z" fill="#82583C"/>
<path d="M19.3998 5.5H14.7998V10.1H19.3998V5.5Z" fill="#82583C"/>
<path d="M24.1 5.5H19.5V10.1H24.1V5.5Z" fill="#82583C"/>
<path d="M28.6998 5.5H24.0999V10.1H28.6998V5.5Z" fill="#5B422E"/>
<path d="M14.8 10.2H10.2V14.8H14.8V10.2Z" fill="#5B422E"/>
<path d="M10.1998 28.7H5.59985V33.3H10.1998V28.7Z" fill="#473121"/>
<path d="M10.1998 24.0999H5.59985V28.6998H10.1998V24.0999Z" fill="#5B422E"/>
<path d="M14.8 14.7998H10.2V19.3998H14.8V14.7998Z" fill="#5B422E"/>
<path d="M10.1998 14.7998H5.59985V19.3998H10.1998V14.7998Z" fill="#5B422E"/>
<path d="M10.1998 19.3999H5.59985V23.9999H10.1998V19.3999Z" fill="#5B422E"/>
<path d="M42.6 61.2H38V65.7999H42.6V61.2Z" fill="#5B422E"/>
<path d="M51.8998 61.2H47.2998V65.7999H51.8998V61.2Z" fill="#5B422E"/>
<path d="M19.3998 70.3999H14.7998V74.9999H19.3998V70.3999Z" fill="#5B422E"/>
<path d="M51.8998 70.3999H47.2998V74.9999H51.8998V70.3999Z" fill="#5B422E"/>
<path d="M56.4999 70.3999H51.8999V74.9999H56.4999V70.3999Z" fill="#5B422E"/>
<path d="M61.1 70.3999H56.5V74.9999H61.1V70.3999Z" fill="#5B422E"/>
<path d="M65.8 70.3999H61.2V74.9999H65.8V70.3999Z" fill="#5B422E"/>
<path d="M61.1 65.7998H56.5V70.3998H61.1V65.7998Z" fill="#5B422E"/>
<path d="M74.9999 61.2H70.3999V65.7999H74.9999V61.2Z" fill="#5B422E"/>
<path d="M74.9999 65.7998H70.3999V70.3998H74.9999V65.7998Z" fill="#5B422E"/>
<path d="M65.8 61.2H61.2V65.7999H65.8V61.2Z" fill="#5B422E"/>
<path d="M65.8 65.7998H61.2V70.3998H65.8V65.7998Z" fill="#5B422E"/>
<path d="M70.3998 65.7998H65.7998V70.3998H70.3998V65.7998Z" fill="#5B422E"/>
<path d="M70.3998 61.2H65.7998V65.7999H70.3998V61.2Z" fill="#5B422E"/>
<path d="M37.9999 65.7998H33.3999V70.3998H37.9999V65.7998Z" fill="#5B422E"/>
<path d="M42.6 65.7998H38V70.3998H42.6V65.7998Z" fill="#5B422E"/>
<path d="M47.1998 65.7998H42.5999V70.3998H47.1998V65.7998Z" fill="#5B422E"/>
<path d="M51.8998 65.7998H47.2998V70.3998H51.8998V65.7998Z" fill="#5B422E"/>
<path d="M56.4999 65.7998H51.8999V70.3998H56.4999V65.7998Z" fill="#5B422E"/>
<path d="M24.1 70.3999H19.5V74.9999H24.1V70.3999Z" fill="#5B422E"/>
<path d="M28.6998 70.3999H24.0999V74.9999H28.6998V70.3999Z" fill="#5B422E"/>
<path d="M19.3998 65.7998H14.7998V70.3998H19.3998V65.7998Z" fill="#5B422E"/>
<path d="M24.1 65.7998H19.5V70.3998H24.1V65.7998Z" fill="#5B422E"/>
<path d="M28.6998 65.7998H24.0999V70.3998H28.6998V65.7998Z" fill="#5B422E"/>
<path d="M33.3 70.3999H28.7V74.9999H33.3V70.3999Z" fill="#5B422E"/>
<path d="M33.3 65.7998H28.7V70.3998H33.3V65.7998Z" fill="#5B422E"/>
<path d="M37.9999 70.3999H33.3999V74.9999H37.9999V70.3999Z" fill="#5B422E"/>
<path d="M42.6 70.3999H38V74.9999H42.6V70.3999Z" fill="#5B422E"/>
<path d="M47.1998 70.3999H42.5999V74.9999H47.1998V70.3999Z" fill="#5B422E"/>
<path d="M14.8 65.7998H10.2V70.3998H14.8V65.7998Z" fill="#5B422E"/>
<path d="M14.8 61.2H10.2V65.7999H14.8V61.2Z" fill="#5B422E"/>
<path d="M19.3998 61.2H14.7998V65.7999H19.3998V61.2Z" fill="#725941"/>
<path d="M24.1 61.2H19.5V65.7999H24.1V61.2Z" fill="#725941"/>
<path d="M28.6998 61.2H24.0999V65.7999H28.6998V61.2Z" fill="#725941"/>
<path d="M14.8 51.8999H10.2V56.4999H14.8V51.8999Z" fill="#725941"/>
<path d="M14.8 56.5H10.2V61.1H14.8V56.5Z" fill="#725941"/>
<path d="M19.3998 56.5H14.7998V61.1H19.3998V56.5Z" fill="#725941"/>
<path d="M24.1 56.5H19.5V61.1H24.1V56.5Z" fill="#725941"/>
<path d="M28.6998 56.5H24.0999V61.1H28.6998V56.5Z" fill="#725941"/>
<path d="M74.9999 56.5H70.3999V61.1H74.9999V56.5Z" fill="#725941"/>
<path d="M65.8 56.5H61.2V61.1H65.8V56.5Z" fill="#725941"/>
<path d="M70.3998 56.5H65.7998V61.1H70.3998V56.5Z" fill="#725941"/>
<path d="M56.4999 61.2H51.8999V65.7999H56.4999V61.2Z" fill="#725941"/>
<path d="M61.1 61.2H56.5V65.7999H61.1V61.2Z" fill="#725941"/>
<path d="M61.1 51.8999H56.5V56.4999H61.1V51.8999Z" fill="#725941"/>
<path d="M56.4999 56.5H51.8999V61.1H56.4999V56.5Z" fill="#725941"/>
<path d="M61.1 56.5H56.5V61.1H61.1V56.5Z" fill="#725941"/>
<path d="M37.9999 56.5H33.3999V61.1H37.9999V56.5Z" fill="#725941"/>
<path d="M37.9999 61.2H33.3999V65.7999H37.9999V61.2Z" fill="#725941"/>
<path d="M33.3 61.2H28.7V65.7999H33.3V61.2Z" fill="#725941"/>
<path d="M33.3 51.8999H28.7V56.4999H33.3V51.8999Z" fill="#725941"/>
<path d="M33.3 56.5H28.7V61.1H33.3V56.5Z" fill="#725941"/>
<path d="M37.9999 47.2998H33.3999V51.8998H37.9999V47.2998Z" fill="#725941"/>
<path d="M42.6 47.2998H38V51.8998H42.6V47.2998Z" fill="#725941"/>
<path d="M47.1998 47.2998H42.5999V51.8998H47.1998V47.2998Z" fill="#725941"/>
<path d="M51.8998 47.2998H47.2998V51.8998H51.8998V47.2998Z" fill="#725941"/>
<path d="M56.4999 47.2998H51.8999V51.8998H56.4999V47.2998Z" fill="#725941"/>
<path d="M47.1998 61.2H42.5999V65.7999H47.1998V61.2Z" fill="#5B422E"/>
<path d="M42.6 56.5H38V61.1H42.6V56.5Z" fill="white"/>
<path d="M47.1998 56.5H42.5999V61.1H47.1998V56.5Z" fill="white"/>
<path d="M51.8998 56.5H47.2998V61.1H51.8998V56.5Z" fill="white"/>
<path d="M37.9999 51.8999H33.3999V56.4999H37.9999V51.8999Z" fill="white"/>
<path d="M42.6 51.8999H38V56.4999H42.6V51.8999Z" fill="white"/>
<path d="M47.1998 51.8999H42.5999V56.4999H47.1998V51.8999Z" fill="white"/>
<path d="M51.8998 51.8999H47.2998V56.4999H51.8998V51.8999Z" fill="white"/>
<path d="M56.4999 51.8999H51.8999V56.4999H56.4999V51.8999Z" fill="white"/>
<path d="M51.8998 112.2H47.2998V116.8H51.8998V112.2Z" fill="#CCCCE2"/>
<path d="M56.4999 112.2H51.8999V116.8H56.4999V112.2Z" fill="#CCCCE2"/>
<path d="M28.6998 112.2H24.0999V116.8H28.6998V112.2Z" fill="#CCCCE2"/>
<path d="M33.3 112.2H28.7V116.8H33.3V112.2Z" fill="#CCCCE2"/>
<path d="M47.1998 107.5H42.5999V112.1H47.1998V107.5Z" fill="#6262A3"/>
<path d="M51.8998 107.5H47.2998V112.1H51.8998V107.5Z" fill="#6262A3"/>
<path d="M56.4999 107.5H51.8999V112.1H56.4999V107.5Z" fill="#6262A3"/>
<path d="M24.1 107.5H19.5V112.1H24.1V107.5Z" fill="#6262A3"/>
<path d="M28.6998 107.5H24.0999V112.1H28.6998V107.5Z" fill="#6262A3"/>
<path d="M33.3 107.5H28.7V112.1H33.3V107.5Z" fill="#6262A3"/>
<path d="M47.1998 102.9H42.5999V107.5H47.1998V102.9Z" fill="#45447F"/>
<path d="M51.8998 102.9H47.2998V107.5H51.8998V102.9Z" fill="#45447F"/>
<path d="M56.4999 102.9H51.8999V107.5H56.4999V102.9Z" fill="#45447F"/>
<path d="M33.3 102.9H28.7V107.5H33.3V102.9Z" fill="#45447F"/>
<path d="M24.1 102.9H19.5V107.5H24.1V102.9Z" fill="#45447F"/>
<path d="M24.1 98.2998H19.5V102.9H24.1V98.2998Z" fill="#45447F"/>
<path d="M28.6998 102.9H24.0999V107.5H28.6998V102.9Z" fill="#45447F"/>
<path d="M28.6998 98.2998H24.0999V102.9H28.6998V98.2998Z" fill="#45447F"/>
<path d="M33.3 98.2998H28.7V102.9H33.3V98.2998Z" fill="#45447F"/>
<path d="M37.9999 98.2998H33.3999V102.9H37.9999V98.2998Z" fill="#45447F"/>
<path d="M42.6 98.2998H38V102.9H42.6V98.2998Z" fill="#45447F"/>
<path d="M47.1998 98.2998H42.5999V102.9H47.1998V98.2998Z" fill="#45447F"/>
<path d="M51.8998 98.2998H47.2998V102.9H51.8998V98.2998Z" fill="#45447F"/>
<path d="M56.4999 98.2998H51.8999V102.9H56.4999V98.2998Z" fill="#45447F"/>
<path d="M28.6998 93.5999H24.0999V98.1999H28.6998V93.5999Z" fill="#45447F"/>
<path d="M33.3 93.5999H28.7V98.1999H33.3V93.5999Z" fill="#45447F"/>
<path d="M37.9999 93.5999H33.3999V98.1999H37.9999V93.5999Z" fill="#45447F"/>
<path d="M42.6 93.5999H38V98.1999H42.6V93.5999Z" fill="#45447F"/>
<path d="M47.1998 93.5999H42.5999V98.1999H47.1998V93.5999Z" fill="#45447F"/>
<path d="M51.8998 93.5999H47.2998V98.1999H51.8998V93.5999Z" fill="#45447F"/>
<path d="M56.4999 93.5999H51.8999V98.1999H56.4999V93.5999Z" fill="#45447F"/>
<path d="M37.9999 75.0999H33.3999V79.6999H37.9999V75.0999Z" fill="#262322"/>
<path d="M42.6 75.0999H38V79.6999H42.6V75.0999Z" fill="#262322"/>
<path d="M47.1998 75.0999H42.5999V79.6999H47.1998V75.0999Z" fill="#262322"/>
<path d="M51.8998 75.0999H47.2998V79.6999H51.8998V75.0999Z" fill="#262322"/>
<path d="M56.4999 75.0999H51.8999V79.6999H56.4999V75.0999Z" fill="#262322"/>
<path d="M61.1 75.0999H56.5V79.6999H61.1V75.0999Z" fill="#262322"/>
<path d="M61.1 84.2998H56.5V88.8998H61.1V84.2998Z" fill="#383533"/>
<path d="M61.1 79.7H56.5V84.2999H61.1V79.7Z" fill="#383533"/>
<path d="M24.1 75.0999H19.5V79.6999H24.1V75.0999Z" fill="#262322"/>
<path d="M24.1 79.7H19.5V84.2999H24.1V79.7Z" fill="#383533"/>
<path d="M28.6998 75.0999H24.0999V79.6999H28.6998V75.0999Z" fill="#262322"/>
<path d="M28.6998 79.7H24.0999V84.2999H28.6998V79.7Z" fill="#262322"/>
<path d="M33.3 84.2998H28.7V88.8998H33.3V84.2998Z" fill="#383533"/>
<path d="M33.3 89H28.7V93.6H33.3V89Z" fill="#383533"/>
<path d="M33.3 75.0999H28.7V79.6999H33.3V75.0999Z" fill="#262322"/>
<path d="M33.3 79.7H28.7V84.2999H33.3V79.7Z" fill="#383533"/>
<path d="M37.9999 79.7H33.3999V84.2999H37.9999V79.7Z" fill="#383533"/>
<path d="M37.9999 84.2998H33.3999V88.8998H37.9999V84.2998Z" fill="#383533"/>
<path d="M37.9999 89H33.3999V93.6H37.9999V89Z" fill="#383533"/>
<path d="M42.6 89H38V93.6H42.6V89Z" fill="#383533"/>
<path d="M42.6 84.2998H38V88.8998H42.6V84.2998Z" fill="#383533"/>
<path d="M42.6 79.7H38V84.2999H42.6V79.7Z" fill="#383533"/>
<path d="M47.1998 79.7H42.5999V84.2999H47.1998V79.7Z" fill="#383533"/>
<path d="M47.1998 84.2998H42.5999V88.8998H47.1998V84.2998Z" fill="#383533"/>
<path d="M47.1998 89H42.5999V93.6H47.1998V89Z" fill="#383533"/>
<path d="M51.8998 89H47.2998V93.6H51.8998V89Z" fill="#383533"/>
<path d="M51.8998 84.2998H47.2998V88.8998H51.8998V84.2998Z" fill="#383533"/>
<path d="M51.8998 79.7H47.2998V84.2999H51.8998V79.7Z" fill="#383533"/>
<path d="M56.4999 89H51.8999V93.6H56.4999V89Z" fill="#383533"/>
<path d="M56.4999 79.7H51.8999V84.2999H56.4999V79.7Z" fill="#262322"/>
<path d="M56.4999 84.2998H51.8999V88.8998H56.4999V84.2998Z" fill="#262322"/>
<path d="M19.3998 84.2998H14.7998V88.8998H19.3998V84.2998Z" fill="#383533"/>
<path d="M19.3998 79.7H14.7998V84.2999H19.3998V79.7Z" fill="#383533"/>
<path d="M19.3998 75.0999H14.7998V79.6999H19.3998V75.0999Z" fill="#262322"/>
<path d="M24.1 84.2998H19.5V88.8998H24.1V84.2998Z" fill="#383533"/>
<path d="M28.6998 84.2998H24.0999V88.8998H28.6998V84.2998Z" fill="#262322"/>
<path d="M28.6998 89H24.0999V93.6H28.6998V89Z" fill="#262322"/>
<path d="M61.1 89H56.5V93.6H61.1V89Z" fill="#D17E46"/>
<path d="M24.1 89H19.5V93.6H24.1V89Z" fill="#D17E46"/>
<path d="M19.3998 89H14.7998V93.6H19.3998V89Z" fill="#D17E46"/>
<path d="M61.1 93.5999H56.5V98.1999H61.1V93.5999Z" fill="#EAA36E"/>
<path d="M19.3998 93.5999H14.7998V98.1999H19.3998V93.5999Z" fill="#EAA36E"/>
<path d="M24.1 93.5999H19.5V98.1999H24.1V93.5999Z" fill="#EAA36E"/>
<path d="M74.9999 14.7998H70.3999V19.3998H74.9999V14.7998Z" fill="#5B422E"/>
<path d="M70.3998 14.7998H65.7998V19.3998H70.3998V14.7998Z" fill="#EAA36E"/>
<path d="M61.1 10.2H56.5V14.8H61.1V10.2Z" fill="#5B422E"/>
<path d="M65.8 10.2H61.2V14.8H65.8V10.2Z" fill="#5B422E"/>
<path d="M51.8998 10.2H47.2998V14.8H51.8998V10.2Z" fill="#5B422E"/>
<path d="M56.4999 5.5H51.8999V10.1H56.4999V5.5Z" fill="#5B422E"/>
<path d="M56.4999 10.2H51.8999V14.8H56.4999V10.2Z" fill="#5B422E"/>
<path d="M33.3 5.5H28.7V10.1H33.3V5.5Z" fill="#5B422E"/>
<path d="M37.9999 5.5H33.3999V10.1H37.9999V5.5Z" fill="#5B422E"/>
<path d="M42.6 5.5H38V10.1H42.6V5.5Z" fill="#5B422E"/>
<path d="M47.1998 5.5H42.5999V10.1H47.1998V5.5Z" fill="#5B422E"/>
<path d="M51.8998 5.5H47.2998V10.1H51.8998V5.5Z" fill="#5B422E"/>
<path d="M19.3998 10.2H14.7998V14.8H19.3998V10.2Z" fill="#5B422E"/>
<path d="M24.1 10.2H19.5V14.8H24.1V10.2Z" fill="#5B422E"/>
<path d="M28.6998 10.2H24.0999V14.8H28.6998V10.2Z" fill="#5B422E"/>
<path d="M33.3 10.2H28.7V14.8H33.3V10.2Z" fill="#5B422E"/>
<path d="M37.9999 10.2H33.3999V14.8H37.9999V10.2Z" fill="#5B422E"/>
<path d="M42.6 10.2H38V14.8H42.6V10.2Z" fill="#5B422E"/>
<path d="M47.1998 10.2H42.5999V14.8H47.1998V10.2Z" fill="#5B422E"/>
<path d="M19.3998 14.7998H14.7998V19.3998H19.3998V14.7998Z" fill="#5B422E"/>
<path d="M24.1 14.7998H19.5V19.3998H24.1V14.7998Z" fill="#EAA36E"/>
<path d="M28.6998 14.7998H24.0999V19.3998H28.6998V14.7998Z" fill="#EAA36E"/>
<path d="M33.3 14.7998H28.7V19.3998H33.3V14.7998Z" fill="#EAA36E"/>
<path d="M37.9999 14.7998H33.3999V19.3998H37.9999V14.7998Z" fill="#EAA36E"/>
<path d="M42.6 14.7998H38V19.3998H42.6V14.7998Z" fill="#5B422E"/>
<path d="M47.1998 14.7998H42.5999V19.3998H47.1998V14.7998Z" fill="#5B422E"/>
<path d="M51.8998 14.7998H47.2998V19.3998H51.8998V14.7998Z" fill="#5B422E"/>
<path d="M56.4999 14.7998H51.8999V19.3998H56.4999V14.7998Z" fill="#EAA36E"/>
<path d="M61.1 14.7998H56.5V19.3998H61.1V14.7998Z" fill="#EAA36E"/>
<path d="M65.8 14.7998H61.2V19.3998H65.8V14.7998Z" fill="#EAA36E"/>
<path d="M24.1 42.5999H19.5V47.1999H24.1V42.5999Z" fill="#EAA36E"/>
<path d="M24.1 47.2998H19.5V51.8998H24.1V47.2998Z" fill="#EAA36E"/>
<path d="M24.1 38H19.5V42.6H24.1V38Z" fill="#EAA36E"/>
<path d="M28.6998 38H24.0999V42.6H28.6998V38Z" fill="#EAA36E"/>
<path d="M65.8 38H61.2V42.6H65.8V38Z" fill="#EAA36E"/>
<path d="M70.3998 38H65.7998V42.6H70.3998V38Z" fill="#EAA36E"/>
<path d="M70.3998 33.2998H65.7998V37.8998H70.3998V33.2998Z" fill="#EAA36E"/>
<path d="M65.8 51.8999H61.2V56.4999H65.8V51.8999Z" fill="#EAA36E"/>
<path d="M28.6998 51.8999H24.0999V56.4999H28.6998V51.8999Z" fill="#EAA36E"/>
<path d="M70.3998 51.8999H65.7998V56.4999H70.3998V51.8999Z" fill="#EAA36E"/>
<path d="M74.9999 47.2998H70.3999V51.8998H74.9999V47.2998Z" fill="#EAA36E"/>
<path d="M74.9999 42.5999H70.3999V47.1999H74.9999V42.5999Z" fill="#EAA36E"/>
<path d="M74.9999 51.8999H70.3999V56.4999H74.9999V51.8999Z" fill="#EAA36E"/>
<path d="M74.9999 38H70.3999V42.6H74.9999V38Z" fill="#EAA36E"/>
<path d="M74.9999 24.0999H70.3999V28.6998H74.9999V24.0999Z" fill="#473121"/>
<path d="M74.9999 28.7H70.3999V33.3H74.9999V28.7Z" fill="#473121"/>
<path d="M74.9999 33.2998H70.3999V37.8998H74.9999V33.2998Z" fill="#EAA36E"/>
<path d="M74.9999 19.3999H70.3999V23.9999H74.9999V19.3999Z" fill="#5B422E"/>
<path d="M65.8 28.7H61.2V33.3H65.8V28.7Z" fill="#EAA36E"/>
<path d="M70.3998 28.7H65.7998V33.3H70.3998V28.7Z" fill="#EAA36E"/>
<path d="M70.3998 24.0999H65.7998V28.6998H70.3998V24.0999Z" fill="#EAA36E"/>
<path d="M61.1 38H56.5V42.6H61.1V38Z" fill="#EAA36E"/>
<path d="M61.1 42.5999H56.5V47.1999H61.1V42.5999Z" fill="#422C1C"/>
<path d="M61.1 33.2998H56.5V37.8998H61.1V33.2998Z" fill="#EAA36E"/>
<path d="M65.8 33.2998H61.2V37.8998H65.8V33.2998Z" fill="#EAA36E"/>
<path d="M56.4999 42.5999H51.8999V47.1999H56.4999V42.5999Z" fill="#EAA36E"/>
<path d="M47.1998 42.5999H42.5999V47.1999H47.1998V42.5999Z" fill="#EAA36E"/>
<path d="M51.8998 42.5999H47.2998V47.1999H51.8998V42.5999Z" fill="#EAA36E"/>
<path d="M56.4999 38H51.8999V42.6H56.4999V38Z" fill="#EAA36E"/>
<path d="M33.3 38H28.7V42.6H33.3V38Z" fill="#EAA36E"/>
<path d="M51.8998 28.7H47.2998V33.3H51.8998V28.7Z" fill="#EAA36E"/>
<path d="M56.4999 33.2998H51.8999V37.8998H56.4999V33.2998Z" fill="#EAA36E"/>
<path d="M56.4999 28.7H51.8999V33.3H56.4999V28.7Z" fill="#EAA36E"/>
<path d="M61.1 28.7H56.5V33.3H61.1V28.7Z" fill="#EAA36E"/>
<path d="M19.3998 42.5999H14.7998V47.1999H19.3998V42.5999Z" fill="#EAA36E"/>
<path d="M19.3998 38H14.7998V42.6H19.3998V38Z" fill="#EAA36E"/>
<path d="M37.9999 38H33.3999V42.6H37.9999V38Z" fill="#EAA36E"/>
<path d="M37.9999 42.5999H33.3999V47.1999H37.9999V42.5999Z" fill="#EAA36E"/>
<path d="M42.6 42.5999H38V47.1999H42.6V42.5999Z" fill="#EAA36E"/>
<path d="M42.6 38H38V42.6H42.6V38Z" fill="#EAA36E"/>
<path d="M47.1998 38H42.5999V42.6H47.1998V38Z" fill="#EAA36E"/>
<path d="M51.8998 38H47.2998V42.6H51.8998V38Z" fill="#EAA36E"/>
<path d="M19.3998 33.2998H14.7998V37.8998H19.3998V33.2998Z" fill="#EAA36E"/>
<path d="M19.3998 28.7H14.7998V33.3H19.3998V28.7Z" fill="#EAA36E"/>
<path d="M19.3998 24.0999H14.7998V28.6998H19.3998V24.0999Z" fill="#EAA36E"/>
<path d="M24.1 28.7H19.5V33.3H24.1V28.7Z" fill="#EAA36E"/>
<path d="M24.1 33.2998H19.5V37.8998H24.1V33.2998Z" fill="#EAA36E"/>
<path d="M24.1 24.0999H19.5V28.6998H24.1V24.0999Z" fill="#EAA36E"/>
<path d="M28.6998 28.7H24.0999V33.3H28.6998V28.7Z" fill="#EAA36E"/>
<path d="M28.6998 33.2998H24.0999V37.8998H28.6998V33.2998Z" fill="#EAA36E"/>
<path d="M28.6998 24.0999H24.0999V28.6998H28.6998V24.0999Z" fill="#EAA36E"/>
<path d="M33.3 24.0999H28.7V28.6998H33.3V24.0999Z" fill="#EAA36E"/>
<path d="M33.3 33.2998H28.7V37.8998H33.3V33.2998Z" fill="#EAA36E"/>
<path d="M33.3 28.7H28.7V33.3H33.3V28.7Z" fill="#EAA36E"/>
<path d="M37.9999 24.0999H33.3999V28.6998H37.9999V24.0999Z" fill="#EAA36E"/>
<path d="M37.9999 28.7H33.3999V33.3H37.9999V28.7Z" fill="#EAA36E"/>
<path d="M37.9999 33.2998H33.3999V37.8998H37.9999V33.2998Z" fill="#EAA36E"/>
<path d="M42.6 33.2998H38V37.8998H42.6V33.2998Z" fill="#EAA36E"/>
<path d="M42.6 28.7H38V33.3H42.6V28.7Z" fill="#EAA36E"/>
<path d="M42.6 24.0999H38V28.6998H42.6V24.0999Z" fill="#EAA36E"/>
<path d="M47.1998 33.2998H42.5999V37.8998H47.1998V33.2998Z" fill="#EAA36E"/>
<path d="M47.1998 24.0999H42.5999V28.6998H47.1998V24.0999Z" fill="#EAA36E"/>
<path d="M47.1998 28.7H42.5999V33.3H47.1998V28.7Z" fill="#EAA36E"/>
<path d="M51.8998 24.0999H47.2998V28.6998H51.8998V24.0999Z" fill="#EAA36E"/>
<path d="M51.8998 33.2998H47.2998V37.8998H51.8998V33.2998Z" fill="#EAA36E"/>
<path d="M61.1 19.3999H56.5V23.9999H61.1V19.3999Z" fill="#EAA36E"/>
<path d="M65.8 19.3999H61.2V23.9999H65.8V19.3999Z" fill="#EAA36E"/>
<path d="M70.3998 19.3999H65.7998V23.9999H70.3998V19.3999Z" fill="#EAA36E"/>
<path d="M65.8 24.0999H61.2V28.6998H65.8V24.0999Z" fill="#EAA36E"/>
<path d="M61.1 24.0999H56.5V28.6998H61.1V24.0999Z" fill="#EAA36E"/>
<path d="M56.4999 24.0999H51.8999V28.6998H56.4999V24.0999Z" fill="#EAA36E"/>
<path d="M56.4999 19.3999H51.8999V23.9999H56.4999V19.3999Z" fill="#EAA36E"/>
<path d="M51.8998 19.3999H47.2998V23.9999H51.8998V19.3999Z" fill="#EAA36E"/>
<path d="M47.1998 19.3999H42.5999V23.9999H47.1998V19.3999Z" fill="#EAA36E"/>
<path d="M42.6 19.3999H38V23.9999H42.6V19.3999Z" fill="#EAA36E"/>
<path d="M37.9999 19.3999H33.3999V23.9999H37.9999V19.3999Z" fill="#EAA36E"/>
<path d="M33.3 19.3999H28.7V23.9999H33.3V19.3999Z" fill="#EAA36E"/>
<path d="M28.6998 19.3999H24.0999V23.9999H28.6998V19.3999Z" fill="#EAA36E"/>
<path d="M24.1 51.8999H19.5V56.4999H24.1V51.8999Z" fill="#EAA36E"/>
<path d="M24.1 19.3999H19.5V23.9999H24.1V19.3999Z" fill="#EAA36E"/>
<path d="M19.3998 51.8999H14.7998V56.4999H19.3998V51.8999Z" fill="#D17E46"/>
<path d="M19.3998 47.2998H14.7998V51.8998H19.3998V47.2998Z" fill="#D17E46"/>
<path d="M19.3998 19.3999H14.7998V23.9999H19.3998V19.3999Z" fill="#EAA36E"/>
<path d="M14.8 47.2998H10.2V51.8998H14.8V47.2998Z" fill="#D17E46"/>
<path d="M14.8 42.5999H10.2V47.1999H14.8V42.5999Z" fill="#D17E46"/>
<path d="M14.8 38H10.2V42.6H14.8V38Z" fill="#D17E46"/>
<path d="M14.8 33.2998H10.2V37.8998H14.8V33.2998Z" fill="#473121"/>
<path d="M14.8 28.7H10.2V33.3H14.8V28.7Z" fill="#473121"/>
<path d="M14.8 24.0999H10.2V28.6998H14.8V24.0999Z" fill="#5B422E"/>
<path d="M14.8 19.3999H10.2V23.9999H14.8V19.3999Z" fill="#5B422E"/>
<path d="M10.1998 51.8999H5.59985V56.4999H10.1998V51.8999Z" fill="#D17E46"/>
<path d="M10.1998 47.2998H5.59985V51.8998H10.1998V47.2998Z" fill="#EAA36E"/>
</svg>
