<svg width="84" height="112" viewBox="0 0 84 112" fill="none" xmlns="http://www.w3.org/2000/svg">
<path d="M83.7001 65.3999H79.1001V69.9999H83.7001V65.3999Z" fill="#7A2222"/>
<path d="M83.7001 60.8H79.1001V65.4001H83.7001V60.8Z" fill="#7A2222"/>
<path d="M83.7001 56.2H79.1001V60.7999H83.7001V56.2Z" fill="#7A2222"/>
<path d="M83.7001 51.5H79.1001V56.1H83.7001V51.5Z" fill="#7A2222"/>
<path d="M83.7001 46.8999H79.1001V51.4999H83.7001V46.8999Z" fill="#7A2222"/>
<path d="M83.7001 42.3H79.1001V46.9001H83.7001V42.3Z" fill="#7A2222"/>
<path d="M83.7001 37.6001H79.1001V42.2001H83.7001V37.6001Z" fill="#7A2222"/>
<path d="M83.7001 33H79.1001V37.6H83.7001V33Z" fill="#7A2222"/>
<path d="M79.0002 60.8H74.4001V65.4001H79.0002V60.8Z" fill="#7A2222"/>
<path d="M79.0002 56.2H74.4001V60.7999H79.0002V56.2Z" fill="#7A2222"/>
<path d="M79.0002 51.5H74.4001V56.1H79.0002V51.5Z" fill="#7A2222"/>
<path d="M79.0002 46.8999H74.4001V51.4999H79.0002V46.8999Z" fill="#7A2222"/>
<path d="M79.0002 42.3H74.4001V46.9001H79.0002V42.3Z" fill="#7A2222"/>
<path d="M79.0002 37.6001H74.4001V42.2001H79.0002V37.6001Z" fill="#7A2222"/>
<path d="M79.0002 33H74.4001V37.6H79.0002V33Z" fill="#AD3A31"/>
<path d="M79.0002 28.3H74.4001V32.9H79.0002V28.3Z" fill="#AD3A31"/>
<path d="M79.0002 23.7H74.4001V28.3H79.0002V23.7Z" fill="#AD3A31"/>
<path d="M79.0002 19.1001H74.4001V23.7001H79.0002V19.1001Z" fill="#AD3A31"/>
<path d="M79.0002 14.3999H74.4001V18.9999H79.0002V14.3999Z" fill="#CC4E48"/>
<path d="M74.4001 65.3999H69.8V69.9999H74.4001V65.3999Z" fill="#7A2222"/>
<path d="M74.4001 60.8H69.8V65.4001H74.4001V60.8Z" fill="#D17E46"/>
<path d="M74.4001 56.2H69.8V60.7999H74.4001V56.2Z" fill="#D17E46"/>
<path d="M74.4001 51.5H69.8V56.1H74.4001V51.5Z" fill="#D17E46"/>
<path d="M74.4001 46.8999H69.8V51.4999H74.4001V46.8999Z" fill="#D17E46"/>
<path d="M74.4001 42.3H69.8V46.9001H74.4001V42.3Z" fill="#D17E46"/>
<path d="M74.4001 37.6001H69.8V42.2001H74.4001V37.6001Z" fill="#D17E46"/>
<path d="M74.4001 33H69.8V37.6H74.4001V33Z" fill="#7A2222"/>
<path d="M74.4001 28.3H69.8V32.9H74.4001V28.3Z" fill="#7A2222"/>
<path d="M74.4001 23.7H69.8V28.3H74.4001V23.7Z" fill="#AD3A31"/>
<path d="M74.4001 19.1001H69.8V23.7001H74.4001V19.1001Z" fill="#AD3A31"/>
<path d="M74.4001 14.3999H69.8V18.9999H74.4001V14.3999Z" fill="#CC4E48"/>
<path d="M69.8002 65.3999H65.2002V69.9999H69.8002V65.3999Z" fill="#D17E46"/>
<path d="M69.8002 60.8H65.2002V65.4001H69.8002V60.8Z" fill="#D17E46"/>
<path d="M69.8002 56.2H65.2002V60.7999H69.8002V56.2Z" fill="#EAA36E"/>
<path d="M69.8002 51.5H65.2002V56.1H69.8002V51.5Z" fill="#EAA36E"/>
<path d="M69.8002 46.8999H65.2002V51.4999H69.8002V46.8999Z" fill="#EAA36E"/>
<path d="M69.8002 42.3H65.2002V46.9001H69.8002V42.3Z" fill="#D17E46"/>
<path d="M69.8002 37.6001H65.2002V42.2001H69.8002V37.6001Z" fill="#D17E46"/>
<path d="M69.8002 33H65.2002V37.6H69.8002V33Z" fill="#D17E46"/>
<path d="M69.8002 28.3H65.2002V32.9H69.8002V28.3Z" fill="#D17E46"/>
<path d="M69.8002 23.7H65.2002V28.3H69.8002V23.7Z" fill="#7A2222"/>
<path d="M69.8002 19.1001H65.2002V23.7001H69.8002V19.1001Z" fill="#AD3A31"/>
<path d="M69.8002 14.3999H65.2002V18.9999H69.8002V14.3999Z" fill="#AD3A31"/>
<path d="M69.8002 9.80005H65.2002V14.4H69.8002V9.80005Z" fill="#CC4E48"/>
<path d="M65.1 88.6001H60.5V93.2001H65.1V88.6001Z" fill="#EAA36E"/>
<path d="M65.1 84H60.5V88.6H65.1V84Z" fill="#D17E46"/>
<path d="M65.1 79.3H60.5V83.9001H65.1V79.3Z" fill="#EA94E8"/>
<path d="M65.1 74.7H60.5V79.2999H65.1V74.7Z" fill="#EA94E8"/>
<path d="M65.1 70.1001H60.5V74.7001H65.1V70.1001Z" fill="#D371D3"/>
<path d="M65.1 65.3999H60.5V69.9999H65.1V65.3999Z" fill="#D17E46"/>
<path d="M65.1 60.8H60.5V65.4001H65.1V60.8Z" fill="#EAA36E"/>
<path d="M65.1 56.2H60.5V60.7999H65.1V56.2Z" fill="#EAA36E"/>
<path d="M65.1 51.5H60.5V56.1H65.1V51.5Z" fill="#EAA36E"/>
<path d="M65.1 46.8999H60.5V51.4999H65.1V46.8999Z" fill="#EAA36E"/>
<path d="M65.1 42.3H60.5V46.9001H65.1V42.3Z" fill="#21140C"/>
<path d="M65.1 37.6001H60.5V42.2001H65.1V37.6001Z" fill="#21140C"/>
<path d="M65.1 33H60.5V37.6H65.1V33Z" fill="#D17E46"/>
<path d="M65.1 28.3H60.5V32.9H65.1V28.3Z" fill="#D17E46"/>
<path d="M65.1 23.7H60.5V28.3H65.1V23.7Z" fill="#7A2222"/>
<path d="M65.1 19.1001H60.5V23.7001H65.1V19.1001Z" fill="#AD3A31"/>
<path d="M65.1 14.3999H60.5V18.9999H65.1V14.3999Z" fill="#AD3A31"/>
<path d="M65.1 9.80005H60.5V14.4H65.1V9.80005Z" fill="#AD3A31"/>
<path d="M65.1 5.19995H60.5V9.79996H65.1V5.19995Z" fill="#CC4E48"/>
<path d="M60.5002 107.2H55.9001V111.8H60.5002V107.2Z" fill="#853187"/>
<path d="M60.5002 102.5H55.9001V107.1H60.5002V102.5Z" fill="#EAA36E"/>
<path d="M60.5002 97.8999H55.9001V102.5H60.5002V97.8999Z" fill="#D17E46"/>
<path d="M60.5002 93.3H55.9001V97.9001H60.5002V93.3Z" fill="#423932"/>
<path d="M60.5002 88.6001H55.9001V93.2001H60.5002V88.6001Z" fill="#EAA36E"/>
<path d="M60.5002 84H55.9001V88.6H60.5002V84Z" fill="#D17E46"/>
<path d="M60.5002 79.3H55.9001V83.9001H60.5002V79.3Z" fill="#EA94E8"/>
<path d="M60.5002 74.7H55.9001V79.2999H60.5002V74.7Z" fill="#EA94E8"/>
<path d="M60.5002 70.1001H55.9001V74.7001H60.5002V70.1001Z" fill="#D371D3"/>
<path d="M60.5002 65.3999H55.9001V69.9999H60.5002V65.3999Z" fill="#D17E46"/>
<path d="M60.5002 60.8H55.9001V65.4001H60.5002V60.8Z" fill="#EAA36E"/>
<path d="M60.5002 56.2H55.9001V60.7999H60.5002V56.2Z" fill="#EAA36E"/>
<path d="M60.5002 51.5H55.9001V56.1H60.5002V51.5Z" fill="#EAA36E"/>
<path d="M60.5002 46.8999H55.9001V51.4999H60.5002V46.8999Z" fill="#EAA36E"/>
<path d="M60.5002 42.3H55.9001V46.9001H60.5002V42.3Z" fill="#21140C"/>
<path d="M60.5002 37.6001H55.9001V42.2001H60.5002V37.6001Z" fill="#422C1C"/>
<path d="M60.5002 33H55.9001V37.6H60.5002V33Z" fill="#EAA36E"/>
<path d="M60.5002 28.3H55.9001V32.9H60.5002V28.3Z" fill="#D17E46"/>
<path d="M60.5002 23.7H55.9001V28.3H60.5002V23.7Z" fill="#7A2222"/>
<path d="M60.5002 19.1001H55.9001V23.7001H60.5002V19.1001Z" fill="#AD3A31"/>
<path d="M60.5002 14.3999H55.9001V18.9999H60.5002V14.3999Z" fill="#AD3A31"/>
<path d="M60.5002 9.80005H55.9001V14.4H60.5002V9.80005Z" fill="#AD3A31"/>
<path d="M60.5002 5.19995H55.9001V9.79996H60.5002V5.19995Z" fill="#CC4E48"/>
<path d="M55.9001 107.2H51.3V111.8H55.9001V107.2Z" fill="#853187"/>
<path d="M55.9001 102.5H51.3V107.1H55.9001V102.5Z" fill="#EAA36E"/>
<path d="M55.9001 97.8999H51.3V102.5H55.9001V97.8999Z" fill="#D17E46"/>
<path d="M55.9001 93.3H51.3V97.9001H55.9001V93.3Z" fill="#423932"/>
<path d="M55.9001 88.6001H51.3V93.2001H55.9001V88.6001Z" fill="#423932"/>
<path d="M55.9001 84H51.3V88.6H55.9001V84Z" fill="#D371D3"/>
<path d="M55.9001 79.3H51.3V83.9001H55.9001V79.3Z" fill="#D371D3"/>
<path d="M55.9001 74.7H51.3V79.2999H55.9001V74.7Z" fill="#D371D3"/>
<path d="M55.9001 70.1001H51.3V74.7001H55.9001V70.1001Z" fill="#D371D3"/>
<path d="M55.9001 65.3999H51.3V69.9999H55.9001V65.3999Z" fill="#D17E46"/>
<path d="M55.9001 60.8H51.3V65.4001H55.9001V60.8Z" fill="#EAA36E"/>
<path d="M55.9001 56.2H51.3V60.7999H55.9001V56.2Z" fill="#EAA36E"/>
<path d="M55.9001 51.5H51.3V56.1H55.9001V51.5Z" fill="#EAA36E"/>
<path d="M55.9001 46.8999H51.3V51.4999H55.9001V46.8999Z" fill="white"/>
<path d="M55.9001 42.3H51.3V46.9001H55.9001V42.3Z" fill="#EAA36E"/>
<path d="M55.9001 37.6001H51.3V42.2001H55.9001V37.6001Z" fill="#EAA36E"/>
<path d="M55.9001 33H51.3V37.6H55.9001V33Z" fill="#EAA36E"/>
<path d="M55.9001 28.3H51.3V32.9H55.9001V28.3Z" fill="#D17E46"/>
<path d="M55.9001 23.7H51.3V28.3H55.9001V23.7Z" fill="#7A2222"/>
<path d="M55.9001 19.1001H51.3V23.7001H55.9001V19.1001Z" fill="#AD3A31"/>
<path d="M55.9001 14.3999H51.3V18.9999H55.9001V14.3999Z" fill="#AD3A31"/>
<path d="M55.9001 9.80005H51.3V14.4H55.9001V9.80005Z" fill="#AD3A31"/>
<path d="M55.9001 5.19995H51.3V9.79996H55.9001V5.19995Z" fill="#AD3A31"/>
<path d="M55.9001 0.5H51.3V5.10001H55.9001V0.5Z" fill="#CC4E48"/>
<path d="M51.2001 93.3H46.6001V97.9001H51.2001V93.3Z" fill="#423932"/>
<path d="M51.2001 88.6001H46.6001V93.2001H51.2001V88.6001Z" fill="#423932"/>
<path d="M51.2001 84H46.6001V88.6H51.2001V84Z" fill="#EA94E8"/>
<path d="M51.2001 79.3H46.6001V83.9001H51.2001V79.3Z" fill="#EA94E8"/>
<path d="M51.2001 74.7H46.6001V79.2999H51.2001V74.7Z" fill="#EA94E8"/>
<path d="M51.2001 70.1001H46.6001V74.7001H51.2001V70.1001Z" fill="#D371D3"/>
<path d="M51.2001 65.3999H46.6001V69.9999H51.2001V65.3999Z" fill="#D17E46"/>
<path d="M51.2001 60.8H46.6001V65.4001H51.2001V60.8Z" fill="#EAA36E"/>
<path d="M51.2001 56.2H46.6001V60.7999H51.2001V56.2Z" fill="#EAA36E"/>
<path d="M51.2001 51.5H46.6001V56.1H51.2001V51.5Z" fill="white"/>
<path d="M51.2001 46.8999H46.6001V51.4999H51.2001V46.8999Z" fill="white"/>
<path d="M51.2001 42.3H46.6001V46.9001H51.2001V42.3Z" fill="#EAA36E"/>
<path d="M51.2001 37.6001H46.6001V42.2001H51.2001V37.6001Z" fill="#EAA36E"/>
<path d="M51.2001 33H46.6001V37.6H51.2001V33Z" fill="#EAA36E"/>
<path d="M51.2001 28.3H46.6001V32.9H51.2001V28.3Z" fill="#D17E46"/>
<path d="M51.2001 23.7H46.6001V28.3H51.2001V23.7Z" fill="#7A2222"/>
<path d="M51.2001 19.1001H46.6001V23.7001H51.2001V19.1001Z" fill="#AD3A31"/>
<path d="M51.2001 14.3999H46.6001V18.9999H51.2001V14.3999Z" fill="#AD3A31"/>
<path d="M51.2001 9.80005H46.6001V14.4H51.2001V9.80005Z" fill="#AD3A31"/>
<path d="M51.2001 5.19995H46.6001V9.79996H51.2001V5.19995Z" fill="#AD3A31"/>
<path d="M51.2001 0.5H46.6001V5.10001H51.2001V0.5Z" fill="#CC4E48"/>
<path d="M46.6 93.3H42V97.9001H46.6V93.3Z" fill="#423932"/>
<path d="M46.6 88.6001H42V93.2001H46.6V88.6001Z" fill="#423932"/>
<path d="M46.6 84H42V88.6H46.6V84Z" fill="#EA94E8"/>
<path d="M46.6 79.3H42V83.9001H46.6V79.3Z" fill="#EA94E8"/>
<path d="M46.6 74.7H42V79.2999H46.6V74.7Z" fill="#EA94E8"/>
<path d="M46.6 70.1001H42V74.7001H46.6V70.1001Z" fill="#D371D3"/>
<path d="M46.6 65.3999H42V69.9999H46.6V65.3999Z" fill="#D17E46"/>
<path d="M46.6 60.8H42V65.4001H46.6V60.8Z" fill="#EAA36E"/>
<path d="M46.6 56.2H42V60.7999H46.6V56.2Z" fill="white"/>
<path d="M46.6 51.5H42V56.1H46.6V51.5Z" fill="white"/>
<path d="M46.6 46.8999H42V51.4999H46.6V46.8999Z" fill="white"/>
<path d="M46.6 42.3H42V46.9001H46.6V42.3Z" fill="#EAA36E"/>
<path d="M46.6 37.6001H42V42.2001H46.6V37.6001Z" fill="#EAA36E"/>
<path d="M46.6 33H42V37.6H46.6V33Z" fill="#EAA36E"/>
<path d="M46.6 28.3H42V32.9H46.6V28.3Z" fill="#D17E46"/>
<path d="M46.6 23.7H42V28.3H46.6V23.7Z" fill="#7A2222"/>
<path d="M46.6 19.1001H42V23.7001H46.6V19.1001Z" fill="#AD3A31"/>
<path d="M46.6 14.3999H42V18.9999H46.6V14.3999Z" fill="#AD3A31"/>
<path d="M46.6 9.80005H42V14.4H46.6V9.80005Z" fill="#AD3A31"/>
<path d="M46.6 5.19995H42V9.79996H46.6V5.19995Z" fill="#AD3A31"/>
<path d="M46.6 0.5H42V5.10001H46.6V0.5Z" fill="#CC4E48"/>
<path d="M42.0002 93.3H37.4001V97.9001H42.0002V93.3Z" fill="#423932"/>
<path d="M42.0002 88.6001H37.4001V93.2001H42.0002V88.6001Z" fill="#423932"/>
<path d="M42.0002 84H37.4001V88.6H42.0002V84Z" fill="#EA94E8"/>
<path d="M42.0002 79.3H37.4001V83.9001H42.0002V79.3Z" fill="#EA94E8"/>
<path d="M42.0002 74.7H37.4001V79.2999H42.0002V74.7Z" fill="#EA94E8"/>
<path d="M42.0002 70.1001H37.4001V74.7001H42.0002V70.1001Z" fill="#D371D3"/>
<path d="M42.0002 65.3999H37.4001V69.9999H42.0002V65.3999Z" fill="#D17E46"/>
<path d="M42.0002 60.8H37.4001V65.4001H42.0002V60.8Z" fill="#EAA36E"/>
<path d="M42.0002 56.2H37.4001V60.7999H42.0002V56.2Z" fill="white"/>
<path d="M42.0002 51.5H37.4001V56.1H42.0002V51.5Z" fill="white"/>
<path d="M42.0002 46.8999H37.4001V51.4999H42.0002V46.8999Z" fill="white"/>
<path d="M42.0002 42.3H37.4001V46.9001H42.0002V42.3Z" fill="#EAA36E"/>
<path d="M42.0002 37.6001H37.4001V42.2001H42.0002V37.6001Z" fill="#EAA36E"/>
<path d="M42.0002 33H37.4001V37.6H42.0002V33Z" fill="#EAA36E"/>
<path d="M42.0002 28.3H37.4001V32.9H42.0002V28.3Z" fill="#D17E46"/>
<path d="M42.0002 23.7H37.4001V28.3H42.0002V23.7Z" fill="#7A2222"/>
<path d="M42.0002 19.1001H37.4001V23.7001H42.0002V19.1001Z" fill="#AD3A31"/>
<path d="M42.0002 14.3999H37.4001V18.9999H42.0002V14.3999Z" fill="#AD3A31"/>
<path d="M42.0002 9.80005H37.4001V14.4H42.0002V9.80005Z" fill="#AD3A31"/>
<path d="M42.0002 5.19995H37.4001V9.79996H42.0002V5.19995Z" fill="#AD3A31"/>
<path d="M42.0002 0.5H37.4001V5.10001H42.0002V0.5Z" fill="#CC4E48"/>
<path d="M37.3002 93.3H32.7002V97.9001H37.3002V93.3Z" fill="#423932"/>
<path d="M37.3002 88.6001H32.7002V93.2001H37.3002V88.6001Z" fill="#423932"/>
<path d="M37.3002 84H32.7002V88.6H37.3002V84Z" fill="#EA94E8"/>
<path d="M37.3002 79.3H32.7002V83.9001H37.3002V79.3Z" fill="#EA94E8"/>
<path d="M37.3002 74.7H32.7002V79.2999H37.3002V74.7Z" fill="#EA94E8"/>
<path d="M37.3002 70.1001H32.7002V74.7001H37.3002V70.1001Z" fill="#D371D3"/>
<path d="M37.3002 65.3999H32.7002V69.9999H37.3002V65.3999Z" fill="#D17E46"/>
<path d="M37.3002 60.8H32.7002V65.4001H37.3002V60.8Z" fill="#EAA36E"/>
<path d="M37.3002 56.2H32.7002V60.7999H37.3002V56.2Z" fill="#EAA36E"/>
<path d="M37.3002 51.5H32.7002V56.1H37.3002V51.5Z" fill="white"/>
<path d="M37.3002 46.8999H32.7002V51.4999H37.3002V46.8999Z" fill="white"/>
<path d="M37.3002 42.3H32.7002V46.9001H37.3002V42.3Z" fill="#EAA36E"/>
<path d="M37.3002 37.6001H32.7002V42.2001H37.3002V37.6001Z" fill="#EAA36E"/>
<path d="M37.3002 33H32.7002V37.6H37.3002V33Z" fill="#EAA36E"/>
<path d="M37.3002 28.3H32.7002V32.9H37.3002V28.3Z" fill="#D17E46"/>
<path d="M37.3002 23.7H32.7002V28.3H37.3002V23.7Z" fill="#7A2222"/>
<path d="M37.3002 19.1001H32.7002V23.7001H37.3002V19.1001Z" fill="#AD3A31"/>
<path d="M37.3002 14.3999H32.7002V18.9999H37.3002V14.3999Z" fill="#AD3A31"/>
<path d="M37.3002 9.80005H32.7002V14.4H37.3002V9.80005Z" fill="#AD3A31"/>
<path d="M37.3002 5.19995H32.7002V9.79996H37.3002V5.19995Z" fill="#AD3A31"/>
<path d="M37.3002 0.5H32.7002V5.10001H37.3002V0.5Z" fill="#CC4E48"/>
<path d="M32.7001 107.2H28.1001V111.8H32.7001V107.2Z" fill="#853187"/>
<path d="M32.7001 102.5H28.1001V107.1H32.7001V102.5Z" fill="#EAA36E"/>
<path d="M32.7001 97.8999H28.1001V102.5H32.7001V97.8999Z" fill="#D17E46"/>
<path d="M32.7001 93.3H28.1001V97.9001H32.7001V93.3Z" fill="#423932"/>
<path d="M32.7001 88.6001H28.1001V93.2001H32.7001V88.6001Z" fill="#423932"/>
<path d="M32.7001 84H28.1001V88.6H32.7001V84Z" fill="#EA94E8"/>
<path d="M32.7001 79.3H28.1001V83.9001H32.7001V79.3Z" fill="#EA94E8"/>
<path d="M32.7001 74.7H28.1001V79.2999H32.7001V74.7Z" fill="#EA94E8"/>
<path d="M32.7001 70.1001H28.1001V74.7001H32.7001V70.1001Z" fill="#D371D3"/>
<path d="M32.7001 65.3999H28.1001V69.9999H32.7001V65.3999Z" fill="#D17E46"/>
<path d="M32.7001 60.8H28.1001V65.4001H32.7001V60.8Z" fill="#EAA36E"/>
<path d="M32.7001 56.2H28.1001V60.7999H32.7001V56.2Z" fill="#EAA36E"/>
<path d="M32.7001 51.5H28.1001V56.1H32.7001V51.5Z" fill="#EAA36E"/>
<path d="M32.7001 46.8999H28.1001V51.4999H32.7001V46.8999Z" fill="white"/>
<path d="M32.7001 42.3H28.1001V46.9001H32.7001V42.3Z" fill="#EAA36E"/>
<path d="M32.7001 37.6001H28.1001V42.2001H32.7001V37.6001Z" fill="#EAA36E"/>
<path d="M32.7001 33H28.1001V37.6H32.7001V33Z" fill="#EAA36E"/>
<path d="M32.7001 28.3H28.1001V32.9H32.7001V28.3Z" fill="#D17E46"/>
<path d="M32.7001 23.7H28.1001V28.3H32.7001V23.7Z" fill="#7A2222"/>
<path d="M32.7001 19.1001H28.1001V23.7001H32.7001V19.1001Z" fill="#AD3A31"/>
<path d="M32.7001 14.3999H28.1001V18.9999H32.7001V14.3999Z" fill="#AD3A31"/>
<path d="M32.7001 9.80005H28.1001V14.4H32.7001V9.80005Z" fill="#AD3A31"/>
<path d="M32.7001 5.19995H28.1001V9.79996H32.7001V5.19995Z" fill="#AD3A31"/>
<path d="M32.7001 0.5H28.1001V5.10001H32.7001V0.5Z" fill="#CC4E48"/>
<path d="M28.0002 107.2H23.4001V111.8H28.0002V107.2Z" fill="#853187"/>
<path d="M28.0002 102.5H23.4001V107.1H28.0002V102.5Z" fill="#EAA36E"/>
<path d="M28.0002 97.8999H23.4001V102.5H28.0002V97.8999Z" fill="#D17E46"/>
<path d="M28.0002 93.3H23.4001V97.9001H28.0002V93.3Z" fill="#423932"/>
<path d="M28.0002 88.6001H23.4001V93.2001H28.0002V88.6001Z" fill="#423932"/>
<path d="M28.0002 84H23.4001V88.6H28.0002V84Z" fill="#D371D3"/>
<path d="M28.0002 79.3H23.4001V83.9001H28.0002V79.3Z" fill="#D371D3"/>
<path d="M28.0002 74.7H23.4001V79.2999H28.0002V74.7Z" fill="#D371D3"/>
<path d="M28.0002 70.1001H23.4001V74.7001H28.0002V70.1001Z" fill="#D371D3"/>
<path d="M28.0002 65.3999H23.4001V69.9999H28.0002V65.3999Z" fill="#D17E46"/>
<path d="M28.0002 60.8H23.4001V65.4001H28.0002V60.8Z" fill="#EAA36E"/>
<path d="M28.0002 56.2H23.4001V60.7999H28.0002V56.2Z" fill="#EAA36E"/>
<path d="M28.0002 51.5H23.4001V56.1H28.0002V51.5Z" fill="#EAA36E"/>
<path d="M28.0002 46.8999H23.4001V51.4999H28.0002V46.8999Z" fill="#EAA36E"/>
<path d="M28.0002 42.3H23.4001V46.9001H28.0002V42.3Z" fill="#21140C"/>
<path d="M28.0002 37.6001H23.4001V42.2001H28.0002V37.6001Z" fill="#21140C"/>
<path d="M28.0002 33H23.4001V37.6H28.0002V33Z" fill="#D17E46"/>
<path d="M28.0002 28.3H23.4001V32.9H28.0002V28.3Z" fill="#D17E46"/>
<path d="M28.0002 23.7H23.4001V28.3H28.0002V23.7Z" fill="#7A2222"/>
<path d="M28.0002 19.1001H23.4001V23.7001H28.0002V19.1001Z" fill="#AD3A31"/>
<path d="M28.0002 14.3999H23.4001V18.9999H28.0002V14.3999Z" fill="#AD3A31"/>
<path d="M28.0002 9.80005H23.4001V14.4H28.0002V9.80005Z" fill="#AD3A31"/>
<path d="M28.0002 5.19995H23.4001V9.79996H28.0002V5.19995Z" fill="#CC4E48"/>
<path d="M28.0002 0.5H23.4001V5.10001H28.0002V0.5Z" fill="#CC4E48"/>
<path d="M23.4001 88.6001H18.8V93.2001H23.4001V88.6001Z" fill="#EAA36E"/>
<path d="M23.4001 84H18.8V88.6H23.4001V84Z" fill="#D17E46"/>
<path d="M23.4001 79.3H18.8V83.9001H23.4001V79.3Z" fill="#EA94E8"/>
<path d="M23.4001 74.7H18.8V79.2999H23.4001V74.7Z" fill="#EA94E8"/>
<path d="M23.4001 70.1001H18.8V74.7001H23.4001V70.1001Z" fill="#D371D3"/>
<path d="M23.4001 65.3999H18.8V69.9999H23.4001V65.3999Z" fill="#D17E46"/>
<path d="M23.4001 60.8H18.8V65.4001H23.4001V60.8Z" fill="#EAA36E"/>
<path d="M23.4001 56.2H18.8V60.7999H23.4001V56.2Z" fill="#EAA36E"/>
<path d="M23.4001 51.5H18.8V56.1H23.4001V51.5Z" fill="#EAA36E"/>
<path d="M23.4001 46.8999H18.8V51.4999H23.4001V46.8999Z" fill="#EAA36E"/>
<path d="M23.4001 42.3H18.8V46.9001H23.4001V42.3Z" fill="#21140C"/>
<path d="M23.4001 37.6001H18.8V42.2001H23.4001V37.6001Z" fill="#422C1C"/>
<path d="M23.4001 33H18.8V37.6H23.4001V33Z" fill="#D17E46"/>
<path d="M23.4001 28.3H18.8V32.9H23.4001V28.3Z" fill="#7A2222"/>
<path d="M23.4001 23.7H18.8V28.3H23.4001V23.7Z" fill="#7A2222"/>
<path d="M23.4001 19.1001H18.8V23.7001H23.4001V19.1001Z" fill="#AD3A31"/>
<path d="M23.4001 14.3999H18.8V18.9999H23.4001V14.3999Z" fill="#AD3A31"/>
<path d="M23.4001 9.80005H18.8V14.4H23.4001V9.80005Z" fill="#AD3A31"/>
<path d="M23.4001 5.19995H18.8V9.79996H23.4001V5.19995Z" fill="#CC4E48"/>
<path d="M18.8002 65.3999H14.2002V69.9999H18.8002V65.3999Z" fill="#7A2222"/>
<path d="M18.8002 60.8H14.2002V65.4001H18.8002V60.8Z" fill="#D17E46"/>
<path d="M18.8002 56.2H14.2002V60.7999H18.8002V56.2Z" fill="#D17E46"/>
<path d="M18.8002 51.5H14.2002V56.1H18.8002V51.5Z" fill="#D17E46"/>
<path d="M18.8002 46.8999H14.2002V51.4999H18.8002V46.8999Z" fill="#D17E46"/>
<path d="M18.8002 42.3H14.2002V46.9001H18.8002V42.3Z" fill="#D17E46"/>
<path d="M18.8002 37.6001H14.2002V42.2001H18.8002V37.6001Z" fill="#D17E46"/>
<path d="M18.8002 33H14.2002V37.6H18.8002V33Z" fill="#D17E46"/>
<path d="M18.8002 28.3H14.2002V32.9H18.8002V28.3Z" fill="#7A2222"/>
<path d="M18.8002 23.7H14.2002V28.3H18.8002V23.7Z" fill="#AD3A31"/>
<path d="M18.8002 19.1001H14.2002V23.7001H18.8002V19.1001Z" fill="#AD3A31"/>
<path d="M18.8002 14.3999H14.2002V18.9999H18.8002V14.3999Z" fill="#AD3A31"/>
<path d="M18.8002 9.80005H14.2002V14.4H18.8002V9.80005Z" fill="#CC4E48"/>
<path d="M18.8002 5.19995H14.2002V9.79996H18.8002V5.19995Z" fill="#CC4E48"/>
<path d="M14.1 65.3999H9.5V69.9999H14.1V65.3999Z" fill="#7A2222"/>
<path d="M14.1 60.8H9.5V65.4001H14.1V60.8Z" fill="#D17E46"/>
<path d="M14.1 56.2H9.5V60.7999H14.1V56.2Z" fill="#D17E46"/>
<path d="M14.1 51.5H9.5V56.1H14.1V51.5Z" fill="#D17E46"/>
<path d="M14.1 46.8999H9.5V51.4999H14.1V46.8999Z" fill="#D17E46"/>
<path d="M14.1 42.3H9.5V46.9001H14.1V42.3Z" fill="#7A2222"/>
<path d="M14.1 37.6001H9.5V42.2001H14.1V37.6001Z" fill="#7A2222"/>
<path d="M14.1 33H9.5V37.6H14.1V33Z" fill="#7A2222"/>
<path d="M14.1 28.3H9.5V32.9H14.1V28.3Z" fill="#7A2222"/>
<path d="M14.1 23.7H9.5V28.3H14.1V23.7Z" fill="#AD3A31"/>
<path d="M14.1 19.1001H9.5V23.7001H14.1V19.1001Z" fill="#AD3A31"/>
<path d="M14.1 14.3999H9.5V18.9999H14.1V14.3999Z" fill="#AD3A31"/>
<path d="M14.1 9.80005H9.5V14.4H14.1V9.80005Z" fill="#CC4E48"/>
<path d="M9.50015 65.3999H4.90015V69.9999H9.50015V65.3999Z" fill="#7A2222"/>
<path d="M9.50015 60.8H4.90015V65.4001H9.50015V60.8Z" fill="#7A2222"/>
<path d="M9.50015 56.2H4.90015V60.7999H9.50015V56.2Z" fill="#7A2222"/>
<path d="M9.50015 51.5H4.90015V56.1H9.50015V51.5Z" fill="#7A2222"/>
<path d="M9.50015 46.8999H4.90015V51.4999H9.50015V46.8999Z" fill="#7A2222"/>
<path d="M9.50015 42.3H4.90015V46.9001H9.50015V42.3Z" fill="#AD3A31"/>
<path d="M9.50015 37.6001H4.90015V42.2001H9.50015V37.6001Z" fill="#AD3A31"/>
<path d="M9.50015 33H4.90015V37.6H9.50015V33Z" fill="#AD3A31"/>
<path d="M9.50015 28.3H4.90015V32.9H9.50015V28.3Z" fill="#AD3A31"/>
<path d="M9.50015 23.7H4.90015V28.3H9.50015V23.7Z" fill="#AD3A31"/>
<path d="M9.50015 19.1001H4.90015V23.7001H9.50015V19.1001Z" fill="#AD3A31"/>
<path d="M9.50015 14.3999H4.90015V18.9999H9.50015V14.3999Z" fill="#CC4E48"/>
<path d="M4.90004 65.3999H0.300049V69.9999H4.90004V65.3999Z" fill="#7A2222"/>
<path d="M4.90004 60.8H0.300049V65.4001H4.90004V60.8Z" fill="#7A2222"/>
<path d="M4.90004 56.2H0.300049V60.7999H4.90004V56.2Z" fill="#7A2222"/>
<path d="M4.90004 51.5H0.300049V56.1H4.90004V51.5Z" fill="#7A2222"/>
<path d="M4.90004 46.8999H0.300049V51.4999H4.90004V46.8999Z" fill="#7A2222"/>
<path d="M4.90004 42.3H0.300049V46.9001H4.90004V42.3Z" fill="#AD3A31"/>
<path d="M4.90004 37.6001H0.300049V42.2001H4.90004V37.6001Z" fill="#AD3A31"/>
<path d="M4.90004 33H0.300049V37.6H4.90004V33Z" fill="#AD3A31"/>
<path d="M4.90004 28.3H0.300049V32.9H4.90004V28.3Z" fill="#CC4E48"/>
<path d="M4.90004 23.7H0.300049V28.3H4.90004V23.7Z" fill="#CC4E48"/>
</svg>
