<svg width="75" height="121" viewBox="0 0 75 121" fill="none" xmlns="http://www.w3.org/2000/svg">
<path d="M74.3998 65.1997H69.7998V69.7997H74.3998V65.1997Z" fill="#4C3531"/>
<path d="M74.3998 60.4998H69.7998V65.0998H74.3998V60.4998Z" fill="#D17E46"/>
<path d="M74.3998 55.8999H69.7998V60.4999H74.3998V55.8999Z" fill="#D17E46"/>
<path d="M74.3998 51.2998H69.7998V55.8998H74.3998V51.2998Z" fill="#D17E46"/>
<path d="M74.3998 46.5999H69.7998V51.1999H74.3998V46.5999Z" fill="#4C3531"/>
<path d="M74.3998 41.9998H69.7998V46.5998H74.3998V41.9998Z" fill="#4C3531"/>
<path d="M74.3998 37.2998H69.7998V41.8998H74.3998V37.2998Z" fill="#4C3531"/>
<path d="M74.3998 32.6997H69.7998V37.2997H74.3998V32.6997Z" fill="#684F4A"/>
<path d="M74.3998 28.0999H69.7998V32.6998H74.3998V28.0999Z" fill="#684F4A"/>
<path d="M74.3998 23.3999H69.7998V27.9999H74.3998V23.3999Z" fill="#684F4A"/>
<path d="M74.3998 18.7998H69.7998V23.3998H74.3998V18.7998Z" fill="#8C615B"/>
<path d="M69.6999 69.7998H65.0999V74.3998H69.6999V69.7998Z" fill="#D17E46"/>
<path d="M69.6999 65.1997H65.0999V69.7997H69.6999V65.1997Z" fill="#D17E46"/>
<path d="M69.6999 60.4998H65.0999V65.0998H69.6999V60.4998Z" fill="#D17E46"/>
<path d="M69.6999 55.8999H65.0999V60.4999H69.6999V55.8999Z" fill="#D17E46"/>
<path d="M69.6999 51.2998H65.0999V55.8998H69.6999V51.2998Z" fill="#D17E46"/>
<path d="M69.6999 46.5999H65.0999V51.1999H69.6999V46.5999Z" fill="#4C3531"/>
<path d="M69.6999 41.9998H65.0999V46.5998H69.6999V41.9998Z" fill="#4C3531"/>
<path d="M69.6999 37.2998H65.0999V41.8998H69.6999V37.2998Z" fill="#4C3531"/>
<path d="M69.6999 32.6997H65.0999V37.2997H69.6999V32.6997Z" fill="#4C3531"/>
<path d="M69.6999 28.0999H65.0999V32.6998H69.6999V28.0999Z" fill="#684F4A"/>
<path d="M69.6999 23.3999H65.0999V27.9999H69.6999V23.3999Z" fill="#684F4A"/>
<path d="M69.6999 18.7998H65.0999V23.3998H69.6999V18.7998Z" fill="#684F4A"/>
<path d="M69.6999 14.1997H65.0999V18.7997H69.6999V14.1997Z" fill="#8C615B"/>
<path d="M65.1 97.5999H60.5V102.2H65.1V97.5999Z" fill="#EAA36E"/>
<path d="M65.1 92.9998H60.5V97.5998H65.1V92.9998Z" fill="#D17E46"/>
<path d="M65.1 88.2998H60.5V92.8998H65.1V88.2998Z" fill="#F9EAE1"/>
<path d="M65.1 83.6997H60.5V88.2997H65.1V83.6997Z" fill="#F9EAE1"/>
<path d="M65.1 79.0999H60.5V83.6999H65.1V79.0999Z" fill="#C4BAB3"/>
<path d="M65.1 74.3999H60.5V78.9999H65.1V74.3999Z" fill="#D17E46"/>
<path d="M65.1 69.7998H60.5V74.3998H65.1V69.7998Z" fill="#D17E46"/>
<path d="M65.1 65.1997H60.5V69.7997H65.1V65.1997Z" fill="#D17E46"/>
<path d="M65.1 60.4998H60.5V65.0998H65.1V60.4998Z" fill="#EAA36E"/>
<path d="M65.1 55.8999H60.5V60.4999H65.1V55.8999Z" fill="#EAA36E"/>
<path d="M65.1 51.2998H60.5V55.8998H65.1V51.2998Z" fill="#D17E46"/>
<path d="M65.1 46.5999H60.5V51.1999H65.1V46.5999Z" fill="#D17E46"/>
<path d="M65.1 41.9998H60.5V46.5998H65.1V41.9998Z" fill="#D17E46"/>
<path d="M65.1 37.2998H60.5V41.8998H65.1V37.2998Z" fill="#D17E46"/>
<path d="M65.1 32.6997H60.5V37.2997H65.1V32.6997Z" fill="#4C3531"/>
<path d="M65.1 28.0999H60.5V32.6998H65.1V28.0999Z" fill="#4C3531"/>
<path d="M65.1 23.3999H60.5V27.9999H65.1V23.3999Z" fill="#684F4A"/>
<path d="M65.1 18.7998H60.5V23.3998H65.1V18.7998Z" fill="#684F4A"/>
<path d="M65.1 14.1997H60.5V18.7997H65.1V14.1997Z" fill="#684F4A"/>
<path d="M65.1 9.49976H60.5V14.0998H65.1V9.49976Z" fill="#8C615B"/>
<path d="M60.4999 116.2H55.8999V120.8H60.4999V116.2Z" fill="#2D2824"/>
<path d="M60.4999 111.5H55.8999V116.1H60.4999V111.5Z" fill="#635B55"/>
<path d="M60.4999 106.9H55.8999V111.5H60.4999V106.9Z" fill="#33302E"/>
<path d="M60.4999 102.3H55.8999V106.9H60.4999V102.3Z" fill="#33302E"/>
<path d="M60.4999 97.5999H55.8999V102.2H60.4999V97.5999Z" fill="#EAA36E"/>
<path d="M60.4999 92.9998H55.8999V97.5998H60.4999V92.9998Z" fill="#D17E46"/>
<path d="M60.4999 88.2998H55.8999V92.8998H60.4999V88.2998Z" fill="#F9EAE1"/>
<path d="M60.4999 83.6997H55.8999V88.2997H60.4999V83.6997Z" fill="#F9EAE1"/>
<path d="M60.4999 79.0999H55.8999V83.6999H60.4999V79.0999Z" fill="#C4BAB3"/>
<path d="M60.4999 74.3999H55.8999V78.9999H60.4999V74.3999Z" fill="#D17E46"/>
<path d="M60.4999 69.7998H55.8999V74.3998H60.4999V69.7998Z" fill="#EAA36E"/>
<path d="M60.4999 65.1997H55.8999V69.7997H60.4999V65.1997Z" fill="#EAA36E"/>
<path d="M60.4999 60.4998H55.8999V65.0998H60.4999V60.4998Z" fill="#EAA36E"/>
<path d="M60.4999 55.8999H55.8999V60.4999H60.4999V55.8999Z" fill="#EAA36E"/>
<path d="M60.4999 51.2998H55.8999V55.8998H60.4999V51.2998Z" fill="#D17E46"/>
<path d="M60.4999 46.5999H55.8999V51.1999H60.4999V46.5999Z" fill="#D17E46"/>
<path d="M60.4999 41.9998H55.8999V46.5998H60.4999V41.9998Z" fill="#D17E46"/>
<path d="M60.4999 37.2998H55.8999V41.8998H60.4999V37.2998Z" fill="#D17E46"/>
<path d="M60.4999 32.6997H55.8999V37.2997H60.4999V32.6997Z" fill="#4C3531"/>
<path d="M60.4999 28.0999H55.8999V32.6998H60.4999V28.0999Z" fill="#4C3531"/>
<path d="M60.4999 23.3999H55.8999V27.9999H60.4999V23.3999Z" fill="#684F4A"/>
<path d="M60.4999 18.7998H55.8999V23.3998H60.4999V18.7998Z" fill="#684F4A"/>
<path d="M60.4999 14.1997H55.8999V18.7997H60.4999V14.1997Z" fill="#684F4A"/>
<path d="M60.4999 9.49976H55.8999V14.0998H60.4999V9.49976Z" fill="#8C615B"/>
<path d="M55.7999 116.2H51.2V120.8H55.7999V116.2Z" fill="#2D2824"/>
<path d="M55.7999 111.5H51.2V116.1H55.7999V111.5Z" fill="#635B55"/>
<path d="M55.7999 106.9H51.2V111.5H55.7999V106.9Z" fill="#33302E"/>
<path d="M55.7999 102.3H51.2V106.9H55.7999V102.3Z" fill="#33302E"/>
<path d="M55.7999 97.5999H51.2V102.2H55.7999V97.5999Z" fill="#33302E"/>
<path d="M55.7999 92.9998H51.2V97.5998H55.7999V92.9998Z" fill="#C4BAB3"/>
<path d="M55.7999 88.2998H51.2V92.8998H55.7999V88.2998Z" fill="#C4BAB3"/>
<path d="M55.7999 83.6997H51.2V88.2997H55.7999V83.6997Z" fill="#C4BAB3"/>
<path d="M55.7999 79.0999H51.2V83.6999H55.7999V79.0999Z" fill="#C4BAB3"/>
<path d="M55.7999 74.3999H51.2V78.9999H55.7999V74.3999Z" fill="#D17E46"/>
<path d="M55.7999 69.7998H51.2V74.3998H55.7999V69.7998Z" fill="#EAA36E"/>
<path d="M55.7999 65.1997H51.2V69.7997H55.7999V65.1997Z" fill="#EAA36E"/>
<path d="M55.7999 60.4998H51.2V65.0998H55.7999V60.4998Z" fill="#EAA36E"/>
<path d="M55.7999 55.8999H51.2V60.4999H55.7999V55.8999Z" fill="#EAA36E"/>
<path d="M55.7999 51.2998H51.2V55.8998H55.7999V51.2998Z" fill="#21140C"/>
<path d="M55.7999 46.5999H51.2V51.1999H55.7999V46.5999Z" fill="#21140C"/>
<path d="M55.7999 41.9998H51.2V46.5998H55.7999V41.9998Z" fill="#EAA36E"/>
<path d="M55.7999 37.2998H51.2V41.8998H55.7999V37.2998Z" fill="#D17E46"/>
<path d="M55.7999 32.6997H51.2V37.2997H55.7999V32.6997Z" fill="#D17E46"/>
<path d="M55.7999 28.0999H51.2V32.6998H55.7999V28.0999Z" fill="#4C3531"/>
<path d="M55.7999 23.3999H51.2V27.9999H55.7999V23.3999Z" fill="#684F4A"/>
<path d="M55.7999 18.7998H51.2V23.3998H55.7999V18.7998Z" fill="#684F4A"/>
<path d="M55.7999 14.1997H51.2V18.7997H55.7999V14.1997Z" fill="#684F4A"/>
<path d="M55.7999 9.49976H51.2V14.0998H55.7999V9.49976Z" fill="#8C615B"/>
<path d="M51.1999 97.5999H46.5999V102.2H51.1999V97.5999Z" fill="#33302E"/>
<path d="M51.1999 92.9998H46.5999V97.5998H51.1999V92.9998Z" fill="#F9EAE1"/>
<path d="M51.1999 88.2998H46.5999V92.8998H51.1999V88.2998Z" fill="#F9EAE1"/>
<path d="M51.1999 83.6997H46.5999V88.2997H51.1999V83.6997Z" fill="#F9EAE1"/>
<path d="M51.1999 79.0999H46.5999V83.6999H51.1999V79.0999Z" fill="#C4BAB3"/>
<path d="M51.1999 74.3999H46.5999V78.9999H51.1999V74.3999Z" fill="#D17E46"/>
<path d="M51.1999 69.7998H46.5999V74.3998H51.1999V69.7998Z" fill="#EAA36E"/>
<path d="M51.1999 65.1997H46.5999V69.7997H51.1999V65.1997Z" fill="#EAA36E"/>
<path d="M51.1999 60.4998H46.5999V65.0998H51.1999V60.4998Z" fill="#EAA36E"/>
<path d="M51.1999 55.8999H46.5999V60.4999H51.1999V55.8999Z" fill="#EAA36E"/>
<path d="M51.1999 51.2998H46.5999V55.8998H51.1999V51.2998Z" fill="#21140C"/>
<path d="M51.1999 46.5999H46.5999V51.1999H51.1999V46.5999Z" fill="#422C1C"/>
<path d="M51.1999 41.9998H46.5999V46.5998H51.1999V41.9998Z" fill="#EAA36E"/>
<path d="M51.1999 37.2998H46.5999V41.8998H51.1999V37.2998Z" fill="#EAA36E"/>
<path d="M51.1999 32.6997H46.5999V37.2997H51.1999V32.6997Z" fill="#D17E46"/>
<path d="M51.1999 28.0999H46.5999V32.6998H51.1999V28.0999Z" fill="#4C3531"/>
<path d="M51.1999 23.3999H46.5999V27.9999H51.1999V23.3999Z" fill="#684F4A"/>
<path d="M51.1999 18.7998H46.5999V23.3998H51.1999V18.7998Z" fill="#684F4A"/>
<path d="M51.1999 14.1997H46.5999V18.7997H51.1999V14.1997Z" fill="#684F4A"/>
<path d="M51.1999 9.49976H46.5999V14.0998H51.1999V9.49976Z" fill="#684F4A"/>
<path d="M51.1999 4.8999H46.5999V9.49991H51.1999V4.8999Z" fill="#8C615B"/>
<path d="M46.6 97.5999H42V102.2H46.6V97.5999Z" fill="#33302E"/>
<path d="M46.6 92.9998H42V97.5998H46.6V92.9998Z" fill="#F9EAE1"/>
<path d="M46.6 88.2998H42V92.8998H46.6V88.2998Z" fill="#F9EAE1"/>
<path d="M46.6 83.6997H42V88.2997H46.6V83.6997Z" fill="#F9EAE1"/>
<path d="M46.6 79.0999H42V83.6999H46.6V79.0999Z" fill="#C4BAB3"/>
<path d="M46.6 74.3999H42V78.9999H46.6V74.3999Z" fill="#D17E46"/>
<path d="M46.6 69.7998H42V74.3998H46.6V69.7998Z" fill="#EAA36E"/>
<path d="M46.6 65.1997H42V69.7997H46.6V65.1997Z" fill="#EAA36E"/>
<path d="M46.6 60.4998H42V65.0998H46.6V60.4998Z" fill="#EAA36E"/>
<path d="M46.6 55.8999H42V60.4999H46.6V55.8999Z" fill="white"/>
<path d="M46.6 51.2998H42V55.8998H46.6V51.2998Z" fill="#EAA36E"/>
<path d="M46.6 46.5999H42V51.1999H46.6V46.5999Z" fill="#EAA36E"/>
<path d="M46.6 41.9998H42V46.5998H46.6V41.9998Z" fill="#EAA36E"/>
<path d="M46.6 37.2998H42V41.8998H46.6V37.2998Z" fill="#EAA36E"/>
<path d="M46.6 32.6997H42V37.2997H46.6V32.6997Z" fill="#D17E46"/>
<path d="M46.6 28.0999H42V32.6998H46.6V28.0999Z" fill="#4C3531"/>
<path d="M46.6 23.3999H42V27.9999H46.6V23.3999Z" fill="#4C3531"/>
<path d="M46.6 18.7998H42V23.3998H46.6V18.7998Z" fill="#684F4A"/>
<path d="M46.6 14.1997H42V18.7997H46.6V14.1997Z" fill="#684F4A"/>
<path d="M46.6 9.49976H42V14.0998H46.6V9.49976Z" fill="#684F4A"/>
<path d="M46.6 4.8999H42V9.49991H46.6V4.8999Z" fill="#8C615B"/>
<path d="M41.8998 97.5999H37.2998V102.2H41.8998V97.5999Z" fill="#33302E"/>
<path d="M41.8998 92.9998H37.2998V97.5998H41.8998V92.9998Z" fill="#A54247"/>
<path d="M41.8998 88.2998H37.2998V92.8998H41.8998V88.2998Z" fill="#A54247"/>
<path d="M41.8998 83.6997H37.2998V88.2997H41.8998V83.6997Z" fill="#A54247"/>
<path d="M41.8998 79.0999H37.2998V83.6999H41.8998V79.0999Z" fill="#A54247"/>
<path d="M41.8998 74.3999H37.2998V78.9999H41.8998V74.3999Z" fill="#D17E46"/>
<path d="M41.8998 69.7998H37.2998V74.3998H41.8998V69.7998Z" fill="#EAA36E"/>
<path d="M41.8998 65.1997H37.2998V69.7997H41.8998V65.1997Z" fill="#EAA36E"/>
<path d="M41.8998 60.4998H37.2998V65.0998H41.8998V60.4998Z" fill="white"/>
<path d="M41.8998 55.8999H37.2998V60.4999H41.8998V55.8999Z" fill="white"/>
<path d="M41.8998 51.2998H37.2998V55.8998H41.8998V51.2998Z" fill="#EAA36E"/>
<path d="M41.8998 46.5999H37.2998V51.1999H41.8998V46.5999Z" fill="#EAA36E"/>
<path d="M41.8998 41.9998H37.2998V46.5998H41.8998V41.9998Z" fill="#EAA36E"/>
<path d="M41.8998 37.2998H37.2998V41.8998H41.8998V37.2998Z" fill="#EAA36E"/>
<path d="M41.8998 32.6997H37.2998V37.2997H41.8998V32.6997Z" fill="#D17E46"/>
<path d="M41.8998 28.0999H37.2998V32.6998H41.8998V28.0999Z" fill="#4C3531"/>
<path d="M41.8998 23.3999H37.2998V27.9999H41.8998V23.3999Z" fill="#4C3531"/>
<path d="M41.8998 18.7998H37.2998V23.3998H41.8998V18.7998Z" fill="#684F4A"/>
<path d="M41.8998 14.1997H37.2998V18.7997H41.8998V14.1997Z" fill="#684F4A"/>
<path d="M41.8998 9.49976H37.2998V14.0998H41.8998V9.49976Z" fill="#684F4A"/>
<path d="M41.8998 4.8999H37.2998V9.49991H41.8998V4.8999Z" fill="#8C615B"/>
<path d="M37.2999 97.5999H32.7V102.2H37.2999V97.5999Z" fill="#33302E"/>
<path d="M37.2999 92.9998H32.7V97.5998H37.2999V92.9998Z" fill="#F9EAE1"/>
<path d="M37.2999 88.2998H32.7V92.8998H37.2999V88.2998Z" fill="#F9EAE1"/>
<path d="M37.2999 83.6997H32.7V88.2997H37.2999V83.6997Z" fill="#F9EAE1"/>
<path d="M37.2999 79.0999H32.7V83.6999H37.2999V79.0999Z" fill="#C4BAB3"/>
<path d="M37.2999 74.3999H32.7V78.9999H37.2999V74.3999Z" fill="#D17E46"/>
<path d="M37.2999 69.7998H32.7V74.3998H37.2999V69.7998Z" fill="#EAA36E"/>
<path d="M37.2999 65.1997H32.7V69.7997H37.2999V65.1997Z" fill="white"/>
<path d="M37.2999 60.4998H32.7V65.0998H37.2999V60.4998Z" fill="white"/>
<path d="M37.2999 55.8999H32.7V60.4999H37.2999V55.8999Z" fill="white"/>
<path d="M37.2999 51.2998H32.7V55.8998H37.2999V51.2998Z" fill="#EAA36E"/>
<path d="M37.2999 46.5999H32.7V51.1999H37.2999V46.5999Z" fill="#EAA36E"/>
<path d="M37.2999 41.9998H32.7V46.5998H37.2999V41.9998Z" fill="#EAA36E"/>
<path d="M37.2999 37.2998H32.7V41.8998H37.2999V37.2998Z" fill="#EAA36E"/>
<path d="M37.2999 32.6997H32.7V37.2997H37.2999V32.6997Z" fill="#D17E46"/>
<path d="M37.2999 28.0999H32.7V32.6998H37.2999V28.0999Z" fill="#4C3531"/>
<path d="M37.2999 23.3999H32.7V27.9999H37.2999V23.3999Z" fill="#4C3531"/>
<path d="M37.2999 18.7998H32.7V23.3998H37.2999V18.7998Z" fill="#684F4A"/>
<path d="M37.2999 14.1997H32.7V18.7997H37.2999V14.1997Z" fill="#684F4A"/>
<path d="M37.2999 9.49976H32.7V14.0998H37.2999V9.49976Z" fill="#684F4A"/>
<path d="M37.2999 4.8999H32.7V9.49991H37.2999V4.8999Z" fill="#8C615B"/>
<path d="M32.6999 116.2H28.0999V120.8H32.6999V116.2Z" fill="#2D2824"/>
<path d="M32.6999 111.5H28.0999V116.1H32.6999V111.5Z" fill="#635B55"/>
<path d="M32.6999 106.9H28.0999V111.5H32.6999V106.9Z" fill="#33302E"/>
<path d="M32.6999 102.3H28.0999V106.9H32.6999V102.3Z" fill="#33302E"/>
<path d="M32.6999 97.5999H28.0999V102.2H32.6999V97.5999Z" fill="#33302E"/>
<path d="M32.6999 92.9998H28.0999V97.5998H32.6999V92.9998Z" fill="#F9EAE1"/>
<path d="M32.6999 88.2998H28.0999V92.8998H32.6999V88.2998Z" fill="#F9EAE1"/>
<path d="M32.6999 83.6997H28.0999V88.2997H32.6999V83.6997Z" fill="#F9EAE1"/>
<path d="M32.6999 79.0999H28.0999V83.6999H32.6999V79.0999Z" fill="#C4BAB3"/>
<path d="M32.6999 74.3999H28.0999V78.9999H32.6999V74.3999Z" fill="#D17E46"/>
<path d="M32.6999 69.7998H28.0999V74.3998H32.6999V69.7998Z" fill="#EAA36E"/>
<path d="M32.6999 65.1997H28.0999V69.7997H32.6999V65.1997Z" fill="white"/>
<path d="M32.6999 60.4998H28.0999V65.0998H32.6999V60.4998Z" fill="white"/>
<path d="M32.6999 55.8999H28.0999V60.4999H32.6999V55.8999Z" fill="white"/>
<path d="M32.6999 51.2998H28.0999V55.8998H32.6999V51.2998Z" fill="#EAA36E"/>
<path d="M32.6999 46.5999H28.0999V51.1999H32.6999V46.5999Z" fill="#EAA36E"/>
<path d="M32.6999 41.9998H28.0999V46.5998H32.6999V41.9998Z" fill="#EAA36E"/>
<path d="M32.6999 37.2998H28.0999V41.8998H32.6999V37.2998Z" fill="#EAA36E"/>
<path d="M32.6999 32.6997H28.0999V37.2997H32.6999V32.6997Z" fill="#D17E46"/>
<path d="M32.6999 28.0999H28.0999V32.6998H32.6999V28.0999Z" fill="#4C3531"/>
<path d="M32.6999 23.3999H28.0999V27.9999H32.6999V23.3999Z" fill="#4C3531"/>
<path d="M32.6999 18.7998H28.0999V23.3998H32.6999V18.7998Z" fill="#684F4A"/>
<path d="M32.6999 14.1997H28.0999V18.7997H32.6999V14.1997Z" fill="#684F4A"/>
<path d="M32.6999 9.49976H28.0999V14.0998H32.6999V9.49976Z" fill="#684F4A"/>
<path d="M32.6999 4.8999H28.0999V9.49991H32.6999V4.8999Z" fill="#8C615B"/>
<path d="M27.9999 116.2H23.3999V120.8H27.9999V116.2Z" fill="#2D2824"/>
<path d="M27.9999 111.5H23.3999V116.1H27.9999V111.5Z" fill="#635B55"/>
<path d="M27.9999 106.9H23.3999V111.5H27.9999V106.9Z" fill="#33302E"/>
<path d="M27.9999 102.3H23.3999V106.9H27.9999V102.3Z" fill="#33302E"/>
<path d="M27.9999 97.5999H23.3999V102.2H27.9999V97.5999Z" fill="#33302E"/>
<path d="M27.9999 92.9998H23.3999V97.5998H27.9999V92.9998Z" fill="#F9EAE1"/>
<path d="M27.9999 88.2998H23.3999V92.8998H27.9999V88.2998Z" fill="#C4BAB3"/>
<path d="M27.9999 83.6997H23.3999V88.2997H27.9999V83.6997Z" fill="#C4BAB3"/>
<path d="M27.9999 79.0999H23.3999V83.6999H27.9999V79.0999Z" fill="#C4BAB3"/>
<path d="M27.9999 74.3999H23.3999V78.9999H27.9999V74.3999Z" fill="#D17E46"/>
<path d="M27.9999 69.7998H23.3999V74.3998H27.9999V69.7998Z" fill="#EAA36E"/>
<path d="M27.9999 65.1997H23.3999V69.7997H27.9999V65.1997Z" fill="#EAA36E"/>
<path d="M27.9999 60.4998H23.3999V65.0998H27.9999V60.4998Z" fill="white"/>
<path d="M27.9999 55.8999H23.3999V60.4999H27.9999V55.8999Z" fill="white"/>
<path d="M27.9999 51.2998H23.3999V55.8998H27.9999V51.2998Z" fill="#EAA36E"/>
<path d="M27.9999 46.5999H23.3999V51.1999H27.9999V46.5999Z" fill="#EAA36E"/>
<path d="M27.9999 41.9998H23.3999V46.5998H27.9999V41.9998Z" fill="#EAA36E"/>
<path d="M27.9999 37.2998H23.3999V41.8998H27.9999V37.2998Z" fill="#EAA36E"/>
<path d="M27.9999 32.6997H23.3999V37.2997H27.9999V32.6997Z" fill="#D17E46"/>
<path d="M27.9999 28.0999H23.3999V32.6998H27.9999V28.0999Z" fill="#4C3531"/>
<path d="M27.9999 23.3999H23.3999V27.9999H27.9999V23.3999Z" fill="#4C3531"/>
<path d="M27.9999 18.7998H23.3999V23.3998H27.9999V18.7998Z" fill="#684F4A"/>
<path d="M27.9999 14.1997H23.3999V18.7997H27.9999V14.1997Z" fill="#684F4A"/>
<path d="M27.9999 9.49976H23.3999V14.0998H27.9999V9.49976Z" fill="#684F4A"/>
<path d="M27.9999 4.8999H23.3999V9.49991H27.9999V4.8999Z" fill="#684F4A"/>
<path d="M27.9999 0.299805H23.3999V4.8998H27.9999V0.299805Z" fill="#8C615B"/>
<path d="M23.3998 97.5999H18.7998V102.2H23.3998V97.5999Z" fill="#EAA36E"/>
<path d="M23.3998 92.9998H18.7998V97.5998H23.3998V92.9998Z" fill="#D17E46"/>
<path d="M23.3998 88.2998H18.7998V92.8998H23.3998V88.2998Z" fill="#F9EAE1"/>
<path d="M23.3998 83.6997H18.7998V88.2997H23.3998V83.6997Z" fill="#F9EAE1"/>
<path d="M23.3998 79.0999H18.7998V83.6999H23.3998V79.0999Z" fill="#C4BAB3"/>
<path d="M23.3998 74.3999H18.7998V78.9999H23.3998V74.3999Z" fill="#D17E46"/>
<path d="M23.3998 69.7998H18.7998V74.3998H23.3998V69.7998Z" fill="#EAA36E"/>
<path d="M23.3998 65.1997H18.7998V69.7997H23.3998V65.1997Z" fill="#EAA36E"/>
<path d="M23.3998 60.4998H18.7998V65.0998H23.3998V60.4998Z" fill="#EAA36E"/>
<path d="M23.3998 55.8999H18.7998V60.4999H23.3998V55.8999Z" fill="white"/>
<path d="M23.3998 51.2998H18.7998V55.8998H23.3998V51.2998Z" fill="#EAA36E"/>
<path d="M23.3998 46.5999H18.7998V51.1999H23.3998V46.5999Z" fill="#EAA36E"/>
<path d="M23.3998 41.9998H18.7998V46.5998H23.3998V41.9998Z" fill="#EAA36E"/>
<path d="M23.3998 37.2998H18.7998V41.8998H23.3998V37.2998Z" fill="#EAA36E"/>
<path d="M23.3998 32.6997H18.7998V37.2997H23.3998V32.6997Z" fill="#D17E46"/>
<path d="M23.3998 28.0999H18.7998V32.6998H23.3998V28.0999Z" fill="#4C3531"/>
<path d="M23.3998 23.3999H18.7998V27.9999H23.3998V23.3999Z" fill="#4C3531"/>
<path d="M23.3998 18.7998H18.7998V23.3998H23.3998V18.7998Z" fill="#684F4A"/>
<path d="M23.3998 14.1997H18.7998V18.7997H23.3998V14.1997Z" fill="#684F4A"/>
<path d="M23.3998 9.49976H18.7998V14.0998H23.3998V9.49976Z" fill="#684F4A"/>
<path d="M23.3998 4.8999H18.7998V9.49991H23.3998V4.8999Z" fill="#684F4A"/>
<path d="M23.3998 0.299805H18.7998V4.8998H23.3998V0.299805Z" fill="#8C615B"/>
<path d="M18.7999 74.3999H14.2V78.9999H18.7999V74.3999Z" fill="#D17E46"/>
<path d="M18.7999 69.7998H14.2V74.3998H18.7999V69.7998Z" fill="#EAA36E"/>
<path d="M18.7999 65.1997H14.2V69.7997H18.7999V65.1997Z" fill="#EAA36E"/>
<path d="M18.7999 60.4998H14.2V65.0998H18.7999V60.4998Z" fill="#EAA36E"/>
<path d="M18.7999 55.8999H14.2V60.4999H18.7999V55.8999Z" fill="#EAA36E"/>
<path d="M18.7999 51.2998H14.2V55.8998H18.7999V51.2998Z" fill="#21140C"/>
<path d="M18.7999 46.5999H14.2V51.1999H18.7999V46.5999Z" fill="#21140C"/>
<path d="M18.7999 41.9998H14.2V46.5998H18.7999V41.9998Z" fill="#EAA36E"/>
<path d="M18.7999 37.2998H14.2V41.8998H18.7999V37.2998Z" fill="#EAA36E"/>
<path d="M18.7999 32.6997H14.2V37.2997H18.7999V32.6997Z" fill="#D17E46"/>
<path d="M18.7999 28.0999H14.2V32.6998H18.7999V28.0999Z" fill="#4C3531"/>
<path d="M18.7999 23.3999H14.2V27.9999H18.7999V23.3999Z" fill="#4C3531"/>
<path d="M18.7999 18.7998H14.2V23.3998H18.7999V18.7998Z" fill="#684F4A"/>
<path d="M18.7999 14.1997H14.2V18.7997H18.7999V14.1997Z" fill="#684F4A"/>
<path d="M18.7999 9.49976H14.2V14.0998H18.7999V9.49976Z" fill="#684F4A"/>
<path d="M18.7999 4.8999H14.2V9.49991H18.7999V4.8999Z" fill="#684F4A"/>
<path d="M18.7999 0.299805H14.2V4.8998H18.7999V0.299805Z" fill="#8C615B"/>
<path d="M14.1 74.3999H9.5V78.9999H14.1V74.3999Z" fill="#D17E46"/>
<path d="M14.1 69.7998H9.5V74.3998H14.1V69.7998Z" fill="#EAA36E"/>
<path d="M14.1 65.1997H9.5V69.7997H14.1V65.1997Z" fill="#EAA36E"/>
<path d="M14.1 60.4998H9.5V65.0998H14.1V60.4998Z" fill="#EAA36E"/>
<path d="M14.1 55.8999H9.5V60.4999H14.1V55.8999Z" fill="#EAA36E"/>
<path d="M14.1 51.2998H9.5V55.8998H14.1V51.2998Z" fill="#21140C"/>
<path d="M14.1 46.5999H9.5V51.1999H14.1V46.5999Z" fill="#422C1C"/>
<path d="M14.1 41.9998H9.5V46.5998H14.1V41.9998Z" fill="#EAA36E"/>
<path d="M14.1 37.2998H9.5V41.8998H14.1V37.2998Z" fill="#EAA36E"/>
<path d="M14.1 32.6997H9.5V37.2997H14.1V32.6997Z" fill="#D17E46"/>
<path d="M14.1 28.0999H9.5V32.6998H14.1V28.0999Z" fill="#4C3531"/>
<path d="M14.1 23.3999H9.5V27.9999H14.1V23.3999Z" fill="#4C3531"/>
<path d="M14.1 18.7998H9.5V23.3998H14.1V18.7998Z" fill="#684F4A"/>
<path d="M14.1 14.1997H9.5V18.7997H14.1V14.1997Z" fill="#684F4A"/>
<path d="M14.1 9.49976H9.5V14.0998H14.1V9.49976Z" fill="#684F4A"/>
<path d="M14.1 4.8999H9.5V9.49991H14.1V4.8999Z" fill="#684F4A"/>
<path d="M14.1 0.299805H9.5V4.8998H14.1V0.299805Z" fill="#8C615B"/>
<path d="M9.49991 69.7998H4.8999V74.3998H9.49991V69.7998Z" fill="#D17E46"/>
<path d="M9.49991 65.1997H4.8999V69.7997H9.49991V65.1997Z" fill="#EAA36E"/>
<path d="M9.49991 60.4998H4.8999V65.0998H9.49991V60.4998Z" fill="#EAA36E"/>
<path d="M9.49991 55.8999H4.8999V60.4999H9.49991V55.8999Z" fill="#EAA36E"/>
<path d="M9.49991 51.2998H4.8999V55.8998H9.49991V51.2998Z" fill="#EAA36E"/>
<path d="M9.49991 46.5999H4.8999V51.1999H9.49991V46.5999Z" fill="#EAA36E"/>
<path d="M9.49991 41.9998H4.8999V46.5998H9.49991V41.9998Z" fill="#EAA36E"/>
<path d="M9.49991 37.2998H4.8999V41.8998H9.49991V37.2998Z" fill="#EAA36E"/>
<path d="M9.49991 32.6997H4.8999V37.2997H9.49991V32.6997Z" fill="#D17E46"/>
<path d="M9.49991 28.0999H4.8999V32.6998H9.49991V28.0999Z" fill="#4C3531"/>
<path d="M9.49991 23.3999H4.8999V27.9999H9.49991V23.3999Z" fill="#4C3531"/>
<path d="M9.49991 18.7998H4.8999V23.3998H9.49991V18.7998Z" fill="#684F4A"/>
<path d="M9.49991 14.1997H4.8999V18.7997H9.49991V14.1997Z" fill="#684F4A"/>
<path d="M9.49991 9.49976H4.8999V14.0998H9.49991V9.49976Z" fill="#684F4A"/>
<path d="M9.49991 4.8999H4.8999V9.49991H9.49991V4.8999Z" fill="#684F4A"/>
<path d="M9.49991 0.299805H4.8999V4.8998H9.49991V0.299805Z" fill="#8C615B"/>
<path d="M4.79993 23.3999H0.199951V27.9999H4.79993V23.3999Z" fill="#4C3531"/>
<path d="M4.79993 18.7998H0.199951V23.3998H4.79993V18.7998Z" fill="#4C3531"/>
<path d="M4.79993 14.1997H0.199951V18.7997H4.79993V14.1997Z" fill="#4C3531"/>
<path d="M4.79993 9.49976H0.199951V14.0998H4.79993V9.49976Z" fill="#684F4A"/>
<path d="M4.79993 4.8999H0.199951V9.49991H4.79993V4.8999Z" fill="#8C615B"/>
</svg>
