<svg width="94" height="117" viewBox="0 0 94 117" fill="none" xmlns="http://www.w3.org/2000/svg">
<path d="M93.3002 70.3999H88.7002V74.9999H93.3002V70.3999Z" fill="#B7741C"/>
<path d="M93.3002 65.7998H88.7002V70.3998H93.3002V65.7998Z" fill="#E5B745"/>
<path d="M93.3002 61.2H88.7002V65.7999H93.3002V61.2Z" fill="#E5B745"/>
<path d="M93.3002 47.2998H88.7002V51.8998H93.3002V47.2998Z" fill="#E5B745"/>
<path d="M88.7001 75.0999H84.1001V79.6999H88.7001V75.0999Z" fill="#B7741C"/>
<path d="M88.7001 70.3999H84.1001V74.9999H88.7001V70.3999Z" fill="#B7741C"/>
<path d="M88.7001 65.7998H84.1001V70.3998H88.7001V65.7998Z" fill="#E5B745"/>
<path d="M88.7001 61.2H84.1001V65.7999H88.7001V61.2Z" fill="#E5B745"/>
<path d="M88.7001 56.5H84.1001V61.1H88.7001V56.5Z" fill="#B7741C"/>
<path d="M88.7001 51.8999H84.1001V56.4999H88.7001V51.8999Z" fill="#B7741C"/>
<path d="M88.7001 47.2998H84.1001V51.8998H88.7001V47.2998Z" fill="#E5B745"/>
<path d="M88.7001 42.5999H84.1001V47.1999H88.7001V42.5999Z" fill="#E5B745"/>
<path d="M88.7001 38H84.1001V42.6H88.7001V38Z" fill="#E5B745"/>
<path d="M88.7001 33.2998H84.1001V37.8998H88.7001V33.2998Z" fill="#E5B745"/>
<path d="M88.7001 28.7H84.1001V33.3H88.7001V28.7Z" fill="#F9CC73"/>
<path d="M88.7001 24.0999H84.1001V28.6998H88.7001V24.0999Z" fill="#F9CC73"/>
<path d="M84.0001 75.0999H79.4001V79.6999H84.0001V75.0999Z" fill="#B7741C"/>
<path d="M84.0001 70.3999H79.4001V74.9999H84.0001V70.3999Z" fill="#B7741C"/>
<path d="M84.0001 65.7998H79.4001V70.3998H84.0001V65.7998Z" fill="#B7741C"/>
<path d="M84.0001 61.2H79.4001V65.7999H84.0001V61.2Z" fill="#E5B745"/>
<path d="M84.0001 56.5H79.4001V61.1H84.0001V56.5Z" fill="#B7741C"/>
<path d="M84.0001 51.8999H79.4001V56.4999H84.0001V51.8999Z" fill="#D17E46"/>
<path d="M84.0001 47.2998H79.4001V51.8998H84.0001V47.2998Z" fill="#D17E46"/>
<path d="M84.0001 42.5999H79.4001V47.1999H84.0001V42.5999Z" fill="#D17E46"/>
<path d="M84.0001 38H79.4001V42.6H84.0001V38Z" fill="#E5B745"/>
<path d="M84.0001 33.2998H79.4001V37.8998H84.0001V33.2998Z" fill="#E5B745"/>
<path d="M84.0001 28.7H79.4001V33.3H84.0001V28.7Z" fill="#E5B745"/>
<path d="M84.0001 24.0999H79.4001V28.6998H84.0001V24.0999Z" fill="#F9CC73"/>
<path d="M84.0001 19.3999H79.4001V23.9999H84.0001V19.3999Z" fill="#F9CC73"/>
<path d="M84.0001 14.7998H79.4001V19.3998H84.0001V14.7998Z" fill="#F9CC73"/>
<path d="M84.0001 10.2H79.4001V14.8H84.0001V10.2Z" fill="#F9CC73"/>
<path d="M79.4001 75.0999H74.8V79.6999H79.4001V75.0999Z" fill="#B7741C"/>
<path d="M79.4001 70.3999H74.8V74.9999H79.4001V70.3999Z" fill="#B7741C"/>
<path d="M79.4001 65.7998H74.8V70.3998H79.4001V65.7998Z" fill="#B7741C"/>
<path d="M79.4001 61.2H74.8V65.7999H79.4001V61.2Z" fill="#B7741C"/>
<path d="M79.4001 56.5H74.8V61.1H79.4001V56.5Z" fill="#B7741C"/>
<path d="M79.4001 51.8999H74.8V56.4999H79.4001V51.8999Z" fill="#D17E46"/>
<path d="M79.4001 47.2998H74.8V51.8998H79.4001V47.2998Z" fill="#EAA36E"/>
<path d="M79.4001 42.5999H74.8V47.1999H79.4001V42.5999Z" fill="#EAA36E"/>
<path d="M79.4001 38H74.8V42.6H79.4001V38Z" fill="#E5B745"/>
<path d="M79.4001 33.2998H74.8V37.8998H79.4001V33.2998Z" fill="#E5B745"/>
<path d="M79.4001 28.7H74.8V33.3H79.4001V28.7Z" fill="#E5B745"/>
<path d="M79.4001 24.0999H74.8V28.6998H79.4001V24.0999Z" fill="#E5B745"/>
<path d="M79.4001 19.3999H74.8V23.9999H79.4001V19.3999Z" fill="#E5B745"/>
<path d="M79.4001 14.7998H74.8V19.3998H79.4001V14.7998Z" fill="#F9CC73"/>
<path d="M79.4001 10.2H74.8V14.8H79.4001V10.2Z" fill="#F9CC73"/>
<path d="M74.7001 75.0999H70.1001V79.6999H74.7001V75.0999Z" fill="#B7741C"/>
<path d="M74.7001 70.3999H70.1001V74.9999H74.7001V70.3999Z" fill="#B7741C"/>
<path d="M74.7001 65.7998H70.1001V70.3998H74.7001V65.7998Z" fill="#D17E46"/>
<path d="M74.7001 61.2H70.1001V65.7999H74.7001V61.2Z" fill="#D17E46"/>
<path d="M74.7001 56.5H70.1001V61.1H74.7001V56.5Z" fill="#D17E46"/>
<path d="M74.7001 51.8999H70.1001V56.4999H74.7001V51.8999Z" fill="#D17E46"/>
<path d="M74.7001 47.2998H70.1001V51.8998H74.7001V47.2998Z" fill="#B7741C"/>
<path d="M74.7001 42.5999H70.1001V47.1999H74.7001V42.5999Z" fill="#B7741C"/>
<path d="M74.7001 38H70.1001V42.6H74.7001V38Z" fill="#B7741C"/>
<path d="M74.7001 33.2998H70.1001V37.8998H74.7001V33.2998Z" fill="#B7741C"/>
<path d="M74.7001 28.7H70.1001V33.3H74.7001V28.7Z" fill="#E5B745"/>
<path d="M74.7001 24.0999H70.1001V28.6998H74.7001V24.0999Z" fill="#E5B745"/>
<path d="M74.7001 19.3999H70.1001V23.9999H74.7001V19.3999Z" fill="#E5B745"/>
<path d="M74.7001 14.7998H70.1001V19.3998H74.7001V14.7998Z" fill="#E5B745"/>
<path d="M74.7001 10.2H70.1001V14.8H74.7001V10.2Z" fill="#F9CC73"/>
<path d="M74.7001 5.5H70.1001V10.1H74.7001V5.5Z" fill="#F9CC73"/>
<path d="M70.1 93.5999H65.5V98.1999H70.1V93.5999Z" fill="#EAA36E"/>
<path d="M70.1 89H65.5V93.6H70.1V89Z" fill="#D17E46"/>
<path d="M70.1 84.2998H65.5V88.8998H70.1V84.2998Z" fill="#E5CEBE"/>
<path d="M70.1 79.7H65.5V84.2999H70.1V79.7Z" fill="#E5CEBE"/>
<path d="M70.1 75.0999H65.5V79.6999H70.1V75.0999Z" fill="#C6B2A5"/>
<path d="M70.1 70.3999H65.5V74.9999H70.1V70.3999Z" fill="#D17E46"/>
<path d="M70.1 65.7998H65.5V70.3998H70.1V65.7998Z" fill="#D17E46"/>
<path d="M70.1 61.2H65.5V65.7999H70.1V61.2Z" fill="#D17E46"/>
<path d="M70.1 56.5H65.5V61.1H70.1V56.5Z" fill="#D17E46"/>
<path d="M70.1 51.8999H65.5V56.4999H70.1V51.8999Z" fill="#D17E46"/>
<path d="M70.1 47.2998H65.5V51.8998H70.1V47.2998Z" fill="#D17E46"/>
<path d="M70.1 42.5999H65.5V47.1999H70.1V42.5999Z" fill="#D17E46"/>
<path d="M70.1 38H65.5V42.6H70.1V38Z" fill="#D17E46"/>
<path d="M70.1 33.2998H65.5V37.8998H70.1V33.2998Z" fill="#D17E46"/>
<path d="M70.1 28.7H65.5V33.3H70.1V28.7Z" fill="#B7741C"/>
<path d="M70.1 24.0999H65.5V28.6998H70.1V24.0999Z" fill="#E5B745"/>
<path d="M70.1 19.3999H65.5V23.9999H70.1V19.3999Z" fill="#E5B745"/>
<path d="M70.1 14.7998H65.5V19.3998H70.1V14.7998Z" fill="#E5B745"/>
<path d="M70.1 10.2H65.5V14.8H70.1V10.2Z" fill="#F9CC73"/>
<path d="M70.1 5.5H65.5V10.1H70.1V5.5Z" fill="#F9CC73"/>
<path d="M65.5001 112.2H60.9001V116.8H65.5001V112.2Z" fill="#6B7187"/>
<path d="M65.5001 107.5H60.9001V112.1H65.5001V107.5Z" fill="#EAA36E"/>
<path d="M65.5001 102.9H60.9001V107.5H65.5001V102.9Z" fill="#D17E46"/>
<path d="M65.5001 98.2998H60.9001V102.9H65.5001V98.2998Z" fill="#49517C"/>
<path d="M65.5001 93.5999H60.9001V98.1999H65.5001V93.5999Z" fill="#EAA36E"/>
<path d="M65.5001 89H60.9001V93.6H65.5001V89Z" fill="#D17E46"/>
<path d="M65.5001 84.2998H60.9001V88.8998H65.5001V84.2998Z" fill="#E5CEBE"/>
<path d="M65.5001 79.7H60.9001V84.2999H65.5001V79.7Z" fill="#E5CEBE"/>
<path d="M65.5001 75.0999H60.9001V79.6999H65.5001V75.0999Z" fill="#C6B2A5"/>
<path d="M65.5001 70.3999H60.9001V74.9999H65.5001V70.3999Z" fill="#D17E46"/>
<path d="M65.5001 65.7998H60.9001V70.3998H65.5001V65.7998Z" fill="#D17E46"/>
<path d="M65.5001 61.2H60.9001V65.7999H65.5001V61.2Z" fill="#EAA36E"/>
<path d="M65.5001 56.5H60.9001V61.1H65.5001V56.5Z" fill="#EAA36E"/>
<path d="M65.5001 51.8999H60.9001V56.4999H65.5001V51.8999Z" fill="#EAA36E"/>
<path d="M65.5001 47.2998H60.9001V51.8998H65.5001V47.2998Z" fill="#21140C"/>
<path d="M65.5001 42.5999H60.9001V47.1999H65.5001V42.5999Z" fill="#21140C"/>
<path d="M65.5001 38H60.9001V42.6H65.5001V38Z" fill="#EAA36E"/>
<path d="M65.5001 33.2998H60.9001V37.8998H65.5001V33.2998Z" fill="#D17E46"/>
<path d="M65.5001 28.7H60.9001V33.3H65.5001V28.7Z" fill="#D17E46"/>
<path d="M65.5001 24.0999H60.9001V28.6998H65.5001V24.0999Z" fill="#B7741C"/>
<path d="M65.5001 19.3999H60.9001V23.9999H65.5001V19.3999Z" fill="#E5B745"/>
<path d="M65.5001 14.7998H60.9001V19.3998H65.5001V14.7998Z" fill="#E5B745"/>
<path d="M65.5001 10.2H60.9001V14.8H65.5001V10.2Z" fill="#E5B745"/>
<path d="M65.5001 5.5H60.9001V10.1H65.5001V5.5Z" fill="#F9CC73"/>
<path d="M65.5001 0.899902H60.9001V5.49991H65.5001V0.899902Z" fill="#F9CC73"/>
<path d="M60.8002 112.2H56.2002V116.8H60.8002V112.2Z" fill="#6B7187"/>
<path d="M60.8002 107.5H56.2002V112.1H60.8002V107.5Z" fill="#EAA36E"/>
<path d="M60.8002 102.9H56.2002V107.5H60.8002V102.9Z" fill="#D17E46"/>
<path d="M60.8002 98.2998H56.2002V102.9H60.8002V98.2998Z" fill="#49517C"/>
<path d="M60.8002 93.5999H56.2002V98.1999H60.8002V93.5999Z" fill="#384168"/>
<path d="M60.8002 89H56.2002V93.6H60.8002V89Z" fill="#C6B2A5"/>
<path d="M60.8002 84.2998H56.2002V88.8998H60.8002V84.2998Z" fill="#C6B2A5"/>
<path d="M60.8002 79.7H56.2002V84.2999H60.8002V79.7Z" fill="#C6B2A5"/>
<path d="M60.8002 75.0999H56.2002V79.6999H60.8002V75.0999Z" fill="#C6B2A5"/>
<path d="M60.8002 70.3999H56.2002V74.9999H60.8002V70.3999Z" fill="#D17E46"/>
<path d="M60.8002 65.7998H56.2002V70.3998H60.8002V65.7998Z" fill="#EAA36E"/>
<path d="M60.8002 61.2H56.2002V65.7999H60.8002V61.2Z" fill="#EAA36E"/>
<path d="M60.8002 56.5H56.2002V61.1H60.8002V56.5Z" fill="#EAA36E"/>
<path d="M60.8002 51.8999H56.2002V56.4999H60.8002V51.8999Z" fill="#EAA36E"/>
<path d="M60.8002 47.2998H56.2002V51.8998H60.8002V47.2998Z" fill="#21140C"/>
<path d="M60.8002 42.5999H56.2002V47.1999H60.8002V42.5999Z" fill="#422C1C"/>
<path d="M60.8002 38H56.2002V42.6H60.8002V38Z" fill="#EAA36E"/>
<path d="M60.8002 33.2998H56.2002V37.8998H60.8002V33.2998Z" fill="#EAA36E"/>
<path d="M60.8002 28.7H56.2002V33.3H60.8002V28.7Z" fill="#D17E46"/>
<path d="M60.8002 24.0999H56.2002V28.6998H60.8002V24.0999Z" fill="#B7741C"/>
<path d="M60.8002 19.3999H56.2002V23.9999H60.8002V19.3999Z" fill="#E5B745"/>
<path d="M60.8002 14.7998H56.2002V19.3998H60.8002V14.7998Z" fill="#E5B745"/>
<path d="M60.8002 10.2H56.2002V14.8H60.8002V10.2Z" fill="#E5B745"/>
<path d="M60.8002 5.5H56.2002V10.1H60.8002V5.5Z" fill="#E5B745"/>
<path d="M60.8002 0.899902H56.2002V5.49991H60.8002V0.899902Z" fill="#F9CC73"/>
<path d="M56.2001 98.2998H51.6001V102.9H56.2001V98.2998Z" fill="#49517C"/>
<path d="M56.2001 93.5999H51.6001V98.1999H56.2001V93.5999Z" fill="#384168"/>
<path d="M56.2001 89H51.6001V93.6H56.2001V89Z" fill="#E5CEBE"/>
<path d="M56.2001 84.2998H51.6001V88.8998H56.2001V84.2998Z" fill="#E5CEBE"/>
<path d="M56.2001 79.7H51.6001V84.2999H56.2001V79.7Z" fill="#E5CEBE"/>
<path d="M56.2001 75.0999H51.6001V79.6999H56.2001V75.0999Z" fill="#C6B2A5"/>
<path d="M56.2001 70.3999H51.6001V74.9999H56.2001V70.3999Z" fill="#D17E46"/>
<path d="M56.2001 65.7998H51.6001V70.3998H56.2001V65.7998Z" fill="#EAA36E"/>
<path d="M56.2001 61.2H51.6001V65.7999H56.2001V61.2Z" fill="#EAA36E"/>
<path d="M56.2001 56.5H51.6001V61.1H56.2001V56.5Z" fill="#EAA36E"/>
<path d="M56.2001 51.8999H51.6001V56.4999H56.2001V51.8999Z" fill="#FFFEFD"/>
<path d="M56.2001 47.2998H51.6001V51.8998H56.2001V47.2998Z" fill="#EAA36E"/>
<path d="M56.2001 42.5999H51.6001V47.1999H56.2001V42.5999Z" fill="#EAA36E"/>
<path d="M56.2001 38H51.6001V42.6H56.2001V38Z" fill="#EAA36E"/>
<path d="M56.2001 33.2998H51.6001V37.8998H56.2001V33.2998Z" fill="#EAA36E"/>
<path d="M56.2001 28.7H51.6001V33.3H56.2001V28.7Z" fill="#D17E46"/>
<path d="M56.2001 24.0999H51.6001V28.6998H56.2001V24.0999Z" fill="#B7741C"/>
<path d="M56.2001 19.3999H51.6001V23.9999H56.2001V19.3999Z" fill="#B7741C"/>
<path d="M56.2001 14.7998H51.6001V19.3998H56.2001V14.7998Z" fill="#E5B745"/>
<path d="M56.2001 10.2H51.6001V14.8H56.2001V10.2Z" fill="#E5B745"/>
<path d="M56.2001 5.5H51.6001V10.1H56.2001V5.5Z" fill="#E5B745"/>
<path d="M56.2001 0.899902H51.6001V5.49991H56.2001V0.899902Z" fill="#F9CC73"/>
<path d="M51.6 93.5999H47V98.1999H51.6V93.5999Z" fill="#384168"/>
<path d="M51.6 89H47V93.6H51.6V89Z" fill="#E5CEBE"/>
<path d="M51.6 84.2998H47V88.8998H51.6V84.2998Z" fill="#E5CEBE"/>
<path d="M51.6 79.7H47V84.2999H51.6V79.7Z" fill="#E5CEBE"/>
<path d="M51.6 75.0999H47V79.6999H51.6V75.0999Z" fill="#C6B2A5"/>
<path d="M51.6 70.3999H47V74.9999H51.6V70.3999Z" fill="#D17E46"/>
<path d="M51.6 65.7998H47V70.3998H51.6V65.7998Z" fill="#EAA36E"/>
<path d="M51.6 61.2H47V65.7999H51.6V61.2Z" fill="#EAA36E"/>
<path d="M51.6 56.5H47V61.1H51.6V56.5Z" fill="#FFFEFD"/>
<path d="M51.6 51.8999H47V56.4999H51.6V51.8999Z" fill="#FFFEFD"/>
<path d="M51.6 47.2998H47V51.8998H51.6V47.2998Z" fill="#EAA36E"/>
<path d="M51.6 42.5999H47V47.1999H51.6V42.5999Z" fill="#EAA36E"/>
<path d="M51.6 38H47V42.6H51.6V38Z" fill="#EAA36E"/>
<path d="M51.6 33.2998H47V37.8998H51.6V33.2998Z" fill="#EAA36E"/>
<path d="M51.6 28.7H47V33.3H51.6V28.7Z" fill="#D17E46"/>
<path d="M51.6 24.0999H47V28.6998H51.6V24.0999Z" fill="#B7741C"/>
<path d="M51.6 19.3999H47V23.9999H51.6V19.3999Z" fill="#B7741C"/>
<path d="M51.6 14.7998H47V19.3998H51.6V14.7998Z" fill="#E5B745"/>
<path d="M51.6 10.2H47V14.8H51.6V10.2Z" fill="#E5B745"/>
<path d="M51.6 5.5H47V10.1H51.6V5.5Z" fill="#E5B745"/>
<path d="M51.6 0.899902H47V5.49991H51.6V0.899902Z" fill="#F9CC73"/>
<path d="M46.9001 93.5999H42.3V98.1999H46.9001V93.5999Z" fill="#384168"/>
<path d="M46.9001 89H42.3V93.6H46.9001V89Z" fill="#E5CEBE"/>
<path d="M46.9001 84.2998H42.3V88.8998H46.9001V84.2998Z" fill="#E5CEBE"/>
<path d="M46.9001 79.7H42.3V84.2999H46.9001V79.7Z" fill="#E5CEBE"/>
<path d="M46.9001 75.0999H42.3V79.6999H46.9001V75.0999Z" fill="#C6B2A5"/>
<path d="M46.9001 70.3999H42.3V74.9999H46.9001V70.3999Z" fill="#D17E46"/>
<path d="M46.9001 65.7998H42.3V70.3998H46.9001V65.7998Z" fill="#EAA36E"/>
<path d="M46.9001 61.2H42.3V65.7999H46.9001V61.2Z" fill="#FFFEFD"/>
<path d="M46.9001 56.5H42.3V61.1H46.9001V56.5Z" fill="#FFFEFD"/>
<path d="M46.9001 51.8999H42.3V56.4999H46.9001V51.8999Z" fill="#FFFEFD"/>
<path d="M46.9001 47.2998H42.3V51.8998H46.9001V47.2998Z" fill="#EAA36E"/>
<path d="M46.9001 42.5999H42.3V47.1999H46.9001V42.5999Z" fill="#EAA36E"/>
<path d="M46.9001 38H42.3V42.6H46.9001V38Z" fill="#EAA36E"/>
<path d="M46.9001 33.2998H42.3V37.8998H46.9001V33.2998Z" fill="#EAA36E"/>
<path d="M46.9001 28.7H42.3V33.3H46.9001V28.7Z" fill="#D17E46"/>
<path d="M46.9001 24.0999H42.3V28.6998H46.9001V24.0999Z" fill="#B7741C"/>
<path d="M46.9001 19.3999H42.3V23.9999H46.9001V19.3999Z" fill="#B7741C"/>
<path d="M46.9001 14.7998H42.3V19.3998H46.9001V14.7998Z" fill="#E5B745"/>
<path d="M46.9001 10.2H42.3V14.8H46.9001V10.2Z" fill="#E5B745"/>
<path d="M46.9001 5.5H42.3V10.1H46.9001V5.5Z" fill="#E5B745"/>
<path d="M46.9001 0.899902H42.3V5.49991H46.9001V0.899902Z" fill="#F9CC73"/>
<path d="M42.3002 98.2998H37.7002V102.9H42.3002V98.2998Z" fill="#49517C"/>
<path d="M42.3002 93.5999H37.7002V98.1999H42.3002V93.5999Z" fill="#384168"/>
<path d="M42.3002 89H37.7002V93.6H42.3002V89Z" fill="#E5CEBE"/>
<path d="M42.3002 84.2998H37.7002V88.8998H42.3002V84.2998Z" fill="#E5CEBE"/>
<path d="M42.3002 79.7H37.7002V84.2999H42.3002V79.7Z" fill="#E5CEBE"/>
<path d="M42.3002 75.0999H37.7002V79.6999H42.3002V75.0999Z" fill="#C6B2A5"/>
<path d="M42.3002 70.3999H37.7002V74.9999H42.3002V70.3999Z" fill="#D17E46"/>
<path d="M42.3002 65.7998H37.7002V70.3998H42.3002V65.7998Z" fill="#EAA36E"/>
<path d="M42.3002 61.2H37.7002V65.7999H42.3002V61.2Z" fill="#FFFEFD"/>
<path d="M42.3002 56.5H37.7002V61.1H42.3002V56.5Z" fill="#FFFEFD"/>
<path d="M42.3002 51.8999H37.7002V56.4999H42.3002V51.8999Z" fill="#FFFEFD"/>
<path d="M42.3002 47.2998H37.7002V51.8998H42.3002V47.2998Z" fill="#EAA36E"/>
<path d="M42.3002 42.5999H37.7002V47.1999H42.3002V42.5999Z" fill="#EAA36E"/>
<path d="M42.3002 38H37.7002V42.6H42.3002V38Z" fill="#EAA36E"/>
<path d="M42.3002 33.2998H37.7002V37.8998H42.3002V33.2998Z" fill="#D17E46"/>
<path d="M42.3002 28.7H37.7002V33.3H42.3002V28.7Z" fill="#D17E46"/>
<path d="M42.3002 24.0999H37.7002V28.6998H42.3002V24.0999Z" fill="#B7741C"/>
<path d="M42.3002 19.3999H37.7002V23.9999H42.3002V19.3999Z" fill="#E5B745"/>
<path d="M42.3002 14.7998H37.7002V19.3998H42.3002V14.7998Z" fill="#E5B745"/>
<path d="M42.3002 10.2H37.7002V14.8H42.3002V10.2Z" fill="#F4C356"/>
<path d="M42.3002 5.5H37.7002V10.1H42.3002V5.5Z" fill="#F4C356"/>
<path d="M42.3002 0.899902H37.7002V5.49991H42.3002V0.899902Z" fill="#F9CC73"/>
<path d="M37.7001 112.2H33.1001V116.8H37.7001V112.2Z" fill="#6B7187"/>
<path d="M37.7001 107.5H33.1001V112.1H37.7001V107.5Z" fill="#EAA36E"/>
<path d="M37.7001 102.9H33.1001V107.5H37.7001V102.9Z" fill="#D17E46"/>
<path d="M37.7001 98.2998H33.1001V102.9H37.7001V98.2998Z" fill="#49517C"/>
<path d="M37.7001 93.5999H33.1001V98.1999H37.7001V93.5999Z" fill="#384168"/>
<path d="M37.7001 89H33.1001V93.6H37.7001V89Z" fill="#E5CEBE"/>
<path d="M37.7001 84.2998H33.1001V88.8998H37.7001V84.2998Z" fill="#E5CEBE"/>
<path d="M37.7001 79.7H33.1001V84.2999H37.7001V79.7Z" fill="#E5CEBE"/>
<path d="M37.7001 75.0999H33.1001V79.6999H37.7001V75.0999Z" fill="#C6B2A5"/>
<path d="M37.7001 70.3999H33.1001V74.9999H37.7001V70.3999Z" fill="#D17E46"/>
<path d="M37.7001 65.7998H33.1001V70.3998H37.7001V65.7998Z" fill="#EAA36E"/>
<path d="M37.7001 61.2H33.1001V65.7999H37.7001V61.2Z" fill="#EAA36E"/>
<path d="M37.7001 56.5H33.1001V61.1H37.7001V56.5Z" fill="#FFFEFD"/>
<path d="M37.7001 51.8999H33.1001V56.4999H37.7001V51.8999Z" fill="#FFFEFD"/>
<path d="M37.7001 47.2998H33.1001V51.8998H37.7001V47.2998Z" fill="#EAA36E"/>
<path d="M37.7001 42.5999H33.1001V47.1999H37.7001V42.5999Z" fill="#EAA36E"/>
<path d="M37.7001 38H33.1001V42.6H37.7001V38Z" fill="#EAA36E"/>
<path d="M37.7001 33.2998H33.1001V37.8998H37.7001V33.2998Z" fill="#D17E46"/>
<path d="M37.7001 28.7H33.1001V33.3H37.7001V28.7Z" fill="#B7741C"/>
<path d="M37.7001 24.0999H33.1001V28.6998H37.7001V24.0999Z" fill="#B7741C"/>
<path d="M37.7001 19.3999H33.1001V23.9999H37.7001V19.3999Z" fill="#E5B745"/>
<path d="M37.7001 14.7998H33.1001V19.3998H37.7001V14.7998Z" fill="#E5B745"/>
<path d="M37.7001 10.2H33.1001V14.8H37.7001V10.2Z" fill="#F4C356"/>
<path d="M37.7001 5.5H33.1001V10.1H37.7001V5.5Z" fill="#F4C356"/>
<path d="M37.7001 0.899902H33.1001V5.49991H37.7001V0.899902Z" fill="#F9CC73"/>
<path d="M33.0002 112.2H28.4001V116.8H33.0002V112.2Z" fill="#6B7187"/>
<path d="M33.0002 107.5H28.4001V112.1H33.0002V107.5Z" fill="#EAA36E"/>
<path d="M33.0002 102.9H28.4001V107.5H33.0002V102.9Z" fill="#D17E46"/>
<path d="M33.0002 98.2998H28.4001V102.9H33.0002V98.2998Z" fill="#49517C"/>
<path d="M33.0002 93.5999H28.4001V98.1999H33.0002V93.5999Z" fill="#384168"/>
<path d="M33.0002 89H28.4001V93.6H33.0002V89Z" fill="#E5CEBE"/>
<path d="M33.0002 84.2998H28.4001V88.8998H33.0002V84.2998Z" fill="#C6B2A5"/>
<path d="M33.0002 79.7H28.4001V84.2999H33.0002V79.7Z" fill="#C6B2A5"/>
<path d="M33.0002 75.0999H28.4001V79.6999H33.0002V75.0999Z" fill="#C6B2A5"/>
<path d="M33.0002 70.3999H28.4001V74.9999H33.0002V70.3999Z" fill="#D17E46"/>
<path d="M33.0002 65.7998H28.4001V70.3998H33.0002V65.7998Z" fill="#EAA36E"/>
<path d="M33.0002 61.2H28.4001V65.7999H33.0002V61.2Z" fill="#EAA36E"/>
<path d="M33.0002 56.5H28.4001V61.1H33.0002V56.5Z" fill="#EAA36E"/>
<path d="M33.0002 51.8999H28.4001V56.4999H33.0002V51.8999Z" fill="#FFFEFD"/>
<path d="M33.0002 47.2998H28.4001V51.8998H33.0002V47.2998Z" fill="#EAA36E"/>
<path d="M33.0002 42.5999H28.4001V47.1999H33.0002V42.5999Z" fill="#EAA36E"/>
<path d="M33.0002 38H28.4001V42.6H33.0002V38Z" fill="#EAA36E"/>
<path d="M33.0002 33.2998H28.4001V37.8998H33.0002V33.2998Z" fill="#D17E46"/>
<path d="M33.0002 28.7H28.4001V33.3H33.0002V28.7Z" fill="#B7741C"/>
<path d="M33.0002 24.0999H28.4001V28.6998H33.0002V24.0999Z" fill="#B7741C"/>
<path d="M33.0002 19.3999H28.4001V23.9999H33.0002V19.3999Z" fill="#E5B745"/>
<path d="M33.0002 14.7998H28.4001V19.3998H33.0002V14.7998Z" fill="#E5B745"/>
<path d="M33.0002 10.2H28.4001V14.8H33.0002V10.2Z" fill="#F9CC73"/>
<path d="M33.0002 5.5H28.4001V10.1H33.0002V5.5Z" fill="#F9CC73"/>
<path d="M33.0002 0.899902H28.4001V5.49991H33.0002V0.899902Z" fill="#F9CC73"/>
<path d="M28.4001 93.5999H23.8V98.1999H28.4001V93.5999Z" fill="#EAA36E"/>
<path d="M28.4001 89H23.8V93.6H28.4001V89Z" fill="#D17E46"/>
<path d="M28.4001 84.2998H23.8V88.8998H28.4001V84.2998Z" fill="#E5CEBE"/>
<path d="M28.4001 79.7H23.8V84.2999H28.4001V79.7Z" fill="#E5CEBE"/>
<path d="M28.4001 75.0999H23.8V79.6999H28.4001V75.0999Z" fill="#C6B2A5"/>
<path d="M28.4001 70.3999H23.8V74.9999H28.4001V70.3999Z" fill="#D17E46"/>
<path d="M28.4001 65.7998H23.8V70.3998H28.4001V65.7998Z" fill="#EAA36E"/>
<path d="M28.4001 61.2H23.8V65.7999H28.4001V61.2Z" fill="#EAA36E"/>
<path d="M28.4001 56.5H23.8V61.1H28.4001V56.5Z" fill="#EAA36E"/>
<path d="M28.4001 51.8999H23.8V56.4999H28.4001V51.8999Z" fill="#EAA36E"/>
<path d="M28.4001 47.2998H23.8V51.8998H28.4001V47.2998Z" fill="#21140C"/>
<path d="M28.4001 42.5999H23.8V47.1999H28.4001V42.5999Z" fill="#21140C"/>
<path d="M28.4001 38H23.8V42.6H28.4001V38Z" fill="#EAA36E"/>
<path d="M28.4001 33.2998H23.8V37.8998H28.4001V33.2998Z" fill="#D17E46"/>
<path d="M28.4001 28.7H23.8V33.3H28.4001V28.7Z" fill="#B7741C"/>
<path d="M28.4001 24.0999H23.8V28.6998H28.4001V24.0999Z" fill="#E5B745"/>
<path d="M28.4001 19.3999H23.8V23.9999H28.4001V19.3999Z" fill="#E5B745"/>
<path d="M28.4001 14.7998H23.8V19.3998H28.4001V14.7998Z" fill="#E5B745"/>
<path d="M28.4001 10.2H23.8V14.8H28.4001V10.2Z" fill="#F9CC73"/>
<path d="M28.4001 5.5H23.8V10.1H28.4001V5.5Z" fill="#F9CC73"/>
<path d="M23.7001 75.0999H19.1001V79.6999H23.7001V75.0999Z" fill="#B7741C"/>
<path d="M23.7001 70.3999H19.1001V74.9999H23.7001V70.3999Z" fill="#D17E46"/>
<path d="M23.7001 65.7998H19.1001V70.3998H23.7001V65.7998Z" fill="#EAA36E"/>
<path d="M23.7001 61.2H19.1001V65.7999H23.7001V61.2Z" fill="#EAA36E"/>
<path d="M23.7001 56.5H19.1001V61.1H23.7001V56.5Z" fill="#EAA36E"/>
<path d="M23.7001 51.8999H19.1001V56.4999H23.7001V51.8999Z" fill="#EAA36E"/>
<path d="M23.7001 47.2998H19.1001V51.8998H23.7001V47.2998Z" fill="#21140C"/>
<path d="M23.7001 42.5999H19.1001V47.1999H23.7001V42.5999Z" fill="#422C1C"/>
<path d="M23.7001 38H19.1001V42.6H23.7001V38Z" fill="#EAA36E"/>
<path d="M23.7001 33.2998H19.1001V37.8998H23.7001V33.2998Z" fill="#D17E46"/>
<path d="M23.7001 28.7H19.1001V33.3H23.7001V28.7Z" fill="#B7741C"/>
<path d="M23.7001 24.0999H19.1001V28.6998H23.7001V24.0999Z" fill="#E5B745"/>
<path d="M23.7001 19.3999H19.1001V23.9999H23.7001V19.3999Z" fill="#E5B745"/>
<path d="M23.7001 14.7998H19.1001V19.3998H23.7001V14.7998Z" fill="#F9CC73"/>
<path d="M23.7001 10.2H19.1001V14.8H23.7001V10.2Z" fill="#F9CC73"/>
<path d="M23.7001 5.5H19.1001V10.1H23.7001V5.5Z" fill="#F9CC73"/>
<path d="M19.1 75.0999H14.5V79.6999H19.1V75.0999Z" fill="#B7741C"/>
<path d="M19.1 70.3999H14.5V74.9999H19.1V70.3999Z" fill="#B7741C"/>
<path d="M19.1 65.7998H14.5V70.3998H19.1V65.7998Z" fill="#EAA36E"/>
<path d="M19.1 61.2H14.5V65.7999H19.1V61.2Z" fill="#EAA36E"/>
<path d="M19.1 56.5H14.5V61.1H19.1V56.5Z" fill="#EAA36E"/>
<path d="M19.1 51.8999H14.5V56.4999H19.1V51.8999Z" fill="#EAA36E"/>
<path d="M19.1 47.2998H14.5V51.8998H19.1V47.2998Z" fill="#EAA36E"/>
<path d="M19.1 42.5999H14.5V47.1999H19.1V42.5999Z" fill="#EAA36E"/>
<path d="M19.1 38H14.5V42.6H19.1V38Z" fill="#B7741C"/>
<path d="M19.1 33.2998H14.5V37.8998H19.1V33.2998Z" fill="#B7741C"/>
<path d="M19.1 28.7H14.5V33.3H19.1V28.7Z" fill="#E5B745"/>
<path d="M19.1 24.0999H14.5V28.6998H19.1V24.0999Z" fill="#E5B745"/>
<path d="M19.1 19.3999H14.5V23.9999H19.1V19.3999Z" fill="#E5B745"/>
<path d="M19.1 14.7998H14.5V19.3998H19.1V14.7998Z" fill="#F9CC73"/>
<path d="M14.5002 75.0999H9.90015V79.6999H14.5002V75.0999Z" fill="#B7741C"/>
<path d="M14.5002 70.3999H9.90015V74.9999H14.5002V70.3999Z" fill="#B7741C"/>
<path d="M14.5002 65.7998H9.90015V70.3998H14.5002V65.7998Z" fill="#B7741C"/>
<path d="M14.5002 61.2H9.90015V65.7999H14.5002V61.2Z" fill="#B7741C"/>
<path d="M14.5002 56.5H9.90015V61.1H14.5002V56.5Z" fill="#B7741C"/>
<path d="M14.5002 51.8999H9.90015V56.4999H14.5002V51.8999Z" fill="#B7741C"/>
<path d="M14.5002 47.2998H9.90015V51.8998H14.5002V47.2998Z" fill="#B7741C"/>
<path d="M14.5002 42.5999H9.90015V47.1999H14.5002V42.5999Z" fill="#B7741C"/>
<path d="M14.5002 38H9.90015V42.6H14.5002V38Z" fill="#B7741C"/>
<path d="M14.5002 33.2998H9.90015V37.8998H14.5002V33.2998Z" fill="#E5B745"/>
<path d="M14.5002 28.7H9.90015V33.3H14.5002V28.7Z" fill="#E5B745"/>
<path d="M14.5002 24.0999H9.90015V28.6998H14.5002V24.0999Z" fill="#E5B745"/>
<path d="M14.5002 19.3999H9.90015V23.9999H14.5002V19.3999Z" fill="#F9CC73"/>
<path d="M9.80017 75.0999H5.2002V79.6999H9.80017V75.0999Z" fill="#B7741C"/>
<path d="M9.80017 70.3999H5.2002V74.9999H9.80017V70.3999Z" fill="#B7741C"/>
<path d="M9.80017 65.7998H5.2002V70.3998H9.80017V65.7998Z" fill="#B7741C"/>
<path d="M9.80017 61.2H5.2002V65.7999H9.80017V61.2Z" fill="#B7741C"/>
<path d="M9.80017 56.5H5.2002V61.1H9.80017V56.5Z" fill="#B7741C"/>
<path d="M9.80017 51.8999H5.2002V56.4999H9.80017V51.8999Z" fill="#B7741C"/>
<path d="M9.80017 47.2998H5.2002V51.8998H9.80017V47.2998Z" fill="#B7741C"/>
<path d="M9.80017 42.5999H5.2002V47.1999H9.80017V42.5999Z" fill="#B7741C"/>
<path d="M9.80017 38H5.2002V42.6H9.80017V38Z" fill="#E5B745"/>
<path d="M9.80017 33.2998H5.2002V37.8998H9.80017V33.2998Z" fill="#E5B745"/>
<path d="M9.80017 28.7H5.2002V33.3H9.80017V28.7Z" fill="#E5B745"/>
<path d="M9.80017 24.0999H5.2002V28.6998H9.80017V24.0999Z" fill="#E5B745"/>
<path d="M9.80017 19.3999H5.2002V23.9999H9.80017V19.3999Z" fill="#F9CC73"/>
<path d="M5.2001 70.3999H0.600098V74.9999H5.2001V70.3999Z" fill="#B7741C"/>
<path d="M5.2001 65.7998H0.600098V70.3998H5.2001V65.7998Z" fill="#E5B745"/>
<path d="M5.2001 56.5H0.600098V61.1H5.2001V56.5Z" fill="#B7741C"/>
<path d="M5.2001 51.8999H0.600098V56.4999H5.2001V51.8999Z" fill="#E5B745"/>
</svg>
